%TF.GenerationSoftware,KiCad,Pcbnew,7.0.11*%
%TF.CreationDate,2024-11-26T16:26:20+01:00*%
%TF.ProjectId,Demo,44656d6f-2e6b-4696-9361-645f70636258,rev?*%
%TF.SameCoordinates,Original*%
%TF.FileFunction,Other,User*%
%FSLAX46Y46*%
G04 Gerber Fmt 4.6, Leading zero omitted, Abs format (unit mm)*
G04 Created by KiCad (PCBNEW 7.0.11) date 2024-11-26 16:26:20*
%MOMM*%
%LPD*%
G01*
G04 APERTURE LIST*
%ADD10C,0.050000*%
G04 APERTURE END LIST*
D10*
%TO.C,MOV3*%
X109500000Y-79300000D02*
X109500000Y-83200000D01*
X109500000Y-79300000D02*
X117000000Y-79300000D01*
X109500000Y-83200000D02*
X117000000Y-83200000D01*
X117000000Y-79300000D02*
X117000000Y-83200000D01*
%TO.C,X1*%
X149050000Y-93800000D02*
X143450000Y-93800000D01*
X143450000Y-93800000D02*
X143450000Y-105700000D01*
X149050000Y-105700000D02*
X149050000Y-93800000D01*
X143450000Y-105700000D02*
X149050000Y-105700000D01*
%TO.C,C9*%
X139980000Y-95500000D02*
X139980000Y-98900000D01*
X138020000Y-95500000D02*
X139980000Y-95500000D01*
X139980000Y-98900000D02*
X138020000Y-98900000D01*
X138020000Y-98900000D02*
X138020000Y-95500000D01*
%TO.C,MOV5*%
X189300000Y-85250000D02*
X185400000Y-85250000D01*
X189300000Y-85250000D02*
X189300000Y-92750000D01*
X185400000Y-85250000D02*
X185400000Y-92750000D01*
X189300000Y-92750000D02*
X185400000Y-92750000D01*
%TO.C,C12*%
X157625000Y-114710000D02*
X161025000Y-114710000D01*
X157625000Y-116670000D02*
X157625000Y-114710000D01*
X161025000Y-114710000D02*
X161025000Y-116670000D01*
X161025000Y-116670000D02*
X157625000Y-116670000D01*
%TO.C,J4*%
X200950000Y-88050000D02*
X191050000Y-88050000D01*
X200950000Y-88050000D02*
X200950000Y-97450000D01*
X191050000Y-88050000D02*
X191050000Y-97450000D01*
X200950000Y-97450000D02*
X191050000Y-97450000D01*
%TO.C,U3*%
X137562500Y-102900000D02*
X137562500Y-99750000D01*
X137562500Y-96600000D02*
X137562500Y-99750000D01*
X136162500Y-103500000D02*
X136162500Y-102900000D01*
X136162500Y-102900000D02*
X137562500Y-102900000D01*
X136162500Y-96600000D02*
X137562500Y-96600000D01*
X136162500Y-96000000D02*
X136162500Y-96600000D01*
X135562500Y-104900000D02*
X135562500Y-103500000D01*
X135562500Y-103500000D02*
X136162500Y-103500000D01*
X135562500Y-96000000D02*
X136162500Y-96000000D01*
X135562500Y-94600000D02*
X135562500Y-96000000D01*
X132412500Y-104900000D02*
X135562500Y-104900000D01*
X132412500Y-104900000D02*
X129262500Y-104900000D01*
X132412500Y-94600000D02*
X135562500Y-94600000D01*
X132412500Y-94600000D02*
X129262500Y-94600000D01*
X129262500Y-104900000D02*
X129262500Y-103500000D01*
X129262500Y-103500000D02*
X128662500Y-103500000D01*
X129262500Y-96000000D02*
X128662500Y-96000000D01*
X129262500Y-94600000D02*
X129262500Y-96000000D01*
X128662500Y-103500000D02*
X128662500Y-102900000D01*
X128662500Y-102900000D02*
X127262500Y-102900000D01*
X128662500Y-96600000D02*
X127262500Y-96600000D01*
X128662500Y-96000000D02*
X128662500Y-96600000D01*
X127262500Y-102900000D02*
X127262500Y-99750000D01*
X127262500Y-96600000D02*
X127262500Y-99750000D01*
%TO.C,R11*%
X138050000Y-93767500D02*
X138050000Y-90407500D01*
X139950000Y-93767500D02*
X138050000Y-93767500D01*
X138050000Y-90407500D02*
X139950000Y-90407500D01*
X139950000Y-90407500D02*
X139950000Y-93767500D01*
%TO.C,C14*%
X119062000Y-94970000D02*
X122462000Y-94970000D01*
X119062000Y-96930000D02*
X119062000Y-94970000D01*
X122462000Y-94970000D02*
X122462000Y-96930000D01*
X122462000Y-96930000D02*
X119062000Y-96930000D01*
%TO.C,LD5*%
X176800000Y-85750000D02*
X176800000Y-92250000D01*
X176800000Y-92250000D02*
X183250000Y-92250000D01*
X183250000Y-85750000D02*
X176800000Y-85750000D01*
X183250000Y-92250000D02*
X183250000Y-85750000D01*
%TO.C,R7*%
X113038000Y-94420000D02*
X113038000Y-89860000D01*
X115278000Y-94420000D02*
X113038000Y-94420000D01*
X113038000Y-89860000D02*
X115278000Y-89860000D01*
X115278000Y-89860000D02*
X115278000Y-94420000D01*
%TO.C,MOV4*%
X189450000Y-75750000D02*
X185550000Y-75750000D01*
X189450000Y-75750000D02*
X189450000Y-83250000D01*
X185550000Y-75750000D02*
X185550000Y-83250000D01*
X189450000Y-83250000D02*
X185550000Y-83250000D01*
%TO.C,MOV2*%
X102534000Y-91550000D02*
X102534000Y-95450000D01*
X102534000Y-91550000D02*
X110034000Y-91550000D01*
X102534000Y-95450000D02*
X110034000Y-95450000D01*
X110034000Y-91550000D02*
X110034000Y-95450000D01*
%TO.C,J2*%
X200950000Y-64050000D02*
X191050000Y-64050000D01*
X200950000Y-64050000D02*
X200950000Y-73450000D01*
X191050000Y-64050000D02*
X191050000Y-73450000D01*
X200950000Y-73450000D02*
X191050000Y-73450000D01*
%TO.C,U2*%
X156988750Y-77198750D02*
X164188750Y-77198750D01*
X164188750Y-77198750D02*
X164188750Y-68398750D01*
X156988750Y-68398750D02*
X156988750Y-77198750D01*
X164188750Y-68398750D02*
X156988750Y-68398750D01*
%TO.C,FD3*%
X187750000Y-121750000D02*
G75*
G03*
X185250000Y-121750000I-1250000J0D01*
G01*
X185250000Y-121750000D02*
G75*
G03*
X187750000Y-121750000I1250000J0D01*
G01*
%TO.C,FD2*%
X187750000Y-58000000D02*
G75*
G03*
X185250000Y-58000000I-1250000J0D01*
G01*
X185250000Y-58000000D02*
G75*
G03*
X187750000Y-58000000I1250000J0D01*
G01*
%TO.C,C5*%
X137832500Y-105762500D02*
X137832500Y-102362500D01*
X139792500Y-105762500D02*
X137832500Y-105762500D01*
X137832500Y-102362500D02*
X139792500Y-102362500D01*
X139792500Y-102362500D02*
X139792500Y-105762500D01*
%TO.C,D1*%
X153400000Y-70200000D02*
X153400000Y-68300000D01*
X153400000Y-70200000D02*
X150200000Y-70200000D01*
X153400000Y-68300000D02*
X150200000Y-68300000D01*
X150200000Y-70200000D02*
X150200000Y-68300000D01*
%TO.C,LD4*%
X176800000Y-73750000D02*
X176800000Y-80250000D01*
X176800000Y-80250000D02*
X183250000Y-80250000D01*
X183250000Y-73750000D02*
X176800000Y-73750000D01*
X183250000Y-80250000D02*
X183250000Y-73750000D01*
%TO.C,H1*%
X108450000Y-55000000D02*
G75*
G03*
X101550000Y-55000000I-3450000J0D01*
G01*
X101550000Y-55000000D02*
G75*
G03*
X108450000Y-55000000I3450000J0D01*
G01*
%TO.C,L1*%
X125748750Y-75451250D02*
X125748750Y-69451250D01*
X132448750Y-69451250D02*
X125748750Y-69451250D01*
X132448750Y-75451250D02*
X125748750Y-75451250D01*
X132448750Y-75451250D02*
X132448750Y-69451250D01*
%TO.C,H3*%
X108450000Y-125000000D02*
G75*
G03*
X101550000Y-125000000I-3450000J0D01*
G01*
X101550000Y-125000000D02*
G75*
G03*
X108450000Y-125000000I3450000J0D01*
G01*
%TO.C,J8*%
X157995000Y-94255000D02*
X157995000Y-105205000D01*
X157995000Y-94255000D02*
X171425000Y-94255000D01*
X157995000Y-105205000D02*
X171425000Y-105205000D01*
X171425000Y-94255000D02*
X171425000Y-105205000D01*
%TO.C,J1*%
X99250000Y-76000000D02*
X110250000Y-76000000D01*
X99250000Y-76000000D02*
X99250000Y-64000000D01*
X99250000Y-64000000D02*
X110250000Y-64000000D01*
X110250000Y-64000000D02*
X110250000Y-76000000D01*
%TO.C,D2*%
X153411250Y-74450000D02*
X153411250Y-72550000D01*
X153411250Y-74450000D02*
X150211250Y-74450000D01*
X153411250Y-72550000D02*
X150211250Y-72550000D01*
X150211250Y-74450000D02*
X150211250Y-72550000D01*
%TO.C,C2*%
X138800000Y-83450000D02*
X138800000Y-85550000D01*
X138800000Y-85550000D02*
X139950000Y-85550000D01*
X139950000Y-82100000D02*
X139950000Y-83450000D01*
X139950000Y-82100000D02*
X141100000Y-80950000D01*
X139950000Y-83450000D02*
X138800000Y-83450000D01*
X139950000Y-85550000D02*
X139950000Y-86900000D01*
X139950000Y-86900000D02*
X141100000Y-88050000D01*
X141100000Y-80950000D02*
X147050000Y-80950000D01*
X141100000Y-88050000D02*
X147050000Y-88050000D01*
X147050000Y-80950000D02*
X147050000Y-83450000D01*
X147050000Y-83450000D02*
X148200000Y-83450000D01*
X147050000Y-85550000D02*
X147050000Y-88050000D01*
X148200000Y-83450000D02*
X148200000Y-85550000D01*
X148200000Y-85550000D02*
X147050000Y-85550000D01*
%TO.C,C3*%
X149850000Y-83450000D02*
X149850000Y-85550000D01*
X149850000Y-85550000D02*
X151000000Y-85550000D01*
X151000000Y-82100000D02*
X151000000Y-83450000D01*
X151000000Y-82100000D02*
X152150000Y-80950000D01*
X151000000Y-83450000D02*
X149850000Y-83450000D01*
X151000000Y-85550000D02*
X151000000Y-86900000D01*
X151000000Y-86900000D02*
X152150000Y-88050000D01*
X152150000Y-80950000D02*
X158100000Y-80950000D01*
X152150000Y-88050000D02*
X158100000Y-88050000D01*
X158100000Y-80950000D02*
X158100000Y-83450000D01*
X158100000Y-83450000D02*
X159250000Y-83450000D01*
X158100000Y-85550000D02*
X158100000Y-88050000D01*
X159250000Y-83450000D02*
X159250000Y-85550000D01*
X159250000Y-85550000D02*
X158100000Y-85550000D01*
%TO.C,LD2*%
X141800000Y-56750000D02*
X141800000Y-63250000D01*
X141800000Y-63250000D02*
X148250000Y-63250000D01*
X148250000Y-56750000D02*
X141800000Y-56750000D01*
X148250000Y-63250000D02*
X148250000Y-56750000D01*
%TO.C,R4*%
X172166250Y-69821250D02*
X167606250Y-69821250D01*
X172166250Y-67581250D02*
X172166250Y-69821250D01*
X167606250Y-69821250D02*
X167606250Y-67581250D01*
X167606250Y-67581250D02*
X172166250Y-67581250D01*
%TO.C,SW1*%
X122087500Y-108000000D02*
X122087500Y-122000000D01*
X137587500Y-108000000D02*
X122087500Y-108000000D01*
X137587500Y-108000000D02*
X137587500Y-122000000D01*
X137587500Y-122000000D02*
X122087500Y-122000000D01*
%TO.C,U1*%
X134616250Y-67533750D02*
X146816250Y-67533750D01*
X134616250Y-75633750D02*
X134616250Y-67533750D01*
X146816250Y-67533750D02*
X146816250Y-75633750D01*
X146816250Y-75633750D02*
X134616250Y-75633750D01*
%TO.C,U4*%
X148540000Y-115682500D02*
X148540000Y-120422500D01*
X148540000Y-115682500D02*
X154000000Y-115682500D01*
X154000000Y-120422500D02*
X148540000Y-120422500D01*
X154000000Y-120422500D02*
X154000000Y-115682500D01*
%TO.C,MOV1*%
X185550000Y-72750000D02*
X189450000Y-72750000D01*
X185550000Y-72750000D02*
X185550000Y-65250000D01*
X189450000Y-72750000D02*
X189450000Y-65250000D01*
X185550000Y-65250000D02*
X189450000Y-65250000D01*
%TO.C,C6*%
X131352000Y-93492500D02*
X127952000Y-93492500D01*
X131352000Y-91532500D02*
X131352000Y-93492500D01*
X127952000Y-93492500D02*
X127952000Y-91532500D01*
X127952000Y-91532500D02*
X131352000Y-91532500D01*
%TO.C,F1*%
X114760000Y-66450000D02*
X114760000Y-68550000D01*
X114760000Y-68550000D02*
X121740000Y-68550000D01*
X121740000Y-66450000D02*
X114760000Y-66450000D01*
X121740000Y-68550000D02*
X121740000Y-66450000D01*
%TO.C,MOV6*%
X185550000Y-109750000D02*
X189450000Y-109750000D01*
X185550000Y-109750000D02*
X185550000Y-102250000D01*
X189450000Y-109750000D02*
X189450000Y-102250000D01*
X185550000Y-102250000D02*
X189450000Y-102250000D01*
%TO.C,C10*%
X151980000Y-99800000D02*
X151980000Y-103200000D01*
X150020000Y-99800000D02*
X151980000Y-99800000D01*
X151980000Y-103200000D02*
X150020000Y-103200000D01*
X150020000Y-103200000D02*
X150020000Y-99800000D01*
%TO.C,J7*%
X110500000Y-98100000D02*
X110500000Y-109900000D01*
X107000000Y-98100000D02*
X110500000Y-98100000D01*
X105000000Y-98100000D02*
X105000000Y-99650000D01*
X101500000Y-98110000D02*
X105000000Y-98100000D01*
X107000000Y-99650000D02*
X107000000Y-98100000D01*
X105000000Y-99650000D02*
X107000000Y-99650000D01*
X101500000Y-99650000D02*
X101500000Y-98110000D01*
X99750000Y-99650000D02*
X101500000Y-99650000D01*
X107000000Y-108350000D02*
X105000000Y-108350000D01*
X105000000Y-108350000D02*
X105000000Y-109900000D01*
X101500000Y-108350000D02*
X99750000Y-108350000D01*
X99750000Y-108350000D02*
X99750000Y-99650000D01*
X110500000Y-109900000D02*
X107000000Y-109900000D01*
X107000000Y-109900000D02*
X107000000Y-108350000D01*
X105000000Y-109900000D02*
X101500000Y-109900000D01*
X101500000Y-109900000D02*
X101500000Y-108350000D01*
%TO.C,FD1*%
X114750000Y-121500000D02*
G75*
G03*
X112250000Y-121500000I-1250000J0D01*
G01*
X112250000Y-121500000D02*
G75*
G03*
X114750000Y-121500000I1250000J0D01*
G01*
%TO.C,C8*%
X132300000Y-105270000D02*
X135700000Y-105270000D01*
X132300000Y-107230000D02*
X132300000Y-105270000D01*
X135700000Y-105270000D02*
X135700000Y-107230000D01*
X135700000Y-107230000D02*
X132300000Y-107230000D01*
%TO.C,M1*%
X139830000Y-110760000D02*
X139830000Y-114160000D01*
X139830000Y-114160000D02*
X143670000Y-114160000D01*
X143670000Y-110760000D02*
X139830000Y-110760000D01*
X143670000Y-114160000D02*
X143670000Y-110760000D01*
%TO.C,H2*%
X198450000Y-55000000D02*
G75*
G03*
X191550000Y-55000000I-3450000J0D01*
G01*
X191550000Y-55000000D02*
G75*
G03*
X198450000Y-55000000I3450000J0D01*
G01*
%TO.C,LD3*%
X120077000Y-78476000D02*
X120077000Y-84976000D01*
X120077000Y-84976000D02*
X126527000Y-84976000D01*
X126527000Y-78476000D02*
X120077000Y-78476000D01*
X126527000Y-84976000D02*
X126527000Y-78476000D01*
%TO.C,H4*%
X198450000Y-125000000D02*
G75*
G03*
X191550000Y-125000000I-3450000J0D01*
G01*
X191550000Y-125000000D02*
G75*
G03*
X198450000Y-125000000I3450000J0D01*
G01*
%TO.C,J5*%
X200950000Y-100050000D02*
X191050000Y-100050000D01*
X200950000Y-100050000D02*
X200950000Y-109450000D01*
X191050000Y-100050000D02*
X191050000Y-109450000D01*
X200950000Y-109450000D02*
X191050000Y-109450000D01*
%TO.C,U6*%
X165075000Y-111610000D02*
X165075000Y-120770000D01*
X165075000Y-120770000D02*
X172475000Y-120770000D01*
X172475000Y-111610000D02*
X165075000Y-111610000D01*
X172475000Y-120770000D02*
X172475000Y-111610000D01*
%TO.C,R6*%
X114957500Y-73930000D02*
X119517500Y-73930000D01*
X114957500Y-76170000D02*
X114957500Y-73930000D01*
X119517500Y-73930000D02*
X119517500Y-76170000D01*
X119517500Y-76170000D02*
X114957500Y-76170000D01*
%TO.C,R10*%
X174820000Y-87070000D02*
X174820000Y-91630000D01*
X172580000Y-87070000D02*
X174820000Y-87070000D01*
X174820000Y-91630000D02*
X172580000Y-91630000D01*
X172580000Y-91630000D02*
X172580000Y-87070000D01*
%TO.C,J6*%
X99050000Y-90950000D02*
X108950000Y-90950000D01*
X99050000Y-90950000D02*
X99050000Y-79050000D01*
X108950000Y-90950000D02*
X108950000Y-79050000D01*
X99050000Y-79050000D02*
X108950000Y-79050000D01*
%TO.C,R9*%
X172630000Y-85730000D02*
X172630000Y-81170000D01*
X174870000Y-85730000D02*
X172630000Y-85730000D01*
X172630000Y-81170000D02*
X174870000Y-81170000D01*
X174870000Y-81170000D02*
X174870000Y-85730000D01*
%TO.C,LD1*%
X126860000Y-56750000D02*
X126860000Y-63250000D01*
X126860000Y-63250000D02*
X133310000Y-63250000D01*
X133310000Y-56750000D02*
X126860000Y-56750000D01*
X133310000Y-63250000D02*
X133310000Y-56750000D01*
%TO.C,R1*%
X114920000Y-60480000D02*
X119480000Y-60480000D01*
X114920000Y-62720000D02*
X114920000Y-60480000D01*
X119480000Y-60480000D02*
X119480000Y-62720000D01*
X119480000Y-62720000D02*
X114920000Y-62720000D01*
%TO.C,C1*%
X127750000Y-83450000D02*
X127750000Y-85550000D01*
X127750000Y-85550000D02*
X128900000Y-85550000D01*
X128900000Y-82100000D02*
X128900000Y-83450000D01*
X128900000Y-82100000D02*
X130050000Y-80950000D01*
X128900000Y-83450000D02*
X127750000Y-83450000D01*
X128900000Y-85550000D02*
X128900000Y-86900000D01*
X128900000Y-86900000D02*
X130050000Y-88050000D01*
X130050000Y-80950000D02*
X136000000Y-80950000D01*
X130050000Y-88050000D02*
X136000000Y-88050000D01*
X136000000Y-80950000D02*
X136000000Y-83450000D01*
X136000000Y-83450000D02*
X137150000Y-83450000D01*
X136000000Y-85550000D02*
X136000000Y-88050000D01*
X137150000Y-83450000D02*
X137150000Y-85550000D01*
X137150000Y-85550000D02*
X136000000Y-85550000D01*
%TO.C,LD6*%
X176800000Y-97750000D02*
X176800000Y-104250000D01*
X176800000Y-104250000D02*
X183250000Y-104250000D01*
X183250000Y-97750000D02*
X176800000Y-97750000D01*
X183250000Y-104250000D02*
X183250000Y-97750000D01*
%TO.C,U5*%
X124716000Y-94586000D02*
X124716000Y-89186000D01*
X124716000Y-89186000D02*
X117316000Y-89186000D01*
X117316000Y-94586000D02*
X124716000Y-94586000D01*
X117316000Y-89186000D02*
X117316000Y-94586000D01*
%TO.C,R3*%
X160680000Y-111450000D02*
X157320000Y-111450000D01*
X160680000Y-109550000D02*
X160680000Y-111450000D01*
X157320000Y-111450000D02*
X157320000Y-109550000D01*
X157320000Y-109550000D02*
X160680000Y-109550000D01*
%TO.C,R2*%
X113295000Y-109455000D02*
X116655000Y-109455000D01*
X113295000Y-111355000D02*
X113295000Y-109455000D01*
X116655000Y-109455000D02*
X116655000Y-111355000D01*
X116655000Y-111355000D02*
X113295000Y-111355000D01*
%TO.C,C11*%
X151980000Y-94800000D02*
X151980000Y-98200000D01*
X150020000Y-94800000D02*
X151980000Y-94800000D01*
X151980000Y-98200000D02*
X150020000Y-98200000D01*
X150020000Y-98200000D02*
X150020000Y-94800000D01*
%TO.C,C4*%
X160900000Y-83450000D02*
X160900000Y-85550000D01*
X160900000Y-85550000D02*
X162050000Y-85550000D01*
X162050000Y-82100000D02*
X162050000Y-83450000D01*
X162050000Y-82100000D02*
X163200000Y-80950000D01*
X162050000Y-83450000D02*
X160900000Y-83450000D01*
X162050000Y-85550000D02*
X162050000Y-86900000D01*
X162050000Y-86900000D02*
X163200000Y-88050000D01*
X163200000Y-80950000D02*
X169150000Y-80950000D01*
X163200000Y-88050000D02*
X169150000Y-88050000D01*
X169150000Y-80950000D02*
X169150000Y-83450000D01*
X169150000Y-83450000D02*
X170300000Y-83450000D01*
X169150000Y-85550000D02*
X169150000Y-88050000D01*
X170300000Y-83450000D02*
X170300000Y-85550000D01*
X170300000Y-85550000D02*
X169150000Y-85550000D01*
%TO.C,C13*%
X175655000Y-111590000D02*
X175655000Y-114990000D01*
X173695000Y-111590000D02*
X175655000Y-111590000D01*
X175655000Y-114990000D02*
X173695000Y-114990000D01*
X173695000Y-114990000D02*
X173695000Y-111590000D01*
%TO.C,R8*%
X167618750Y-73181250D02*
X172178750Y-73181250D01*
X167618750Y-75421250D02*
X167618750Y-73181250D01*
X172178750Y-73181250D02*
X172178750Y-75421250D01*
X172178750Y-75421250D02*
X167618750Y-75421250D01*
%TO.C,J3*%
X200950000Y-76050000D02*
X191050000Y-76050000D01*
X200950000Y-76050000D02*
X200950000Y-85450000D01*
X191050000Y-76050000D02*
X191050000Y-85450000D01*
X200950000Y-85450000D02*
X191050000Y-85450000D01*
%TO.C,C7*%
X124608000Y-106032000D02*
X124608000Y-102632000D01*
X126568000Y-106032000D02*
X124608000Y-106032000D01*
X124608000Y-102632000D02*
X126568000Y-102632000D01*
X126568000Y-102632000D02*
X126568000Y-106032000D01*
%TO.C,R5*%
X152092500Y-111124000D02*
X148732500Y-111124000D01*
X152092500Y-109224000D02*
X152092500Y-111124000D01*
X148732500Y-111124000D02*
X148732500Y-109224000D01*
X148732500Y-109224000D02*
X152092500Y-109224000D01*
%TO.C,M2*%
X124714000Y-74790000D02*
X124714000Y-71390000D01*
X124714000Y-71390000D02*
X120874000Y-71390000D01*
X120874000Y-74790000D02*
X124714000Y-74790000D01*
X120874000Y-71390000D02*
X120874000Y-74790000D01*
%TD*%
M02*
