%TF.GenerationSoftware,KiCad,Pcbnew,7.0.11*%
%TF.CreationDate,2024-11-26T16:26:20+01:00*%
%TF.ProjectId,Demo,44656d6f-2e6b-4696-9361-645f70636258,rev?*%
%TF.SameCoordinates,Original*%
%TF.FileFunction,Legend,Top*%
%TF.FilePolarity,Positive*%
%FSLAX46Y46*%
G04 Gerber Fmt 4.6, Leading zero omitted, Abs format (unit mm)*
G04 Created by KiCad (PCBNEW 7.0.11) date 2024-11-26 16:26:20*
%MOMM*%
%LPD*%
G01*
G04 APERTURE LIST*
%ADD10C,0.200000*%
%ADD11C,0.150000*%
%ADD12C,0.100000*%
%ADD13C,0.120000*%
G04 APERTURE END LIST*
D10*
X170500000Y-124500000D02*
X190500000Y-124500000D01*
X190500000Y-129500000D01*
X170500000Y-129500000D01*
X170500000Y-124500000D01*
X155327292Y-52016028D02*
X155327292Y-53087457D01*
X155327292Y-53087457D02*
X155255863Y-53301742D01*
X155255863Y-53301742D02*
X155113006Y-53444600D01*
X155113006Y-53444600D02*
X154898720Y-53516028D01*
X154898720Y-53516028D02*
X154755863Y-53516028D01*
X156255863Y-53516028D02*
X156113006Y-53444600D01*
X156113006Y-53444600D02*
X156041577Y-53373171D01*
X156041577Y-53373171D02*
X155970149Y-53230314D01*
X155970149Y-53230314D02*
X155970149Y-52801742D01*
X155970149Y-52801742D02*
X156041577Y-52658885D01*
X156041577Y-52658885D02*
X156113006Y-52587457D01*
X156113006Y-52587457D02*
X156255863Y-52516028D01*
X156255863Y-52516028D02*
X156470149Y-52516028D01*
X156470149Y-52516028D02*
X156613006Y-52587457D01*
X156613006Y-52587457D02*
X156684435Y-52658885D01*
X156684435Y-52658885D02*
X156755863Y-52801742D01*
X156755863Y-52801742D02*
X156755863Y-53230314D01*
X156755863Y-53230314D02*
X156684435Y-53373171D01*
X156684435Y-53373171D02*
X156613006Y-53444600D01*
X156613006Y-53444600D02*
X156470149Y-53516028D01*
X156470149Y-53516028D02*
X156255863Y-53516028D01*
X157398720Y-53516028D02*
X157398720Y-52516028D01*
X157398720Y-52801742D02*
X157470149Y-52658885D01*
X157470149Y-52658885D02*
X157541578Y-52587457D01*
X157541578Y-52587457D02*
X157684435Y-52516028D01*
X157684435Y-52516028D02*
X157827292Y-52516028D01*
X158970149Y-53516028D02*
X158970149Y-52016028D01*
X158970149Y-53444600D02*
X158827291Y-53516028D01*
X158827291Y-53516028D02*
X158541577Y-53516028D01*
X158541577Y-53516028D02*
X158398720Y-53444600D01*
X158398720Y-53444600D02*
X158327291Y-53373171D01*
X158327291Y-53373171D02*
X158255863Y-53230314D01*
X158255863Y-53230314D02*
X158255863Y-52801742D01*
X158255863Y-52801742D02*
X158327291Y-52658885D01*
X158327291Y-52658885D02*
X158398720Y-52587457D01*
X158398720Y-52587457D02*
X158541577Y-52516028D01*
X158541577Y-52516028D02*
X158827291Y-52516028D01*
X158827291Y-52516028D02*
X158970149Y-52587457D01*
X159684434Y-53516028D02*
X159684434Y-52516028D01*
X159684434Y-52016028D02*
X159613006Y-52087457D01*
X159613006Y-52087457D02*
X159684434Y-52158885D01*
X159684434Y-52158885D02*
X159755863Y-52087457D01*
X159755863Y-52087457D02*
X159684434Y-52016028D01*
X159684434Y-52016028D02*
X159684434Y-52158885D01*
X162041577Y-52730314D02*
X162255863Y-52801742D01*
X162255863Y-52801742D02*
X162327292Y-52873171D01*
X162327292Y-52873171D02*
X162398720Y-53016028D01*
X162398720Y-53016028D02*
X162398720Y-53230314D01*
X162398720Y-53230314D02*
X162327292Y-53373171D01*
X162327292Y-53373171D02*
X162255863Y-53444600D01*
X162255863Y-53444600D02*
X162113006Y-53516028D01*
X162113006Y-53516028D02*
X161541577Y-53516028D01*
X161541577Y-53516028D02*
X161541577Y-52016028D01*
X161541577Y-52016028D02*
X162041577Y-52016028D01*
X162041577Y-52016028D02*
X162184435Y-52087457D01*
X162184435Y-52087457D02*
X162255863Y-52158885D01*
X162255863Y-52158885D02*
X162327292Y-52301742D01*
X162327292Y-52301742D02*
X162327292Y-52444600D01*
X162327292Y-52444600D02*
X162255863Y-52587457D01*
X162255863Y-52587457D02*
X162184435Y-52658885D01*
X162184435Y-52658885D02*
X162041577Y-52730314D01*
X162041577Y-52730314D02*
X161541577Y-52730314D01*
X163684435Y-53516028D02*
X163684435Y-52730314D01*
X163684435Y-52730314D02*
X163613006Y-52587457D01*
X163613006Y-52587457D02*
X163470149Y-52516028D01*
X163470149Y-52516028D02*
X163184435Y-52516028D01*
X163184435Y-52516028D02*
X163041577Y-52587457D01*
X163684435Y-53444600D02*
X163541577Y-53516028D01*
X163541577Y-53516028D02*
X163184435Y-53516028D01*
X163184435Y-53516028D02*
X163041577Y-53444600D01*
X163041577Y-53444600D02*
X162970149Y-53301742D01*
X162970149Y-53301742D02*
X162970149Y-53158885D01*
X162970149Y-53158885D02*
X163041577Y-53016028D01*
X163041577Y-53016028D02*
X163184435Y-52944600D01*
X163184435Y-52944600D02*
X163541577Y-52944600D01*
X163541577Y-52944600D02*
X163684435Y-52873171D01*
X164184435Y-52516028D02*
X164755863Y-52516028D01*
X164398720Y-52016028D02*
X164398720Y-53301742D01*
X164398720Y-53301742D02*
X164470149Y-53444600D01*
X164470149Y-53444600D02*
X164613006Y-53516028D01*
X164613006Y-53516028D02*
X164755863Y-53516028D01*
X165470149Y-53516028D02*
X165327292Y-53444600D01*
X165327292Y-53444600D02*
X165255863Y-53301742D01*
X165255863Y-53301742D02*
X165255863Y-52016028D01*
X166255863Y-53516028D02*
X166113006Y-53444600D01*
X166113006Y-53444600D02*
X166041577Y-53301742D01*
X166041577Y-53301742D02*
X166041577Y-52016028D01*
X167398720Y-53444600D02*
X167255863Y-53516028D01*
X167255863Y-53516028D02*
X166970149Y-53516028D01*
X166970149Y-53516028D02*
X166827291Y-53444600D01*
X166827291Y-53444600D02*
X166755863Y-53301742D01*
X166755863Y-53301742D02*
X166755863Y-52730314D01*
X166755863Y-52730314D02*
X166827291Y-52587457D01*
X166827291Y-52587457D02*
X166970149Y-52516028D01*
X166970149Y-52516028D02*
X167255863Y-52516028D01*
X167255863Y-52516028D02*
X167398720Y-52587457D01*
X167398720Y-52587457D02*
X167470149Y-52730314D01*
X167470149Y-52730314D02*
X167470149Y-52873171D01*
X167470149Y-52873171D02*
X166755863Y-53016028D01*
X155327292Y-54431028D02*
X155327292Y-55502457D01*
X155327292Y-55502457D02*
X155255863Y-55716742D01*
X155255863Y-55716742D02*
X155113006Y-55859600D01*
X155113006Y-55859600D02*
X154898720Y-55931028D01*
X154898720Y-55931028D02*
X154755863Y-55931028D01*
X156255863Y-55931028D02*
X156113006Y-55859600D01*
X156113006Y-55859600D02*
X156041577Y-55788171D01*
X156041577Y-55788171D02*
X155970149Y-55645314D01*
X155970149Y-55645314D02*
X155970149Y-55216742D01*
X155970149Y-55216742D02*
X156041577Y-55073885D01*
X156041577Y-55073885D02*
X156113006Y-55002457D01*
X156113006Y-55002457D02*
X156255863Y-54931028D01*
X156255863Y-54931028D02*
X156470149Y-54931028D01*
X156470149Y-54931028D02*
X156613006Y-55002457D01*
X156613006Y-55002457D02*
X156684435Y-55073885D01*
X156684435Y-55073885D02*
X156755863Y-55216742D01*
X156755863Y-55216742D02*
X156755863Y-55645314D01*
X156755863Y-55645314D02*
X156684435Y-55788171D01*
X156684435Y-55788171D02*
X156613006Y-55859600D01*
X156613006Y-55859600D02*
X156470149Y-55931028D01*
X156470149Y-55931028D02*
X156255863Y-55931028D01*
X158041578Y-55931028D02*
X158041578Y-55145314D01*
X158041578Y-55145314D02*
X157970149Y-55002457D01*
X157970149Y-55002457D02*
X157827292Y-54931028D01*
X157827292Y-54931028D02*
X157541578Y-54931028D01*
X157541578Y-54931028D02*
X157398720Y-55002457D01*
X158041578Y-55859600D02*
X157898720Y-55931028D01*
X157898720Y-55931028D02*
X157541578Y-55931028D01*
X157541578Y-55931028D02*
X157398720Y-55859600D01*
X157398720Y-55859600D02*
X157327292Y-55716742D01*
X157327292Y-55716742D02*
X157327292Y-55573885D01*
X157327292Y-55573885D02*
X157398720Y-55431028D01*
X157398720Y-55431028D02*
X157541578Y-55359600D01*
X157541578Y-55359600D02*
X157898720Y-55359600D01*
X157898720Y-55359600D02*
X158041578Y-55288171D01*
X159398721Y-54931028D02*
X159398721Y-56431028D01*
X159398721Y-55859600D02*
X159255863Y-55931028D01*
X159255863Y-55931028D02*
X158970149Y-55931028D01*
X158970149Y-55931028D02*
X158827292Y-55859600D01*
X158827292Y-55859600D02*
X158755863Y-55788171D01*
X158755863Y-55788171D02*
X158684435Y-55645314D01*
X158684435Y-55645314D02*
X158684435Y-55216742D01*
X158684435Y-55216742D02*
X158755863Y-55073885D01*
X158755863Y-55073885D02*
X158827292Y-55002457D01*
X158827292Y-55002457D02*
X158970149Y-54931028D01*
X158970149Y-54931028D02*
X159255863Y-54931028D01*
X159255863Y-54931028D02*
X159398721Y-55002457D01*
X160755864Y-54931028D02*
X160755864Y-55931028D01*
X160113006Y-54931028D02*
X160113006Y-55716742D01*
X160113006Y-55716742D02*
X160184435Y-55859600D01*
X160184435Y-55859600D02*
X160327292Y-55931028D01*
X160327292Y-55931028D02*
X160541578Y-55931028D01*
X160541578Y-55931028D02*
X160684435Y-55859600D01*
X160684435Y-55859600D02*
X160755864Y-55788171D01*
X161470149Y-55931028D02*
X161470149Y-54931028D01*
X161470149Y-54431028D02*
X161398721Y-54502457D01*
X161398721Y-54502457D02*
X161470149Y-54573885D01*
X161470149Y-54573885D02*
X161541578Y-54502457D01*
X161541578Y-54502457D02*
X161470149Y-54431028D01*
X161470149Y-54431028D02*
X161470149Y-54573885D01*
X162184435Y-55931028D02*
X162184435Y-54931028D01*
X162184435Y-55073885D02*
X162255864Y-55002457D01*
X162255864Y-55002457D02*
X162398721Y-54931028D01*
X162398721Y-54931028D02*
X162613007Y-54931028D01*
X162613007Y-54931028D02*
X162755864Y-55002457D01*
X162755864Y-55002457D02*
X162827293Y-55145314D01*
X162827293Y-55145314D02*
X162827293Y-55931028D01*
X162827293Y-55145314D02*
X162898721Y-55002457D01*
X162898721Y-55002457D02*
X163041578Y-54931028D01*
X163041578Y-54931028D02*
X163255864Y-54931028D01*
X163255864Y-54931028D02*
X163398721Y-55002457D01*
X163398721Y-55002457D02*
X163470150Y-55145314D01*
X163470150Y-55145314D02*
X163470150Y-55931028D01*
X165255864Y-55859600D02*
X165470150Y-55931028D01*
X165470150Y-55931028D02*
X165827292Y-55931028D01*
X165827292Y-55931028D02*
X165970150Y-55859600D01*
X165970150Y-55859600D02*
X166041578Y-55788171D01*
X166041578Y-55788171D02*
X166113007Y-55645314D01*
X166113007Y-55645314D02*
X166113007Y-55502457D01*
X166113007Y-55502457D02*
X166041578Y-55359600D01*
X166041578Y-55359600D02*
X165970150Y-55288171D01*
X165970150Y-55288171D02*
X165827292Y-55216742D01*
X165827292Y-55216742D02*
X165541578Y-55145314D01*
X165541578Y-55145314D02*
X165398721Y-55073885D01*
X165398721Y-55073885D02*
X165327292Y-55002457D01*
X165327292Y-55002457D02*
X165255864Y-54859600D01*
X165255864Y-54859600D02*
X165255864Y-54716742D01*
X165255864Y-54716742D02*
X165327292Y-54573885D01*
X165327292Y-54573885D02*
X165398721Y-54502457D01*
X165398721Y-54502457D02*
X165541578Y-54431028D01*
X165541578Y-54431028D02*
X165898721Y-54431028D01*
X165898721Y-54431028D02*
X166113007Y-54502457D01*
X166970149Y-55931028D02*
X166827292Y-55859600D01*
X166827292Y-55859600D02*
X166755863Y-55788171D01*
X166755863Y-55788171D02*
X166684435Y-55645314D01*
X166684435Y-55645314D02*
X166684435Y-55216742D01*
X166684435Y-55216742D02*
X166755863Y-55073885D01*
X166755863Y-55073885D02*
X166827292Y-55002457D01*
X166827292Y-55002457D02*
X166970149Y-54931028D01*
X166970149Y-54931028D02*
X167184435Y-54931028D01*
X167184435Y-54931028D02*
X167327292Y-55002457D01*
X167327292Y-55002457D02*
X167398721Y-55073885D01*
X167398721Y-55073885D02*
X167470149Y-55216742D01*
X167470149Y-55216742D02*
X167470149Y-55645314D01*
X167470149Y-55645314D02*
X167398721Y-55788171D01*
X167398721Y-55788171D02*
X167327292Y-55859600D01*
X167327292Y-55859600D02*
X167184435Y-55931028D01*
X167184435Y-55931028D02*
X166970149Y-55931028D01*
X168327292Y-55931028D02*
X168184435Y-55859600D01*
X168184435Y-55859600D02*
X168113006Y-55716742D01*
X168113006Y-55716742D02*
X168113006Y-54431028D01*
X169470149Y-55859600D02*
X169327292Y-55931028D01*
X169327292Y-55931028D02*
X169041578Y-55931028D01*
X169041578Y-55931028D02*
X168898720Y-55859600D01*
X168898720Y-55859600D02*
X168827292Y-55716742D01*
X168827292Y-55716742D02*
X168827292Y-55145314D01*
X168827292Y-55145314D02*
X168898720Y-55002457D01*
X168898720Y-55002457D02*
X169041578Y-54931028D01*
X169041578Y-54931028D02*
X169327292Y-54931028D01*
X169327292Y-54931028D02*
X169470149Y-55002457D01*
X169470149Y-55002457D02*
X169541578Y-55145314D01*
X169541578Y-55145314D02*
X169541578Y-55288171D01*
X169541578Y-55288171D02*
X168827292Y-55431028D01*
X170184434Y-55931028D02*
X170184434Y-54931028D01*
X170184434Y-55216742D02*
X170255863Y-55073885D01*
X170255863Y-55073885D02*
X170327292Y-55002457D01*
X170327292Y-55002457D02*
X170470149Y-54931028D01*
X170470149Y-54931028D02*
X170613006Y-54931028D01*
X154898720Y-58346028D02*
X154898720Y-56846028D01*
X154898720Y-56846028D02*
X155470149Y-56846028D01*
X155470149Y-56846028D02*
X155613006Y-56917457D01*
X155613006Y-56917457D02*
X155684435Y-56988885D01*
X155684435Y-56988885D02*
X155755863Y-57131742D01*
X155755863Y-57131742D02*
X155755863Y-57346028D01*
X155755863Y-57346028D02*
X155684435Y-57488885D01*
X155684435Y-57488885D02*
X155613006Y-57560314D01*
X155613006Y-57560314D02*
X155470149Y-57631742D01*
X155470149Y-57631742D02*
X154898720Y-57631742D01*
X157255863Y-58203171D02*
X157184435Y-58274600D01*
X157184435Y-58274600D02*
X156970149Y-58346028D01*
X156970149Y-58346028D02*
X156827292Y-58346028D01*
X156827292Y-58346028D02*
X156613006Y-58274600D01*
X156613006Y-58274600D02*
X156470149Y-58131742D01*
X156470149Y-58131742D02*
X156398720Y-57988885D01*
X156398720Y-57988885D02*
X156327292Y-57703171D01*
X156327292Y-57703171D02*
X156327292Y-57488885D01*
X156327292Y-57488885D02*
X156398720Y-57203171D01*
X156398720Y-57203171D02*
X156470149Y-57060314D01*
X156470149Y-57060314D02*
X156613006Y-56917457D01*
X156613006Y-56917457D02*
X156827292Y-56846028D01*
X156827292Y-56846028D02*
X156970149Y-56846028D01*
X156970149Y-56846028D02*
X157184435Y-56917457D01*
X157184435Y-56917457D02*
X157255863Y-56988885D01*
X158398720Y-57560314D02*
X158613006Y-57631742D01*
X158613006Y-57631742D02*
X158684435Y-57703171D01*
X158684435Y-57703171D02*
X158755863Y-57846028D01*
X158755863Y-57846028D02*
X158755863Y-58060314D01*
X158755863Y-58060314D02*
X158684435Y-58203171D01*
X158684435Y-58203171D02*
X158613006Y-58274600D01*
X158613006Y-58274600D02*
X158470149Y-58346028D01*
X158470149Y-58346028D02*
X157898720Y-58346028D01*
X157898720Y-58346028D02*
X157898720Y-56846028D01*
X157898720Y-56846028D02*
X158398720Y-56846028D01*
X158398720Y-56846028D02*
X158541578Y-56917457D01*
X158541578Y-56917457D02*
X158613006Y-56988885D01*
X158613006Y-56988885D02*
X158684435Y-57131742D01*
X158684435Y-57131742D02*
X158684435Y-57274600D01*
X158684435Y-57274600D02*
X158613006Y-57417457D01*
X158613006Y-57417457D02*
X158541578Y-57488885D01*
X158541578Y-57488885D02*
X158398720Y-57560314D01*
X158398720Y-57560314D02*
X157898720Y-57560314D01*
X161041577Y-57560314D02*
X161255863Y-57631742D01*
X161255863Y-57631742D02*
X161327292Y-57703171D01*
X161327292Y-57703171D02*
X161398720Y-57846028D01*
X161398720Y-57846028D02*
X161398720Y-58060314D01*
X161398720Y-58060314D02*
X161327292Y-58203171D01*
X161327292Y-58203171D02*
X161255863Y-58274600D01*
X161255863Y-58274600D02*
X161113006Y-58346028D01*
X161113006Y-58346028D02*
X160541577Y-58346028D01*
X160541577Y-58346028D02*
X160541577Y-56846028D01*
X160541577Y-56846028D02*
X161041577Y-56846028D01*
X161041577Y-56846028D02*
X161184435Y-56917457D01*
X161184435Y-56917457D02*
X161255863Y-56988885D01*
X161255863Y-56988885D02*
X161327292Y-57131742D01*
X161327292Y-57131742D02*
X161327292Y-57274600D01*
X161327292Y-57274600D02*
X161255863Y-57417457D01*
X161255863Y-57417457D02*
X161184435Y-57488885D01*
X161184435Y-57488885D02*
X161041577Y-57560314D01*
X161041577Y-57560314D02*
X160541577Y-57560314D01*
X162255863Y-58346028D02*
X162113006Y-58274600D01*
X162113006Y-58274600D02*
X162041577Y-58203171D01*
X162041577Y-58203171D02*
X161970149Y-58060314D01*
X161970149Y-58060314D02*
X161970149Y-57631742D01*
X161970149Y-57631742D02*
X162041577Y-57488885D01*
X162041577Y-57488885D02*
X162113006Y-57417457D01*
X162113006Y-57417457D02*
X162255863Y-57346028D01*
X162255863Y-57346028D02*
X162470149Y-57346028D01*
X162470149Y-57346028D02*
X162613006Y-57417457D01*
X162613006Y-57417457D02*
X162684435Y-57488885D01*
X162684435Y-57488885D02*
X162755863Y-57631742D01*
X162755863Y-57631742D02*
X162755863Y-58060314D01*
X162755863Y-58060314D02*
X162684435Y-58203171D01*
X162684435Y-58203171D02*
X162613006Y-58274600D01*
X162613006Y-58274600D02*
X162470149Y-58346028D01*
X162470149Y-58346028D02*
X162255863Y-58346028D01*
X164041578Y-58346028D02*
X164041578Y-57560314D01*
X164041578Y-57560314D02*
X163970149Y-57417457D01*
X163970149Y-57417457D02*
X163827292Y-57346028D01*
X163827292Y-57346028D02*
X163541578Y-57346028D01*
X163541578Y-57346028D02*
X163398720Y-57417457D01*
X164041578Y-58274600D02*
X163898720Y-58346028D01*
X163898720Y-58346028D02*
X163541578Y-58346028D01*
X163541578Y-58346028D02*
X163398720Y-58274600D01*
X163398720Y-58274600D02*
X163327292Y-58131742D01*
X163327292Y-58131742D02*
X163327292Y-57988885D01*
X163327292Y-57988885D02*
X163398720Y-57846028D01*
X163398720Y-57846028D02*
X163541578Y-57774600D01*
X163541578Y-57774600D02*
X163898720Y-57774600D01*
X163898720Y-57774600D02*
X164041578Y-57703171D01*
X164755863Y-58346028D02*
X164755863Y-57346028D01*
X164755863Y-57631742D02*
X164827292Y-57488885D01*
X164827292Y-57488885D02*
X164898721Y-57417457D01*
X164898721Y-57417457D02*
X165041578Y-57346028D01*
X165041578Y-57346028D02*
X165184435Y-57346028D01*
X166327292Y-58346028D02*
X166327292Y-56846028D01*
X166327292Y-58274600D02*
X166184434Y-58346028D01*
X166184434Y-58346028D02*
X165898720Y-58346028D01*
X165898720Y-58346028D02*
X165755863Y-58274600D01*
X165755863Y-58274600D02*
X165684434Y-58203171D01*
X165684434Y-58203171D02*
X165613006Y-58060314D01*
X165613006Y-58060314D02*
X165613006Y-57631742D01*
X165613006Y-57631742D02*
X165684434Y-57488885D01*
X165684434Y-57488885D02*
X165755863Y-57417457D01*
X165755863Y-57417457D02*
X165898720Y-57346028D01*
X165898720Y-57346028D02*
X166184434Y-57346028D01*
X166184434Y-57346028D02*
X166327292Y-57417457D01*
X168184434Y-58346028D02*
X168184434Y-56846028D01*
X168184434Y-56846028D02*
X168541577Y-56846028D01*
X168541577Y-56846028D02*
X168755863Y-56917457D01*
X168755863Y-56917457D02*
X168898720Y-57060314D01*
X168898720Y-57060314D02*
X168970149Y-57203171D01*
X168970149Y-57203171D02*
X169041577Y-57488885D01*
X169041577Y-57488885D02*
X169041577Y-57703171D01*
X169041577Y-57703171D02*
X168970149Y-57988885D01*
X168970149Y-57988885D02*
X168898720Y-58131742D01*
X168898720Y-58131742D02*
X168755863Y-58274600D01*
X168755863Y-58274600D02*
X168541577Y-58346028D01*
X168541577Y-58346028D02*
X168184434Y-58346028D01*
X170255863Y-58274600D02*
X170113006Y-58346028D01*
X170113006Y-58346028D02*
X169827292Y-58346028D01*
X169827292Y-58346028D02*
X169684434Y-58274600D01*
X169684434Y-58274600D02*
X169613006Y-58131742D01*
X169613006Y-58131742D02*
X169613006Y-57560314D01*
X169613006Y-57560314D02*
X169684434Y-57417457D01*
X169684434Y-57417457D02*
X169827292Y-57346028D01*
X169827292Y-57346028D02*
X170113006Y-57346028D01*
X170113006Y-57346028D02*
X170255863Y-57417457D01*
X170255863Y-57417457D02*
X170327292Y-57560314D01*
X170327292Y-57560314D02*
X170327292Y-57703171D01*
X170327292Y-57703171D02*
X169613006Y-57846028D01*
X170970148Y-58346028D02*
X170970148Y-57346028D01*
X170970148Y-57488885D02*
X171041577Y-57417457D01*
X171041577Y-57417457D02*
X171184434Y-57346028D01*
X171184434Y-57346028D02*
X171398720Y-57346028D01*
X171398720Y-57346028D02*
X171541577Y-57417457D01*
X171541577Y-57417457D02*
X171613006Y-57560314D01*
X171613006Y-57560314D02*
X171613006Y-58346028D01*
X171613006Y-57560314D02*
X171684434Y-57417457D01*
X171684434Y-57417457D02*
X171827291Y-57346028D01*
X171827291Y-57346028D02*
X172041577Y-57346028D01*
X172041577Y-57346028D02*
X172184434Y-57417457D01*
X172184434Y-57417457D02*
X172255863Y-57560314D01*
X172255863Y-57560314D02*
X172255863Y-58346028D01*
X173184434Y-58346028D02*
X173041577Y-58274600D01*
X173041577Y-58274600D02*
X172970148Y-58203171D01*
X172970148Y-58203171D02*
X172898720Y-58060314D01*
X172898720Y-58060314D02*
X172898720Y-57631742D01*
X172898720Y-57631742D02*
X172970148Y-57488885D01*
X172970148Y-57488885D02*
X173041577Y-57417457D01*
X173041577Y-57417457D02*
X173184434Y-57346028D01*
X173184434Y-57346028D02*
X173398720Y-57346028D01*
X173398720Y-57346028D02*
X173541577Y-57417457D01*
X173541577Y-57417457D02*
X173613006Y-57488885D01*
X173613006Y-57488885D02*
X173684434Y-57631742D01*
X173684434Y-57631742D02*
X173684434Y-58060314D01*
X173684434Y-58060314D02*
X173613006Y-58203171D01*
X173613006Y-58203171D02*
X173541577Y-58274600D01*
X173541577Y-58274600D02*
X173398720Y-58346028D01*
X173398720Y-58346028D02*
X173184434Y-58346028D01*
X175327291Y-57346028D02*
X175684434Y-58346028D01*
X175684434Y-58346028D02*
X176041577Y-57346028D01*
X177398720Y-58346028D02*
X176541577Y-58346028D01*
X176970148Y-58346028D02*
X176970148Y-56846028D01*
X176970148Y-56846028D02*
X176827291Y-57060314D01*
X176827291Y-57060314D02*
X176684434Y-57203171D01*
X176684434Y-57203171D02*
X176541577Y-57274600D01*
X178041576Y-58203171D02*
X178113005Y-58274600D01*
X178113005Y-58274600D02*
X178041576Y-58346028D01*
X178041576Y-58346028D02*
X177970148Y-58274600D01*
X177970148Y-58274600D02*
X178041576Y-58203171D01*
X178041576Y-58203171D02*
X178041576Y-58346028D01*
X179041577Y-56846028D02*
X179184434Y-56846028D01*
X179184434Y-56846028D02*
X179327291Y-56917457D01*
X179327291Y-56917457D02*
X179398720Y-56988885D01*
X179398720Y-56988885D02*
X179470148Y-57131742D01*
X179470148Y-57131742D02*
X179541577Y-57417457D01*
X179541577Y-57417457D02*
X179541577Y-57774600D01*
X179541577Y-57774600D02*
X179470148Y-58060314D01*
X179470148Y-58060314D02*
X179398720Y-58203171D01*
X179398720Y-58203171D02*
X179327291Y-58274600D01*
X179327291Y-58274600D02*
X179184434Y-58346028D01*
X179184434Y-58346028D02*
X179041577Y-58346028D01*
X179041577Y-58346028D02*
X178898720Y-58274600D01*
X178898720Y-58274600D02*
X178827291Y-58203171D01*
X178827291Y-58203171D02*
X178755862Y-58060314D01*
X178755862Y-58060314D02*
X178684434Y-57774600D01*
X178684434Y-57774600D02*
X178684434Y-57417457D01*
X178684434Y-57417457D02*
X178755862Y-57131742D01*
X178755862Y-57131742D02*
X178827291Y-56988885D01*
X178827291Y-56988885D02*
X178898720Y-56917457D01*
X178898720Y-56917457D02*
X179041577Y-56846028D01*
D11*
X111488095Y-84404819D02*
X111488095Y-83404819D01*
X111488095Y-83404819D02*
X111821428Y-84119104D01*
X111821428Y-84119104D02*
X112154761Y-83404819D01*
X112154761Y-83404819D02*
X112154761Y-84404819D01*
X112821428Y-83404819D02*
X113011904Y-83404819D01*
X113011904Y-83404819D02*
X113107142Y-83452438D01*
X113107142Y-83452438D02*
X113202380Y-83547676D01*
X113202380Y-83547676D02*
X113249999Y-83738152D01*
X113249999Y-83738152D02*
X113249999Y-84071485D01*
X113249999Y-84071485D02*
X113202380Y-84261961D01*
X113202380Y-84261961D02*
X113107142Y-84357200D01*
X113107142Y-84357200D02*
X113011904Y-84404819D01*
X113011904Y-84404819D02*
X112821428Y-84404819D01*
X112821428Y-84404819D02*
X112726190Y-84357200D01*
X112726190Y-84357200D02*
X112630952Y-84261961D01*
X112630952Y-84261961D02*
X112583333Y-84071485D01*
X112583333Y-84071485D02*
X112583333Y-83738152D01*
X112583333Y-83738152D02*
X112630952Y-83547676D01*
X112630952Y-83547676D02*
X112726190Y-83452438D01*
X112726190Y-83452438D02*
X112821428Y-83404819D01*
X113535714Y-83404819D02*
X113869047Y-84404819D01*
X113869047Y-84404819D02*
X114202380Y-83404819D01*
X114440476Y-83404819D02*
X115059523Y-83404819D01*
X115059523Y-83404819D02*
X114726190Y-83785771D01*
X114726190Y-83785771D02*
X114869047Y-83785771D01*
X114869047Y-83785771D02*
X114964285Y-83833390D01*
X114964285Y-83833390D02*
X115011904Y-83881009D01*
X115011904Y-83881009D02*
X115059523Y-83976247D01*
X115059523Y-83976247D02*
X115059523Y-84214342D01*
X115059523Y-84214342D02*
X115011904Y-84309580D01*
X115011904Y-84309580D02*
X114964285Y-84357200D01*
X114964285Y-84357200D02*
X114869047Y-84404819D01*
X114869047Y-84404819D02*
X114583333Y-84404819D01*
X114583333Y-84404819D02*
X114488095Y-84357200D01*
X114488095Y-84357200D02*
X114440476Y-84309580D01*
X145440476Y-92554819D02*
X146107142Y-93554819D01*
X146107142Y-92554819D02*
X145440476Y-93554819D01*
X147011904Y-93554819D02*
X146440476Y-93554819D01*
X146726190Y-93554819D02*
X146726190Y-92554819D01*
X146726190Y-92554819D02*
X146630952Y-92697676D01*
X146630952Y-92697676D02*
X146535714Y-92792914D01*
X146535714Y-92792914D02*
X146440476Y-92840533D01*
X141109580Y-97416666D02*
X141157200Y-97464285D01*
X141157200Y-97464285D02*
X141204819Y-97607142D01*
X141204819Y-97607142D02*
X141204819Y-97702380D01*
X141204819Y-97702380D02*
X141157200Y-97845237D01*
X141157200Y-97845237D02*
X141061961Y-97940475D01*
X141061961Y-97940475D02*
X140966723Y-97988094D01*
X140966723Y-97988094D02*
X140776247Y-98035713D01*
X140776247Y-98035713D02*
X140633390Y-98035713D01*
X140633390Y-98035713D02*
X140442914Y-97988094D01*
X140442914Y-97988094D02*
X140347676Y-97940475D01*
X140347676Y-97940475D02*
X140252438Y-97845237D01*
X140252438Y-97845237D02*
X140204819Y-97702380D01*
X140204819Y-97702380D02*
X140204819Y-97607142D01*
X140204819Y-97607142D02*
X140252438Y-97464285D01*
X140252438Y-97464285D02*
X140300057Y-97416666D01*
X141204819Y-96940475D02*
X141204819Y-96749999D01*
X141204819Y-96749999D02*
X141157200Y-96654761D01*
X141157200Y-96654761D02*
X141109580Y-96607142D01*
X141109580Y-96607142D02*
X140966723Y-96511904D01*
X140966723Y-96511904D02*
X140776247Y-96464285D01*
X140776247Y-96464285D02*
X140395295Y-96464285D01*
X140395295Y-96464285D02*
X140300057Y-96511904D01*
X140300057Y-96511904D02*
X140252438Y-96559523D01*
X140252438Y-96559523D02*
X140204819Y-96654761D01*
X140204819Y-96654761D02*
X140204819Y-96845237D01*
X140204819Y-96845237D02*
X140252438Y-96940475D01*
X140252438Y-96940475D02*
X140300057Y-96988094D01*
X140300057Y-96988094D02*
X140395295Y-97035713D01*
X140395295Y-97035713D02*
X140633390Y-97035713D01*
X140633390Y-97035713D02*
X140728628Y-96988094D01*
X140728628Y-96988094D02*
X140776247Y-96940475D01*
X140776247Y-96940475D02*
X140823866Y-96845237D01*
X140823866Y-96845237D02*
X140823866Y-96654761D01*
X140823866Y-96654761D02*
X140776247Y-96559523D01*
X140776247Y-96559523D02*
X140728628Y-96511904D01*
X140728628Y-96511904D02*
X140633390Y-96464285D01*
X185104819Y-90761904D02*
X184104819Y-90761904D01*
X184104819Y-90761904D02*
X184819104Y-90428571D01*
X184819104Y-90428571D02*
X184104819Y-90095238D01*
X184104819Y-90095238D02*
X185104819Y-90095238D01*
X184104819Y-89428571D02*
X184104819Y-89238095D01*
X184104819Y-89238095D02*
X184152438Y-89142857D01*
X184152438Y-89142857D02*
X184247676Y-89047619D01*
X184247676Y-89047619D02*
X184438152Y-89000000D01*
X184438152Y-89000000D02*
X184771485Y-89000000D01*
X184771485Y-89000000D02*
X184961961Y-89047619D01*
X184961961Y-89047619D02*
X185057200Y-89142857D01*
X185057200Y-89142857D02*
X185104819Y-89238095D01*
X185104819Y-89238095D02*
X185104819Y-89428571D01*
X185104819Y-89428571D02*
X185057200Y-89523809D01*
X185057200Y-89523809D02*
X184961961Y-89619047D01*
X184961961Y-89619047D02*
X184771485Y-89666666D01*
X184771485Y-89666666D02*
X184438152Y-89666666D01*
X184438152Y-89666666D02*
X184247676Y-89619047D01*
X184247676Y-89619047D02*
X184152438Y-89523809D01*
X184152438Y-89523809D02*
X184104819Y-89428571D01*
X184104819Y-88714285D02*
X185104819Y-88380952D01*
X185104819Y-88380952D02*
X184104819Y-88047619D01*
X184104819Y-87238095D02*
X184104819Y-87714285D01*
X184104819Y-87714285D02*
X184581009Y-87761904D01*
X184581009Y-87761904D02*
X184533390Y-87714285D01*
X184533390Y-87714285D02*
X184485771Y-87619047D01*
X184485771Y-87619047D02*
X184485771Y-87380952D01*
X184485771Y-87380952D02*
X184533390Y-87285714D01*
X184533390Y-87285714D02*
X184581009Y-87238095D01*
X184581009Y-87238095D02*
X184676247Y-87190476D01*
X184676247Y-87190476D02*
X184914342Y-87190476D01*
X184914342Y-87190476D02*
X185009580Y-87238095D01*
X185009580Y-87238095D02*
X185057200Y-87285714D01*
X185057200Y-87285714D02*
X185104819Y-87380952D01*
X185104819Y-87380952D02*
X185104819Y-87619047D01*
X185104819Y-87619047D02*
X185057200Y-87714285D01*
X185057200Y-87714285D02*
X185009580Y-87761904D01*
X158107142Y-117859580D02*
X158059523Y-117907200D01*
X158059523Y-117907200D02*
X157916666Y-117954819D01*
X157916666Y-117954819D02*
X157821428Y-117954819D01*
X157821428Y-117954819D02*
X157678571Y-117907200D01*
X157678571Y-117907200D02*
X157583333Y-117811961D01*
X157583333Y-117811961D02*
X157535714Y-117716723D01*
X157535714Y-117716723D02*
X157488095Y-117526247D01*
X157488095Y-117526247D02*
X157488095Y-117383390D01*
X157488095Y-117383390D02*
X157535714Y-117192914D01*
X157535714Y-117192914D02*
X157583333Y-117097676D01*
X157583333Y-117097676D02*
X157678571Y-117002438D01*
X157678571Y-117002438D02*
X157821428Y-116954819D01*
X157821428Y-116954819D02*
X157916666Y-116954819D01*
X157916666Y-116954819D02*
X158059523Y-117002438D01*
X158059523Y-117002438D02*
X158107142Y-117050057D01*
X159059523Y-117954819D02*
X158488095Y-117954819D01*
X158773809Y-117954819D02*
X158773809Y-116954819D01*
X158773809Y-116954819D02*
X158678571Y-117097676D01*
X158678571Y-117097676D02*
X158583333Y-117192914D01*
X158583333Y-117192914D02*
X158488095Y-117240533D01*
X159440476Y-117050057D02*
X159488095Y-117002438D01*
X159488095Y-117002438D02*
X159583333Y-116954819D01*
X159583333Y-116954819D02*
X159821428Y-116954819D01*
X159821428Y-116954819D02*
X159916666Y-117002438D01*
X159916666Y-117002438D02*
X159964285Y-117050057D01*
X159964285Y-117050057D02*
X160011904Y-117145295D01*
X160011904Y-117145295D02*
X160011904Y-117240533D01*
X160011904Y-117240533D02*
X159964285Y-117383390D01*
X159964285Y-117383390D02*
X159392857Y-117954819D01*
X159392857Y-117954819D02*
X160011904Y-117954819D01*
D12*
X189707419Y-93833333D02*
X190421704Y-93833333D01*
X190421704Y-93833333D02*
X190564561Y-93880952D01*
X190564561Y-93880952D02*
X190659800Y-93976190D01*
X190659800Y-93976190D02*
X190707419Y-94119047D01*
X190707419Y-94119047D02*
X190707419Y-94214285D01*
X190040752Y-92928571D02*
X190707419Y-92928571D01*
X189659800Y-93166666D02*
X190374085Y-93404761D01*
X190374085Y-93404761D02*
X190374085Y-92785714D01*
D11*
X136238095Y-94454819D02*
X136238095Y-95264342D01*
X136238095Y-95264342D02*
X136285714Y-95359580D01*
X136285714Y-95359580D02*
X136333333Y-95407200D01*
X136333333Y-95407200D02*
X136428571Y-95454819D01*
X136428571Y-95454819D02*
X136619047Y-95454819D01*
X136619047Y-95454819D02*
X136714285Y-95407200D01*
X136714285Y-95407200D02*
X136761904Y-95359580D01*
X136761904Y-95359580D02*
X136809523Y-95264342D01*
X136809523Y-95264342D02*
X136809523Y-94454819D01*
X137190476Y-94454819D02*
X137809523Y-94454819D01*
X137809523Y-94454819D02*
X137476190Y-94835771D01*
X137476190Y-94835771D02*
X137619047Y-94835771D01*
X137619047Y-94835771D02*
X137714285Y-94883390D01*
X137714285Y-94883390D02*
X137761904Y-94931009D01*
X137761904Y-94931009D02*
X137809523Y-95026247D01*
X137809523Y-95026247D02*
X137809523Y-95264342D01*
X137809523Y-95264342D02*
X137761904Y-95359580D01*
X137761904Y-95359580D02*
X137714285Y-95407200D01*
X137714285Y-95407200D02*
X137619047Y-95454819D01*
X137619047Y-95454819D02*
X137333333Y-95454819D01*
X137333333Y-95454819D02*
X137238095Y-95407200D01*
X137238095Y-95407200D02*
X137190476Y-95359580D01*
X141204819Y-92892857D02*
X140728628Y-93226190D01*
X141204819Y-93464285D02*
X140204819Y-93464285D01*
X140204819Y-93464285D02*
X140204819Y-93083333D01*
X140204819Y-93083333D02*
X140252438Y-92988095D01*
X140252438Y-92988095D02*
X140300057Y-92940476D01*
X140300057Y-92940476D02*
X140395295Y-92892857D01*
X140395295Y-92892857D02*
X140538152Y-92892857D01*
X140538152Y-92892857D02*
X140633390Y-92940476D01*
X140633390Y-92940476D02*
X140681009Y-92988095D01*
X140681009Y-92988095D02*
X140728628Y-93083333D01*
X140728628Y-93083333D02*
X140728628Y-93464285D01*
X141204819Y-91940476D02*
X141204819Y-92511904D01*
X141204819Y-92226190D02*
X140204819Y-92226190D01*
X140204819Y-92226190D02*
X140347676Y-92321428D01*
X140347676Y-92321428D02*
X140442914Y-92416666D01*
X140442914Y-92416666D02*
X140490533Y-92511904D01*
X141204819Y-90988095D02*
X141204819Y-91559523D01*
X141204819Y-91273809D02*
X140204819Y-91273809D01*
X140204819Y-91273809D02*
X140347676Y-91369047D01*
X140347676Y-91369047D02*
X140442914Y-91464285D01*
X140442914Y-91464285D02*
X140490533Y-91559523D01*
X118609580Y-96892857D02*
X118657200Y-96940476D01*
X118657200Y-96940476D02*
X118704819Y-97083333D01*
X118704819Y-97083333D02*
X118704819Y-97178571D01*
X118704819Y-97178571D02*
X118657200Y-97321428D01*
X118657200Y-97321428D02*
X118561961Y-97416666D01*
X118561961Y-97416666D02*
X118466723Y-97464285D01*
X118466723Y-97464285D02*
X118276247Y-97511904D01*
X118276247Y-97511904D02*
X118133390Y-97511904D01*
X118133390Y-97511904D02*
X117942914Y-97464285D01*
X117942914Y-97464285D02*
X117847676Y-97416666D01*
X117847676Y-97416666D02*
X117752438Y-97321428D01*
X117752438Y-97321428D02*
X117704819Y-97178571D01*
X117704819Y-97178571D02*
X117704819Y-97083333D01*
X117704819Y-97083333D02*
X117752438Y-96940476D01*
X117752438Y-96940476D02*
X117800057Y-96892857D01*
X118704819Y-95940476D02*
X118704819Y-96511904D01*
X118704819Y-96226190D02*
X117704819Y-96226190D01*
X117704819Y-96226190D02*
X117847676Y-96321428D01*
X117847676Y-96321428D02*
X117942914Y-96416666D01*
X117942914Y-96416666D02*
X117990533Y-96511904D01*
X118038152Y-95083333D02*
X118704819Y-95083333D01*
X117657200Y-95321428D02*
X118371485Y-95559523D01*
X118371485Y-95559523D02*
X118371485Y-94940476D01*
X179353333Y-85494819D02*
X178877143Y-85494819D01*
X178877143Y-85494819D02*
X178877143Y-84494819D01*
X179686667Y-85494819D02*
X179686667Y-84494819D01*
X179686667Y-84494819D02*
X179924762Y-84494819D01*
X179924762Y-84494819D02*
X180067619Y-84542438D01*
X180067619Y-84542438D02*
X180162857Y-84637676D01*
X180162857Y-84637676D02*
X180210476Y-84732914D01*
X180210476Y-84732914D02*
X180258095Y-84923390D01*
X180258095Y-84923390D02*
X180258095Y-85066247D01*
X180258095Y-85066247D02*
X180210476Y-85256723D01*
X180210476Y-85256723D02*
X180162857Y-85351961D01*
X180162857Y-85351961D02*
X180067619Y-85447200D01*
X180067619Y-85447200D02*
X179924762Y-85494819D01*
X179924762Y-85494819D02*
X179686667Y-85494819D01*
X181162857Y-84494819D02*
X180686667Y-84494819D01*
X180686667Y-84494819D02*
X180639048Y-84971009D01*
X180639048Y-84971009D02*
X180686667Y-84923390D01*
X180686667Y-84923390D02*
X180781905Y-84875771D01*
X180781905Y-84875771D02*
X181020000Y-84875771D01*
X181020000Y-84875771D02*
X181115238Y-84923390D01*
X181115238Y-84923390D02*
X181162857Y-84971009D01*
X181162857Y-84971009D02*
X181210476Y-85066247D01*
X181210476Y-85066247D02*
X181210476Y-85304342D01*
X181210476Y-85304342D02*
X181162857Y-85399580D01*
X181162857Y-85399580D02*
X181115238Y-85447200D01*
X181115238Y-85447200D02*
X181020000Y-85494819D01*
X181020000Y-85494819D02*
X180781905Y-85494819D01*
X180781905Y-85494819D02*
X180686667Y-85447200D01*
X180686667Y-85447200D02*
X180639048Y-85399580D01*
X112612819Y-92306666D02*
X112136628Y-92639999D01*
X112612819Y-92878094D02*
X111612819Y-92878094D01*
X111612819Y-92878094D02*
X111612819Y-92497142D01*
X111612819Y-92497142D02*
X111660438Y-92401904D01*
X111660438Y-92401904D02*
X111708057Y-92354285D01*
X111708057Y-92354285D02*
X111803295Y-92306666D01*
X111803295Y-92306666D02*
X111946152Y-92306666D01*
X111946152Y-92306666D02*
X112041390Y-92354285D01*
X112041390Y-92354285D02*
X112089009Y-92401904D01*
X112089009Y-92401904D02*
X112136628Y-92497142D01*
X112136628Y-92497142D02*
X112136628Y-92878094D01*
X111612819Y-91973332D02*
X111612819Y-91306666D01*
X111612819Y-91306666D02*
X112612819Y-91735237D01*
X185254819Y-81261904D02*
X184254819Y-81261904D01*
X184254819Y-81261904D02*
X184969104Y-80928571D01*
X184969104Y-80928571D02*
X184254819Y-80595238D01*
X184254819Y-80595238D02*
X185254819Y-80595238D01*
X184254819Y-79928571D02*
X184254819Y-79738095D01*
X184254819Y-79738095D02*
X184302438Y-79642857D01*
X184302438Y-79642857D02*
X184397676Y-79547619D01*
X184397676Y-79547619D02*
X184588152Y-79500000D01*
X184588152Y-79500000D02*
X184921485Y-79500000D01*
X184921485Y-79500000D02*
X185111961Y-79547619D01*
X185111961Y-79547619D02*
X185207200Y-79642857D01*
X185207200Y-79642857D02*
X185254819Y-79738095D01*
X185254819Y-79738095D02*
X185254819Y-79928571D01*
X185254819Y-79928571D02*
X185207200Y-80023809D01*
X185207200Y-80023809D02*
X185111961Y-80119047D01*
X185111961Y-80119047D02*
X184921485Y-80166666D01*
X184921485Y-80166666D02*
X184588152Y-80166666D01*
X184588152Y-80166666D02*
X184397676Y-80119047D01*
X184397676Y-80119047D02*
X184302438Y-80023809D01*
X184302438Y-80023809D02*
X184254819Y-79928571D01*
X184254819Y-79214285D02*
X185254819Y-78880952D01*
X185254819Y-78880952D02*
X184254819Y-78547619D01*
X184588152Y-77785714D02*
X185254819Y-77785714D01*
X184207200Y-78023809D02*
X184921485Y-78261904D01*
X184921485Y-78261904D02*
X184921485Y-77642857D01*
X104522095Y-96654819D02*
X104522095Y-95654819D01*
X104522095Y-95654819D02*
X104855428Y-96369104D01*
X104855428Y-96369104D02*
X105188761Y-95654819D01*
X105188761Y-95654819D02*
X105188761Y-96654819D01*
X105855428Y-95654819D02*
X106045904Y-95654819D01*
X106045904Y-95654819D02*
X106141142Y-95702438D01*
X106141142Y-95702438D02*
X106236380Y-95797676D01*
X106236380Y-95797676D02*
X106283999Y-95988152D01*
X106283999Y-95988152D02*
X106283999Y-96321485D01*
X106283999Y-96321485D02*
X106236380Y-96511961D01*
X106236380Y-96511961D02*
X106141142Y-96607200D01*
X106141142Y-96607200D02*
X106045904Y-96654819D01*
X106045904Y-96654819D02*
X105855428Y-96654819D01*
X105855428Y-96654819D02*
X105760190Y-96607200D01*
X105760190Y-96607200D02*
X105664952Y-96511961D01*
X105664952Y-96511961D02*
X105617333Y-96321485D01*
X105617333Y-96321485D02*
X105617333Y-95988152D01*
X105617333Y-95988152D02*
X105664952Y-95797676D01*
X105664952Y-95797676D02*
X105760190Y-95702438D01*
X105760190Y-95702438D02*
X105855428Y-95654819D01*
X106569714Y-95654819D02*
X106903047Y-96654819D01*
X106903047Y-96654819D02*
X107236380Y-95654819D01*
X107522095Y-95750057D02*
X107569714Y-95702438D01*
X107569714Y-95702438D02*
X107664952Y-95654819D01*
X107664952Y-95654819D02*
X107903047Y-95654819D01*
X107903047Y-95654819D02*
X107998285Y-95702438D01*
X107998285Y-95702438D02*
X108045904Y-95750057D01*
X108045904Y-95750057D02*
X108093523Y-95845295D01*
X108093523Y-95845295D02*
X108093523Y-95940533D01*
X108093523Y-95940533D02*
X108045904Y-96083390D01*
X108045904Y-96083390D02*
X107474476Y-96654819D01*
X107474476Y-96654819D02*
X108093523Y-96654819D01*
D12*
X189557419Y-69083333D02*
X190271704Y-69083333D01*
X190271704Y-69083333D02*
X190414561Y-69130952D01*
X190414561Y-69130952D02*
X190509800Y-69226190D01*
X190509800Y-69226190D02*
X190557419Y-69369047D01*
X190557419Y-69369047D02*
X190557419Y-69464285D01*
X189652657Y-68654761D02*
X189605038Y-68607142D01*
X189605038Y-68607142D02*
X189557419Y-68511904D01*
X189557419Y-68511904D02*
X189557419Y-68273809D01*
X189557419Y-68273809D02*
X189605038Y-68178571D01*
X189605038Y-68178571D02*
X189652657Y-68130952D01*
X189652657Y-68130952D02*
X189747895Y-68083333D01*
X189747895Y-68083333D02*
X189843133Y-68083333D01*
X189843133Y-68083333D02*
X189985990Y-68130952D01*
X189985990Y-68130952D02*
X190557419Y-68702380D01*
X190557419Y-68702380D02*
X190557419Y-68083333D01*
D11*
X155454819Y-75261904D02*
X156264342Y-75261904D01*
X156264342Y-75261904D02*
X156359580Y-75214285D01*
X156359580Y-75214285D02*
X156407200Y-75166666D01*
X156407200Y-75166666D02*
X156454819Y-75071428D01*
X156454819Y-75071428D02*
X156454819Y-74880952D01*
X156454819Y-74880952D02*
X156407200Y-74785714D01*
X156407200Y-74785714D02*
X156359580Y-74738095D01*
X156359580Y-74738095D02*
X156264342Y-74690476D01*
X156264342Y-74690476D02*
X155454819Y-74690476D01*
X155550057Y-74261904D02*
X155502438Y-74214285D01*
X155502438Y-74214285D02*
X155454819Y-74119047D01*
X155454819Y-74119047D02*
X155454819Y-73880952D01*
X155454819Y-73880952D02*
X155502438Y-73785714D01*
X155502438Y-73785714D02*
X155550057Y-73738095D01*
X155550057Y-73738095D02*
X155645295Y-73690476D01*
X155645295Y-73690476D02*
X155740533Y-73690476D01*
X155740533Y-73690476D02*
X155883390Y-73738095D01*
X155883390Y-73738095D02*
X156454819Y-74309523D01*
X156454819Y-74309523D02*
X156454819Y-73690476D01*
X141109580Y-104666666D02*
X141157200Y-104714285D01*
X141157200Y-104714285D02*
X141204819Y-104857142D01*
X141204819Y-104857142D02*
X141204819Y-104952380D01*
X141204819Y-104952380D02*
X141157200Y-105095237D01*
X141157200Y-105095237D02*
X141061961Y-105190475D01*
X141061961Y-105190475D02*
X140966723Y-105238094D01*
X140966723Y-105238094D02*
X140776247Y-105285713D01*
X140776247Y-105285713D02*
X140633390Y-105285713D01*
X140633390Y-105285713D02*
X140442914Y-105238094D01*
X140442914Y-105238094D02*
X140347676Y-105190475D01*
X140347676Y-105190475D02*
X140252438Y-105095237D01*
X140252438Y-105095237D02*
X140204819Y-104952380D01*
X140204819Y-104952380D02*
X140204819Y-104857142D01*
X140204819Y-104857142D02*
X140252438Y-104714285D01*
X140252438Y-104714285D02*
X140300057Y-104666666D01*
X140204819Y-103761904D02*
X140204819Y-104238094D01*
X140204819Y-104238094D02*
X140681009Y-104285713D01*
X140681009Y-104285713D02*
X140633390Y-104238094D01*
X140633390Y-104238094D02*
X140585771Y-104142856D01*
X140585771Y-104142856D02*
X140585771Y-103904761D01*
X140585771Y-103904761D02*
X140633390Y-103809523D01*
X140633390Y-103809523D02*
X140681009Y-103761904D01*
X140681009Y-103761904D02*
X140776247Y-103714285D01*
X140776247Y-103714285D02*
X141014342Y-103714285D01*
X141014342Y-103714285D02*
X141109580Y-103761904D01*
X141109580Y-103761904D02*
X141157200Y-103809523D01*
X141157200Y-103809523D02*
X141204819Y-103904761D01*
X141204819Y-103904761D02*
X141204819Y-104142856D01*
X141204819Y-104142856D02*
X141157200Y-104238094D01*
X141157200Y-104238094D02*
X141109580Y-104285713D01*
X151061905Y-71554819D02*
X151061905Y-70554819D01*
X151061905Y-70554819D02*
X151300000Y-70554819D01*
X151300000Y-70554819D02*
X151442857Y-70602438D01*
X151442857Y-70602438D02*
X151538095Y-70697676D01*
X151538095Y-70697676D02*
X151585714Y-70792914D01*
X151585714Y-70792914D02*
X151633333Y-70983390D01*
X151633333Y-70983390D02*
X151633333Y-71126247D01*
X151633333Y-71126247D02*
X151585714Y-71316723D01*
X151585714Y-71316723D02*
X151538095Y-71411961D01*
X151538095Y-71411961D02*
X151442857Y-71507200D01*
X151442857Y-71507200D02*
X151300000Y-71554819D01*
X151300000Y-71554819D02*
X151061905Y-71554819D01*
X152585714Y-71554819D02*
X152014286Y-71554819D01*
X152300000Y-71554819D02*
X152300000Y-70554819D01*
X152300000Y-70554819D02*
X152204762Y-70697676D01*
X152204762Y-70697676D02*
X152109524Y-70792914D01*
X152109524Y-70792914D02*
X152014286Y-70840533D01*
X179353333Y-73494819D02*
X178877143Y-73494819D01*
X178877143Y-73494819D02*
X178877143Y-72494819D01*
X179686667Y-73494819D02*
X179686667Y-72494819D01*
X179686667Y-72494819D02*
X179924762Y-72494819D01*
X179924762Y-72494819D02*
X180067619Y-72542438D01*
X180067619Y-72542438D02*
X180162857Y-72637676D01*
X180162857Y-72637676D02*
X180210476Y-72732914D01*
X180210476Y-72732914D02*
X180258095Y-72923390D01*
X180258095Y-72923390D02*
X180258095Y-73066247D01*
X180258095Y-73066247D02*
X180210476Y-73256723D01*
X180210476Y-73256723D02*
X180162857Y-73351961D01*
X180162857Y-73351961D02*
X180067619Y-73447200D01*
X180067619Y-73447200D02*
X179924762Y-73494819D01*
X179924762Y-73494819D02*
X179686667Y-73494819D01*
X181115238Y-72828152D02*
X181115238Y-73494819D01*
X180877143Y-72447200D02*
X180639048Y-73161485D01*
X180639048Y-73161485D02*
X181258095Y-73161485D01*
D12*
X129957083Y-76958669D02*
X129480893Y-76958669D01*
X129480893Y-76958669D02*
X129480893Y-75958669D01*
X130814226Y-76958669D02*
X130242798Y-76958669D01*
X130528512Y-76958669D02*
X130528512Y-75958669D01*
X130528512Y-75958669D02*
X130433274Y-76101526D01*
X130433274Y-76101526D02*
X130338036Y-76196764D01*
X130338036Y-76196764D02*
X130242798Y-76244383D01*
X164814166Y-105437419D02*
X164814166Y-106151704D01*
X164814166Y-106151704D02*
X164766547Y-106294561D01*
X164766547Y-106294561D02*
X164671309Y-106389800D01*
X164671309Y-106389800D02*
X164528452Y-106437419D01*
X164528452Y-106437419D02*
X164433214Y-106437419D01*
X165433214Y-105865990D02*
X165337976Y-105818371D01*
X165337976Y-105818371D02*
X165290357Y-105770752D01*
X165290357Y-105770752D02*
X165242738Y-105675514D01*
X165242738Y-105675514D02*
X165242738Y-105627895D01*
X165242738Y-105627895D02*
X165290357Y-105532657D01*
X165290357Y-105532657D02*
X165337976Y-105485038D01*
X165337976Y-105485038D02*
X165433214Y-105437419D01*
X165433214Y-105437419D02*
X165623690Y-105437419D01*
X165623690Y-105437419D02*
X165718928Y-105485038D01*
X165718928Y-105485038D02*
X165766547Y-105532657D01*
X165766547Y-105532657D02*
X165814166Y-105627895D01*
X165814166Y-105627895D02*
X165814166Y-105675514D01*
X165814166Y-105675514D02*
X165766547Y-105770752D01*
X165766547Y-105770752D02*
X165718928Y-105818371D01*
X165718928Y-105818371D02*
X165623690Y-105865990D01*
X165623690Y-105865990D02*
X165433214Y-105865990D01*
X165433214Y-105865990D02*
X165337976Y-105913609D01*
X165337976Y-105913609D02*
X165290357Y-105961228D01*
X165290357Y-105961228D02*
X165242738Y-106056466D01*
X165242738Y-106056466D02*
X165242738Y-106246942D01*
X165242738Y-106246942D02*
X165290357Y-106342180D01*
X165290357Y-106342180D02*
X165337976Y-106389800D01*
X165337976Y-106389800D02*
X165433214Y-106437419D01*
X165433214Y-106437419D02*
X165623690Y-106437419D01*
X165623690Y-106437419D02*
X165718928Y-106389800D01*
X165718928Y-106389800D02*
X165766547Y-106342180D01*
X165766547Y-106342180D02*
X165814166Y-106246942D01*
X165814166Y-106246942D02*
X165814166Y-106056466D01*
X165814166Y-106056466D02*
X165766547Y-105961228D01*
X165766547Y-105961228D02*
X165718928Y-105913609D01*
X165718928Y-105913609D02*
X165623690Y-105865990D01*
X109957419Y-70083333D02*
X110671704Y-70083333D01*
X110671704Y-70083333D02*
X110814561Y-70130952D01*
X110814561Y-70130952D02*
X110909800Y-70226190D01*
X110909800Y-70226190D02*
X110957419Y-70369047D01*
X110957419Y-70369047D02*
X110957419Y-70464285D01*
X110957419Y-69083333D02*
X110957419Y-69654761D01*
X110957419Y-69369047D02*
X109957419Y-69369047D01*
X109957419Y-69369047D02*
X110100276Y-69464285D01*
X110100276Y-69464285D02*
X110195514Y-69559523D01*
X110195514Y-69559523D02*
X110243133Y-69654761D01*
D11*
X151073155Y-75804819D02*
X151073155Y-74804819D01*
X151073155Y-74804819D02*
X151311250Y-74804819D01*
X151311250Y-74804819D02*
X151454107Y-74852438D01*
X151454107Y-74852438D02*
X151549345Y-74947676D01*
X151549345Y-74947676D02*
X151596964Y-75042914D01*
X151596964Y-75042914D02*
X151644583Y-75233390D01*
X151644583Y-75233390D02*
X151644583Y-75376247D01*
X151644583Y-75376247D02*
X151596964Y-75566723D01*
X151596964Y-75566723D02*
X151549345Y-75661961D01*
X151549345Y-75661961D02*
X151454107Y-75757200D01*
X151454107Y-75757200D02*
X151311250Y-75804819D01*
X151311250Y-75804819D02*
X151073155Y-75804819D01*
X152025536Y-74900057D02*
X152073155Y-74852438D01*
X152073155Y-74852438D02*
X152168393Y-74804819D01*
X152168393Y-74804819D02*
X152406488Y-74804819D01*
X152406488Y-74804819D02*
X152501726Y-74852438D01*
X152501726Y-74852438D02*
X152549345Y-74900057D01*
X152549345Y-74900057D02*
X152596964Y-74995295D01*
X152596964Y-74995295D02*
X152596964Y-75090533D01*
X152596964Y-75090533D02*
X152549345Y-75233390D01*
X152549345Y-75233390D02*
X151977917Y-75804819D01*
X151977917Y-75804819D02*
X152596964Y-75804819D01*
X143333333Y-80509580D02*
X143285714Y-80557200D01*
X143285714Y-80557200D02*
X143142857Y-80604819D01*
X143142857Y-80604819D02*
X143047619Y-80604819D01*
X143047619Y-80604819D02*
X142904762Y-80557200D01*
X142904762Y-80557200D02*
X142809524Y-80461961D01*
X142809524Y-80461961D02*
X142761905Y-80366723D01*
X142761905Y-80366723D02*
X142714286Y-80176247D01*
X142714286Y-80176247D02*
X142714286Y-80033390D01*
X142714286Y-80033390D02*
X142761905Y-79842914D01*
X142761905Y-79842914D02*
X142809524Y-79747676D01*
X142809524Y-79747676D02*
X142904762Y-79652438D01*
X142904762Y-79652438D02*
X143047619Y-79604819D01*
X143047619Y-79604819D02*
X143142857Y-79604819D01*
X143142857Y-79604819D02*
X143285714Y-79652438D01*
X143285714Y-79652438D02*
X143333333Y-79700057D01*
X143714286Y-79700057D02*
X143761905Y-79652438D01*
X143761905Y-79652438D02*
X143857143Y-79604819D01*
X143857143Y-79604819D02*
X144095238Y-79604819D01*
X144095238Y-79604819D02*
X144190476Y-79652438D01*
X144190476Y-79652438D02*
X144238095Y-79700057D01*
X144238095Y-79700057D02*
X144285714Y-79795295D01*
X144285714Y-79795295D02*
X144285714Y-79890533D01*
X144285714Y-79890533D02*
X144238095Y-80033390D01*
X144238095Y-80033390D02*
X143666667Y-80604819D01*
X143666667Y-80604819D02*
X144285714Y-80604819D01*
X154383333Y-80509580D02*
X154335714Y-80557200D01*
X154335714Y-80557200D02*
X154192857Y-80604819D01*
X154192857Y-80604819D02*
X154097619Y-80604819D01*
X154097619Y-80604819D02*
X153954762Y-80557200D01*
X153954762Y-80557200D02*
X153859524Y-80461961D01*
X153859524Y-80461961D02*
X153811905Y-80366723D01*
X153811905Y-80366723D02*
X153764286Y-80176247D01*
X153764286Y-80176247D02*
X153764286Y-80033390D01*
X153764286Y-80033390D02*
X153811905Y-79842914D01*
X153811905Y-79842914D02*
X153859524Y-79747676D01*
X153859524Y-79747676D02*
X153954762Y-79652438D01*
X153954762Y-79652438D02*
X154097619Y-79604819D01*
X154097619Y-79604819D02*
X154192857Y-79604819D01*
X154192857Y-79604819D02*
X154335714Y-79652438D01*
X154335714Y-79652438D02*
X154383333Y-79700057D01*
X154716667Y-79604819D02*
X155335714Y-79604819D01*
X155335714Y-79604819D02*
X155002381Y-79985771D01*
X155002381Y-79985771D02*
X155145238Y-79985771D01*
X155145238Y-79985771D02*
X155240476Y-80033390D01*
X155240476Y-80033390D02*
X155288095Y-80081009D01*
X155288095Y-80081009D02*
X155335714Y-80176247D01*
X155335714Y-80176247D02*
X155335714Y-80414342D01*
X155335714Y-80414342D02*
X155288095Y-80509580D01*
X155288095Y-80509580D02*
X155240476Y-80557200D01*
X155240476Y-80557200D02*
X155145238Y-80604819D01*
X155145238Y-80604819D02*
X154859524Y-80604819D01*
X154859524Y-80604819D02*
X154764286Y-80557200D01*
X154764286Y-80557200D02*
X154716667Y-80509580D01*
X144353333Y-56494819D02*
X143877143Y-56494819D01*
X143877143Y-56494819D02*
X143877143Y-55494819D01*
X144686667Y-56494819D02*
X144686667Y-55494819D01*
X144686667Y-55494819D02*
X144924762Y-55494819D01*
X144924762Y-55494819D02*
X145067619Y-55542438D01*
X145067619Y-55542438D02*
X145162857Y-55637676D01*
X145162857Y-55637676D02*
X145210476Y-55732914D01*
X145210476Y-55732914D02*
X145258095Y-55923390D01*
X145258095Y-55923390D02*
X145258095Y-56066247D01*
X145258095Y-56066247D02*
X145210476Y-56256723D01*
X145210476Y-56256723D02*
X145162857Y-56351961D01*
X145162857Y-56351961D02*
X145067619Y-56447200D01*
X145067619Y-56447200D02*
X144924762Y-56494819D01*
X144924762Y-56494819D02*
X144686667Y-56494819D01*
X145639048Y-55590057D02*
X145686667Y-55542438D01*
X145686667Y-55542438D02*
X145781905Y-55494819D01*
X145781905Y-55494819D02*
X146020000Y-55494819D01*
X146020000Y-55494819D02*
X146115238Y-55542438D01*
X146115238Y-55542438D02*
X146162857Y-55590057D01*
X146162857Y-55590057D02*
X146210476Y-55685295D01*
X146210476Y-55685295D02*
X146210476Y-55780533D01*
X146210476Y-55780533D02*
X146162857Y-55923390D01*
X146162857Y-55923390D02*
X145591429Y-56494819D01*
X145591429Y-56494819D02*
X146210476Y-56494819D01*
X169719583Y-70976069D02*
X169386250Y-70499878D01*
X169148155Y-70976069D02*
X169148155Y-69976069D01*
X169148155Y-69976069D02*
X169529107Y-69976069D01*
X169529107Y-69976069D02*
X169624345Y-70023688D01*
X169624345Y-70023688D02*
X169671964Y-70071307D01*
X169671964Y-70071307D02*
X169719583Y-70166545D01*
X169719583Y-70166545D02*
X169719583Y-70309402D01*
X169719583Y-70309402D02*
X169671964Y-70404640D01*
X169671964Y-70404640D02*
X169624345Y-70452259D01*
X169624345Y-70452259D02*
X169529107Y-70499878D01*
X169529107Y-70499878D02*
X169148155Y-70499878D01*
X170576726Y-70309402D02*
X170576726Y-70976069D01*
X170338631Y-69928450D02*
X170100536Y-70642735D01*
X170100536Y-70642735D02*
X170719583Y-70642735D01*
D12*
X132416667Y-122409800D02*
X132559524Y-122457419D01*
X132559524Y-122457419D02*
X132797619Y-122457419D01*
X132797619Y-122457419D02*
X132892857Y-122409800D01*
X132892857Y-122409800D02*
X132940476Y-122362180D01*
X132940476Y-122362180D02*
X132988095Y-122266942D01*
X132988095Y-122266942D02*
X132988095Y-122171704D01*
X132988095Y-122171704D02*
X132940476Y-122076466D01*
X132940476Y-122076466D02*
X132892857Y-122028847D01*
X132892857Y-122028847D02*
X132797619Y-121981228D01*
X132797619Y-121981228D02*
X132607143Y-121933609D01*
X132607143Y-121933609D02*
X132511905Y-121885990D01*
X132511905Y-121885990D02*
X132464286Y-121838371D01*
X132464286Y-121838371D02*
X132416667Y-121743133D01*
X132416667Y-121743133D02*
X132416667Y-121647895D01*
X132416667Y-121647895D02*
X132464286Y-121552657D01*
X132464286Y-121552657D02*
X132511905Y-121505038D01*
X132511905Y-121505038D02*
X132607143Y-121457419D01*
X132607143Y-121457419D02*
X132845238Y-121457419D01*
X132845238Y-121457419D02*
X132988095Y-121505038D01*
X133321429Y-121457419D02*
X133559524Y-122457419D01*
X133559524Y-122457419D02*
X133750000Y-121743133D01*
X133750000Y-121743133D02*
X133940476Y-122457419D01*
X133940476Y-122457419D02*
X134178572Y-121457419D01*
X135083333Y-122457419D02*
X134511905Y-122457419D01*
X134797619Y-122457419D02*
X134797619Y-121457419D01*
X134797619Y-121457419D02*
X134702381Y-121600276D01*
X134702381Y-121600276D02*
X134607143Y-121695514D01*
X134607143Y-121695514D02*
X134511905Y-121743133D01*
D11*
X140299345Y-65206069D02*
X140299345Y-66015592D01*
X140299345Y-66015592D02*
X140346964Y-66110830D01*
X140346964Y-66110830D02*
X140394583Y-66158450D01*
X140394583Y-66158450D02*
X140489821Y-66206069D01*
X140489821Y-66206069D02*
X140680297Y-66206069D01*
X140680297Y-66206069D02*
X140775535Y-66158450D01*
X140775535Y-66158450D02*
X140823154Y-66110830D01*
X140823154Y-66110830D02*
X140870773Y-66015592D01*
X140870773Y-66015592D02*
X140870773Y-65206069D01*
X141870773Y-66206069D02*
X141299345Y-66206069D01*
X141585059Y-66206069D02*
X141585059Y-65206069D01*
X141585059Y-65206069D02*
X141489821Y-65348926D01*
X141489821Y-65348926D02*
X141394583Y-65444164D01*
X141394583Y-65444164D02*
X141299345Y-65491783D01*
X150508095Y-114307319D02*
X150508095Y-115116842D01*
X150508095Y-115116842D02*
X150555714Y-115212080D01*
X150555714Y-115212080D02*
X150603333Y-115259700D01*
X150603333Y-115259700D02*
X150698571Y-115307319D01*
X150698571Y-115307319D02*
X150889047Y-115307319D01*
X150889047Y-115307319D02*
X150984285Y-115259700D01*
X150984285Y-115259700D02*
X151031904Y-115212080D01*
X151031904Y-115212080D02*
X151079523Y-115116842D01*
X151079523Y-115116842D02*
X151079523Y-114307319D01*
X151984285Y-114640652D02*
X151984285Y-115307319D01*
X151746190Y-114259700D02*
X151508095Y-114973985D01*
X151508095Y-114973985D02*
X152127142Y-114973985D01*
X184954819Y-70511904D02*
X183954819Y-70511904D01*
X183954819Y-70511904D02*
X184669104Y-70178571D01*
X184669104Y-70178571D02*
X183954819Y-69845238D01*
X183954819Y-69845238D02*
X184954819Y-69845238D01*
X183954819Y-69178571D02*
X183954819Y-68988095D01*
X183954819Y-68988095D02*
X184002438Y-68892857D01*
X184002438Y-68892857D02*
X184097676Y-68797619D01*
X184097676Y-68797619D02*
X184288152Y-68750000D01*
X184288152Y-68750000D02*
X184621485Y-68750000D01*
X184621485Y-68750000D02*
X184811961Y-68797619D01*
X184811961Y-68797619D02*
X184907200Y-68892857D01*
X184907200Y-68892857D02*
X184954819Y-68988095D01*
X184954819Y-68988095D02*
X184954819Y-69178571D01*
X184954819Y-69178571D02*
X184907200Y-69273809D01*
X184907200Y-69273809D02*
X184811961Y-69369047D01*
X184811961Y-69369047D02*
X184621485Y-69416666D01*
X184621485Y-69416666D02*
X184288152Y-69416666D01*
X184288152Y-69416666D02*
X184097676Y-69369047D01*
X184097676Y-69369047D02*
X184002438Y-69273809D01*
X184002438Y-69273809D02*
X183954819Y-69178571D01*
X183954819Y-68464285D02*
X184954819Y-68130952D01*
X184954819Y-68130952D02*
X183954819Y-67797619D01*
X184954819Y-66940476D02*
X184954819Y-67511904D01*
X184954819Y-67226190D02*
X183954819Y-67226190D01*
X183954819Y-67226190D02*
X184097676Y-67321428D01*
X184097676Y-67321428D02*
X184192914Y-67416666D01*
X184192914Y-67416666D02*
X184240533Y-67511904D01*
X129435333Y-91222080D02*
X129387714Y-91269700D01*
X129387714Y-91269700D02*
X129244857Y-91317319D01*
X129244857Y-91317319D02*
X129149619Y-91317319D01*
X129149619Y-91317319D02*
X129006762Y-91269700D01*
X129006762Y-91269700D02*
X128911524Y-91174461D01*
X128911524Y-91174461D02*
X128863905Y-91079223D01*
X128863905Y-91079223D02*
X128816286Y-90888747D01*
X128816286Y-90888747D02*
X128816286Y-90745890D01*
X128816286Y-90745890D02*
X128863905Y-90555414D01*
X128863905Y-90555414D02*
X128911524Y-90460176D01*
X128911524Y-90460176D02*
X129006762Y-90364938D01*
X129006762Y-90364938D02*
X129149619Y-90317319D01*
X129149619Y-90317319D02*
X129244857Y-90317319D01*
X129244857Y-90317319D02*
X129387714Y-90364938D01*
X129387714Y-90364938D02*
X129435333Y-90412557D01*
X130292476Y-90317319D02*
X130102000Y-90317319D01*
X130102000Y-90317319D02*
X130006762Y-90364938D01*
X130006762Y-90364938D02*
X129959143Y-90412557D01*
X129959143Y-90412557D02*
X129863905Y-90555414D01*
X129863905Y-90555414D02*
X129816286Y-90745890D01*
X129816286Y-90745890D02*
X129816286Y-91126842D01*
X129816286Y-91126842D02*
X129863905Y-91222080D01*
X129863905Y-91222080D02*
X129911524Y-91269700D01*
X129911524Y-91269700D02*
X130006762Y-91317319D01*
X130006762Y-91317319D02*
X130197238Y-91317319D01*
X130197238Y-91317319D02*
X130292476Y-91269700D01*
X130292476Y-91269700D02*
X130340095Y-91222080D01*
X130340095Y-91222080D02*
X130387714Y-91126842D01*
X130387714Y-91126842D02*
X130387714Y-90888747D01*
X130387714Y-90888747D02*
X130340095Y-90793509D01*
X130340095Y-90793509D02*
X130292476Y-90745890D01*
X130292476Y-90745890D02*
X130197238Y-90698271D01*
X130197238Y-90698271D02*
X130006762Y-90698271D01*
X130006762Y-90698271D02*
X129911524Y-90745890D01*
X129911524Y-90745890D02*
X129863905Y-90793509D01*
X129863905Y-90793509D02*
X129816286Y-90888747D01*
X117916666Y-65511009D02*
X117583333Y-65511009D01*
X117583333Y-66034819D02*
X117583333Y-65034819D01*
X117583333Y-65034819D02*
X118059523Y-65034819D01*
X118964285Y-66034819D02*
X118392857Y-66034819D01*
X118678571Y-66034819D02*
X118678571Y-65034819D01*
X118678571Y-65034819D02*
X118583333Y-65177676D01*
X118583333Y-65177676D02*
X118488095Y-65272914D01*
X118488095Y-65272914D02*
X118392857Y-65320533D01*
X185204819Y-107511904D02*
X184204819Y-107511904D01*
X184204819Y-107511904D02*
X184919104Y-107178571D01*
X184919104Y-107178571D02*
X184204819Y-106845238D01*
X184204819Y-106845238D02*
X185204819Y-106845238D01*
X184204819Y-106178571D02*
X184204819Y-105988095D01*
X184204819Y-105988095D02*
X184252438Y-105892857D01*
X184252438Y-105892857D02*
X184347676Y-105797619D01*
X184347676Y-105797619D02*
X184538152Y-105750000D01*
X184538152Y-105750000D02*
X184871485Y-105750000D01*
X184871485Y-105750000D02*
X185061961Y-105797619D01*
X185061961Y-105797619D02*
X185157200Y-105892857D01*
X185157200Y-105892857D02*
X185204819Y-105988095D01*
X185204819Y-105988095D02*
X185204819Y-106178571D01*
X185204819Y-106178571D02*
X185157200Y-106273809D01*
X185157200Y-106273809D02*
X185061961Y-106369047D01*
X185061961Y-106369047D02*
X184871485Y-106416666D01*
X184871485Y-106416666D02*
X184538152Y-106416666D01*
X184538152Y-106416666D02*
X184347676Y-106369047D01*
X184347676Y-106369047D02*
X184252438Y-106273809D01*
X184252438Y-106273809D02*
X184204819Y-106178571D01*
X184204819Y-105464285D02*
X185204819Y-105130952D01*
X185204819Y-105130952D02*
X184204819Y-104797619D01*
X184204819Y-104035714D02*
X184204819Y-104226190D01*
X184204819Y-104226190D02*
X184252438Y-104321428D01*
X184252438Y-104321428D02*
X184300057Y-104369047D01*
X184300057Y-104369047D02*
X184442914Y-104464285D01*
X184442914Y-104464285D02*
X184633390Y-104511904D01*
X184633390Y-104511904D02*
X185014342Y-104511904D01*
X185014342Y-104511904D02*
X185109580Y-104464285D01*
X185109580Y-104464285D02*
X185157200Y-104416666D01*
X185157200Y-104416666D02*
X185204819Y-104321428D01*
X185204819Y-104321428D02*
X185204819Y-104130952D01*
X185204819Y-104130952D02*
X185157200Y-104035714D01*
X185157200Y-104035714D02*
X185109580Y-103988095D01*
X185109580Y-103988095D02*
X185014342Y-103940476D01*
X185014342Y-103940476D02*
X184776247Y-103940476D01*
X184776247Y-103940476D02*
X184681009Y-103988095D01*
X184681009Y-103988095D02*
X184633390Y-104035714D01*
X184633390Y-104035714D02*
X184585771Y-104130952D01*
X184585771Y-104130952D02*
X184585771Y-104321428D01*
X184585771Y-104321428D02*
X184633390Y-104416666D01*
X184633390Y-104416666D02*
X184681009Y-104464285D01*
X184681009Y-104464285D02*
X184776247Y-104511904D01*
X153359580Y-102142857D02*
X153407200Y-102190476D01*
X153407200Y-102190476D02*
X153454819Y-102333333D01*
X153454819Y-102333333D02*
X153454819Y-102428571D01*
X153454819Y-102428571D02*
X153407200Y-102571428D01*
X153407200Y-102571428D02*
X153311961Y-102666666D01*
X153311961Y-102666666D02*
X153216723Y-102714285D01*
X153216723Y-102714285D02*
X153026247Y-102761904D01*
X153026247Y-102761904D02*
X152883390Y-102761904D01*
X152883390Y-102761904D02*
X152692914Y-102714285D01*
X152692914Y-102714285D02*
X152597676Y-102666666D01*
X152597676Y-102666666D02*
X152502438Y-102571428D01*
X152502438Y-102571428D02*
X152454819Y-102428571D01*
X152454819Y-102428571D02*
X152454819Y-102333333D01*
X152454819Y-102333333D02*
X152502438Y-102190476D01*
X152502438Y-102190476D02*
X152550057Y-102142857D01*
X153454819Y-101190476D02*
X153454819Y-101761904D01*
X153454819Y-101476190D02*
X152454819Y-101476190D01*
X152454819Y-101476190D02*
X152597676Y-101571428D01*
X152597676Y-101571428D02*
X152692914Y-101666666D01*
X152692914Y-101666666D02*
X152740533Y-101761904D01*
X152454819Y-100571428D02*
X152454819Y-100476190D01*
X152454819Y-100476190D02*
X152502438Y-100380952D01*
X152502438Y-100380952D02*
X152550057Y-100333333D01*
X152550057Y-100333333D02*
X152645295Y-100285714D01*
X152645295Y-100285714D02*
X152835771Y-100238095D01*
X152835771Y-100238095D02*
X153073866Y-100238095D01*
X153073866Y-100238095D02*
X153264342Y-100285714D01*
X153264342Y-100285714D02*
X153359580Y-100333333D01*
X153359580Y-100333333D02*
X153407200Y-100380952D01*
X153407200Y-100380952D02*
X153454819Y-100476190D01*
X153454819Y-100476190D02*
X153454819Y-100571428D01*
X153454819Y-100571428D02*
X153407200Y-100666666D01*
X153407200Y-100666666D02*
X153359580Y-100714285D01*
X153359580Y-100714285D02*
X153264342Y-100761904D01*
X153264342Y-100761904D02*
X153073866Y-100809523D01*
X153073866Y-100809523D02*
X152835771Y-100809523D01*
X152835771Y-100809523D02*
X152645295Y-100761904D01*
X152645295Y-100761904D02*
X152550057Y-100714285D01*
X152550057Y-100714285D02*
X152502438Y-100666666D01*
X152502438Y-100666666D02*
X152454819Y-100571428D01*
X110854819Y-104333333D02*
X111569104Y-104333333D01*
X111569104Y-104333333D02*
X111711961Y-104380952D01*
X111711961Y-104380952D02*
X111807200Y-104476190D01*
X111807200Y-104476190D02*
X111854819Y-104619047D01*
X111854819Y-104619047D02*
X111854819Y-104714285D01*
X110854819Y-103952380D02*
X110854819Y-103285714D01*
X110854819Y-103285714D02*
X111854819Y-103714285D01*
X132109580Y-106416666D02*
X132157200Y-106464285D01*
X132157200Y-106464285D02*
X132204819Y-106607142D01*
X132204819Y-106607142D02*
X132204819Y-106702380D01*
X132204819Y-106702380D02*
X132157200Y-106845237D01*
X132157200Y-106845237D02*
X132061961Y-106940475D01*
X132061961Y-106940475D02*
X131966723Y-106988094D01*
X131966723Y-106988094D02*
X131776247Y-107035713D01*
X131776247Y-107035713D02*
X131633390Y-107035713D01*
X131633390Y-107035713D02*
X131442914Y-106988094D01*
X131442914Y-106988094D02*
X131347676Y-106940475D01*
X131347676Y-106940475D02*
X131252438Y-106845237D01*
X131252438Y-106845237D02*
X131204819Y-106702380D01*
X131204819Y-106702380D02*
X131204819Y-106607142D01*
X131204819Y-106607142D02*
X131252438Y-106464285D01*
X131252438Y-106464285D02*
X131300057Y-106416666D01*
X131633390Y-105845237D02*
X131585771Y-105940475D01*
X131585771Y-105940475D02*
X131538152Y-105988094D01*
X131538152Y-105988094D02*
X131442914Y-106035713D01*
X131442914Y-106035713D02*
X131395295Y-106035713D01*
X131395295Y-106035713D02*
X131300057Y-105988094D01*
X131300057Y-105988094D02*
X131252438Y-105940475D01*
X131252438Y-105940475D02*
X131204819Y-105845237D01*
X131204819Y-105845237D02*
X131204819Y-105654761D01*
X131204819Y-105654761D02*
X131252438Y-105559523D01*
X131252438Y-105559523D02*
X131300057Y-105511904D01*
X131300057Y-105511904D02*
X131395295Y-105464285D01*
X131395295Y-105464285D02*
X131442914Y-105464285D01*
X131442914Y-105464285D02*
X131538152Y-105511904D01*
X131538152Y-105511904D02*
X131585771Y-105559523D01*
X131585771Y-105559523D02*
X131633390Y-105654761D01*
X131633390Y-105654761D02*
X131633390Y-105845237D01*
X131633390Y-105845237D02*
X131681009Y-105940475D01*
X131681009Y-105940475D02*
X131728628Y-105988094D01*
X131728628Y-105988094D02*
X131823866Y-106035713D01*
X131823866Y-106035713D02*
X132014342Y-106035713D01*
X132014342Y-106035713D02*
X132109580Y-105988094D01*
X132109580Y-105988094D02*
X132157200Y-105940475D01*
X132157200Y-105940475D02*
X132204819Y-105845237D01*
X132204819Y-105845237D02*
X132204819Y-105654761D01*
X132204819Y-105654761D02*
X132157200Y-105559523D01*
X132157200Y-105559523D02*
X132109580Y-105511904D01*
X132109580Y-105511904D02*
X132014342Y-105464285D01*
X132014342Y-105464285D02*
X131823866Y-105464285D01*
X131823866Y-105464285D02*
X131728628Y-105511904D01*
X131728628Y-105511904D02*
X131681009Y-105559523D01*
X131681009Y-105559523D02*
X131633390Y-105654761D01*
X140940476Y-110514819D02*
X140940476Y-109514819D01*
X140940476Y-109514819D02*
X141273809Y-110229104D01*
X141273809Y-110229104D02*
X141607142Y-109514819D01*
X141607142Y-109514819D02*
X141607142Y-110514819D01*
X142607142Y-110514819D02*
X142035714Y-110514819D01*
X142321428Y-110514819D02*
X142321428Y-109514819D01*
X142321428Y-109514819D02*
X142226190Y-109657676D01*
X142226190Y-109657676D02*
X142130952Y-109752914D01*
X142130952Y-109752914D02*
X142035714Y-109800533D01*
X122630333Y-78220819D02*
X122154143Y-78220819D01*
X122154143Y-78220819D02*
X122154143Y-77220819D01*
X122963667Y-78220819D02*
X122963667Y-77220819D01*
X122963667Y-77220819D02*
X123201762Y-77220819D01*
X123201762Y-77220819D02*
X123344619Y-77268438D01*
X123344619Y-77268438D02*
X123439857Y-77363676D01*
X123439857Y-77363676D02*
X123487476Y-77458914D01*
X123487476Y-77458914D02*
X123535095Y-77649390D01*
X123535095Y-77649390D02*
X123535095Y-77792247D01*
X123535095Y-77792247D02*
X123487476Y-77982723D01*
X123487476Y-77982723D02*
X123439857Y-78077961D01*
X123439857Y-78077961D02*
X123344619Y-78173200D01*
X123344619Y-78173200D02*
X123201762Y-78220819D01*
X123201762Y-78220819D02*
X122963667Y-78220819D01*
X123868429Y-77220819D02*
X124487476Y-77220819D01*
X124487476Y-77220819D02*
X124154143Y-77601771D01*
X124154143Y-77601771D02*
X124297000Y-77601771D01*
X124297000Y-77601771D02*
X124392238Y-77649390D01*
X124392238Y-77649390D02*
X124439857Y-77697009D01*
X124439857Y-77697009D02*
X124487476Y-77792247D01*
X124487476Y-77792247D02*
X124487476Y-78030342D01*
X124487476Y-78030342D02*
X124439857Y-78125580D01*
X124439857Y-78125580D02*
X124392238Y-78173200D01*
X124392238Y-78173200D02*
X124297000Y-78220819D01*
X124297000Y-78220819D02*
X124011286Y-78220819D01*
X124011286Y-78220819D02*
X123916048Y-78173200D01*
X123916048Y-78173200D02*
X123868429Y-78125580D01*
D12*
X189807419Y-105083333D02*
X190521704Y-105083333D01*
X190521704Y-105083333D02*
X190664561Y-105130952D01*
X190664561Y-105130952D02*
X190759800Y-105226190D01*
X190759800Y-105226190D02*
X190807419Y-105369047D01*
X190807419Y-105369047D02*
X190807419Y-105464285D01*
X189807419Y-104130952D02*
X189807419Y-104607142D01*
X189807419Y-104607142D02*
X190283609Y-104654761D01*
X190283609Y-104654761D02*
X190235990Y-104607142D01*
X190235990Y-104607142D02*
X190188371Y-104511904D01*
X190188371Y-104511904D02*
X190188371Y-104273809D01*
X190188371Y-104273809D02*
X190235990Y-104178571D01*
X190235990Y-104178571D02*
X190283609Y-104130952D01*
X190283609Y-104130952D02*
X190378847Y-104083333D01*
X190378847Y-104083333D02*
X190616942Y-104083333D01*
X190616942Y-104083333D02*
X190712180Y-104130952D01*
X190712180Y-104130952D02*
X190759800Y-104178571D01*
X190759800Y-104178571D02*
X190807419Y-104273809D01*
X190807419Y-104273809D02*
X190807419Y-104511904D01*
X190807419Y-104511904D02*
X190759800Y-104607142D01*
X190759800Y-104607142D02*
X190712180Y-104654761D01*
D11*
X168013095Y-110364819D02*
X168013095Y-111174342D01*
X168013095Y-111174342D02*
X168060714Y-111269580D01*
X168060714Y-111269580D02*
X168108333Y-111317200D01*
X168108333Y-111317200D02*
X168203571Y-111364819D01*
X168203571Y-111364819D02*
X168394047Y-111364819D01*
X168394047Y-111364819D02*
X168489285Y-111317200D01*
X168489285Y-111317200D02*
X168536904Y-111269580D01*
X168536904Y-111269580D02*
X168584523Y-111174342D01*
X168584523Y-111174342D02*
X168584523Y-110364819D01*
X169489285Y-110364819D02*
X169298809Y-110364819D01*
X169298809Y-110364819D02*
X169203571Y-110412438D01*
X169203571Y-110412438D02*
X169155952Y-110460057D01*
X169155952Y-110460057D02*
X169060714Y-110602914D01*
X169060714Y-110602914D02*
X169013095Y-110793390D01*
X169013095Y-110793390D02*
X169013095Y-111174342D01*
X169013095Y-111174342D02*
X169060714Y-111269580D01*
X169060714Y-111269580D02*
X169108333Y-111317200D01*
X169108333Y-111317200D02*
X169203571Y-111364819D01*
X169203571Y-111364819D02*
X169394047Y-111364819D01*
X169394047Y-111364819D02*
X169489285Y-111317200D01*
X169489285Y-111317200D02*
X169536904Y-111269580D01*
X169536904Y-111269580D02*
X169584523Y-111174342D01*
X169584523Y-111174342D02*
X169584523Y-110936247D01*
X169584523Y-110936247D02*
X169536904Y-110841009D01*
X169536904Y-110841009D02*
X169489285Y-110793390D01*
X169489285Y-110793390D02*
X169394047Y-110745771D01*
X169394047Y-110745771D02*
X169203571Y-110745771D01*
X169203571Y-110745771D02*
X169108333Y-110793390D01*
X169108333Y-110793390D02*
X169060714Y-110841009D01*
X169060714Y-110841009D02*
X169013095Y-110936247D01*
X117070833Y-73684819D02*
X116737500Y-73208628D01*
X116499405Y-73684819D02*
X116499405Y-72684819D01*
X116499405Y-72684819D02*
X116880357Y-72684819D01*
X116880357Y-72684819D02*
X116975595Y-72732438D01*
X116975595Y-72732438D02*
X117023214Y-72780057D01*
X117023214Y-72780057D02*
X117070833Y-72875295D01*
X117070833Y-72875295D02*
X117070833Y-73018152D01*
X117070833Y-73018152D02*
X117023214Y-73113390D01*
X117023214Y-73113390D02*
X116975595Y-73161009D01*
X116975595Y-73161009D02*
X116880357Y-73208628D01*
X116880357Y-73208628D02*
X116499405Y-73208628D01*
X117927976Y-72684819D02*
X117737500Y-72684819D01*
X117737500Y-72684819D02*
X117642262Y-72732438D01*
X117642262Y-72732438D02*
X117594643Y-72780057D01*
X117594643Y-72780057D02*
X117499405Y-72922914D01*
X117499405Y-72922914D02*
X117451786Y-73113390D01*
X117451786Y-73113390D02*
X117451786Y-73494342D01*
X117451786Y-73494342D02*
X117499405Y-73589580D01*
X117499405Y-73589580D02*
X117547024Y-73637200D01*
X117547024Y-73637200D02*
X117642262Y-73684819D01*
X117642262Y-73684819D02*
X117832738Y-73684819D01*
X117832738Y-73684819D02*
X117927976Y-73637200D01*
X117927976Y-73637200D02*
X117975595Y-73589580D01*
X117975595Y-73589580D02*
X118023214Y-73494342D01*
X118023214Y-73494342D02*
X118023214Y-73256247D01*
X118023214Y-73256247D02*
X117975595Y-73161009D01*
X117975595Y-73161009D02*
X117927976Y-73113390D01*
X117927976Y-73113390D02*
X117832738Y-73065771D01*
X117832738Y-73065771D02*
X117642262Y-73065771D01*
X117642262Y-73065771D02*
X117547024Y-73113390D01*
X117547024Y-73113390D02*
X117499405Y-73161009D01*
X117499405Y-73161009D02*
X117451786Y-73256247D01*
X175974819Y-89992857D02*
X175498628Y-90326190D01*
X175974819Y-90564285D02*
X174974819Y-90564285D01*
X174974819Y-90564285D02*
X174974819Y-90183333D01*
X174974819Y-90183333D02*
X175022438Y-90088095D01*
X175022438Y-90088095D02*
X175070057Y-90040476D01*
X175070057Y-90040476D02*
X175165295Y-89992857D01*
X175165295Y-89992857D02*
X175308152Y-89992857D01*
X175308152Y-89992857D02*
X175403390Y-90040476D01*
X175403390Y-90040476D02*
X175451009Y-90088095D01*
X175451009Y-90088095D02*
X175498628Y-90183333D01*
X175498628Y-90183333D02*
X175498628Y-90564285D01*
X175974819Y-89040476D02*
X175974819Y-89611904D01*
X175974819Y-89326190D02*
X174974819Y-89326190D01*
X174974819Y-89326190D02*
X175117676Y-89421428D01*
X175117676Y-89421428D02*
X175212914Y-89516666D01*
X175212914Y-89516666D02*
X175260533Y-89611904D01*
X174974819Y-88421428D02*
X174974819Y-88326190D01*
X174974819Y-88326190D02*
X175022438Y-88230952D01*
X175022438Y-88230952D02*
X175070057Y-88183333D01*
X175070057Y-88183333D02*
X175165295Y-88135714D01*
X175165295Y-88135714D02*
X175355771Y-88088095D01*
X175355771Y-88088095D02*
X175593866Y-88088095D01*
X175593866Y-88088095D02*
X175784342Y-88135714D01*
X175784342Y-88135714D02*
X175879580Y-88183333D01*
X175879580Y-88183333D02*
X175927200Y-88230952D01*
X175927200Y-88230952D02*
X175974819Y-88326190D01*
X175974819Y-88326190D02*
X175974819Y-88421428D01*
X175974819Y-88421428D02*
X175927200Y-88516666D01*
X175927200Y-88516666D02*
X175879580Y-88564285D01*
X175879580Y-88564285D02*
X175784342Y-88611904D01*
X175784342Y-88611904D02*
X175593866Y-88659523D01*
X175593866Y-88659523D02*
X175355771Y-88659523D01*
X175355771Y-88659523D02*
X175165295Y-88611904D01*
X175165295Y-88611904D02*
X175070057Y-88564285D01*
X175070057Y-88564285D02*
X175022438Y-88516666D01*
X175022438Y-88516666D02*
X174974819Y-88421428D01*
D12*
X109107419Y-84833333D02*
X109821704Y-84833333D01*
X109821704Y-84833333D02*
X109964561Y-84880952D01*
X109964561Y-84880952D02*
X110059800Y-84976190D01*
X110059800Y-84976190D02*
X110107419Y-85119047D01*
X110107419Y-85119047D02*
X110107419Y-85214285D01*
X109107419Y-83928571D02*
X109107419Y-84119047D01*
X109107419Y-84119047D02*
X109155038Y-84214285D01*
X109155038Y-84214285D02*
X109202657Y-84261904D01*
X109202657Y-84261904D02*
X109345514Y-84357142D01*
X109345514Y-84357142D02*
X109535990Y-84404761D01*
X109535990Y-84404761D02*
X109916942Y-84404761D01*
X109916942Y-84404761D02*
X110012180Y-84357142D01*
X110012180Y-84357142D02*
X110059800Y-84309523D01*
X110059800Y-84309523D02*
X110107419Y-84214285D01*
X110107419Y-84214285D02*
X110107419Y-84023809D01*
X110107419Y-84023809D02*
X110059800Y-83928571D01*
X110059800Y-83928571D02*
X110012180Y-83880952D01*
X110012180Y-83880952D02*
X109916942Y-83833333D01*
X109916942Y-83833333D02*
X109678847Y-83833333D01*
X109678847Y-83833333D02*
X109583609Y-83880952D01*
X109583609Y-83880952D02*
X109535990Y-83928571D01*
X109535990Y-83928571D02*
X109488371Y-84023809D01*
X109488371Y-84023809D02*
X109488371Y-84214285D01*
X109488371Y-84214285D02*
X109535990Y-84309523D01*
X109535990Y-84309523D02*
X109583609Y-84357142D01*
X109583609Y-84357142D02*
X109678847Y-84404761D01*
D11*
X176204819Y-83916666D02*
X175728628Y-84249999D01*
X176204819Y-84488094D02*
X175204819Y-84488094D01*
X175204819Y-84488094D02*
X175204819Y-84107142D01*
X175204819Y-84107142D02*
X175252438Y-84011904D01*
X175252438Y-84011904D02*
X175300057Y-83964285D01*
X175300057Y-83964285D02*
X175395295Y-83916666D01*
X175395295Y-83916666D02*
X175538152Y-83916666D01*
X175538152Y-83916666D02*
X175633390Y-83964285D01*
X175633390Y-83964285D02*
X175681009Y-84011904D01*
X175681009Y-84011904D02*
X175728628Y-84107142D01*
X175728628Y-84107142D02*
X175728628Y-84488094D01*
X176204819Y-83440475D02*
X176204819Y-83249999D01*
X176204819Y-83249999D02*
X176157200Y-83154761D01*
X176157200Y-83154761D02*
X176109580Y-83107142D01*
X176109580Y-83107142D02*
X175966723Y-83011904D01*
X175966723Y-83011904D02*
X175776247Y-82964285D01*
X175776247Y-82964285D02*
X175395295Y-82964285D01*
X175395295Y-82964285D02*
X175300057Y-83011904D01*
X175300057Y-83011904D02*
X175252438Y-83059523D01*
X175252438Y-83059523D02*
X175204819Y-83154761D01*
X175204819Y-83154761D02*
X175204819Y-83345237D01*
X175204819Y-83345237D02*
X175252438Y-83440475D01*
X175252438Y-83440475D02*
X175300057Y-83488094D01*
X175300057Y-83488094D02*
X175395295Y-83535713D01*
X175395295Y-83535713D02*
X175633390Y-83535713D01*
X175633390Y-83535713D02*
X175728628Y-83488094D01*
X175728628Y-83488094D02*
X175776247Y-83440475D01*
X175776247Y-83440475D02*
X175823866Y-83345237D01*
X175823866Y-83345237D02*
X175823866Y-83154761D01*
X175823866Y-83154761D02*
X175776247Y-83059523D01*
X175776247Y-83059523D02*
X175728628Y-83011904D01*
X175728628Y-83011904D02*
X175633390Y-82964285D01*
X129413333Y-56494819D02*
X128937143Y-56494819D01*
X128937143Y-56494819D02*
X128937143Y-55494819D01*
X129746667Y-56494819D02*
X129746667Y-55494819D01*
X129746667Y-55494819D02*
X129984762Y-55494819D01*
X129984762Y-55494819D02*
X130127619Y-55542438D01*
X130127619Y-55542438D02*
X130222857Y-55637676D01*
X130222857Y-55637676D02*
X130270476Y-55732914D01*
X130270476Y-55732914D02*
X130318095Y-55923390D01*
X130318095Y-55923390D02*
X130318095Y-56066247D01*
X130318095Y-56066247D02*
X130270476Y-56256723D01*
X130270476Y-56256723D02*
X130222857Y-56351961D01*
X130222857Y-56351961D02*
X130127619Y-56447200D01*
X130127619Y-56447200D02*
X129984762Y-56494819D01*
X129984762Y-56494819D02*
X129746667Y-56494819D01*
X131270476Y-56494819D02*
X130699048Y-56494819D01*
X130984762Y-56494819D02*
X130984762Y-55494819D01*
X130984762Y-55494819D02*
X130889524Y-55637676D01*
X130889524Y-55637676D02*
X130794286Y-55732914D01*
X130794286Y-55732914D02*
X130699048Y-55780533D01*
X117033333Y-60234819D02*
X116700000Y-59758628D01*
X116461905Y-60234819D02*
X116461905Y-59234819D01*
X116461905Y-59234819D02*
X116842857Y-59234819D01*
X116842857Y-59234819D02*
X116938095Y-59282438D01*
X116938095Y-59282438D02*
X116985714Y-59330057D01*
X116985714Y-59330057D02*
X117033333Y-59425295D01*
X117033333Y-59425295D02*
X117033333Y-59568152D01*
X117033333Y-59568152D02*
X116985714Y-59663390D01*
X116985714Y-59663390D02*
X116938095Y-59711009D01*
X116938095Y-59711009D02*
X116842857Y-59758628D01*
X116842857Y-59758628D02*
X116461905Y-59758628D01*
X117985714Y-60234819D02*
X117414286Y-60234819D01*
X117700000Y-60234819D02*
X117700000Y-59234819D01*
X117700000Y-59234819D02*
X117604762Y-59377676D01*
X117604762Y-59377676D02*
X117509524Y-59472914D01*
X117509524Y-59472914D02*
X117414286Y-59520533D01*
X132283333Y-80509580D02*
X132235714Y-80557200D01*
X132235714Y-80557200D02*
X132092857Y-80604819D01*
X132092857Y-80604819D02*
X131997619Y-80604819D01*
X131997619Y-80604819D02*
X131854762Y-80557200D01*
X131854762Y-80557200D02*
X131759524Y-80461961D01*
X131759524Y-80461961D02*
X131711905Y-80366723D01*
X131711905Y-80366723D02*
X131664286Y-80176247D01*
X131664286Y-80176247D02*
X131664286Y-80033390D01*
X131664286Y-80033390D02*
X131711905Y-79842914D01*
X131711905Y-79842914D02*
X131759524Y-79747676D01*
X131759524Y-79747676D02*
X131854762Y-79652438D01*
X131854762Y-79652438D02*
X131997619Y-79604819D01*
X131997619Y-79604819D02*
X132092857Y-79604819D01*
X132092857Y-79604819D02*
X132235714Y-79652438D01*
X132235714Y-79652438D02*
X132283333Y-79700057D01*
X133235714Y-80604819D02*
X132664286Y-80604819D01*
X132950000Y-80604819D02*
X132950000Y-79604819D01*
X132950000Y-79604819D02*
X132854762Y-79747676D01*
X132854762Y-79747676D02*
X132759524Y-79842914D01*
X132759524Y-79842914D02*
X132664286Y-79890533D01*
X179353333Y-97494819D02*
X178877143Y-97494819D01*
X178877143Y-97494819D02*
X178877143Y-96494819D01*
X179686667Y-97494819D02*
X179686667Y-96494819D01*
X179686667Y-96494819D02*
X179924762Y-96494819D01*
X179924762Y-96494819D02*
X180067619Y-96542438D01*
X180067619Y-96542438D02*
X180162857Y-96637676D01*
X180162857Y-96637676D02*
X180210476Y-96732914D01*
X180210476Y-96732914D02*
X180258095Y-96923390D01*
X180258095Y-96923390D02*
X180258095Y-97066247D01*
X180258095Y-97066247D02*
X180210476Y-97256723D01*
X180210476Y-97256723D02*
X180162857Y-97351961D01*
X180162857Y-97351961D02*
X180067619Y-97447200D01*
X180067619Y-97447200D02*
X179924762Y-97494819D01*
X179924762Y-97494819D02*
X179686667Y-97494819D01*
X181115238Y-96494819D02*
X180924762Y-96494819D01*
X180924762Y-96494819D02*
X180829524Y-96542438D01*
X180829524Y-96542438D02*
X180781905Y-96590057D01*
X180781905Y-96590057D02*
X180686667Y-96732914D01*
X180686667Y-96732914D02*
X180639048Y-96923390D01*
X180639048Y-96923390D02*
X180639048Y-97304342D01*
X180639048Y-97304342D02*
X180686667Y-97399580D01*
X180686667Y-97399580D02*
X180734286Y-97447200D01*
X180734286Y-97447200D02*
X180829524Y-97494819D01*
X180829524Y-97494819D02*
X181020000Y-97494819D01*
X181020000Y-97494819D02*
X181115238Y-97447200D01*
X181115238Y-97447200D02*
X181162857Y-97399580D01*
X181162857Y-97399580D02*
X181210476Y-97304342D01*
X181210476Y-97304342D02*
X181210476Y-97066247D01*
X181210476Y-97066247D02*
X181162857Y-96971009D01*
X181162857Y-96971009D02*
X181115238Y-96923390D01*
X181115238Y-96923390D02*
X181020000Y-96875771D01*
X181020000Y-96875771D02*
X180829524Y-96875771D01*
X180829524Y-96875771D02*
X180734286Y-96923390D01*
X180734286Y-96923390D02*
X180686667Y-96971009D01*
X180686667Y-96971009D02*
X180639048Y-97066247D01*
X120254095Y-87784819D02*
X120254095Y-88594342D01*
X120254095Y-88594342D02*
X120301714Y-88689580D01*
X120301714Y-88689580D02*
X120349333Y-88737200D01*
X120349333Y-88737200D02*
X120444571Y-88784819D01*
X120444571Y-88784819D02*
X120635047Y-88784819D01*
X120635047Y-88784819D02*
X120730285Y-88737200D01*
X120730285Y-88737200D02*
X120777904Y-88689580D01*
X120777904Y-88689580D02*
X120825523Y-88594342D01*
X120825523Y-88594342D02*
X120825523Y-87784819D01*
X121777904Y-87784819D02*
X121301714Y-87784819D01*
X121301714Y-87784819D02*
X121254095Y-88261009D01*
X121254095Y-88261009D02*
X121301714Y-88213390D01*
X121301714Y-88213390D02*
X121396952Y-88165771D01*
X121396952Y-88165771D02*
X121635047Y-88165771D01*
X121635047Y-88165771D02*
X121730285Y-88213390D01*
X121730285Y-88213390D02*
X121777904Y-88261009D01*
X121777904Y-88261009D02*
X121825523Y-88356247D01*
X121825523Y-88356247D02*
X121825523Y-88594342D01*
X121825523Y-88594342D02*
X121777904Y-88689580D01*
X121777904Y-88689580D02*
X121730285Y-88737200D01*
X121730285Y-88737200D02*
X121635047Y-88784819D01*
X121635047Y-88784819D02*
X121396952Y-88784819D01*
X121396952Y-88784819D02*
X121301714Y-88737200D01*
X121301714Y-88737200D02*
X121254095Y-88689580D01*
X158333333Y-109204819D02*
X158000000Y-108728628D01*
X157761905Y-109204819D02*
X157761905Y-108204819D01*
X157761905Y-108204819D02*
X158142857Y-108204819D01*
X158142857Y-108204819D02*
X158238095Y-108252438D01*
X158238095Y-108252438D02*
X158285714Y-108300057D01*
X158285714Y-108300057D02*
X158333333Y-108395295D01*
X158333333Y-108395295D02*
X158333333Y-108538152D01*
X158333333Y-108538152D02*
X158285714Y-108633390D01*
X158285714Y-108633390D02*
X158238095Y-108681009D01*
X158238095Y-108681009D02*
X158142857Y-108728628D01*
X158142857Y-108728628D02*
X157761905Y-108728628D01*
X158666667Y-108204819D02*
X159285714Y-108204819D01*
X159285714Y-108204819D02*
X158952381Y-108585771D01*
X158952381Y-108585771D02*
X159095238Y-108585771D01*
X159095238Y-108585771D02*
X159190476Y-108633390D01*
X159190476Y-108633390D02*
X159238095Y-108681009D01*
X159238095Y-108681009D02*
X159285714Y-108776247D01*
X159285714Y-108776247D02*
X159285714Y-109014342D01*
X159285714Y-109014342D02*
X159238095Y-109109580D01*
X159238095Y-109109580D02*
X159190476Y-109157200D01*
X159190476Y-109157200D02*
X159095238Y-109204819D01*
X159095238Y-109204819D02*
X158809524Y-109204819D01*
X158809524Y-109204819D02*
X158714286Y-109157200D01*
X158714286Y-109157200D02*
X158666667Y-109109580D01*
X114808333Y-109209819D02*
X114475000Y-108733628D01*
X114236905Y-109209819D02*
X114236905Y-108209819D01*
X114236905Y-108209819D02*
X114617857Y-108209819D01*
X114617857Y-108209819D02*
X114713095Y-108257438D01*
X114713095Y-108257438D02*
X114760714Y-108305057D01*
X114760714Y-108305057D02*
X114808333Y-108400295D01*
X114808333Y-108400295D02*
X114808333Y-108543152D01*
X114808333Y-108543152D02*
X114760714Y-108638390D01*
X114760714Y-108638390D02*
X114713095Y-108686009D01*
X114713095Y-108686009D02*
X114617857Y-108733628D01*
X114617857Y-108733628D02*
X114236905Y-108733628D01*
X115189286Y-108305057D02*
X115236905Y-108257438D01*
X115236905Y-108257438D02*
X115332143Y-108209819D01*
X115332143Y-108209819D02*
X115570238Y-108209819D01*
X115570238Y-108209819D02*
X115665476Y-108257438D01*
X115665476Y-108257438D02*
X115713095Y-108305057D01*
X115713095Y-108305057D02*
X115760714Y-108400295D01*
X115760714Y-108400295D02*
X115760714Y-108495533D01*
X115760714Y-108495533D02*
X115713095Y-108638390D01*
X115713095Y-108638390D02*
X115141667Y-109209819D01*
X115141667Y-109209819D02*
X115760714Y-109209819D01*
X153359580Y-97142857D02*
X153407200Y-97190476D01*
X153407200Y-97190476D02*
X153454819Y-97333333D01*
X153454819Y-97333333D02*
X153454819Y-97428571D01*
X153454819Y-97428571D02*
X153407200Y-97571428D01*
X153407200Y-97571428D02*
X153311961Y-97666666D01*
X153311961Y-97666666D02*
X153216723Y-97714285D01*
X153216723Y-97714285D02*
X153026247Y-97761904D01*
X153026247Y-97761904D02*
X152883390Y-97761904D01*
X152883390Y-97761904D02*
X152692914Y-97714285D01*
X152692914Y-97714285D02*
X152597676Y-97666666D01*
X152597676Y-97666666D02*
X152502438Y-97571428D01*
X152502438Y-97571428D02*
X152454819Y-97428571D01*
X152454819Y-97428571D02*
X152454819Y-97333333D01*
X152454819Y-97333333D02*
X152502438Y-97190476D01*
X152502438Y-97190476D02*
X152550057Y-97142857D01*
X153454819Y-96190476D02*
X153454819Y-96761904D01*
X153454819Y-96476190D02*
X152454819Y-96476190D01*
X152454819Y-96476190D02*
X152597676Y-96571428D01*
X152597676Y-96571428D02*
X152692914Y-96666666D01*
X152692914Y-96666666D02*
X152740533Y-96761904D01*
X153454819Y-95238095D02*
X153454819Y-95809523D01*
X153454819Y-95523809D02*
X152454819Y-95523809D01*
X152454819Y-95523809D02*
X152597676Y-95619047D01*
X152597676Y-95619047D02*
X152692914Y-95714285D01*
X152692914Y-95714285D02*
X152740533Y-95809523D01*
X169083333Y-80509580D02*
X169035714Y-80557200D01*
X169035714Y-80557200D02*
X168892857Y-80604819D01*
X168892857Y-80604819D02*
X168797619Y-80604819D01*
X168797619Y-80604819D02*
X168654762Y-80557200D01*
X168654762Y-80557200D02*
X168559524Y-80461961D01*
X168559524Y-80461961D02*
X168511905Y-80366723D01*
X168511905Y-80366723D02*
X168464286Y-80176247D01*
X168464286Y-80176247D02*
X168464286Y-80033390D01*
X168464286Y-80033390D02*
X168511905Y-79842914D01*
X168511905Y-79842914D02*
X168559524Y-79747676D01*
X168559524Y-79747676D02*
X168654762Y-79652438D01*
X168654762Y-79652438D02*
X168797619Y-79604819D01*
X168797619Y-79604819D02*
X168892857Y-79604819D01*
X168892857Y-79604819D02*
X169035714Y-79652438D01*
X169035714Y-79652438D02*
X169083333Y-79700057D01*
X169940476Y-79938152D02*
X169940476Y-80604819D01*
X169702381Y-79557200D02*
X169464286Y-80271485D01*
X169464286Y-80271485D02*
X170083333Y-80271485D01*
X176834580Y-113932857D02*
X176882200Y-113980476D01*
X176882200Y-113980476D02*
X176929819Y-114123333D01*
X176929819Y-114123333D02*
X176929819Y-114218571D01*
X176929819Y-114218571D02*
X176882200Y-114361428D01*
X176882200Y-114361428D02*
X176786961Y-114456666D01*
X176786961Y-114456666D02*
X176691723Y-114504285D01*
X176691723Y-114504285D02*
X176501247Y-114551904D01*
X176501247Y-114551904D02*
X176358390Y-114551904D01*
X176358390Y-114551904D02*
X176167914Y-114504285D01*
X176167914Y-114504285D02*
X176072676Y-114456666D01*
X176072676Y-114456666D02*
X175977438Y-114361428D01*
X175977438Y-114361428D02*
X175929819Y-114218571D01*
X175929819Y-114218571D02*
X175929819Y-114123333D01*
X175929819Y-114123333D02*
X175977438Y-113980476D01*
X175977438Y-113980476D02*
X176025057Y-113932857D01*
X176929819Y-112980476D02*
X176929819Y-113551904D01*
X176929819Y-113266190D02*
X175929819Y-113266190D01*
X175929819Y-113266190D02*
X176072676Y-113361428D01*
X176072676Y-113361428D02*
X176167914Y-113456666D01*
X176167914Y-113456666D02*
X176215533Y-113551904D01*
X175929819Y-112647142D02*
X175929819Y-112028095D01*
X175929819Y-112028095D02*
X176310771Y-112361428D01*
X176310771Y-112361428D02*
X176310771Y-112218571D01*
X176310771Y-112218571D02*
X176358390Y-112123333D01*
X176358390Y-112123333D02*
X176406009Y-112075714D01*
X176406009Y-112075714D02*
X176501247Y-112028095D01*
X176501247Y-112028095D02*
X176739342Y-112028095D01*
X176739342Y-112028095D02*
X176834580Y-112075714D01*
X176834580Y-112075714D02*
X176882200Y-112123333D01*
X176882200Y-112123333D02*
X176929819Y-112218571D01*
X176929819Y-112218571D02*
X176929819Y-112504285D01*
X176929819Y-112504285D02*
X176882200Y-112599523D01*
X176882200Y-112599523D02*
X176834580Y-112647142D01*
X169732083Y-72936069D02*
X169398750Y-72459878D01*
X169160655Y-72936069D02*
X169160655Y-71936069D01*
X169160655Y-71936069D02*
X169541607Y-71936069D01*
X169541607Y-71936069D02*
X169636845Y-71983688D01*
X169636845Y-71983688D02*
X169684464Y-72031307D01*
X169684464Y-72031307D02*
X169732083Y-72126545D01*
X169732083Y-72126545D02*
X169732083Y-72269402D01*
X169732083Y-72269402D02*
X169684464Y-72364640D01*
X169684464Y-72364640D02*
X169636845Y-72412259D01*
X169636845Y-72412259D02*
X169541607Y-72459878D01*
X169541607Y-72459878D02*
X169160655Y-72459878D01*
X170303512Y-72364640D02*
X170208274Y-72317021D01*
X170208274Y-72317021D02*
X170160655Y-72269402D01*
X170160655Y-72269402D02*
X170113036Y-72174164D01*
X170113036Y-72174164D02*
X170113036Y-72126545D01*
X170113036Y-72126545D02*
X170160655Y-72031307D01*
X170160655Y-72031307D02*
X170208274Y-71983688D01*
X170208274Y-71983688D02*
X170303512Y-71936069D01*
X170303512Y-71936069D02*
X170493988Y-71936069D01*
X170493988Y-71936069D02*
X170589226Y-71983688D01*
X170589226Y-71983688D02*
X170636845Y-72031307D01*
X170636845Y-72031307D02*
X170684464Y-72126545D01*
X170684464Y-72126545D02*
X170684464Y-72174164D01*
X170684464Y-72174164D02*
X170636845Y-72269402D01*
X170636845Y-72269402D02*
X170589226Y-72317021D01*
X170589226Y-72317021D02*
X170493988Y-72364640D01*
X170493988Y-72364640D02*
X170303512Y-72364640D01*
X170303512Y-72364640D02*
X170208274Y-72412259D01*
X170208274Y-72412259D02*
X170160655Y-72459878D01*
X170160655Y-72459878D02*
X170113036Y-72555116D01*
X170113036Y-72555116D02*
X170113036Y-72745592D01*
X170113036Y-72745592D02*
X170160655Y-72840830D01*
X170160655Y-72840830D02*
X170208274Y-72888450D01*
X170208274Y-72888450D02*
X170303512Y-72936069D01*
X170303512Y-72936069D02*
X170493988Y-72936069D01*
X170493988Y-72936069D02*
X170589226Y-72888450D01*
X170589226Y-72888450D02*
X170636845Y-72840830D01*
X170636845Y-72840830D02*
X170684464Y-72745592D01*
X170684464Y-72745592D02*
X170684464Y-72555116D01*
X170684464Y-72555116D02*
X170636845Y-72459878D01*
X170636845Y-72459878D02*
X170589226Y-72412259D01*
X170589226Y-72412259D02*
X170493988Y-72364640D01*
D12*
X189957419Y-80583333D02*
X190671704Y-80583333D01*
X190671704Y-80583333D02*
X190814561Y-80630952D01*
X190814561Y-80630952D02*
X190909800Y-80726190D01*
X190909800Y-80726190D02*
X190957419Y-80869047D01*
X190957419Y-80869047D02*
X190957419Y-80964285D01*
X189957419Y-80202380D02*
X189957419Y-79583333D01*
X189957419Y-79583333D02*
X190338371Y-79916666D01*
X190338371Y-79916666D02*
X190338371Y-79773809D01*
X190338371Y-79773809D02*
X190385990Y-79678571D01*
X190385990Y-79678571D02*
X190433609Y-79630952D01*
X190433609Y-79630952D02*
X190528847Y-79583333D01*
X190528847Y-79583333D02*
X190766942Y-79583333D01*
X190766942Y-79583333D02*
X190862180Y-79630952D01*
X190862180Y-79630952D02*
X190909800Y-79678571D01*
X190909800Y-79678571D02*
X190957419Y-79773809D01*
X190957419Y-79773809D02*
X190957419Y-80059523D01*
X190957419Y-80059523D02*
X190909800Y-80154761D01*
X190909800Y-80154761D02*
X190862180Y-80202380D01*
D11*
X124109580Y-104752666D02*
X124157200Y-104800285D01*
X124157200Y-104800285D02*
X124204819Y-104943142D01*
X124204819Y-104943142D02*
X124204819Y-105038380D01*
X124204819Y-105038380D02*
X124157200Y-105181237D01*
X124157200Y-105181237D02*
X124061961Y-105276475D01*
X124061961Y-105276475D02*
X123966723Y-105324094D01*
X123966723Y-105324094D02*
X123776247Y-105371713D01*
X123776247Y-105371713D02*
X123633390Y-105371713D01*
X123633390Y-105371713D02*
X123442914Y-105324094D01*
X123442914Y-105324094D02*
X123347676Y-105276475D01*
X123347676Y-105276475D02*
X123252438Y-105181237D01*
X123252438Y-105181237D02*
X123204819Y-105038380D01*
X123204819Y-105038380D02*
X123204819Y-104943142D01*
X123204819Y-104943142D02*
X123252438Y-104800285D01*
X123252438Y-104800285D02*
X123300057Y-104752666D01*
X123204819Y-104419332D02*
X123204819Y-103752666D01*
X123204819Y-103752666D02*
X124204819Y-104181237D01*
X150245833Y-108628819D02*
X149912500Y-108152628D01*
X149674405Y-108628819D02*
X149674405Y-107628819D01*
X149674405Y-107628819D02*
X150055357Y-107628819D01*
X150055357Y-107628819D02*
X150150595Y-107676438D01*
X150150595Y-107676438D02*
X150198214Y-107724057D01*
X150198214Y-107724057D02*
X150245833Y-107819295D01*
X150245833Y-107819295D02*
X150245833Y-107962152D01*
X150245833Y-107962152D02*
X150198214Y-108057390D01*
X150198214Y-108057390D02*
X150150595Y-108105009D01*
X150150595Y-108105009D02*
X150055357Y-108152628D01*
X150055357Y-108152628D02*
X149674405Y-108152628D01*
X151150595Y-107628819D02*
X150674405Y-107628819D01*
X150674405Y-107628819D02*
X150626786Y-108105009D01*
X150626786Y-108105009D02*
X150674405Y-108057390D01*
X150674405Y-108057390D02*
X150769643Y-108009771D01*
X150769643Y-108009771D02*
X151007738Y-108009771D01*
X151007738Y-108009771D02*
X151102976Y-108057390D01*
X151102976Y-108057390D02*
X151150595Y-108105009D01*
X151150595Y-108105009D02*
X151198214Y-108200247D01*
X151198214Y-108200247D02*
X151198214Y-108438342D01*
X151198214Y-108438342D02*
X151150595Y-108533580D01*
X151150595Y-108533580D02*
X151102976Y-108581200D01*
X151102976Y-108581200D02*
X151007738Y-108628819D01*
X151007738Y-108628819D02*
X150769643Y-108628819D01*
X150769643Y-108628819D02*
X150674405Y-108581200D01*
X150674405Y-108581200D02*
X150626786Y-108533580D01*
X121984476Y-76204819D02*
X121984476Y-75204819D01*
X121984476Y-75204819D02*
X122317809Y-75919104D01*
X122317809Y-75919104D02*
X122651142Y-75204819D01*
X122651142Y-75204819D02*
X122651142Y-76204819D01*
X123079714Y-75300057D02*
X123127333Y-75252438D01*
X123127333Y-75252438D02*
X123222571Y-75204819D01*
X123222571Y-75204819D02*
X123460666Y-75204819D01*
X123460666Y-75204819D02*
X123555904Y-75252438D01*
X123555904Y-75252438D02*
X123603523Y-75300057D01*
X123603523Y-75300057D02*
X123651142Y-75395295D01*
X123651142Y-75395295D02*
X123651142Y-75490533D01*
X123651142Y-75490533D02*
X123603523Y-75633390D01*
X123603523Y-75633390D02*
X123032095Y-76204819D01*
X123032095Y-76204819D02*
X123651142Y-76204819D01*
%TO.C,MOV3*%
X109750000Y-79550000D02*
X109750000Y-82950000D01*
X109750000Y-79550000D02*
X116750000Y-79550000D01*
X109750000Y-82950000D02*
X116750000Y-82950000D01*
X116750000Y-79550000D02*
X116750000Y-82950000D01*
D13*
%TO.C,X1*%
X148775000Y-96625000D02*
X148775000Y-102875000D01*
X143725000Y-96625000D02*
X143725000Y-102875000D01*
X148775000Y-96625000D02*
G75*
G03*
X143725000Y-96625000I-2525000J0D01*
G01*
X143725000Y-102875000D02*
G75*
G03*
X148775000Y-102875000I2525000J0D01*
G01*
%TO.C,C9*%
X139735000Y-96938748D02*
X139735000Y-97461252D01*
X138265000Y-96938748D02*
X138265000Y-97461252D01*
D11*
%TO.C,MOV5*%
X189050000Y-85500000D02*
X185650000Y-85500000D01*
X189050000Y-85500000D02*
X189050000Y-92500000D01*
X185650000Y-85500000D02*
X185650000Y-92500000D01*
X189050000Y-92500000D02*
X185650000Y-92500000D01*
D13*
%TO.C,C12*%
X159063748Y-114955000D02*
X159586252Y-114955000D01*
X159063748Y-116425000D02*
X159586252Y-116425000D01*
D12*
%TO.C,J4*%
X199950000Y-89050000D02*
X192050000Y-89050000D01*
X199950000Y-89050000D02*
X199950000Y-96450000D01*
X199150000Y-89050000D02*
X199150000Y-96450000D01*
X192050000Y-89050000D02*
X192050000Y-96450000D01*
X199950000Y-96450000D02*
X192050000Y-96450000D01*
D13*
%TO.C,U3*%
X136022500Y-103360000D02*
X136022500Y-102910000D01*
X136022500Y-96140000D02*
X136022500Y-96590000D01*
X135572500Y-103360000D02*
X136022500Y-103360000D01*
X135572500Y-96140000D02*
X136022500Y-96140000D01*
X129252500Y-103360000D02*
X128802500Y-103360000D01*
X129252500Y-96140000D02*
X128802500Y-96140000D01*
X128802500Y-103360000D02*
X128802500Y-102910000D01*
X128802500Y-96140000D02*
X128802500Y-96590000D01*
X136952500Y-103380000D02*
X136272500Y-103380000D01*
X136612500Y-102910000D01*
X136952500Y-103380000D01*
G36*
X136952500Y-103380000D02*
G01*
X136272500Y-103380000D01*
X136612500Y-102910000D01*
X136952500Y-103380000D01*
G37*
%TO.C,R11*%
X138265000Y-92314564D02*
X138265000Y-91860436D01*
X139735000Y-92314564D02*
X139735000Y-91860436D01*
%TO.C,C14*%
X120500748Y-95215000D02*
X121023252Y-95215000D01*
X120500748Y-96685000D02*
X121023252Y-96685000D01*
%TO.C,LD5*%
X177460000Y-87455000D02*
X177460000Y-90545000D01*
X183009999Y-89000462D02*
G75*
G03*
X177460001Y-87455170I-2989999J462D01*
G01*
X177460000Y-90544830D02*
G75*
G03*
X183010000Y-88999538I2560000J1544830D01*
G01*
X182520000Y-89000000D02*
G75*
G03*
X177520000Y-89000000I-2500000J0D01*
G01*
X177520000Y-89000000D02*
G75*
G03*
X182520000Y-89000000I2500000J0D01*
G01*
%TO.C,R7*%
X113248000Y-92867064D02*
X113248000Y-91412936D01*
X115068000Y-92867064D02*
X115068000Y-91412936D01*
D11*
%TO.C,MOV4*%
X189200000Y-76000000D02*
X185800000Y-76000000D01*
X189200000Y-76000000D02*
X189200000Y-83000000D01*
X185800000Y-76000000D02*
X185800000Y-83000000D01*
X189200000Y-83000000D02*
X185800000Y-83000000D01*
%TO.C,MOV2*%
X102784000Y-91800000D02*
X102784000Y-95200000D01*
X102784000Y-91800000D02*
X109784000Y-91800000D01*
X102784000Y-95200000D02*
X109784000Y-95200000D01*
X109784000Y-91800000D02*
X109784000Y-95200000D01*
D12*
%TO.C,J2*%
X199950000Y-65050000D02*
X192050000Y-65050000D01*
X199950000Y-65050000D02*
X199950000Y-72450000D01*
X199150000Y-65050000D02*
X199150000Y-72450000D01*
X192050000Y-65050000D02*
X192050000Y-72450000D01*
X199950000Y-72450000D02*
X192050000Y-72450000D01*
D13*
%TO.C,U2*%
X157178750Y-74648750D02*
X157178750Y-70888750D01*
X163998750Y-74648750D02*
X163998750Y-70888750D01*
X157178750Y-70888750D02*
X158438750Y-70888750D01*
X163998750Y-70888750D02*
X162738750Y-70888750D01*
X157278750Y-75928750D02*
X156948750Y-76168750D01*
X156948750Y-75688750D01*
X157278750Y-75928750D01*
G36*
X157278750Y-75928750D02*
G01*
X156948750Y-76168750D01*
X156948750Y-75688750D01*
X157278750Y-75928750D01*
G37*
%TO.C,C5*%
X138077500Y-104323752D02*
X138077500Y-103801248D01*
X139547500Y-104323752D02*
X139547500Y-103801248D01*
%TO.C,D1*%
X153410000Y-70100000D02*
X153410000Y-68400000D01*
X153410000Y-70100000D02*
X150750000Y-70100000D01*
X153410000Y-68400000D02*
X150750000Y-68400000D01*
%TO.C,LD4*%
X177460000Y-75455000D02*
X177460000Y-78545000D01*
X183009999Y-77000462D02*
G75*
G03*
X177460001Y-75455170I-2989999J462D01*
G01*
X177460000Y-78544830D02*
G75*
G03*
X183010000Y-76999538I2560000J1544830D01*
G01*
X182520000Y-77000000D02*
G75*
G03*
X177520000Y-77000000I-2500000J0D01*
G01*
X177520000Y-77000000D02*
G75*
G03*
X182520000Y-77000000I2500000J0D01*
G01*
D12*
%TO.C,L1*%
X126748750Y-70451250D02*
X126748750Y-71451250D01*
X126748750Y-70451250D02*
X131448750Y-70451250D01*
X126748750Y-73451250D02*
X126748750Y-74451250D01*
X126748750Y-74451250D02*
X131448750Y-74451250D01*
X131448750Y-71451250D02*
X131448750Y-70451250D01*
X131448750Y-73451250D02*
X131448750Y-74451250D01*
%TO.C,J8*%
X157895000Y-100475000D02*
X157895000Y-100975000D01*
X157895000Y-100975000D02*
X157895000Y-100475000D01*
X157895000Y-100975000D02*
X157895000Y-101475000D01*
X157895000Y-101475000D02*
X158895000Y-100975000D01*
X158895000Y-100975000D02*
X157895000Y-100475000D01*
X158995000Y-95255000D02*
X158995000Y-104205000D01*
X158995000Y-95255000D02*
X170425000Y-95255000D01*
X158995000Y-104205000D02*
X170425000Y-104205000D01*
X162510000Y-103000000D02*
X162510000Y-104120000D01*
X162510000Y-103000000D02*
X166940000Y-103000000D01*
X166940000Y-103000000D02*
X166940000Y-104130000D01*
X170425000Y-95275000D02*
X170425000Y-104205000D01*
%TO.C,J1*%
X100250000Y-75000000D02*
X109250000Y-75000000D01*
X100250000Y-75000000D02*
X100250000Y-65000000D01*
X100850000Y-75000000D02*
X100850000Y-65000000D01*
X109250000Y-75000000D02*
X109250000Y-65000000D01*
X100250000Y-65000000D02*
X109250000Y-65000000D01*
D13*
%TO.C,D2*%
X153421250Y-74350000D02*
X153421250Y-72650000D01*
X153421250Y-74350000D02*
X150761250Y-74350000D01*
X153421250Y-72650000D02*
X150761250Y-72650000D01*
%TO.C,C2*%
X139062500Y-82652500D02*
X139850000Y-82652500D01*
X139456250Y-82258750D02*
X139456250Y-83046250D01*
X140090000Y-82154437D02*
X140090000Y-83440000D01*
X140090000Y-82154437D02*
X141154437Y-81090000D01*
X140090000Y-86845563D02*
X140090000Y-85560000D01*
X140090000Y-86845563D02*
X141154437Y-87910000D01*
X141154437Y-81090000D02*
X146910000Y-81090000D01*
X141154437Y-87910000D02*
X146910000Y-87910000D01*
X146910000Y-81090000D02*
X146910000Y-83440000D01*
X146910000Y-87910000D02*
X146910000Y-85560000D01*
%TO.C,C3*%
X150112500Y-82652500D02*
X150900000Y-82652500D01*
X150506250Y-82258750D02*
X150506250Y-83046250D01*
X151140000Y-82154437D02*
X151140000Y-83440000D01*
X151140000Y-82154437D02*
X152204437Y-81090000D01*
X151140000Y-86845563D02*
X151140000Y-85560000D01*
X151140000Y-86845563D02*
X152204437Y-87910000D01*
X152204437Y-81090000D02*
X157960000Y-81090000D01*
X152204437Y-87910000D02*
X157960000Y-87910000D01*
X157960000Y-81090000D02*
X157960000Y-83440000D01*
X157960000Y-87910000D02*
X157960000Y-85560000D01*
%TO.C,LD2*%
X142460000Y-58455000D02*
X142460000Y-61545000D01*
X148009999Y-60000462D02*
G75*
G03*
X142460001Y-58455170I-2989999J462D01*
G01*
X142460000Y-61544830D02*
G75*
G03*
X148010000Y-59999538I2560000J1544830D01*
G01*
X147520000Y-60000000D02*
G75*
G03*
X142520000Y-60000000I-2500000J0D01*
G01*
X142520000Y-60000000D02*
G75*
G03*
X147520000Y-60000000I2500000J0D01*
G01*
%TO.C,R4*%
X170613314Y-69611250D02*
X169159186Y-69611250D01*
X170613314Y-67791250D02*
X169159186Y-67791250D01*
D12*
%TO.C,SW1*%
X123837500Y-109000000D02*
X135837500Y-109000000D01*
X123837500Y-111404000D02*
X123837500Y-109000000D01*
X123837500Y-113690000D02*
X123837500Y-116250000D01*
X123837500Y-118516000D02*
X123837500Y-121000000D01*
X123837500Y-121000000D02*
X135837500Y-121000000D01*
X135837500Y-111404000D02*
X135837500Y-109000000D01*
X135837500Y-113720000D02*
X135837500Y-116280000D01*
X135837500Y-118508000D02*
X135837500Y-120992000D01*
D13*
%TO.C,U1*%
X134416250Y-73383750D02*
X134416250Y-75833750D01*
X134416250Y-75833750D02*
X136746250Y-75833750D01*
X134746250Y-67653750D02*
X146686250Y-67653750D01*
X134746250Y-75503750D02*
X134746250Y-67653750D01*
X146686250Y-67653750D02*
X146686250Y-75503750D01*
X146686250Y-75503750D02*
X134746250Y-75503750D01*
%TO.C,U4*%
X149470000Y-120262500D02*
X153070000Y-120262500D01*
X151270000Y-115812500D02*
G75*
G03*
X149431522Y-120250978I0J-2600000D01*
G01*
X153108478Y-120250978D02*
G75*
G03*
X151270000Y-115812500I-1838478J1838478D01*
G01*
D11*
%TO.C,MOV1*%
X185800000Y-72500000D02*
X189200000Y-72500000D01*
X185800000Y-72500000D02*
X185800000Y-65500000D01*
X189200000Y-72500000D02*
X189200000Y-65500000D01*
X185800000Y-65500000D02*
X189200000Y-65500000D01*
D13*
%TO.C,C6*%
X129913252Y-93247500D02*
X129390748Y-93247500D01*
X129913252Y-91777500D02*
X129390748Y-91777500D01*
%TO.C,F1*%
X116330000Y-66580000D02*
X120170000Y-66580000D01*
X116330000Y-68420000D02*
X120170000Y-68420000D01*
D11*
%TO.C,MOV6*%
X185800000Y-109500000D02*
X189200000Y-109500000D01*
X185800000Y-109500000D02*
X185800000Y-102500000D01*
X189200000Y-109500000D02*
X189200000Y-102500000D01*
X185800000Y-102500000D02*
X189200000Y-102500000D01*
D13*
%TO.C,C10*%
X151735000Y-101238748D02*
X151735000Y-101761252D01*
X150265000Y-101238748D02*
X150265000Y-101761252D01*
%TO.C,J7*%
X104700000Y-100040000D02*
X107300000Y-100040000D01*
X101800000Y-100040000D02*
X100140000Y-100040000D01*
X100140000Y-100040000D02*
X100140000Y-107960000D01*
X109610000Y-100800000D02*
X109610000Y-101950000D01*
X110200000Y-101950000D02*
X110200000Y-102650000D01*
X109610000Y-101950000D02*
X110200000Y-101950000D01*
X109610000Y-106050000D02*
X109610000Y-107200000D01*
X107300000Y-107960000D02*
X104700000Y-107960000D01*
X100140000Y-107960000D02*
X101800000Y-107960000D01*
%TO.C,C8*%
X133738748Y-105515000D02*
X134261252Y-105515000D01*
X133738748Y-106985000D02*
X134261252Y-106985000D01*
%TO.C,M1*%
X141750000Y-110900000D02*
X141100000Y-110900000D01*
X141750000Y-110900000D02*
X142400000Y-110900000D01*
X141750000Y-114020000D02*
X141100000Y-114020000D01*
X141750000Y-114020000D02*
X142400000Y-114020000D01*
X140587500Y-110950000D02*
X140347500Y-110620000D01*
X140827500Y-110620000D01*
X140587500Y-110950000D01*
G36*
X140587500Y-110950000D02*
G01*
X140347500Y-110620000D01*
X140827500Y-110620000D01*
X140587500Y-110950000D01*
G37*
%TO.C,LD3*%
X120737000Y-80181000D02*
X120737000Y-83271000D01*
X126286999Y-81726462D02*
G75*
G03*
X120737001Y-80181170I-2989999J462D01*
G01*
X120737000Y-83270830D02*
G75*
G03*
X126287000Y-81725538I2560000J1544830D01*
G01*
X125797000Y-81726000D02*
G75*
G03*
X120797000Y-81726000I-2500000J0D01*
G01*
X120797000Y-81726000D02*
G75*
G03*
X125797000Y-81726000I2500000J0D01*
G01*
D12*
%TO.C,J5*%
X199950000Y-101050000D02*
X192050000Y-101050000D01*
X199950000Y-101050000D02*
X199950000Y-108450000D01*
X199150000Y-101050000D02*
X199150000Y-108450000D01*
X192050000Y-101050000D02*
X192050000Y-108450000D01*
X199950000Y-108450000D02*
X192050000Y-108450000D01*
D13*
%TO.C,U6*%
X168775000Y-111755000D02*
X166825000Y-111755000D01*
X168775000Y-111755000D02*
X170725000Y-111755000D01*
X168775000Y-120625000D02*
X166825000Y-120625000D01*
X168775000Y-120625000D02*
X170725000Y-120625000D01*
X166075000Y-111820000D02*
X165835000Y-111490000D01*
X166315000Y-111490000D01*
X166075000Y-111820000D01*
G36*
X166075000Y-111820000D02*
G01*
X165835000Y-111490000D01*
X166315000Y-111490000D01*
X166075000Y-111820000D01*
G37*
%TO.C,R6*%
X116510436Y-74140000D02*
X117964564Y-74140000D01*
X116510436Y-75960000D02*
X117964564Y-75960000D01*
%TO.C,R10*%
X174610000Y-88622936D02*
X174610000Y-90077064D01*
X172790000Y-88622936D02*
X172790000Y-90077064D01*
D12*
%TO.C,J6*%
X100050000Y-89950000D02*
X107950000Y-89950000D01*
X100050000Y-89950000D02*
X100050000Y-80050000D01*
X100850000Y-89950000D02*
X100850000Y-80050000D01*
X107950000Y-89950000D02*
X107950000Y-80050000D01*
X100050000Y-80050000D02*
X107950000Y-80050000D01*
D13*
%TO.C,R9*%
X172840000Y-84177064D02*
X172840000Y-82722936D01*
X174660000Y-84177064D02*
X174660000Y-82722936D01*
%TO.C,LD1*%
X127520000Y-58455000D02*
X127520000Y-61545000D01*
X133069999Y-60000462D02*
G75*
G03*
X127520001Y-58455170I-2989999J462D01*
G01*
X127520000Y-61544830D02*
G75*
G03*
X133070000Y-59999538I2560000J1544830D01*
G01*
X132580000Y-60000000D02*
G75*
G03*
X127580000Y-60000000I-2500000J0D01*
G01*
X127580000Y-60000000D02*
G75*
G03*
X132580000Y-60000000I2500000J0D01*
G01*
%TO.C,R1*%
X116472936Y-60690000D02*
X117927064Y-60690000D01*
X116472936Y-62510000D02*
X117927064Y-62510000D01*
%TO.C,C1*%
X128012500Y-82652500D02*
X128800000Y-82652500D01*
X128406250Y-82258750D02*
X128406250Y-83046250D01*
X129040000Y-82154437D02*
X129040000Y-83440000D01*
X129040000Y-82154437D02*
X130104437Y-81090000D01*
X129040000Y-86845563D02*
X129040000Y-85560000D01*
X129040000Y-86845563D02*
X130104437Y-87910000D01*
X130104437Y-81090000D02*
X135860000Y-81090000D01*
X130104437Y-87910000D02*
X135860000Y-87910000D01*
X135860000Y-81090000D02*
X135860000Y-83440000D01*
X135860000Y-87910000D02*
X135860000Y-85560000D01*
%TO.C,LD6*%
X177460000Y-99455000D02*
X177460000Y-102545000D01*
X183009999Y-101000462D02*
G75*
G03*
X177460001Y-99455170I-2989999J462D01*
G01*
X177460000Y-102544830D02*
G75*
G03*
X183010000Y-100999538I2560000J1544830D01*
G01*
X182520000Y-101000000D02*
G75*
G03*
X177520000Y-101000000I-2500000J0D01*
G01*
X177520000Y-101000000D02*
G75*
G03*
X182520000Y-101000000I2500000J0D01*
G01*
%TO.C,U5*%
X121016000Y-94446000D02*
X122966000Y-94446000D01*
X121016000Y-94446000D02*
X119066000Y-94446000D01*
X121016000Y-89326000D02*
X122966000Y-89326000D01*
X121016000Y-89326000D02*
X119066000Y-89326000D01*
X123956000Y-94681000D02*
X123476000Y-94681000D01*
X123716000Y-94351000D01*
X123956000Y-94681000D01*
G36*
X123956000Y-94681000D02*
G01*
X123476000Y-94681000D01*
X123716000Y-94351000D01*
X123956000Y-94681000D01*
G37*
%TO.C,R3*%
X159227064Y-111235000D02*
X158772936Y-111235000D01*
X159227064Y-109765000D02*
X158772936Y-109765000D01*
%TO.C,R2*%
X114747936Y-109670000D02*
X115202064Y-109670000D01*
X114747936Y-111140000D02*
X115202064Y-111140000D01*
%TO.C,C11*%
X151735000Y-96238748D02*
X151735000Y-96761252D01*
X150265000Y-96238748D02*
X150265000Y-96761252D01*
%TO.C,C4*%
X161162500Y-82652500D02*
X161950000Y-82652500D01*
X161556250Y-82258750D02*
X161556250Y-83046250D01*
X162190000Y-82154437D02*
X162190000Y-83440000D01*
X162190000Y-82154437D02*
X163254437Y-81090000D01*
X162190000Y-86845563D02*
X162190000Y-85560000D01*
X162190000Y-86845563D02*
X163254437Y-87910000D01*
X163254437Y-81090000D02*
X169010000Y-81090000D01*
X163254437Y-87910000D02*
X169010000Y-87910000D01*
X169010000Y-81090000D02*
X169010000Y-83440000D01*
X169010000Y-87910000D02*
X169010000Y-85560000D01*
%TO.C,C13*%
X175410000Y-113028748D02*
X175410000Y-113551252D01*
X173940000Y-113028748D02*
X173940000Y-113551252D01*
%TO.C,R8*%
X169171686Y-73391250D02*
X170625814Y-73391250D01*
X169171686Y-75211250D02*
X170625814Y-75211250D01*
D12*
%TO.C,J3*%
X199950000Y-77050000D02*
X192050000Y-77050000D01*
X199950000Y-77050000D02*
X199950000Y-84450000D01*
X199150000Y-77050000D02*
X199150000Y-84450000D01*
X192050000Y-77050000D02*
X192050000Y-84450000D01*
X199950000Y-84450000D02*
X192050000Y-84450000D01*
D13*
%TO.C,C7*%
X124853000Y-104593252D02*
X124853000Y-104070748D01*
X126323000Y-104593252D02*
X126323000Y-104070748D01*
%TO.C,R5*%
X150639564Y-110909000D02*
X150185436Y-110909000D01*
X150639564Y-109439000D02*
X150185436Y-109439000D01*
%TO.C,M2*%
X122794000Y-74650000D02*
X123444000Y-74650000D01*
X122794000Y-74650000D02*
X122144000Y-74650000D01*
X122794000Y-71530000D02*
X123444000Y-71530000D01*
X122794000Y-71530000D02*
X122144000Y-71530000D01*
X124196500Y-74930000D02*
X123716500Y-74930000D01*
X123956500Y-74600000D01*
X124196500Y-74930000D01*
G36*
X124196500Y-74930000D02*
G01*
X123716500Y-74930000D01*
X123956500Y-74600000D01*
X124196500Y-74930000D01*
G37*
%TD*%
M02*
