%TF.GenerationSoftware,KiCad,Pcbnew,7.0.11*%
%TF.CreationDate,2024-11-26T16:26:20+01:00*%
%TF.ProjectId,Demo,44656d6f-2e6b-4696-9361-645f70636258,rev?*%
%TF.SameCoordinates,Original*%
%TF.FileFunction,Copper,L3,Inr*%
%TF.FilePolarity,Positive*%
%FSLAX46Y46*%
G04 Gerber Fmt 4.6, Leading zero omitted, Abs format (unit mm)*
G04 Created by KiCad (PCBNEW 7.0.11) date 2024-11-26 16:26:20*
%MOMM*%
%LPD*%
G01*
G04 APERTURE LIST*
G04 Aperture macros list*
%AMRoundRect*
0 Rectangle with rounded corners*
0 $1 Rounding radius*
0 $2 $3 $4 $5 $6 $7 $8 $9 X,Y pos of 4 corners*
0 Add a 4 corners polygon primitive as box body*
4,1,4,$2,$3,$4,$5,$6,$7,$8,$9,$2,$3,0*
0 Add four circle primitives for the rounded corners*
1,1,$1+$1,$2,$3*
1,1,$1+$1,$4,$5*
1,1,$1+$1,$6,$7*
1,1,$1+$1,$8,$9*
0 Add four rect primitives between the rounded corners*
20,1,$1+$1,$2,$3,$4,$5,0*
20,1,$1+$1,$4,$5,$6,$7,0*
20,1,$1+$1,$6,$7,$8,$9,0*
20,1,$1+$1,$8,$9,$2,$3,0*%
G04 Aperture macros list end*
%ADD10C,0.300000*%
%TA.AperFunction,NonConductor*%
%ADD11C,0.300000*%
%TD*%
%TA.AperFunction,ComponentPad*%
%ADD12C,1.600000*%
%TD*%
%TA.AperFunction,ComponentPad*%
%ADD13C,1.500000*%
%TD*%
%TA.AperFunction,ComponentPad*%
%ADD14RoundRect,0.387500X-0.387500X0.387500X-0.387500X-0.387500X0.387500X-0.387500X0.387500X0.387500X0*%
%TD*%
%TA.AperFunction,ComponentPad*%
%ADD15C,1.550000*%
%TD*%
%TA.AperFunction,ComponentPad*%
%ADD16R,1.800000X1.800000*%
%TD*%
%TA.AperFunction,ComponentPad*%
%ADD17C,1.800000*%
%TD*%
%TA.AperFunction,ComponentPad*%
%ADD18RoundRect,0.387500X-0.387500X-0.387500X0.387500X-0.387500X0.387500X0.387500X-0.387500X0.387500X0*%
%TD*%
%TA.AperFunction,ComponentPad*%
%ADD19C,1.720000*%
%TD*%
%TA.AperFunction,ComponentPad*%
%ADD20RoundRect,0.662500X0.662500X-0.662500X0.662500X0.662500X-0.662500X0.662500X-0.662500X-0.662500X0*%
%TD*%
%TA.AperFunction,ComponentPad*%
%ADD21C,2.650000*%
%TD*%
%TA.AperFunction,ComponentPad*%
%ADD22C,1.900000*%
%TD*%
%TA.AperFunction,ComponentPad*%
%ADD23R,1.500000X2.500000*%
%TD*%
%TA.AperFunction,ComponentPad*%
%ADD24O,1.500000X2.500000*%
%TD*%
%TA.AperFunction,ComponentPad*%
%ADD25R,1.050000X1.500000*%
%TD*%
%TA.AperFunction,ComponentPad*%
%ADD26O,1.050000X1.500000*%
%TD*%
%TA.AperFunction,ComponentPad*%
%ADD27C,1.400000*%
%TD*%
%TA.AperFunction,ComponentPad*%
%ADD28O,1.400000X1.400000*%
%TD*%
%TA.AperFunction,ComponentPad*%
%ADD29RoundRect,0.387500X0.387500X-0.387500X0.387500X0.387500X-0.387500X0.387500X-0.387500X-0.387500X0*%
%TD*%
%TA.AperFunction,ViaPad*%
%ADD30C,1.016000*%
%TD*%
G04 APERTURE END LIST*
D10*
D11*
X182661653Y-126050828D02*
X183590225Y-126050828D01*
X183590225Y-126050828D02*
X183090225Y-126622257D01*
X183090225Y-126622257D02*
X183304510Y-126622257D01*
X183304510Y-126622257D02*
X183447368Y-126693685D01*
X183447368Y-126693685D02*
X183518796Y-126765114D01*
X183518796Y-126765114D02*
X183590225Y-126907971D01*
X183590225Y-126907971D02*
X183590225Y-127265114D01*
X183590225Y-127265114D02*
X183518796Y-127407971D01*
X183518796Y-127407971D02*
X183447368Y-127479400D01*
X183447368Y-127479400D02*
X183304510Y-127550828D01*
X183304510Y-127550828D02*
X182875939Y-127550828D01*
X182875939Y-127550828D02*
X182733082Y-127479400D01*
X182733082Y-127479400D02*
X182661653Y-127407971D01*
D12*
%TO.N,Net-(J6-Pin_3)*%
%TO.C,MOV3*%
X110750000Y-80600000D03*
%TO.N,GND*%
X115750000Y-81900000D03*
%TD*%
D13*
%TO.N,Net-(U3-PD1)*%
%TO.C,X1*%
X146250000Y-97300000D03*
%TO.N,Net-(U3-PD0)*%
X146250000Y-102200000D03*
%TD*%
D12*
%TO.N,GND*%
%TO.C,MOV5*%
X188000000Y-86500000D03*
%TO.N,Net-(J4-Pin_1)*%
X186700000Y-91500000D03*
%TD*%
D14*
%TO.N,Net-(J4-Pin_1)*%
%TO.C,J4*%
X193350000Y-91500000D03*
D15*
%TO.N,GND*%
X193350000Y-94000000D03*
%TD*%
D16*
%TO.N,Net-(LD5-K)*%
%TO.C,LD5*%
X178750000Y-89000000D03*
D17*
%TO.N,Net-(LD5-A)*%
X181290000Y-89000000D03*
%TD*%
D12*
%TO.N,GND*%
%TO.C,MOV4*%
X188150000Y-77000000D03*
%TO.N,Net-(J3-Pin_2)*%
X186850000Y-82000000D03*
%TD*%
%TO.N,GND*%
%TO.C,MOV2*%
X103784000Y-92850000D03*
%TO.N,Net-(J6-Pin_1)*%
X108784000Y-94150000D03*
%TD*%
D14*
%TO.N,GND*%
%TO.C,J2*%
X193350000Y-67500000D03*
D15*
%TO.N,DQ*%
X193350000Y-70000000D03*
%TD*%
D16*
%TO.N,Net-(LD4-K)*%
%TO.C,LD4*%
X178750000Y-77000000D03*
D17*
%TO.N,Net-(LD4-A)*%
X181290000Y-77000000D03*
%TD*%
D18*
%TO.N,+3V3*%
%TO.C,J8*%
X162170000Y-101000000D03*
D19*
%TO.N,SWCLK*%
X162170000Y-98460000D03*
%TO.N,SWDIO*%
X164710000Y-101000000D03*
%TO.N,NRST*%
X164710000Y-98460000D03*
%TO.N,unconnected-(J8-Pin_5-Pad5)*%
X167250000Y-101000000D03*
%TO.N,GND*%
X167250000Y-98460000D03*
%TD*%
D20*
%TO.N,GND*%
%TO.C,J1*%
X104350000Y-72500000D03*
D21*
%TO.N,/supply/pwr1*%
X104350000Y-67500000D03*
%TD*%
D16*
%TO.N,Net-(LD2-K)*%
%TO.C,LD2*%
X143750000Y-60000000D03*
D17*
%TO.N,Net-(LD2-A)*%
X146290000Y-60000000D03*
%TD*%
D22*
%TO.N,GND*%
%TO.C,SW1*%
X123587500Y-117500000D03*
X136087500Y-117500000D03*
%TO.N,NRST*%
X123587500Y-112500000D03*
X136087500Y-112500000D03*
%TD*%
D23*
%TO.N,/supply/pwr3*%
%TO.C,U1*%
X138166250Y-73383750D03*
D24*
%TO.N,GND*%
X140706250Y-73383750D03*
%TO.N,/supply/pwr4*%
X143246250Y-73383750D03*
%TD*%
D25*
%TO.N,GND*%
%TO.C,U4*%
X150000000Y-118412500D03*
D26*
%TO.N,DQ*%
X151270000Y-118412500D03*
%TO.N,unconnected-(U4-NC-Pad3)*%
X152540000Y-118412500D03*
%TD*%
D12*
%TO.N,GND*%
%TO.C,MOV1*%
X186850000Y-71500000D03*
%TO.N,DQ*%
X188150000Y-66500000D03*
%TD*%
D27*
%TO.N,/supply/pwr1*%
%TO.C,F1*%
X115710000Y-67500000D03*
D28*
%TO.N,/supply/pwr2*%
X120790000Y-67500000D03*
%TD*%
D12*
%TO.N,GND*%
%TO.C,MOV6*%
X186850000Y-108500000D03*
%TO.N,Net-(J5-Pin_1)*%
X188150000Y-103500000D03*
%TD*%
D16*
%TO.N,GND*%
%TO.C,LD3*%
X122027000Y-81726000D03*
D17*
%TO.N,Net-(LD3-A)*%
X124567000Y-81726000D03*
%TD*%
D14*
%TO.N,Net-(J5-Pin_1)*%
%TO.C,J5*%
X193350000Y-103500000D03*
D15*
%TO.N,GND*%
X193350000Y-106000000D03*
%TD*%
D29*
%TO.N,Net-(J6-Pin_1)*%
%TO.C,J6*%
X106650000Y-87500000D03*
D15*
%TO.N,GND*%
X106650000Y-85000000D03*
%TO.N,Net-(J6-Pin_3)*%
X106650000Y-82500000D03*
%TD*%
D16*
%TO.N,Net-(LD1-K)*%
%TO.C,LD1*%
X128810000Y-60000000D03*
D17*
%TO.N,+3V3*%
X131350000Y-60000000D03*
%TD*%
D16*
%TO.N,Net-(LD6-K)*%
%TO.C,LD6*%
X178750000Y-101000000D03*
D17*
%TO.N,Net-(LD6-A)*%
X181290000Y-101000000D03*
%TD*%
D14*
%TO.N,GND*%
%TO.C,J3*%
X193350000Y-79500000D03*
D15*
%TO.N,Net-(J3-Pin_2)*%
X193350000Y-82000000D03*
%TD*%
D30*
%TO.N,GND*%
X145250000Y-79750000D03*
%TO.N,FAN2_C*%
X125500000Y-97750000D03*
%TO.N,FAN1_C*%
X125750000Y-96250000D03*
%TO.N,+3V3*%
X173750000Y-68500000D03*
%TO.N,GND*%
X155750000Y-69500000D03*
X134161800Y-97750000D03*
X169500000Y-89250000D03*
X163750000Y-67000000D03*
X164000000Y-69500000D03*
X127000000Y-107000000D03*
X130922000Y-107000000D03*
X155500000Y-72750000D03*
X137325000Y-86675000D03*
X123740000Y-95710000D03*
X155750000Y-67250000D03*
X157250000Y-67250000D03*
X130250000Y-102000000D03*
X153750000Y-95500000D03*
X165750000Y-67000000D03*
X103500000Y-111500000D03*
X176500000Y-114500000D03*
X166000000Y-69500000D03*
X120750000Y-62500000D03*
X140500000Y-106500000D03*
X112000000Y-106250000D03*
X141000000Y-89750000D03*
X153750000Y-100500000D03*
X166750000Y-121250000D03*
X116750000Y-88750000D03*
X132750000Y-93750000D03*
X161500000Y-114250000D03*
X112000000Y-108000000D03*
X159750000Y-86750000D03*
X117750000Y-110500000D03*
%TO.N,+3V3*%
X167000000Y-79000000D03*
X136750000Y-106750000D03*
X120250000Y-97750000D03*
X172250000Y-110750000D03*
X153200000Y-109550000D03*
X120300000Y-70900000D03*
X140500000Y-103250000D03*
X175250000Y-86750000D03*
X139000000Y-112900000D03*
X168750000Y-72000000D03*
X165250000Y-79000000D03*
X128636000Y-94172000D03*
X160750000Y-108750000D03*
X123500000Y-104000000D03*
X140750000Y-98500000D03*
X163500000Y-79000000D03*
%TO.N,NRST*%
X158087500Y-112968000D03*
%TO.N,DQ*%
X179516716Y-121511063D03*
X149500000Y-112000000D03*
X132192000Y-100776000D03*
X149750000Y-116250000D03*
X132575000Y-109500000D03*
%TO.N,Net-(J3-Pin_2)*%
X163849144Y-123650855D03*
X166500000Y-124500000D03*
X180000000Y-122750000D03*
%TO.N,Net-(J4-Pin_1)*%
X185750000Y-112750000D03*
%TO.N,Net-(LD2-K)*%
X131000000Y-99000000D03*
%TO.N,Net-(LD4-K)*%
X176000000Y-107500000D03*
%TO.N,Net-(LD5-K)*%
X178500000Y-120838200D03*
%TO.N,Net-(LD6-K)*%
X178750000Y-117250000D03*
%TO.N,GATE*%
X133716000Y-99760000D03*
X134000000Y-110588200D03*
%TO.N,TX*%
X125842000Y-89981000D03*
X125842000Y-76138000D03*
%TO.N,/mcu/BOOT0*%
X136750000Y-92250000D03*
X135000000Y-101750000D03*
%TO.N,DIR*%
X126096000Y-91378000D03*
X132700000Y-91962200D03*
%TO.N,FAN1_C*%
X156500000Y-126500000D03*
X163750000Y-115000000D03*
X127000000Y-124000000D03*
%TO.N,FAN2_C*%
X158250000Y-126838200D03*
X164750000Y-121250000D03*
X128250000Y-123000000D03*
%TO.N,ALARM_C*%
X129750000Y-105750000D03*
X173000000Y-123500000D03*
X174250000Y-117250000D03*
X129250000Y-122250000D03*
%TD*%
%TA.AperFunction,Conductor*%
%TO.N,+3V3*%
G36*
X198943039Y-51019685D02*
G01*
X198988794Y-51072489D01*
X199000000Y-51124000D01*
X199000000Y-128876000D01*
X198980315Y-128943039D01*
X198927511Y-128988794D01*
X198876000Y-129000000D01*
X191624000Y-129000000D01*
X191556961Y-128980315D01*
X191511206Y-128927511D01*
X191500000Y-128876000D01*
X191500000Y-125000001D01*
X192987974Y-125000001D01*
X193008453Y-125286337D01*
X193008455Y-125286351D01*
X193068802Y-125563759D01*
X193069475Y-125566853D01*
X193150255Y-125783431D01*
X193169799Y-125835832D01*
X193307372Y-126087777D01*
X193307377Y-126087785D01*
X193479405Y-126317589D01*
X193479421Y-126317607D01*
X193682392Y-126520578D01*
X193682410Y-126520594D01*
X193912214Y-126692622D01*
X193912222Y-126692627D01*
X194164168Y-126830200D01*
X194164167Y-126830200D01*
X194164171Y-126830201D01*
X194164174Y-126830203D01*
X194433147Y-126930525D01*
X194593292Y-126965362D01*
X194713648Y-126991544D01*
X194713653Y-126991544D01*
X194713659Y-126991546D01*
X194928331Y-127006900D01*
X195071669Y-127006900D01*
X195286341Y-126991546D01*
X195286348Y-126991544D01*
X195286351Y-126991544D01*
X195340066Y-126979858D01*
X195566853Y-126930525D01*
X195835826Y-126830203D01*
X195835830Y-126830200D01*
X195835832Y-126830200D01*
X196078485Y-126697701D01*
X196087783Y-126692624D01*
X196317597Y-126520588D01*
X196520588Y-126317597D01*
X196692624Y-126087783D01*
X196830203Y-125835826D01*
X196930525Y-125566853D01*
X196991546Y-125286341D01*
X197012026Y-125000000D01*
X196991546Y-124713659D01*
X196980794Y-124664234D01*
X196964014Y-124587094D01*
X196930525Y-124433147D01*
X196830203Y-124164174D01*
X196830201Y-124164171D01*
X196830200Y-124164167D01*
X196692627Y-123912222D01*
X196692622Y-123912214D01*
X196520594Y-123682410D01*
X196520578Y-123682392D01*
X196317607Y-123479421D01*
X196317589Y-123479405D01*
X196087785Y-123307377D01*
X196087777Y-123307372D01*
X195835831Y-123169799D01*
X195835832Y-123169799D01*
X195750060Y-123137808D01*
X195566853Y-123069475D01*
X195566846Y-123069473D01*
X195566845Y-123069473D01*
X195286351Y-123008455D01*
X195286337Y-123008453D01*
X195071671Y-122993100D01*
X195071669Y-122993100D01*
X194928331Y-122993100D01*
X194928328Y-122993100D01*
X194713662Y-123008453D01*
X194713648Y-123008455D01*
X194433154Y-123069473D01*
X194433150Y-123069474D01*
X194433147Y-123069475D01*
X194318608Y-123112196D01*
X194164167Y-123169799D01*
X193912222Y-123307372D01*
X193912214Y-123307377D01*
X193682410Y-123479405D01*
X193682392Y-123479421D01*
X193479421Y-123682392D01*
X193479405Y-123682410D01*
X193307377Y-123912214D01*
X193307372Y-123912222D01*
X193169799Y-124164167D01*
X193151265Y-124213859D01*
X193069475Y-124433147D01*
X193069474Y-124433150D01*
X193069473Y-124433154D01*
X193008455Y-124713648D01*
X193008453Y-124713662D01*
X192987974Y-124999998D01*
X192987974Y-125000001D01*
X191500000Y-125000001D01*
X191500000Y-123500000D01*
X180949526Y-123500000D01*
X180882487Y-123480315D01*
X180836732Y-123427511D01*
X180826788Y-123358353D01*
X180840168Y-123317547D01*
X180936239Y-123137808D01*
X180936239Y-123137807D01*
X180936241Y-123137804D01*
X180993908Y-122947701D01*
X181013380Y-122750000D01*
X180993908Y-122552299D01*
X180936241Y-122362196D01*
X180936239Y-122362193D01*
X180936239Y-122362191D01*
X180842598Y-122187001D01*
X180842594Y-122186994D01*
X180716568Y-122033431D01*
X180563005Y-121907405D01*
X180562997Y-121907400D01*
X180555826Y-121903567D01*
X180505984Y-121854604D01*
X180490525Y-121786465D01*
X180495623Y-121758214D01*
X180506271Y-121723115D01*
X180510624Y-121708764D01*
X180530096Y-121511063D01*
X180510624Y-121313362D01*
X180452957Y-121123259D01*
X180452955Y-121123256D01*
X180452955Y-121123254D01*
X180359314Y-120948064D01*
X180359310Y-120948057D01*
X180233284Y-120794494D01*
X180079721Y-120668468D01*
X180079714Y-120668464D01*
X179904524Y-120574823D01*
X179714415Y-120517154D01*
X179524408Y-120498440D01*
X179459621Y-120472279D01*
X179427205Y-120433490D01*
X179342598Y-120275201D01*
X179342594Y-120275194D01*
X179216568Y-120121631D01*
X179063005Y-119995605D01*
X179062998Y-119995601D01*
X178887808Y-119901960D01*
X178792752Y-119873125D01*
X178697701Y-119844292D01*
X178697699Y-119844291D01*
X178697701Y-119844291D01*
X178500000Y-119824820D01*
X178302300Y-119844291D01*
X178112191Y-119901960D01*
X177937001Y-119995601D01*
X177936994Y-119995605D01*
X177783431Y-120121631D01*
X177657405Y-120275194D01*
X177657401Y-120275201D01*
X177563760Y-120450391D01*
X177506091Y-120640500D01*
X177486620Y-120838200D01*
X177506091Y-121035899D01*
X177563760Y-121226008D01*
X177657401Y-121401198D01*
X177657405Y-121401205D01*
X177783431Y-121554768D01*
X177936994Y-121680794D01*
X177937001Y-121680798D01*
X178112191Y-121774439D01*
X178112193Y-121774439D01*
X178112196Y-121774441D01*
X178302299Y-121832108D01*
X178302298Y-121832108D01*
X178364729Y-121838256D01*
X178492306Y-121850822D01*
X178557093Y-121876983D01*
X178589510Y-121915772D01*
X178674117Y-122074061D01*
X178674121Y-122074068D01*
X178800147Y-122227631D01*
X178953709Y-122353656D01*
X178953710Y-122353656D01*
X178953712Y-122353658D01*
X178960882Y-122357490D01*
X179010728Y-122406451D01*
X179026190Y-122474588D01*
X179021093Y-122502843D01*
X179006092Y-122552296D01*
X179006091Y-122552299D01*
X178986620Y-122750000D01*
X179006091Y-122947699D01*
X179063760Y-123137808D01*
X179159832Y-123317547D01*
X179174074Y-123385950D01*
X179149074Y-123451194D01*
X179092768Y-123492564D01*
X179050474Y-123500000D01*
X174125767Y-123500000D01*
X174058728Y-123480315D01*
X174012973Y-123427511D01*
X174002364Y-123388154D01*
X173993908Y-123302300D01*
X173989227Y-123286869D01*
X173936241Y-123112196D01*
X173936239Y-123112193D01*
X173936239Y-123112191D01*
X173842598Y-122937001D01*
X173842594Y-122936994D01*
X173716568Y-122783431D01*
X173563005Y-122657405D01*
X173562998Y-122657401D01*
X173387808Y-122563760D01*
X173292752Y-122534925D01*
X173197701Y-122506092D01*
X173197699Y-122506091D01*
X173197701Y-122506091D01*
X173000000Y-122486620D01*
X172802300Y-122506091D01*
X172612191Y-122563760D01*
X172437001Y-122657401D01*
X172436994Y-122657405D01*
X172283431Y-122783431D01*
X172157405Y-122936994D01*
X172157401Y-122937001D01*
X172063760Y-123112191D01*
X172006091Y-123302300D01*
X171997636Y-123388154D01*
X171971475Y-123452941D01*
X171914441Y-123493300D01*
X171874233Y-123500000D01*
X169500000Y-123500000D01*
X169500000Y-128876000D01*
X169480315Y-128943039D01*
X169427511Y-128988794D01*
X169376000Y-129000000D01*
X101124000Y-129000000D01*
X101056961Y-128980315D01*
X101011206Y-128927511D01*
X101000000Y-128876000D01*
X101000000Y-125000001D01*
X102987974Y-125000001D01*
X103008453Y-125286337D01*
X103008455Y-125286351D01*
X103068802Y-125563759D01*
X103069475Y-125566853D01*
X103150255Y-125783431D01*
X103169799Y-125835832D01*
X103307372Y-126087777D01*
X103307377Y-126087785D01*
X103479405Y-126317589D01*
X103479421Y-126317607D01*
X103682392Y-126520578D01*
X103682410Y-126520594D01*
X103912214Y-126692622D01*
X103912222Y-126692627D01*
X104164168Y-126830200D01*
X104164167Y-126830200D01*
X104164171Y-126830201D01*
X104164174Y-126830203D01*
X104433147Y-126930525D01*
X104593292Y-126965362D01*
X104713648Y-126991544D01*
X104713653Y-126991544D01*
X104713659Y-126991546D01*
X104928331Y-127006900D01*
X105071669Y-127006900D01*
X105286341Y-126991546D01*
X105286348Y-126991544D01*
X105286351Y-126991544D01*
X105340066Y-126979858D01*
X105566853Y-126930525D01*
X105835826Y-126830203D01*
X105835830Y-126830200D01*
X105835832Y-126830200D01*
X106078485Y-126697701D01*
X106087783Y-126692624D01*
X106317597Y-126520588D01*
X106338185Y-126500000D01*
X155486620Y-126500000D01*
X155506091Y-126697699D01*
X155563760Y-126887808D01*
X155657401Y-127062998D01*
X155657405Y-127063005D01*
X155783431Y-127216568D01*
X155936994Y-127342594D01*
X155937001Y-127342598D01*
X156112191Y-127436239D01*
X156112193Y-127436239D01*
X156112196Y-127436241D01*
X156302299Y-127493908D01*
X156302298Y-127493908D01*
X156320024Y-127495653D01*
X156500000Y-127513380D01*
X156697701Y-127493908D01*
X156887804Y-127436241D01*
X157063004Y-127342595D01*
X157163820Y-127259856D01*
X157228130Y-127232544D01*
X157296997Y-127244335D01*
X157348557Y-127291487D01*
X157351843Y-127297257D01*
X157407400Y-127401198D01*
X157407405Y-127401205D01*
X157533431Y-127554768D01*
X157686994Y-127680794D01*
X157687001Y-127680798D01*
X157862191Y-127774439D01*
X157862193Y-127774439D01*
X157862196Y-127774441D01*
X158052299Y-127832108D01*
X158052298Y-127832108D01*
X158070024Y-127833853D01*
X158250000Y-127851580D01*
X158447701Y-127832108D01*
X158637804Y-127774441D01*
X158813004Y-127680795D01*
X158966568Y-127554768D01*
X159092595Y-127401204D01*
X159186241Y-127226004D01*
X159243908Y-127035901D01*
X159263380Y-126838200D01*
X159243908Y-126640499D01*
X159186241Y-126450396D01*
X159186239Y-126450393D01*
X159186239Y-126450391D01*
X159092598Y-126275201D01*
X159092594Y-126275194D01*
X158966568Y-126121631D01*
X158813005Y-125995605D01*
X158812998Y-125995601D01*
X158637808Y-125901960D01*
X158542752Y-125873125D01*
X158447701Y-125844292D01*
X158447699Y-125844291D01*
X158447701Y-125844291D01*
X158250000Y-125824820D01*
X158052300Y-125844291D01*
X157862191Y-125901960D01*
X157687001Y-125995601D01*
X157686995Y-125995605D01*
X157586178Y-126078343D01*
X157521868Y-126105655D01*
X157453001Y-126093864D01*
X157401441Y-126046711D01*
X157398156Y-126040942D01*
X157342598Y-125937001D01*
X157342594Y-125936994D01*
X157216568Y-125783431D01*
X157063005Y-125657405D01*
X157062998Y-125657401D01*
X156887808Y-125563760D01*
X156721723Y-125513379D01*
X156697701Y-125506092D01*
X156697699Y-125506091D01*
X156697701Y-125506091D01*
X156500000Y-125486620D01*
X156302300Y-125506091D01*
X156112191Y-125563760D01*
X155937001Y-125657401D01*
X155936994Y-125657405D01*
X155783431Y-125783431D01*
X155657405Y-125936994D01*
X155657401Y-125937001D01*
X155563760Y-126112191D01*
X155506091Y-126302300D01*
X155486620Y-126500000D01*
X106338185Y-126500000D01*
X106520588Y-126317597D01*
X106692624Y-126087783D01*
X106830203Y-125835826D01*
X106930525Y-125566853D01*
X106991546Y-125286341D01*
X107012026Y-125000000D01*
X106991546Y-124713659D01*
X106980794Y-124664234D01*
X106964014Y-124587094D01*
X106930525Y-124433147D01*
X106830203Y-124164174D01*
X106830201Y-124164171D01*
X106830200Y-124164167D01*
X106740558Y-124000000D01*
X125986620Y-124000000D01*
X126006091Y-124197699D01*
X126063760Y-124387808D01*
X126157401Y-124562998D01*
X126157405Y-124563005D01*
X126283431Y-124716568D01*
X126436994Y-124842594D01*
X126437001Y-124842598D01*
X126612191Y-124936239D01*
X126612193Y-124936239D01*
X126612196Y-124936241D01*
X126802299Y-124993908D01*
X126802298Y-124993908D01*
X126820024Y-124995653D01*
X127000000Y-125013380D01*
X127197701Y-124993908D01*
X127387804Y-124936241D01*
X127563004Y-124842595D01*
X127716568Y-124716568D01*
X127842595Y-124563004D01*
X127936241Y-124387804D01*
X127993908Y-124197701D01*
X128002194Y-124113571D01*
X128028353Y-124048787D01*
X128085387Y-124008427D01*
X128137748Y-124002324D01*
X128250000Y-124013380D01*
X128447701Y-123993908D01*
X128637804Y-123936241D01*
X128813004Y-123842595D01*
X128966568Y-123716568D01*
X129020497Y-123650855D01*
X162835764Y-123650855D01*
X162855235Y-123848554D01*
X162912904Y-124038663D01*
X163006545Y-124213853D01*
X163006549Y-124213860D01*
X163132575Y-124367423D01*
X163286138Y-124493449D01*
X163286145Y-124493453D01*
X163461335Y-124587094D01*
X163461337Y-124587094D01*
X163461340Y-124587096D01*
X163651443Y-124644763D01*
X163651442Y-124644763D01*
X163669168Y-124646508D01*
X163849144Y-124664235D01*
X164046845Y-124644763D01*
X164236948Y-124587096D01*
X164399894Y-124500000D01*
X165486620Y-124500000D01*
X165506091Y-124697699D01*
X165563760Y-124887808D01*
X165657401Y-125062998D01*
X165657405Y-125063005D01*
X165783431Y-125216568D01*
X165936994Y-125342594D01*
X165937001Y-125342598D01*
X166112191Y-125436239D01*
X166112193Y-125436239D01*
X166112196Y-125436241D01*
X166302299Y-125493908D01*
X166302298Y-125493908D01*
X166320024Y-125495653D01*
X166500000Y-125513380D01*
X166697701Y-125493908D01*
X166887804Y-125436241D01*
X167063004Y-125342595D01*
X167216568Y-125216568D01*
X167342595Y-125063004D01*
X167436241Y-124887804D01*
X167493908Y-124697701D01*
X167513380Y-124500000D01*
X167493908Y-124302299D01*
X167436241Y-124112196D01*
X167436239Y-124112193D01*
X167436239Y-124112191D01*
X167342598Y-123937001D01*
X167342594Y-123936994D01*
X167216568Y-123783431D01*
X167063005Y-123657405D01*
X167062998Y-123657401D01*
X166887808Y-123563760D01*
X166792752Y-123534925D01*
X166697701Y-123506092D01*
X166697699Y-123506091D01*
X166697701Y-123506091D01*
X166500000Y-123486620D01*
X166302300Y-123506091D01*
X166112191Y-123563760D01*
X165937001Y-123657401D01*
X165936994Y-123657405D01*
X165783431Y-123783431D01*
X165657405Y-123936994D01*
X165657401Y-123937001D01*
X165563760Y-124112191D01*
X165506091Y-124302300D01*
X165486620Y-124500000D01*
X164399894Y-124500000D01*
X164412148Y-124493450D01*
X164565712Y-124367423D01*
X164691739Y-124213859D01*
X164772372Y-124063004D01*
X164785383Y-124038663D01*
X164785383Y-124038662D01*
X164785385Y-124038659D01*
X164843052Y-123848556D01*
X164862524Y-123650855D01*
X164843052Y-123453154D01*
X164785385Y-123263051D01*
X164785383Y-123263048D01*
X164785383Y-123263046D01*
X164691742Y-123087856D01*
X164691738Y-123087849D01*
X164565712Y-122934286D01*
X164412149Y-122808260D01*
X164412142Y-122808256D01*
X164236952Y-122714615D01*
X164141896Y-122685780D01*
X164046845Y-122656947D01*
X164046843Y-122656946D01*
X164046845Y-122656946D01*
X163849144Y-122637475D01*
X163651444Y-122656946D01*
X163461335Y-122714615D01*
X163286145Y-122808256D01*
X163286138Y-122808260D01*
X163132575Y-122934286D01*
X163006549Y-123087849D01*
X163006545Y-123087856D01*
X162912904Y-123263046D01*
X162855235Y-123453155D01*
X162835764Y-123650855D01*
X129020497Y-123650855D01*
X129092595Y-123563004D01*
X129186241Y-123387804D01*
X129199132Y-123345305D01*
X129237428Y-123286869D01*
X129301241Y-123258413D01*
X129305632Y-123257900D01*
X129447701Y-123243908D01*
X129637804Y-123186241D01*
X129813004Y-123092595D01*
X129966568Y-122966568D01*
X130092595Y-122813004D01*
X130176009Y-122656947D01*
X130186239Y-122637808D01*
X130186239Y-122637807D01*
X130186241Y-122637804D01*
X130243908Y-122447701D01*
X130263380Y-122250000D01*
X130243908Y-122052299D01*
X130186241Y-121862196D01*
X130186239Y-121862193D01*
X130186239Y-121862191D01*
X130092598Y-121687001D01*
X130092594Y-121686994D01*
X129966568Y-121533431D01*
X129813005Y-121407405D01*
X129812998Y-121407401D01*
X129637808Y-121313760D01*
X129542752Y-121284925D01*
X129447701Y-121256092D01*
X129447699Y-121256091D01*
X129447701Y-121256091D01*
X129385855Y-121250000D01*
X163736620Y-121250000D01*
X163756091Y-121447699D01*
X163813760Y-121637808D01*
X163907401Y-121812998D01*
X163907405Y-121813005D01*
X164033431Y-121966568D01*
X164186994Y-122092594D01*
X164187001Y-122092598D01*
X164362191Y-122186239D01*
X164362193Y-122186239D01*
X164362196Y-122186241D01*
X164552299Y-122243908D01*
X164552298Y-122243908D01*
X164570024Y-122245653D01*
X164750000Y-122263380D01*
X164947701Y-122243908D01*
X165137804Y-122186241D01*
X165313004Y-122092595D01*
X165466568Y-121966568D01*
X165592595Y-121813004D01*
X165640642Y-121723113D01*
X165689604Y-121673271D01*
X165757741Y-121657810D01*
X165823421Y-121681641D01*
X165859357Y-121723113D01*
X165886792Y-121774439D01*
X165907406Y-121813005D01*
X166033431Y-121966568D01*
X166186994Y-122092594D01*
X166187001Y-122092598D01*
X166362191Y-122186239D01*
X166362193Y-122186239D01*
X166362196Y-122186241D01*
X166552299Y-122243908D01*
X166552298Y-122243908D01*
X166570024Y-122245653D01*
X166750000Y-122263380D01*
X166947701Y-122243908D01*
X167137804Y-122186241D01*
X167313004Y-122092595D01*
X167466568Y-121966568D01*
X167592595Y-121813004D01*
X167659947Y-121686996D01*
X167686239Y-121637808D01*
X167686239Y-121637807D01*
X167686241Y-121637804D01*
X167743908Y-121447701D01*
X167763380Y-121250000D01*
X167743908Y-121052299D01*
X167686241Y-120862196D01*
X167686239Y-120862193D01*
X167686239Y-120862191D01*
X167592598Y-120687001D01*
X167592594Y-120686994D01*
X167466568Y-120533431D01*
X167313005Y-120407405D01*
X167312998Y-120407401D01*
X167137808Y-120313760D01*
X167010695Y-120275201D01*
X166947701Y-120256092D01*
X166947699Y-120256091D01*
X166947701Y-120256091D01*
X166750000Y-120236620D01*
X166552300Y-120256091D01*
X166362191Y-120313760D01*
X166187001Y-120407401D01*
X166186994Y-120407405D01*
X166033431Y-120533431D01*
X165907405Y-120686994D01*
X165907401Y-120687001D01*
X165859358Y-120776884D01*
X165810396Y-120826728D01*
X165742258Y-120842189D01*
X165676579Y-120818357D01*
X165640642Y-120776884D01*
X165592598Y-120687001D01*
X165592594Y-120686994D01*
X165466568Y-120533431D01*
X165313005Y-120407405D01*
X165312998Y-120407401D01*
X165137808Y-120313760D01*
X165010695Y-120275201D01*
X164947701Y-120256092D01*
X164947699Y-120256091D01*
X164947701Y-120256091D01*
X164750000Y-120236620D01*
X164552300Y-120256091D01*
X164362191Y-120313760D01*
X164187001Y-120407401D01*
X164186994Y-120407405D01*
X164033431Y-120533431D01*
X163907405Y-120686994D01*
X163907401Y-120687001D01*
X163813760Y-120862191D01*
X163756091Y-121052300D01*
X163736620Y-121250000D01*
X129385855Y-121250000D01*
X129250000Y-121236620D01*
X129052300Y-121256091D01*
X128862191Y-121313760D01*
X128687001Y-121407401D01*
X128686994Y-121407405D01*
X128533431Y-121533431D01*
X128407405Y-121686994D01*
X128407401Y-121687001D01*
X128313759Y-121862193D01*
X128300867Y-121904693D01*
X128262569Y-121963131D01*
X128198756Y-121991587D01*
X128194362Y-121992099D01*
X128052300Y-122006091D01*
X127862191Y-122063760D01*
X127687001Y-122157401D01*
X127686994Y-122157405D01*
X127533431Y-122283431D01*
X127407405Y-122436994D01*
X127407401Y-122437001D01*
X127313760Y-122612191D01*
X127256091Y-122802300D01*
X127247806Y-122886426D01*
X127221645Y-122951213D01*
X127164611Y-122991572D01*
X127112250Y-122997675D01*
X127000001Y-122986620D01*
X127000000Y-122986620D01*
X126980529Y-122988537D01*
X126802300Y-123006091D01*
X126612191Y-123063760D01*
X126437001Y-123157401D01*
X126436994Y-123157405D01*
X126283431Y-123283431D01*
X126157405Y-123436994D01*
X126157401Y-123437001D01*
X126063760Y-123612191D01*
X126006091Y-123802300D01*
X125986620Y-124000000D01*
X106740558Y-124000000D01*
X106692627Y-123912222D01*
X106692622Y-123912214D01*
X106520594Y-123682410D01*
X106520578Y-123682392D01*
X106317607Y-123479421D01*
X106317589Y-123479405D01*
X106087785Y-123307377D01*
X106087777Y-123307372D01*
X105835831Y-123169799D01*
X105835832Y-123169799D01*
X105750060Y-123137808D01*
X105566853Y-123069475D01*
X105566846Y-123069473D01*
X105566845Y-123069473D01*
X105286351Y-123008455D01*
X105286337Y-123008453D01*
X105071671Y-122993100D01*
X105071669Y-122993100D01*
X104928331Y-122993100D01*
X104928328Y-122993100D01*
X104713662Y-123008453D01*
X104713648Y-123008455D01*
X104433154Y-123069473D01*
X104433150Y-123069474D01*
X104433147Y-123069475D01*
X104318608Y-123112196D01*
X104164167Y-123169799D01*
X103912222Y-123307372D01*
X103912214Y-123307377D01*
X103682410Y-123479405D01*
X103682392Y-123479421D01*
X103479421Y-123682392D01*
X103479405Y-123682410D01*
X103307377Y-123912214D01*
X103307372Y-123912222D01*
X103169799Y-124164167D01*
X103151265Y-124213859D01*
X103069475Y-124433147D01*
X103069474Y-124433150D01*
X103069473Y-124433154D01*
X103008455Y-124713648D01*
X103008453Y-124713662D01*
X102987974Y-124999998D01*
X102987974Y-125000001D01*
X101000000Y-125000001D01*
X101000000Y-119440346D01*
X128433202Y-119440346D01*
X128443319Y-119678528D01*
X128443319Y-119678532D01*
X128493545Y-119911580D01*
X128577952Y-120121631D01*
X128582436Y-120132790D01*
X128658355Y-120256091D01*
X128707432Y-120335796D01*
X128855476Y-120504007D01*
X128864936Y-120514755D01*
X129050420Y-120664523D01*
X129258546Y-120780790D01*
X129364871Y-120818357D01*
X129483329Y-120860211D01*
X129718290Y-120900499D01*
X129718298Y-120900499D01*
X129718300Y-120900500D01*
X129718301Y-120900500D01*
X129896996Y-120900500D01*
X129896997Y-120900500D01*
X129896998Y-120900499D01*
X129897015Y-120900499D01*
X130075036Y-120885347D01*
X130075039Y-120885346D01*
X130075041Y-120885346D01*
X130305749Y-120825275D01*
X130438473Y-120765279D01*
X130522980Y-120727080D01*
X130522981Y-120727078D01*
X130522986Y-120727077D01*
X130720503Y-120593579D01*
X130892618Y-120428621D01*
X131034379Y-120236947D01*
X131141707Y-120024074D01*
X131211516Y-119796123D01*
X131241798Y-119559654D01*
X131240115Y-119520046D01*
X131231680Y-119321471D01*
X131231680Y-119321467D01*
X131181454Y-119088419D01*
X131110134Y-118910934D01*
X131092564Y-118867210D01*
X130967569Y-118664205D01*
X130810064Y-118485245D01*
X130624580Y-118335477D01*
X130510630Y-118271820D01*
X130416455Y-118219210D01*
X130191670Y-118139788D01*
X129956709Y-118099500D01*
X129956700Y-118099500D01*
X129778003Y-118099500D01*
X129777984Y-118099500D01*
X129599963Y-118114652D01*
X129369251Y-118174724D01*
X129152019Y-118272919D01*
X129152011Y-118272924D01*
X128954506Y-118406413D01*
X128954497Y-118406421D01*
X128782381Y-118571379D01*
X128640623Y-118763050D01*
X128640620Y-118763054D01*
X128533296Y-118975920D01*
X128533293Y-118975926D01*
X128463483Y-119203878D01*
X128433202Y-119440346D01*
X101000000Y-119440346D01*
X101000000Y-117500005D01*
X122132029Y-117500005D01*
X122151879Y-117739559D01*
X122210889Y-117972589D01*
X122307451Y-118192729D01*
X122359845Y-118272923D01*
X122438929Y-118393969D01*
X122601736Y-118570825D01*
X122601739Y-118570827D01*
X122601742Y-118570830D01*
X122791424Y-118718466D01*
X122791430Y-118718470D01*
X122791433Y-118718472D01*
X123002844Y-118832882D01*
X123002847Y-118832883D01*
X123230199Y-118910933D01*
X123230201Y-118910933D01*
X123230203Y-118910934D01*
X123467308Y-118950500D01*
X123467309Y-118950500D01*
X123707691Y-118950500D01*
X123707692Y-118950500D01*
X123944797Y-118910934D01*
X124172156Y-118832882D01*
X124383567Y-118718472D01*
X124573264Y-118570825D01*
X124736071Y-118393969D01*
X124867549Y-118192728D01*
X124964110Y-117972591D01*
X125023120Y-117739563D01*
X125042971Y-117500005D01*
X134632029Y-117500005D01*
X134651879Y-117739559D01*
X134710889Y-117972589D01*
X134807451Y-118192729D01*
X134859845Y-118272923D01*
X134938929Y-118393969D01*
X135101736Y-118570825D01*
X135101739Y-118570827D01*
X135101742Y-118570830D01*
X135291424Y-118718466D01*
X135291430Y-118718470D01*
X135291433Y-118718472D01*
X135502844Y-118832882D01*
X135502847Y-118832883D01*
X135730199Y-118910933D01*
X135730201Y-118910933D01*
X135730203Y-118910934D01*
X135967308Y-118950500D01*
X135967309Y-118950500D01*
X136207691Y-118950500D01*
X136207692Y-118950500D01*
X136444797Y-118910934D01*
X136672156Y-118832882D01*
X136883567Y-118718472D01*
X137073264Y-118570825D01*
X137236071Y-118393969D01*
X137367549Y-118192728D01*
X137464110Y-117972591D01*
X137523120Y-117739563D01*
X137542971Y-117500000D01*
X137539561Y-117458853D01*
X137526809Y-117304954D01*
X137523120Y-117260437D01*
X137464110Y-117027409D01*
X137367549Y-116807272D01*
X137236071Y-116606031D01*
X137073264Y-116429175D01*
X137073259Y-116429171D01*
X137073257Y-116429169D01*
X136883575Y-116281533D01*
X136883569Y-116281529D01*
X136825309Y-116250000D01*
X148736620Y-116250000D01*
X148756091Y-116447699D01*
X148813760Y-116637808D01*
X148907401Y-116812998D01*
X148907405Y-116813005D01*
X149033431Y-116966568D01*
X149166884Y-117076090D01*
X149206218Y-117133836D01*
X149208089Y-117203680D01*
X149171901Y-117263448D01*
X149162531Y-117271209D01*
X149117452Y-117304955D01*
X149031206Y-117420164D01*
X149031202Y-117420171D01*
X148980908Y-117555017D01*
X148974501Y-117614616D01*
X148974500Y-117614635D01*
X148974500Y-119210370D01*
X148974501Y-119210376D01*
X148980908Y-119269983D01*
X149031202Y-119404828D01*
X149031206Y-119404835D01*
X149117452Y-119520044D01*
X149117455Y-119520047D01*
X149232664Y-119606293D01*
X149232671Y-119606297D01*
X149367517Y-119656591D01*
X149367516Y-119656591D01*
X149374444Y-119657335D01*
X149427127Y-119663000D01*
X150572872Y-119662999D01*
X150632483Y-119656591D01*
X150767331Y-119606296D01*
X150767335Y-119606292D01*
X150775118Y-119602044D01*
X150776252Y-119604121D01*
X150829715Y-119584171D01*
X150874576Y-119589194D01*
X150875656Y-119589521D01*
X150875659Y-119589523D01*
X151068967Y-119648162D01*
X151270000Y-119667962D01*
X151471033Y-119648162D01*
X151664341Y-119589523D01*
X151842494Y-119494298D01*
X151842498Y-119494294D01*
X151846546Y-119492131D01*
X151914949Y-119477889D01*
X151963454Y-119492131D01*
X151967502Y-119494294D01*
X151967506Y-119494298D01*
X152145659Y-119589523D01*
X152338967Y-119648162D01*
X152540000Y-119667962D01*
X152741033Y-119648162D01*
X152934341Y-119589523D01*
X153112494Y-119494298D01*
X153268647Y-119366147D01*
X153396798Y-119209994D01*
X153492023Y-119031841D01*
X153550662Y-118838533D01*
X153565500Y-118687880D01*
X153565500Y-118137120D01*
X153550662Y-117986467D01*
X153492023Y-117793159D01*
X153492021Y-117793156D01*
X153492021Y-117793154D01*
X153396801Y-117615011D01*
X153396799Y-117615009D01*
X153396798Y-117615006D01*
X153357824Y-117567516D01*
X153268647Y-117458852D01*
X153112495Y-117330703D01*
X153112488Y-117330698D01*
X152961514Y-117250000D01*
X173236620Y-117250000D01*
X173256091Y-117447699D01*
X173313760Y-117637808D01*
X173407401Y-117812998D01*
X173407405Y-117813005D01*
X173533431Y-117966568D01*
X173686994Y-118092594D01*
X173687001Y-118092598D01*
X173862191Y-118186239D01*
X173862193Y-118186239D01*
X173862196Y-118186241D01*
X174052299Y-118243908D01*
X174052298Y-118243908D01*
X174070024Y-118245653D01*
X174250000Y-118263380D01*
X174447701Y-118243908D01*
X174637804Y-118186241D01*
X174813004Y-118092595D01*
X174966568Y-117966568D01*
X175092595Y-117813004D01*
X175186241Y-117637804D01*
X175243908Y-117447701D01*
X175263380Y-117250000D01*
X177736620Y-117250000D01*
X177756091Y-117447699D01*
X177813760Y-117637808D01*
X177907401Y-117812998D01*
X177907405Y-117813005D01*
X178033431Y-117966568D01*
X178186994Y-118092594D01*
X178187001Y-118092598D01*
X178362191Y-118186239D01*
X178362193Y-118186239D01*
X178362196Y-118186241D01*
X178552299Y-118243908D01*
X178552298Y-118243908D01*
X178570024Y-118245653D01*
X178750000Y-118263380D01*
X178947701Y-118243908D01*
X179137804Y-118186241D01*
X179313004Y-118092595D01*
X179466568Y-117966568D01*
X179592595Y-117813004D01*
X179686241Y-117637804D01*
X179743908Y-117447701D01*
X179763380Y-117250000D01*
X179743908Y-117052299D01*
X179686241Y-116862196D01*
X179686239Y-116862193D01*
X179686239Y-116862191D01*
X179592598Y-116687001D01*
X179592594Y-116686994D01*
X179466568Y-116533431D01*
X179313005Y-116407405D01*
X179312998Y-116407401D01*
X179137808Y-116313760D01*
X179031552Y-116281528D01*
X178947701Y-116256092D01*
X178947699Y-116256091D01*
X178947701Y-116256091D01*
X178750000Y-116236620D01*
X178552300Y-116256091D01*
X178362191Y-116313760D01*
X178187001Y-116407401D01*
X178186994Y-116407405D01*
X178033431Y-116533431D01*
X177907405Y-116686994D01*
X177907401Y-116687001D01*
X177813760Y-116862191D01*
X177756091Y-117052300D01*
X177736620Y-117250000D01*
X175263380Y-117250000D01*
X175243908Y-117052299D01*
X175186241Y-116862196D01*
X175186239Y-116862193D01*
X175186239Y-116862191D01*
X175092598Y-116687001D01*
X175092594Y-116686994D01*
X174966568Y-116533431D01*
X174813005Y-116407405D01*
X174812998Y-116407401D01*
X174637808Y-116313760D01*
X174531552Y-116281528D01*
X174447701Y-116256092D01*
X174447699Y-116256091D01*
X174447701Y-116256091D01*
X174250000Y-116236620D01*
X174052300Y-116256091D01*
X173862191Y-116313760D01*
X173687001Y-116407401D01*
X173686994Y-116407405D01*
X173533431Y-116533431D01*
X173407405Y-116686994D01*
X173407401Y-116687001D01*
X173313760Y-116862191D01*
X173256091Y-117052300D01*
X173236620Y-117250000D01*
X152961514Y-117250000D01*
X152934345Y-117235478D01*
X152741031Y-117176837D01*
X152540000Y-117157038D01*
X152338968Y-117176837D01*
X152145654Y-117235478D01*
X151963453Y-117332867D01*
X151895050Y-117347109D01*
X151846547Y-117332867D01*
X151664345Y-117235478D01*
X151471031Y-117176837D01*
X151270000Y-117157038D01*
X151068968Y-117176837D01*
X150930959Y-117218702D01*
X150875659Y-117235477D01*
X150875658Y-117235477D01*
X150874575Y-117235806D01*
X150804708Y-117236429D01*
X150775618Y-117222029D01*
X150775114Y-117222954D01*
X150767328Y-117218702D01*
X150632482Y-117168408D01*
X150632483Y-117168408D01*
X150572883Y-117162001D01*
X150572881Y-117162000D01*
X150572873Y-117162000D01*
X150572865Y-117162000D01*
X150568358Y-117162000D01*
X150501319Y-117142315D01*
X150455564Y-117089511D01*
X150445620Y-117020353D01*
X150472505Y-116959335D01*
X150552228Y-116862191D01*
X150592595Y-116813004D01*
X150659947Y-116686996D01*
X150686239Y-116637808D01*
X150686239Y-116637807D01*
X150686241Y-116637804D01*
X150743908Y-116447701D01*
X150763380Y-116250000D01*
X150743908Y-116052299D01*
X150686241Y-115862196D01*
X150686239Y-115862193D01*
X150686239Y-115862191D01*
X150592598Y-115687001D01*
X150592594Y-115686994D01*
X150466568Y-115533431D01*
X150313005Y-115407405D01*
X150312998Y-115407401D01*
X150137808Y-115313760D01*
X149971723Y-115263379D01*
X149947701Y-115256092D01*
X149947699Y-115256091D01*
X149947701Y-115256091D01*
X149750000Y-115236620D01*
X149552300Y-115256091D01*
X149362191Y-115313760D01*
X149187001Y-115407401D01*
X149186994Y-115407405D01*
X149033431Y-115533431D01*
X148907405Y-115686994D01*
X148907401Y-115687001D01*
X148813760Y-115862191D01*
X148756091Y-116052300D01*
X148736620Y-116250000D01*
X136825309Y-116250000D01*
X136672157Y-116167118D01*
X136672152Y-116167116D01*
X136444800Y-116089066D01*
X136224465Y-116052299D01*
X136207692Y-116049500D01*
X135967308Y-116049500D01*
X135950535Y-116052299D01*
X135730199Y-116089066D01*
X135502847Y-116167116D01*
X135502842Y-116167118D01*
X135291430Y-116281529D01*
X135291424Y-116281533D01*
X135101742Y-116429169D01*
X135101739Y-116429172D01*
X134938930Y-116606029D01*
X134938927Y-116606033D01*
X134807451Y-116807270D01*
X134710889Y-117027410D01*
X134651879Y-117260440D01*
X134632029Y-117499994D01*
X134632029Y-117500005D01*
X125042971Y-117500005D01*
X125042971Y-117500000D01*
X125039561Y-117458853D01*
X125026809Y-117304954D01*
X125023120Y-117260437D01*
X124964110Y-117027409D01*
X124867549Y-116807272D01*
X124736071Y-116606031D01*
X124573264Y-116429175D01*
X124573259Y-116429171D01*
X124573257Y-116429169D01*
X124383575Y-116281533D01*
X124383569Y-116281529D01*
X124172157Y-116167118D01*
X124172152Y-116167116D01*
X123944800Y-116089066D01*
X123724465Y-116052299D01*
X123707692Y-116049500D01*
X123467308Y-116049500D01*
X123450535Y-116052299D01*
X123230199Y-116089066D01*
X123002847Y-116167116D01*
X123002842Y-116167118D01*
X122791430Y-116281529D01*
X122791424Y-116281533D01*
X122601742Y-116429169D01*
X122601739Y-116429172D01*
X122438930Y-116606029D01*
X122438927Y-116606033D01*
X122307451Y-116807270D01*
X122210889Y-117027410D01*
X122151879Y-117260440D01*
X122132029Y-117499994D01*
X122132029Y-117500005D01*
X101000000Y-117500005D01*
X101000000Y-114250000D01*
X160486620Y-114250000D01*
X160506091Y-114447699D01*
X160563760Y-114637808D01*
X160657401Y-114812998D01*
X160657405Y-114813005D01*
X160783431Y-114966568D01*
X160936994Y-115092594D01*
X160937001Y-115092598D01*
X161112191Y-115186239D01*
X161112193Y-115186239D01*
X161112196Y-115186241D01*
X161302299Y-115243908D01*
X161302298Y-115243908D01*
X161320024Y-115245653D01*
X161500000Y-115263380D01*
X161697701Y-115243908D01*
X161887804Y-115186241D01*
X162063004Y-115092595D01*
X162175831Y-115000000D01*
X162736620Y-115000000D01*
X162756091Y-115197699D01*
X162813760Y-115387808D01*
X162907401Y-115562998D01*
X162907405Y-115563005D01*
X163033431Y-115716568D01*
X163186994Y-115842594D01*
X163187001Y-115842598D01*
X163362191Y-115936239D01*
X163362193Y-115936239D01*
X163362196Y-115936241D01*
X163552299Y-115993908D01*
X163552298Y-115993908D01*
X163570024Y-115995653D01*
X163750000Y-116013380D01*
X163947701Y-115993908D01*
X164137804Y-115936241D01*
X164313004Y-115842595D01*
X164466568Y-115716568D01*
X164592595Y-115563004D01*
X164686241Y-115387804D01*
X164743908Y-115197701D01*
X164763380Y-115000000D01*
X164743908Y-114802299D01*
X164686241Y-114612196D01*
X164686239Y-114612193D01*
X164686239Y-114612191D01*
X164626272Y-114500000D01*
X175486620Y-114500000D01*
X175506091Y-114697699D01*
X175563760Y-114887808D01*
X175657401Y-115062998D01*
X175657405Y-115063005D01*
X175783431Y-115216568D01*
X175936994Y-115342594D01*
X175937001Y-115342598D01*
X176112191Y-115436239D01*
X176112193Y-115436239D01*
X176112196Y-115436241D01*
X176302299Y-115493908D01*
X176302298Y-115493908D01*
X176320024Y-115495653D01*
X176500000Y-115513380D01*
X176697701Y-115493908D01*
X176887804Y-115436241D01*
X177063004Y-115342595D01*
X177216568Y-115216568D01*
X177342595Y-115063004D01*
X177436241Y-114887804D01*
X177493908Y-114697701D01*
X177513380Y-114500000D01*
X177493908Y-114302299D01*
X177436241Y-114112196D01*
X177436239Y-114112193D01*
X177436239Y-114112191D01*
X177342598Y-113937001D01*
X177342594Y-113936994D01*
X177216568Y-113783431D01*
X177063005Y-113657405D01*
X177062998Y-113657401D01*
X176887808Y-113563760D01*
X176779805Y-113530998D01*
X176697701Y-113506092D01*
X176697699Y-113506091D01*
X176697701Y-113506091D01*
X176500000Y-113486620D01*
X176302300Y-113506091D01*
X176112191Y-113563760D01*
X175937001Y-113657401D01*
X175936994Y-113657405D01*
X175783431Y-113783431D01*
X175657405Y-113936994D01*
X175657401Y-113937001D01*
X175563760Y-114112191D01*
X175506091Y-114302300D01*
X175486620Y-114500000D01*
X164626272Y-114500000D01*
X164592598Y-114437001D01*
X164592594Y-114436994D01*
X164466568Y-114283431D01*
X164313005Y-114157405D01*
X164312998Y-114157401D01*
X164137808Y-114063760D01*
X164042752Y-114034925D01*
X163947701Y-114006092D01*
X163947699Y-114006091D01*
X163947701Y-114006091D01*
X163750000Y-113986620D01*
X163552300Y-114006091D01*
X163362191Y-114063760D01*
X163187001Y-114157401D01*
X163186994Y-114157405D01*
X163033431Y-114283431D01*
X162907405Y-114436994D01*
X162907401Y-114437001D01*
X162813760Y-114612191D01*
X162756091Y-114802300D01*
X162736620Y-115000000D01*
X162175831Y-115000000D01*
X162216568Y-114966568D01*
X162342595Y-114813004D01*
X162436241Y-114637804D01*
X162493908Y-114447701D01*
X162513380Y-114250000D01*
X162493908Y-114052299D01*
X162436241Y-113862196D01*
X162436239Y-113862193D01*
X162436239Y-113862191D01*
X162342598Y-113687001D01*
X162342594Y-113686994D01*
X162216568Y-113533431D01*
X162063005Y-113407405D01*
X162062998Y-113407401D01*
X161887808Y-113313760D01*
X161792752Y-113284925D01*
X161697701Y-113256092D01*
X161697699Y-113256091D01*
X161697701Y-113256091D01*
X161500000Y-113236620D01*
X161302300Y-113256091D01*
X161112191Y-113313760D01*
X160937001Y-113407401D01*
X160936994Y-113407405D01*
X160783431Y-113533431D01*
X160657405Y-113686994D01*
X160657401Y-113687001D01*
X160563760Y-113862191D01*
X160506091Y-114052300D01*
X160486620Y-114250000D01*
X101000000Y-114250000D01*
X101000000Y-111500000D01*
X102486620Y-111500000D01*
X102506091Y-111697699D01*
X102563760Y-111887808D01*
X102657401Y-112062998D01*
X102657405Y-112063005D01*
X102783431Y-112216568D01*
X102936994Y-112342594D01*
X102937001Y-112342598D01*
X103112191Y-112436239D01*
X103112193Y-112436239D01*
X103112196Y-112436241D01*
X103302299Y-112493908D01*
X103302298Y-112493908D01*
X103320024Y-112495653D01*
X103500000Y-112513380D01*
X103635798Y-112500005D01*
X122132029Y-112500005D01*
X122151879Y-112739559D01*
X122210889Y-112972589D01*
X122307451Y-113192729D01*
X122413994Y-113355804D01*
X122438929Y-113393969D01*
X122601736Y-113570825D01*
X122601739Y-113570827D01*
X122601742Y-113570830D01*
X122791424Y-113718466D01*
X122791430Y-113718470D01*
X122791433Y-113718472D01*
X123002844Y-113832882D01*
X123002847Y-113832883D01*
X123230199Y-113910933D01*
X123230201Y-113910933D01*
X123230203Y-113910934D01*
X123467308Y-113950500D01*
X123467309Y-113950500D01*
X123707691Y-113950500D01*
X123707692Y-113950500D01*
X123944797Y-113910934D01*
X124172156Y-113832882D01*
X124383567Y-113718472D01*
X124424978Y-113686241D01*
X124545290Y-113592598D01*
X124573264Y-113570825D01*
X124736071Y-113393969D01*
X124867549Y-113192728D01*
X124964110Y-112972591D01*
X125023120Y-112739563D01*
X125038637Y-112552300D01*
X125042971Y-112500005D01*
X134632029Y-112500005D01*
X134651879Y-112739559D01*
X134710889Y-112972589D01*
X134807451Y-113192729D01*
X134913994Y-113355804D01*
X134938929Y-113393969D01*
X135101736Y-113570825D01*
X135101739Y-113570827D01*
X135101742Y-113570830D01*
X135291424Y-113718466D01*
X135291430Y-113718470D01*
X135291433Y-113718472D01*
X135502844Y-113832882D01*
X135502847Y-113832883D01*
X135730199Y-113910933D01*
X135730201Y-113910933D01*
X135730203Y-113910934D01*
X135967308Y-113950500D01*
X135967309Y-113950500D01*
X136207691Y-113950500D01*
X136207692Y-113950500D01*
X136444797Y-113910934D01*
X136672156Y-113832882D01*
X136883567Y-113718472D01*
X136924978Y-113686241D01*
X137045290Y-113592598D01*
X137073264Y-113570825D01*
X137236071Y-113393969D01*
X137367549Y-113192728D01*
X137464110Y-112972591D01*
X137523120Y-112739563D01*
X137538637Y-112552300D01*
X137542971Y-112500005D01*
X137542971Y-112499994D01*
X137523120Y-112260440D01*
X137523120Y-112260437D01*
X137464110Y-112027409D01*
X137452087Y-112000000D01*
X148486620Y-112000000D01*
X148506091Y-112197699D01*
X148563760Y-112387808D01*
X148657401Y-112562998D01*
X148657405Y-112563005D01*
X148783431Y-112716568D01*
X148936994Y-112842594D01*
X148937001Y-112842598D01*
X149112191Y-112936239D01*
X149112193Y-112936239D01*
X149112196Y-112936241D01*
X149302299Y-112993908D01*
X149302298Y-112993908D01*
X149320024Y-112995653D01*
X149500000Y-113013380D01*
X149697701Y-112993908D01*
X149783108Y-112968000D01*
X157074120Y-112968000D01*
X157093591Y-113165699D01*
X157151260Y-113355808D01*
X157244901Y-113530998D01*
X157244905Y-113531005D01*
X157370931Y-113684568D01*
X157524494Y-113810594D01*
X157524501Y-113810598D01*
X157699691Y-113904239D01*
X157699693Y-113904239D01*
X157699696Y-113904241D01*
X157889799Y-113961908D01*
X157889798Y-113961908D01*
X157907524Y-113963653D01*
X158087500Y-113981380D01*
X158285201Y-113961908D01*
X158475304Y-113904241D01*
X158650504Y-113810595D01*
X158804068Y-113684568D01*
X158930095Y-113531004D01*
X159003341Y-113393970D01*
X159023739Y-113355808D01*
X159023739Y-113355807D01*
X159023741Y-113355804D01*
X159081408Y-113165701D01*
X159100880Y-112968000D01*
X159081408Y-112770299D01*
X159075250Y-112750000D01*
X184736620Y-112750000D01*
X184756091Y-112947699D01*
X184813760Y-113137808D01*
X184907401Y-113312998D01*
X184907405Y-113313005D01*
X185033431Y-113466568D01*
X185186994Y-113592594D01*
X185187001Y-113592598D01*
X185362191Y-113686239D01*
X185362193Y-113686239D01*
X185362196Y-113686241D01*
X185552299Y-113743908D01*
X185552298Y-113743908D01*
X185570024Y-113745653D01*
X185750000Y-113763380D01*
X185947701Y-113743908D01*
X186137804Y-113686241D01*
X186313004Y-113592595D01*
X186466568Y-113466568D01*
X186592595Y-113313004D01*
X186686241Y-113137804D01*
X186743908Y-112947701D01*
X186763380Y-112750000D01*
X186743908Y-112552299D01*
X186686241Y-112362196D01*
X186686239Y-112362193D01*
X186686239Y-112362191D01*
X186592598Y-112187001D01*
X186592594Y-112186994D01*
X186466568Y-112033431D01*
X186313005Y-111907405D01*
X186312998Y-111907401D01*
X186137808Y-111813760D01*
X186042752Y-111784925D01*
X185947701Y-111756092D01*
X185947699Y-111756091D01*
X185947701Y-111756091D01*
X185750000Y-111736620D01*
X185552300Y-111756091D01*
X185362191Y-111813760D01*
X185187001Y-111907401D01*
X185186994Y-111907405D01*
X185033431Y-112033431D01*
X184907405Y-112186994D01*
X184907401Y-112187001D01*
X184813760Y-112362191D01*
X184756091Y-112552300D01*
X184736620Y-112750000D01*
X159075250Y-112750000D01*
X159023741Y-112580196D01*
X159023739Y-112580193D01*
X159023739Y-112580191D01*
X158930098Y-112405001D01*
X158930094Y-112404994D01*
X158804068Y-112251431D01*
X158650505Y-112125405D01*
X158650498Y-112125401D01*
X158475308Y-112031760D01*
X158370608Y-112000000D01*
X158285201Y-111974092D01*
X158285199Y-111974091D01*
X158285201Y-111974091D01*
X158087500Y-111954620D01*
X157889800Y-111974091D01*
X157699691Y-112031760D01*
X157524501Y-112125401D01*
X157524494Y-112125405D01*
X157370931Y-112251431D01*
X157244905Y-112404994D01*
X157244901Y-112405001D01*
X157151260Y-112580191D01*
X157093591Y-112770300D01*
X157074120Y-112968000D01*
X149783108Y-112968000D01*
X149887804Y-112936241D01*
X150063004Y-112842595D01*
X150216568Y-112716568D01*
X150342595Y-112563004D01*
X150436241Y-112387804D01*
X150493908Y-112197701D01*
X150513380Y-112000000D01*
X150493908Y-111802299D01*
X150436241Y-111612196D01*
X150436239Y-111612193D01*
X150436239Y-111612191D01*
X150342598Y-111437001D01*
X150342594Y-111436994D01*
X150216568Y-111283431D01*
X150063005Y-111157405D01*
X150062998Y-111157401D01*
X149887808Y-111063760D01*
X149756980Y-111024074D01*
X149697701Y-111006092D01*
X149697699Y-111006091D01*
X149697701Y-111006091D01*
X149500000Y-110986620D01*
X149302300Y-111006091D01*
X149112191Y-111063760D01*
X148937001Y-111157401D01*
X148936994Y-111157405D01*
X148783431Y-111283431D01*
X148657405Y-111436994D01*
X148657401Y-111437001D01*
X148563760Y-111612191D01*
X148506091Y-111802300D01*
X148486620Y-112000000D01*
X137452087Y-112000000D01*
X137367549Y-111807272D01*
X137350247Y-111780790D01*
X137240099Y-111612196D01*
X137236071Y-111606031D01*
X137073264Y-111429175D01*
X137073259Y-111429171D01*
X137073257Y-111429169D01*
X136883575Y-111281533D01*
X136883569Y-111281529D01*
X136672157Y-111167118D01*
X136672152Y-111167116D01*
X136444800Y-111089066D01*
X136266968Y-111059391D01*
X136207692Y-111049500D01*
X135967308Y-111049500D01*
X135919887Y-111057413D01*
X135730199Y-111089066D01*
X135502847Y-111167116D01*
X135502842Y-111167118D01*
X135291430Y-111281529D01*
X135291424Y-111281533D01*
X135101742Y-111429169D01*
X135101739Y-111429172D01*
X135101736Y-111429174D01*
X135101736Y-111429175D01*
X135094538Y-111436994D01*
X134938930Y-111606029D01*
X134938927Y-111606033D01*
X134807451Y-111807270D01*
X134710889Y-112027410D01*
X134651879Y-112260440D01*
X134632029Y-112499994D01*
X134632029Y-112500005D01*
X125042971Y-112500005D01*
X125042971Y-112499994D01*
X125023120Y-112260440D01*
X125023120Y-112260437D01*
X124964110Y-112027409D01*
X124867549Y-111807272D01*
X124850247Y-111780790D01*
X124740099Y-111612196D01*
X124736071Y-111606031D01*
X124573264Y-111429175D01*
X124573259Y-111429171D01*
X124573257Y-111429169D01*
X124383575Y-111281533D01*
X124383569Y-111281529D01*
X124172157Y-111167118D01*
X124172152Y-111167116D01*
X123944800Y-111089066D01*
X123766968Y-111059391D01*
X123707692Y-111049500D01*
X123467308Y-111049500D01*
X123419887Y-111057413D01*
X123230199Y-111089066D01*
X123002847Y-111167116D01*
X123002842Y-111167118D01*
X122791430Y-111281529D01*
X122791424Y-111281533D01*
X122601742Y-111429169D01*
X122601739Y-111429172D01*
X122601736Y-111429174D01*
X122601736Y-111429175D01*
X122594538Y-111436994D01*
X122438930Y-111606029D01*
X122438927Y-111606033D01*
X122307451Y-111807270D01*
X122210889Y-112027410D01*
X122151879Y-112260440D01*
X122132029Y-112499994D01*
X122132029Y-112500005D01*
X103635798Y-112500005D01*
X103697701Y-112493908D01*
X103887804Y-112436241D01*
X104063004Y-112342595D01*
X104216568Y-112216568D01*
X104342595Y-112063004D01*
X104429455Y-111900500D01*
X104436239Y-111887808D01*
X104436239Y-111887807D01*
X104436241Y-111887804D01*
X104493908Y-111697701D01*
X104513380Y-111500000D01*
X104493908Y-111302299D01*
X104436241Y-111112196D01*
X104436239Y-111112193D01*
X104436239Y-111112191D01*
X104342598Y-110937001D01*
X104342594Y-110936994D01*
X104216568Y-110783431D01*
X104063005Y-110657405D01*
X104062998Y-110657401D01*
X103887808Y-110563760D01*
X103721723Y-110513379D01*
X103697701Y-110506092D01*
X103697699Y-110506091D01*
X103697701Y-110506091D01*
X103635855Y-110500000D01*
X116736620Y-110500000D01*
X116756091Y-110697699D01*
X116813760Y-110887808D01*
X116907401Y-111062998D01*
X116907405Y-111063005D01*
X117033431Y-111216568D01*
X117186994Y-111342594D01*
X117187001Y-111342598D01*
X117362191Y-111436239D01*
X117362193Y-111436239D01*
X117362196Y-111436241D01*
X117552299Y-111493908D01*
X117552298Y-111493908D01*
X117570024Y-111495653D01*
X117750000Y-111513380D01*
X117947701Y-111493908D01*
X118137804Y-111436241D01*
X118313004Y-111342595D01*
X118466568Y-111216568D01*
X118592595Y-111063004D01*
X118659947Y-110936996D01*
X118686239Y-110887808D01*
X118686239Y-110887807D01*
X118686241Y-110887804D01*
X118743908Y-110697701D01*
X118763380Y-110500000D01*
X118757505Y-110440346D01*
X128433202Y-110440346D01*
X128443319Y-110678528D01*
X128443319Y-110678532D01*
X128493545Y-110911580D01*
X128582435Y-111132788D01*
X128582436Y-111132790D01*
X128707431Y-111335795D01*
X128864936Y-111514755D01*
X129050420Y-111664523D01*
X129258546Y-111780790D01*
X129384451Y-111825275D01*
X129483329Y-111860211D01*
X129718290Y-111900499D01*
X129718298Y-111900499D01*
X129718300Y-111900500D01*
X129718301Y-111900500D01*
X129896996Y-111900500D01*
X129896997Y-111900500D01*
X129896998Y-111900499D01*
X129897015Y-111900499D01*
X130075036Y-111885347D01*
X130075039Y-111885346D01*
X130075041Y-111885346D01*
X130305749Y-111825275D01*
X130501875Y-111736620D01*
X130522980Y-111727080D01*
X130522981Y-111727078D01*
X130522986Y-111727077D01*
X130720503Y-111593579D01*
X130892618Y-111428621D01*
X131034379Y-111236947D01*
X131141707Y-111024074D01*
X131211516Y-110796123D01*
X131241798Y-110559654D01*
X131236555Y-110436241D01*
X131234612Y-110390499D01*
X131231680Y-110321468D01*
X131181454Y-110088419D01*
X131092564Y-109867210D01*
X130967569Y-109664205D01*
X130823050Y-109500000D01*
X131561620Y-109500000D01*
X131581091Y-109697699D01*
X131638760Y-109887808D01*
X131732401Y-110062998D01*
X131732405Y-110063005D01*
X131858431Y-110216568D01*
X132011994Y-110342594D01*
X132012001Y-110342598D01*
X132187191Y-110436239D01*
X132187193Y-110436239D01*
X132187196Y-110436241D01*
X132377299Y-110493908D01*
X132377298Y-110493908D01*
X132395024Y-110495653D01*
X132575000Y-110513380D01*
X132772701Y-110493908D01*
X132826807Y-110477494D01*
X132896673Y-110476871D01*
X132955787Y-110514118D01*
X132985378Y-110577412D01*
X132986206Y-110584001D01*
X133006091Y-110785899D01*
X133063760Y-110976008D01*
X133157401Y-111151198D01*
X133157405Y-111151205D01*
X133283431Y-111304768D01*
X133436994Y-111430794D01*
X133437001Y-111430798D01*
X133612191Y-111524439D01*
X133612193Y-111524439D01*
X133612196Y-111524441D01*
X133802299Y-111582108D01*
X133802298Y-111582108D01*
X133820024Y-111583853D01*
X134000000Y-111601580D01*
X134197701Y-111582108D01*
X134387804Y-111524441D01*
X134563004Y-111430795D01*
X134716568Y-111304768D01*
X134842595Y-111151204D01*
X134898782Y-111046084D01*
X134936239Y-110976008D01*
X134936239Y-110976007D01*
X134936241Y-110976004D01*
X134993908Y-110785901D01*
X135013380Y-110588200D01*
X134993908Y-110390499D01*
X134936241Y-110200396D01*
X134936239Y-110200393D01*
X134936239Y-110200391D01*
X134842598Y-110025201D01*
X134842594Y-110025194D01*
X134716568Y-109871631D01*
X134563005Y-109745605D01*
X134562998Y-109745601D01*
X134387808Y-109651960D01*
X134253861Y-109611328D01*
X134197701Y-109594292D01*
X134197699Y-109594291D01*
X134197701Y-109594291D01*
X134000000Y-109574820D01*
X133802298Y-109594291D01*
X133748190Y-109610705D01*
X133678323Y-109611328D01*
X133619211Y-109574079D01*
X133589620Y-109510784D01*
X133588793Y-109504198D01*
X133586926Y-109485245D01*
X133568908Y-109302299D01*
X133511241Y-109112196D01*
X133511239Y-109112193D01*
X133511239Y-109112191D01*
X133417598Y-108937001D01*
X133417594Y-108936994D01*
X133291568Y-108783431D01*
X133138005Y-108657405D01*
X133137998Y-108657401D01*
X132962808Y-108563760D01*
X132796723Y-108513379D01*
X132772701Y-108506092D01*
X132772699Y-108506091D01*
X132772701Y-108506091D01*
X132575000Y-108486620D01*
X132377300Y-108506091D01*
X132187191Y-108563760D01*
X132012001Y-108657401D01*
X132011994Y-108657405D01*
X131858431Y-108783431D01*
X131732405Y-108936994D01*
X131732401Y-108937001D01*
X131638760Y-109112191D01*
X131581091Y-109302300D01*
X131561620Y-109500000D01*
X130823050Y-109500000D01*
X130810064Y-109485245D01*
X130624580Y-109335477D01*
X130510630Y-109271820D01*
X130416455Y-109219210D01*
X130191670Y-109139788D01*
X129956709Y-109099500D01*
X129956700Y-109099500D01*
X129778003Y-109099500D01*
X129777984Y-109099500D01*
X129599963Y-109114652D01*
X129369251Y-109174724D01*
X129152019Y-109272919D01*
X129152011Y-109272924D01*
X128954506Y-109406413D01*
X128954497Y-109406421D01*
X128782381Y-109571379D01*
X128640623Y-109763050D01*
X128640620Y-109763054D01*
X128533296Y-109975920D01*
X128533293Y-109975926D01*
X128463483Y-110203878D01*
X128433202Y-110440346D01*
X118757505Y-110440346D01*
X118743908Y-110302299D01*
X118686241Y-110112196D01*
X118686239Y-110112193D01*
X118686239Y-110112191D01*
X118592598Y-109937001D01*
X118592594Y-109936994D01*
X118466568Y-109783431D01*
X118313005Y-109657405D01*
X118312998Y-109657401D01*
X118137808Y-109563760D01*
X117963168Y-109510784D01*
X117947701Y-109506092D01*
X117947699Y-109506091D01*
X117947701Y-109506091D01*
X117750000Y-109486620D01*
X117552300Y-109506091D01*
X117362191Y-109563760D01*
X117187001Y-109657401D01*
X117186994Y-109657405D01*
X117033431Y-109783431D01*
X116907405Y-109936994D01*
X116907401Y-109937001D01*
X116813760Y-110112191D01*
X116756091Y-110302300D01*
X116736620Y-110500000D01*
X103635855Y-110500000D01*
X103500000Y-110486620D01*
X103302300Y-110506091D01*
X103112191Y-110563760D01*
X102937001Y-110657401D01*
X102936994Y-110657405D01*
X102783431Y-110783431D01*
X102657405Y-110936994D01*
X102657401Y-110937001D01*
X102563760Y-111112191D01*
X102506091Y-111302300D01*
X102486620Y-111500000D01*
X101000000Y-111500000D01*
X101000000Y-108000000D01*
X110986620Y-108000000D01*
X111006091Y-108197699D01*
X111063760Y-108387808D01*
X111157401Y-108562998D01*
X111157405Y-108563005D01*
X111283431Y-108716568D01*
X111436994Y-108842594D01*
X111437001Y-108842598D01*
X111612191Y-108936239D01*
X111612193Y-108936239D01*
X111612196Y-108936241D01*
X111802299Y-108993908D01*
X111802298Y-108993908D01*
X111820024Y-108995653D01*
X112000000Y-109013380D01*
X112197701Y-108993908D01*
X112387804Y-108936241D01*
X112563004Y-108842595D01*
X112716568Y-108716568D01*
X112842595Y-108563004D01*
X112936241Y-108387804D01*
X112993908Y-108197701D01*
X113013380Y-108000000D01*
X112993908Y-107802299D01*
X112936241Y-107612196D01*
X112936239Y-107612193D01*
X112936239Y-107612191D01*
X112842598Y-107437001D01*
X112842594Y-107436994D01*
X112716568Y-107283431D01*
X112640316Y-107220853D01*
X112600982Y-107163108D01*
X112599111Y-107093263D01*
X112635299Y-107033495D01*
X112640316Y-107029147D01*
X112675831Y-107000000D01*
X125986620Y-107000000D01*
X126006091Y-107197699D01*
X126063760Y-107387808D01*
X126157401Y-107562998D01*
X126157405Y-107563005D01*
X126283431Y-107716568D01*
X126436994Y-107842594D01*
X126437001Y-107842598D01*
X126612191Y-107936239D01*
X126612193Y-107936239D01*
X126612196Y-107936241D01*
X126802299Y-107993908D01*
X126802298Y-107993908D01*
X126820024Y-107995653D01*
X127000000Y-108013380D01*
X127197701Y-107993908D01*
X127387804Y-107936241D01*
X127563004Y-107842595D01*
X127716568Y-107716568D01*
X127842595Y-107563004D01*
X127909947Y-107436996D01*
X127936239Y-107387808D01*
X127936239Y-107387807D01*
X127936241Y-107387804D01*
X127993908Y-107197701D01*
X128013380Y-107000000D01*
X127993908Y-106802299D01*
X127936241Y-106612196D01*
X127936239Y-106612193D01*
X127936239Y-106612191D01*
X127842598Y-106437001D01*
X127842594Y-106436994D01*
X127716568Y-106283431D01*
X127563005Y-106157405D01*
X127562998Y-106157401D01*
X127387808Y-106063760D01*
X127292752Y-106034925D01*
X127197701Y-106006092D01*
X127197699Y-106006091D01*
X127197701Y-106006091D01*
X127000000Y-105986620D01*
X126802300Y-106006091D01*
X126612191Y-106063760D01*
X126437001Y-106157401D01*
X126436994Y-106157405D01*
X126283431Y-106283431D01*
X126157405Y-106436994D01*
X126157401Y-106437001D01*
X126063760Y-106612191D01*
X126006091Y-106802300D01*
X125986620Y-107000000D01*
X112675831Y-107000000D01*
X112716568Y-106966568D01*
X112740839Y-106936994D01*
X112842595Y-106813004D01*
X112936241Y-106637804D01*
X112993908Y-106447701D01*
X113013380Y-106250000D01*
X112993908Y-106052299D01*
X112936241Y-105862196D01*
X112936239Y-105862193D01*
X112936239Y-105862191D01*
X112876272Y-105750000D01*
X128736620Y-105750000D01*
X128756091Y-105947699D01*
X128813760Y-106137808D01*
X128907401Y-106312998D01*
X128907405Y-106313005D01*
X129033431Y-106466568D01*
X129186994Y-106592594D01*
X129187001Y-106592598D01*
X129362191Y-106686239D01*
X129362193Y-106686239D01*
X129362196Y-106686241D01*
X129552299Y-106743908D01*
X129552298Y-106743908D01*
X129571770Y-106745825D01*
X129750000Y-106763380D01*
X129783339Y-106760096D01*
X129851985Y-106773115D01*
X129902696Y-106821179D01*
X129919371Y-106889030D01*
X129918897Y-106895653D01*
X129908620Y-106999999D01*
X129928091Y-107197699D01*
X129985760Y-107387808D01*
X130079401Y-107562998D01*
X130079405Y-107563005D01*
X130205431Y-107716568D01*
X130358994Y-107842594D01*
X130359001Y-107842598D01*
X130534191Y-107936239D01*
X130534193Y-107936239D01*
X130534196Y-107936241D01*
X130724299Y-107993908D01*
X130724298Y-107993908D01*
X130742024Y-107995653D01*
X130922000Y-108013380D01*
X131119701Y-107993908D01*
X131309804Y-107936241D01*
X131485004Y-107842595D01*
X131638568Y-107716568D01*
X131764595Y-107563004D01*
X131831947Y-107436996D01*
X131858239Y-107387808D01*
X131858239Y-107387807D01*
X131858241Y-107387804D01*
X131915908Y-107197701D01*
X131935380Y-107000000D01*
X131915908Y-106802299D01*
X131858241Y-106612196D01*
X131858239Y-106612193D01*
X131858239Y-106612191D01*
X131798272Y-106500000D01*
X139486620Y-106500000D01*
X139506091Y-106697699D01*
X139563760Y-106887808D01*
X139657401Y-107062998D01*
X139657405Y-107063005D01*
X139783431Y-107216568D01*
X139936994Y-107342594D01*
X139937001Y-107342598D01*
X140112191Y-107436239D01*
X140112193Y-107436239D01*
X140112196Y-107436241D01*
X140302299Y-107493908D01*
X140302298Y-107493908D01*
X140320024Y-107495653D01*
X140500000Y-107513380D01*
X140635848Y-107500000D01*
X174986620Y-107500000D01*
X175006091Y-107697699D01*
X175063760Y-107887808D01*
X175157401Y-108062998D01*
X175157405Y-108063005D01*
X175283431Y-108216568D01*
X175436994Y-108342594D01*
X175437001Y-108342598D01*
X175612191Y-108436239D01*
X175612193Y-108436239D01*
X175612196Y-108436241D01*
X175802299Y-108493908D01*
X175802298Y-108493908D01*
X175820024Y-108495653D01*
X176000000Y-108513380D01*
X176135838Y-108500001D01*
X185544532Y-108500001D01*
X185564364Y-108726686D01*
X185564366Y-108726697D01*
X185623258Y-108946488D01*
X185623261Y-108946497D01*
X185719431Y-109152732D01*
X185719432Y-109152734D01*
X185849954Y-109339141D01*
X186010858Y-109500045D01*
X186010861Y-109500047D01*
X186197266Y-109630568D01*
X186403504Y-109726739D01*
X186623308Y-109785635D01*
X186785230Y-109799801D01*
X186849998Y-109805468D01*
X186850000Y-109805468D01*
X186850002Y-109805468D01*
X186906673Y-109800509D01*
X187076692Y-109785635D01*
X187296496Y-109726739D01*
X187502734Y-109630568D01*
X187689139Y-109500047D01*
X187850047Y-109339139D01*
X187980568Y-109152734D01*
X188076739Y-108946496D01*
X188135635Y-108726692D01*
X188154297Y-108513380D01*
X188155468Y-108500001D01*
X188155468Y-108499998D01*
X188141697Y-108342595D01*
X188135635Y-108273308D01*
X188076739Y-108053504D01*
X187980568Y-107847266D01*
X187850047Y-107660861D01*
X187850045Y-107660858D01*
X187689141Y-107499954D01*
X187502734Y-107369432D01*
X187502732Y-107369431D01*
X187296497Y-107273261D01*
X187296488Y-107273258D01*
X187076697Y-107214366D01*
X187076693Y-107214365D01*
X187076692Y-107214365D01*
X187076691Y-107214364D01*
X187076686Y-107214364D01*
X186850002Y-107194532D01*
X186849998Y-107194532D01*
X186623313Y-107214364D01*
X186623302Y-107214366D01*
X186403511Y-107273258D01*
X186403502Y-107273261D01*
X186197267Y-107369431D01*
X186197265Y-107369432D01*
X186010858Y-107499954D01*
X185849954Y-107660858D01*
X185719432Y-107847265D01*
X185719431Y-107847267D01*
X185623261Y-108053502D01*
X185623258Y-108053511D01*
X185564366Y-108273302D01*
X185564364Y-108273313D01*
X185544532Y-108499998D01*
X185544532Y-108500001D01*
X176135838Y-108500001D01*
X176197701Y-108493908D01*
X176387804Y-108436241D01*
X176563004Y-108342595D01*
X176716568Y-108216568D01*
X176842595Y-108063004D01*
X176936241Y-107887804D01*
X176993908Y-107697701D01*
X177013380Y-107500000D01*
X176993908Y-107302299D01*
X176936241Y-107112196D01*
X176936239Y-107112193D01*
X176936239Y-107112191D01*
X176842598Y-106937001D01*
X176842594Y-106936994D01*
X176716568Y-106783431D01*
X176563005Y-106657405D01*
X176562998Y-106657401D01*
X176387808Y-106563760D01*
X176240401Y-106519045D01*
X176197701Y-106506092D01*
X176197699Y-106506091D01*
X176197701Y-106506091D01*
X176000000Y-106486620D01*
X175802300Y-106506091D01*
X175612191Y-106563760D01*
X175437001Y-106657401D01*
X175436994Y-106657405D01*
X175283431Y-106783431D01*
X175157405Y-106936994D01*
X175157401Y-106937001D01*
X175063760Y-107112191D01*
X175006091Y-107302300D01*
X174986620Y-107500000D01*
X140635848Y-107500000D01*
X140697701Y-107493908D01*
X140887804Y-107436241D01*
X141063004Y-107342595D01*
X141216568Y-107216568D01*
X141342595Y-107063004D01*
X141409947Y-106936996D01*
X141436239Y-106887808D01*
X141436239Y-106887807D01*
X141436241Y-106887804D01*
X141493908Y-106697701D01*
X141513380Y-106500000D01*
X141493908Y-106302299D01*
X141436241Y-106112196D01*
X141436239Y-106112193D01*
X141436239Y-106112191D01*
X141376272Y-106000000D01*
X192069628Y-106000000D01*
X192089079Y-106222329D01*
X192089081Y-106222339D01*
X192146841Y-106437905D01*
X192146843Y-106437909D01*
X192146844Y-106437913D01*
X192241165Y-106640186D01*
X192369178Y-106823007D01*
X192526993Y-106980822D01*
X192709814Y-107108835D01*
X192912087Y-107203156D01*
X193127666Y-107260920D01*
X193305533Y-107276481D01*
X193349999Y-107280372D01*
X193350000Y-107280372D01*
X193350001Y-107280372D01*
X193387055Y-107277130D01*
X193572334Y-107260920D01*
X193787913Y-107203156D01*
X193990186Y-107108835D01*
X194173007Y-106980822D01*
X194330822Y-106823007D01*
X194458835Y-106640186D01*
X194553156Y-106437913D01*
X194610920Y-106222334D01*
X194630372Y-106000000D01*
X194628349Y-105976883D01*
X194619957Y-105880954D01*
X194610920Y-105777666D01*
X194553156Y-105562087D01*
X194458835Y-105359814D01*
X194330822Y-105176993D01*
X194173007Y-105019178D01*
X194046145Y-104930348D01*
X194002522Y-104875772D01*
X193995330Y-104806274D01*
X194026852Y-104743919D01*
X194062171Y-104717690D01*
X194218568Y-104640125D01*
X194369113Y-104519113D01*
X194490125Y-104368568D01*
X194575944Y-104195529D01*
X194622559Y-104008087D01*
X194625500Y-103964716D01*
X194625500Y-103035284D01*
X194622559Y-102991913D01*
X194575944Y-102804471D01*
X194517307Y-102686239D01*
X194490127Y-102631435D01*
X194490125Y-102631433D01*
X194490125Y-102631432D01*
X194369113Y-102480887D01*
X194351299Y-102466568D01*
X194332371Y-102451353D01*
X194218568Y-102359875D01*
X194218566Y-102359874D01*
X194218564Y-102359872D01*
X194045531Y-102274057D01*
X194045529Y-102274056D01*
X193858091Y-102227441D01*
X193829021Y-102225470D01*
X193814716Y-102224500D01*
X192885284Y-102224500D01*
X192872892Y-102225340D01*
X192841908Y-102227441D01*
X192654470Y-102274056D01*
X192654468Y-102274057D01*
X192481435Y-102359872D01*
X192481433Y-102359874D01*
X192330887Y-102480886D01*
X192330886Y-102480887D01*
X192209874Y-102631433D01*
X192209872Y-102631435D01*
X192124057Y-102804468D01*
X192124056Y-102804470D01*
X192077441Y-102991908D01*
X192074500Y-103035286D01*
X192074500Y-103964713D01*
X192077441Y-104008091D01*
X192124056Y-104195529D01*
X192124057Y-104195531D01*
X192209872Y-104368564D01*
X192209874Y-104368566D01*
X192209875Y-104368568D01*
X192330887Y-104519113D01*
X192481432Y-104640125D01*
X192481433Y-104640125D01*
X192481435Y-104640127D01*
X192637822Y-104717687D01*
X192689135Y-104765108D01*
X192706665Y-104832743D01*
X192684845Y-104899118D01*
X192653852Y-104930349D01*
X192526992Y-105019178D01*
X192369182Y-105176988D01*
X192369179Y-105176991D01*
X192369178Y-105176993D01*
X192241165Y-105359814D01*
X192160207Y-105533431D01*
X192146845Y-105562085D01*
X192146841Y-105562094D01*
X192089081Y-105777660D01*
X192089079Y-105777670D01*
X192069628Y-105999999D01*
X192069628Y-106000000D01*
X141376272Y-106000000D01*
X141342598Y-105937001D01*
X141342594Y-105936994D01*
X141216568Y-105783431D01*
X141063005Y-105657405D01*
X141062998Y-105657401D01*
X140887808Y-105563760D01*
X140787826Y-105533431D01*
X140697701Y-105506092D01*
X140697699Y-105506091D01*
X140697701Y-105506091D01*
X140500000Y-105486620D01*
X140302300Y-105506091D01*
X140112191Y-105563760D01*
X139937001Y-105657401D01*
X139936994Y-105657405D01*
X139783431Y-105783431D01*
X139657405Y-105936994D01*
X139657401Y-105937001D01*
X139563760Y-106112191D01*
X139506091Y-106302300D01*
X139486620Y-106500000D01*
X131798272Y-106500000D01*
X131764598Y-106437001D01*
X131764594Y-106436994D01*
X131638568Y-106283431D01*
X131485005Y-106157405D01*
X131484998Y-106157401D01*
X131309808Y-106063760D01*
X131214752Y-106034925D01*
X131119701Y-106006092D01*
X131119699Y-106006091D01*
X131119701Y-106006091D01*
X130939725Y-105988365D01*
X130922000Y-105986620D01*
X130921999Y-105986620D01*
X130921996Y-105986620D01*
X130888656Y-105989903D01*
X130820011Y-105976883D01*
X130769301Y-105928817D01*
X130752629Y-105860966D01*
X130753099Y-105854375D01*
X130763380Y-105750000D01*
X130743908Y-105552299D01*
X130686241Y-105362196D01*
X130686239Y-105362193D01*
X130686239Y-105362191D01*
X130592598Y-105187001D01*
X130592594Y-105186994D01*
X130466568Y-105033431D01*
X130313005Y-104907405D01*
X130312998Y-104907401D01*
X130137808Y-104813760D01*
X130042752Y-104784925D01*
X129947701Y-104756092D01*
X129947699Y-104756091D01*
X129947701Y-104756091D01*
X129750000Y-104736620D01*
X129552300Y-104756091D01*
X129362191Y-104813760D01*
X129187001Y-104907401D01*
X129186994Y-104907405D01*
X129033431Y-105033431D01*
X128907405Y-105186994D01*
X128907401Y-105187001D01*
X128813760Y-105362191D01*
X128756091Y-105552300D01*
X128736620Y-105750000D01*
X112876272Y-105750000D01*
X112842598Y-105687001D01*
X112842594Y-105686994D01*
X112716568Y-105533431D01*
X112563005Y-105407405D01*
X112562998Y-105407401D01*
X112387808Y-105313760D01*
X112292752Y-105284925D01*
X112197701Y-105256092D01*
X112197699Y-105256091D01*
X112197701Y-105256091D01*
X112000000Y-105236620D01*
X111802300Y-105256091D01*
X111612191Y-105313760D01*
X111437001Y-105407401D01*
X111436994Y-105407405D01*
X111283431Y-105533431D01*
X111157405Y-105686994D01*
X111157401Y-105687001D01*
X111063760Y-105862191D01*
X111006091Y-106052300D01*
X110986620Y-106250000D01*
X111006091Y-106447699D01*
X111063760Y-106637808D01*
X111157401Y-106812998D01*
X111157405Y-106813005D01*
X111283431Y-106966568D01*
X111359683Y-107029147D01*
X111399017Y-107086893D01*
X111400888Y-107156738D01*
X111364700Y-107216506D01*
X111359683Y-107220853D01*
X111283431Y-107283431D01*
X111157405Y-107436994D01*
X111157401Y-107437001D01*
X111063760Y-107612191D01*
X111006091Y-107802300D01*
X110986620Y-108000000D01*
X101000000Y-108000000D01*
X101000000Y-106153338D01*
X105289311Y-106153338D01*
X105299401Y-106339448D01*
X105299402Y-106339453D01*
X105349263Y-106519037D01*
X105349267Y-106519045D01*
X105372973Y-106563759D01*
X105422621Y-106657405D01*
X105436572Y-106683718D01*
X105436573Y-106683721D01*
X105521269Y-106783432D01*
X105557235Y-106825774D01*
X105705617Y-106938571D01*
X105705618Y-106938571D01*
X105705619Y-106938572D01*
X105705620Y-106938573D01*
X105766132Y-106966568D01*
X105874777Y-107016832D01*
X105874778Y-107016832D01*
X105874780Y-107016833D01*
X105930003Y-107028988D01*
X106056806Y-107056900D01*
X106056807Y-107056900D01*
X106196455Y-107056900D01*
X106196461Y-107056900D01*
X106335294Y-107041801D01*
X106511925Y-106982287D01*
X106671632Y-106886195D01*
X106806948Y-106758017D01*
X106911546Y-106603746D01*
X106980535Y-106430597D01*
X107010689Y-106246665D01*
X107000598Y-106060552D01*
X107000598Y-106060551D01*
X107000597Y-106060546D01*
X106950736Y-105880962D01*
X106950732Y-105880954D01*
X106905829Y-105796258D01*
X106863429Y-105716283D01*
X106863426Y-105716280D01*
X106863426Y-105716278D01*
X106742765Y-105574226D01*
X106713922Y-105552300D01*
X106594383Y-105461429D01*
X106594382Y-105461428D01*
X106594380Y-105461427D01*
X106594379Y-105461426D01*
X106425219Y-105383166D01*
X106243194Y-105343100D01*
X106103539Y-105343100D01*
X106103537Y-105343100D01*
X105964705Y-105358199D01*
X105788072Y-105417714D01*
X105628370Y-105513803D01*
X105628365Y-105513807D01*
X105493050Y-105641983D01*
X105388452Y-105796256D01*
X105388451Y-105796258D01*
X105319466Y-105969397D01*
X105319465Y-105969402D01*
X105319465Y-105969403D01*
X105291858Y-106137804D01*
X105289311Y-106153338D01*
X101000000Y-106153338D01*
X101000000Y-103500001D01*
X186844532Y-103500001D01*
X186864364Y-103726686D01*
X186864366Y-103726697D01*
X186923258Y-103946488D01*
X186923261Y-103946497D01*
X187019431Y-104152732D01*
X187019432Y-104152734D01*
X187149954Y-104339141D01*
X187310858Y-104500045D01*
X187310861Y-104500047D01*
X187497266Y-104630568D01*
X187703504Y-104726739D01*
X187703509Y-104726740D01*
X187703511Y-104726741D01*
X187756415Y-104740916D01*
X187923308Y-104785635D01*
X188085230Y-104799801D01*
X188149998Y-104805468D01*
X188150000Y-104805468D01*
X188150002Y-104805468D01*
X188206673Y-104800509D01*
X188376692Y-104785635D01*
X188596496Y-104726739D01*
X188802734Y-104630568D01*
X188989139Y-104500047D01*
X189150047Y-104339139D01*
X189280568Y-104152734D01*
X189376739Y-103946496D01*
X189435635Y-103726692D01*
X189455468Y-103500000D01*
X189435635Y-103273308D01*
X189376739Y-103053504D01*
X189280568Y-102847266D01*
X189150047Y-102660861D01*
X189150045Y-102660858D01*
X188989141Y-102499954D01*
X188802734Y-102369432D01*
X188802732Y-102369431D01*
X188596497Y-102273261D01*
X188596488Y-102273258D01*
X188376697Y-102214366D01*
X188376693Y-102214365D01*
X188376692Y-102214365D01*
X188376691Y-102214364D01*
X188376686Y-102214364D01*
X188150002Y-102194532D01*
X188149998Y-102194532D01*
X187923313Y-102214364D01*
X187923302Y-102214366D01*
X187703511Y-102273258D01*
X187703502Y-102273261D01*
X187497267Y-102369431D01*
X187497265Y-102369432D01*
X187310858Y-102499954D01*
X187149954Y-102660858D01*
X187019432Y-102847265D01*
X187019431Y-102847267D01*
X186923261Y-103053502D01*
X186923258Y-103053511D01*
X186864366Y-103273302D01*
X186864364Y-103273313D01*
X186844532Y-103499998D01*
X186844532Y-103500001D01*
X101000000Y-103500001D01*
X101000000Y-101753338D01*
X105289311Y-101753338D01*
X105299401Y-101939448D01*
X105299402Y-101939453D01*
X105349263Y-102119037D01*
X105349267Y-102119045D01*
X105392187Y-102200000D01*
X105436368Y-102283335D01*
X105436572Y-102283718D01*
X105436573Y-102283721D01*
X105524983Y-102387804D01*
X105557235Y-102425774D01*
X105705617Y-102538571D01*
X105705618Y-102538571D01*
X105705619Y-102538572D01*
X105705620Y-102538573D01*
X105800104Y-102582285D01*
X105874777Y-102616832D01*
X105874778Y-102616832D01*
X105874780Y-102616833D01*
X105930003Y-102628988D01*
X106056806Y-102656900D01*
X106056807Y-102656900D01*
X106196455Y-102656900D01*
X106196461Y-102656900D01*
X106335294Y-102641801D01*
X106511925Y-102582287D01*
X106671632Y-102486195D01*
X106806948Y-102358017D01*
X106815809Y-102344949D01*
X106837467Y-102313004D01*
X106911546Y-102203746D01*
X106980535Y-102030597D01*
X106985551Y-102000000D01*
X129236620Y-102000000D01*
X129256091Y-102197699D01*
X129313760Y-102387808D01*
X129407401Y-102562998D01*
X129407405Y-102563005D01*
X129533431Y-102716568D01*
X129686994Y-102842594D01*
X129687001Y-102842598D01*
X129862191Y-102936239D01*
X129862193Y-102936239D01*
X129862196Y-102936241D01*
X130052299Y-102993908D01*
X130052298Y-102993908D01*
X130070024Y-102995653D01*
X130250000Y-103013380D01*
X130447701Y-102993908D01*
X130637804Y-102936241D01*
X130813004Y-102842595D01*
X130966568Y-102716568D01*
X131092595Y-102563004D01*
X131179455Y-102400500D01*
X131186239Y-102387808D01*
X131186239Y-102387807D01*
X131186241Y-102387804D01*
X131243908Y-102197701D01*
X131263380Y-102000000D01*
X131243908Y-101802299D01*
X131186241Y-101612196D01*
X131186239Y-101612193D01*
X131186239Y-101612191D01*
X131092598Y-101437001D01*
X131092594Y-101436994D01*
X130966568Y-101283431D01*
X130813005Y-101157405D01*
X130812998Y-101157401D01*
X130637808Y-101063760D01*
X130494954Y-101020426D01*
X130447701Y-101006092D01*
X130447699Y-101006091D01*
X130447701Y-101006091D01*
X130250000Y-100986620D01*
X130052300Y-101006091D01*
X129862191Y-101063760D01*
X129687001Y-101157401D01*
X129686994Y-101157405D01*
X129533431Y-101283431D01*
X129407405Y-101436994D01*
X129407401Y-101437001D01*
X129313760Y-101612191D01*
X129256091Y-101802300D01*
X129236620Y-102000000D01*
X106985551Y-102000000D01*
X107010689Y-101846665D01*
X107000598Y-101660552D01*
X107000598Y-101660551D01*
X107000597Y-101660546D01*
X106950736Y-101480962D01*
X106950732Y-101480954D01*
X106937661Y-101456300D01*
X106863429Y-101316283D01*
X106863426Y-101316280D01*
X106863426Y-101316278D01*
X106742765Y-101174226D01*
X106662088Y-101112897D01*
X106594383Y-101061429D01*
X106594382Y-101061428D01*
X106594380Y-101061427D01*
X106594379Y-101061426D01*
X106425219Y-100983166D01*
X106243194Y-100943100D01*
X106103539Y-100943100D01*
X106103537Y-100943100D01*
X105964705Y-100958199D01*
X105788072Y-101017714D01*
X105628370Y-101113803D01*
X105628365Y-101113807D01*
X105493050Y-101241983D01*
X105388452Y-101396256D01*
X105388451Y-101396258D01*
X105319466Y-101569397D01*
X105319465Y-101569402D01*
X105319465Y-101569403D01*
X105290024Y-101748991D01*
X105289311Y-101753338D01*
X101000000Y-101753338D01*
X101000000Y-99000000D01*
X129986620Y-99000000D01*
X130006091Y-99197699D01*
X130063760Y-99387808D01*
X130157401Y-99562998D01*
X130157405Y-99563005D01*
X130283431Y-99716568D01*
X130436994Y-99842594D01*
X130437001Y-99842598D01*
X130612191Y-99936239D01*
X130612193Y-99936239D01*
X130612196Y-99936241D01*
X130802299Y-99993908D01*
X130802298Y-99993908D01*
X130820024Y-99995653D01*
X131000000Y-100013380D01*
X131197701Y-99993908D01*
X131247917Y-99978674D01*
X131317782Y-99978050D01*
X131376895Y-100015298D01*
X131406487Y-100078591D01*
X131397162Y-100147836D01*
X131379767Y-100175998D01*
X131349405Y-100212995D01*
X131349401Y-100213001D01*
X131255760Y-100388191D01*
X131198091Y-100578300D01*
X131178620Y-100776000D01*
X131198091Y-100973699D01*
X131255760Y-101163808D01*
X131349401Y-101338998D01*
X131349405Y-101339005D01*
X131475431Y-101492568D01*
X131628994Y-101618594D01*
X131629001Y-101618598D01*
X131804191Y-101712239D01*
X131804193Y-101712239D01*
X131804196Y-101712241D01*
X131994299Y-101769908D01*
X131994298Y-101769908D01*
X132012024Y-101771653D01*
X132192000Y-101789380D01*
X132389701Y-101769908D01*
X132455329Y-101750000D01*
X133986620Y-101750000D01*
X134006091Y-101947699D01*
X134063760Y-102137808D01*
X134157401Y-102312998D01*
X134157405Y-102313005D01*
X134283431Y-102466568D01*
X134436994Y-102592594D01*
X134437001Y-102592598D01*
X134612191Y-102686239D01*
X134612193Y-102686239D01*
X134612196Y-102686241D01*
X134802299Y-102743908D01*
X134802298Y-102743908D01*
X134820024Y-102745653D01*
X135000000Y-102763380D01*
X135197701Y-102743908D01*
X135387804Y-102686241D01*
X135435293Y-102660858D01*
X135490345Y-102631432D01*
X135563004Y-102592595D01*
X135716568Y-102466568D01*
X135842595Y-102313004D01*
X135902996Y-102200002D01*
X144994723Y-102200002D01*
X145013793Y-102417975D01*
X145013793Y-102417979D01*
X145070422Y-102629322D01*
X145070424Y-102629326D01*
X145070425Y-102629330D01*
X145096962Y-102686239D01*
X145162897Y-102827638D01*
X145173370Y-102842595D01*
X145288402Y-103006877D01*
X145443123Y-103161598D01*
X145622361Y-103287102D01*
X145820670Y-103379575D01*
X146032023Y-103436207D01*
X146214926Y-103452208D01*
X146249998Y-103455277D01*
X146250000Y-103455277D01*
X146250002Y-103455277D01*
X146278254Y-103452805D01*
X146467977Y-103436207D01*
X146679330Y-103379575D01*
X146877639Y-103287102D01*
X147056877Y-103161598D01*
X147211598Y-103006877D01*
X147337102Y-102827639D01*
X147429575Y-102629330D01*
X147486207Y-102417977D01*
X147505277Y-102200000D01*
X147503218Y-102176470D01*
X147499836Y-102137804D01*
X147486207Y-101982023D01*
X147429575Y-101770670D01*
X147337102Y-101572362D01*
X147337100Y-101572359D01*
X147337099Y-101572357D01*
X147211599Y-101393124D01*
X147134753Y-101316278D01*
X147056877Y-101238402D01*
X146918978Y-101141844D01*
X146877638Y-101112897D01*
X146767257Y-101061426D01*
X146679330Y-101020425D01*
X146679326Y-101020424D01*
X146679322Y-101020422D01*
X146467977Y-100963793D01*
X146250002Y-100944723D01*
X146249998Y-100944723D01*
X146104682Y-100957436D01*
X146032023Y-100963793D01*
X146032020Y-100963793D01*
X145820677Y-101020422D01*
X145820668Y-101020426D01*
X145622361Y-101112898D01*
X145622357Y-101112900D01*
X145443121Y-101238402D01*
X145288402Y-101393121D01*
X145162900Y-101572357D01*
X145162898Y-101572361D01*
X145117905Y-101668849D01*
X145078509Y-101753335D01*
X145070426Y-101770668D01*
X145070422Y-101770677D01*
X145013793Y-101982020D01*
X145013793Y-101982024D01*
X144994723Y-102199997D01*
X144994723Y-102200002D01*
X135902996Y-102200002D01*
X135936241Y-102137804D01*
X135993908Y-101947701D01*
X136013380Y-101750000D01*
X135993908Y-101552299D01*
X135936241Y-101362196D01*
X135936239Y-101362193D01*
X135936239Y-101362191D01*
X135842598Y-101187001D01*
X135842594Y-101186994D01*
X135716568Y-101033431D01*
X135563005Y-100907405D01*
X135562998Y-100907401D01*
X135387808Y-100813760D01*
X135254692Y-100773380D01*
X135197701Y-100756092D01*
X135197699Y-100756091D01*
X135197701Y-100756091D01*
X135000000Y-100736620D01*
X134802300Y-100756091D01*
X134612191Y-100813760D01*
X134437001Y-100907401D01*
X134436994Y-100907405D01*
X134283431Y-101033431D01*
X134157405Y-101186994D01*
X134157401Y-101187001D01*
X134063760Y-101362191D01*
X134006091Y-101552300D01*
X133986620Y-101750000D01*
X132455329Y-101750000D01*
X132579804Y-101712241D01*
X132596577Y-101703276D01*
X132676508Y-101660552D01*
X132755004Y-101618595D01*
X132908568Y-101492568D01*
X133034595Y-101339004D01*
X133090782Y-101233884D01*
X133128239Y-101163808D01*
X133128239Y-101163807D01*
X133128241Y-101163804D01*
X133185908Y-100973701D01*
X133201761Y-100812743D01*
X133227921Y-100747959D01*
X133284955Y-100707600D01*
X133354755Y-100704483D01*
X133361152Y-100706238D01*
X133365642Y-100707600D01*
X133518296Y-100753907D01*
X133518298Y-100753908D01*
X133536024Y-100755653D01*
X133716000Y-100773380D01*
X133913701Y-100753908D01*
X134103804Y-100696241D01*
X134279004Y-100602595D01*
X134404016Y-100500000D01*
X152736620Y-100500000D01*
X152756091Y-100697699D01*
X152813760Y-100887808D01*
X152907401Y-101062998D01*
X152907405Y-101063005D01*
X153033431Y-101216568D01*
X153186994Y-101342594D01*
X153187001Y-101342598D01*
X153362191Y-101436239D01*
X153362193Y-101436239D01*
X153362196Y-101436241D01*
X153552299Y-101493908D01*
X153552298Y-101493908D01*
X153570024Y-101495653D01*
X153750000Y-101513380D01*
X153947701Y-101493908D01*
X154137804Y-101436241D01*
X154313004Y-101342595D01*
X154466568Y-101216568D01*
X154592595Y-101063004D01*
X154686241Y-100887804D01*
X154743908Y-100697701D01*
X154763380Y-100500000D01*
X154743908Y-100302299D01*
X154686241Y-100112196D01*
X154686239Y-100112193D01*
X154686239Y-100112191D01*
X154592598Y-99937001D01*
X154592594Y-99936994D01*
X154466568Y-99783431D01*
X154313005Y-99657405D01*
X154312998Y-99657401D01*
X154137808Y-99563760D01*
X154042752Y-99534925D01*
X153947701Y-99506092D01*
X153947699Y-99506091D01*
X153947701Y-99506091D01*
X153750000Y-99486620D01*
X153552300Y-99506091D01*
X153362191Y-99563760D01*
X153187001Y-99657401D01*
X153186994Y-99657405D01*
X153033431Y-99783431D01*
X152907405Y-99936994D01*
X152907401Y-99937001D01*
X152813760Y-100112191D01*
X152756091Y-100302300D01*
X152736620Y-100500000D01*
X134404016Y-100500000D01*
X134432568Y-100476568D01*
X134558595Y-100323004D01*
X134652241Y-100147804D01*
X134709908Y-99957701D01*
X134729380Y-99760000D01*
X134709908Y-99562299D01*
X134652241Y-99372196D01*
X134652239Y-99372193D01*
X134652239Y-99372191D01*
X134558598Y-99197001D01*
X134558594Y-99196994D01*
X134432568Y-99043431D01*
X134325703Y-98955730D01*
X134286369Y-98897985D01*
X134284498Y-98828140D01*
X134320685Y-98768372D01*
X134368370Y-98741217D01*
X134549604Y-98686241D01*
X134724804Y-98592595D01*
X134878368Y-98466568D01*
X135004395Y-98313004D01*
X135098041Y-98137804D01*
X135155708Y-97947701D01*
X135175180Y-97750000D01*
X135155708Y-97552299D01*
X135098041Y-97362196D01*
X135098039Y-97362193D01*
X135098039Y-97362191D01*
X135064798Y-97300002D01*
X144994723Y-97300002D01*
X145013793Y-97517975D01*
X145013793Y-97517979D01*
X145070422Y-97729322D01*
X145070424Y-97729326D01*
X145070425Y-97729330D01*
X145103542Y-97800350D01*
X145162897Y-97927638D01*
X145187998Y-97963486D01*
X145288402Y-98106877D01*
X145443123Y-98261598D01*
X145622361Y-98387102D01*
X145820670Y-98479575D01*
X146032023Y-98536207D01*
X146214926Y-98552208D01*
X146249998Y-98555277D01*
X146250000Y-98555277D01*
X146250002Y-98555277D01*
X146278254Y-98552805D01*
X146467977Y-98536207D01*
X146679330Y-98479575D01*
X146721307Y-98460001D01*
X160804303Y-98460001D01*
X160825050Y-98697145D01*
X160825051Y-98697153D01*
X160886663Y-98927091D01*
X160886664Y-98927093D01*
X160886665Y-98927096D01*
X160920661Y-99000000D01*
X160987272Y-99142849D01*
X160987274Y-99142853D01*
X161123815Y-99337854D01*
X161292144Y-99506183D01*
X161292147Y-99506185D01*
X161374371Y-99563759D01*
X161421008Y-99596414D01*
X161464633Y-99650991D01*
X161471827Y-99720489D01*
X161440304Y-99782844D01*
X161404981Y-99809077D01*
X161301700Y-99860300D01*
X161301697Y-99860302D01*
X161151242Y-99981241D01*
X161151241Y-99981242D01*
X161030302Y-100131697D01*
X161030298Y-100131703D01*
X160944529Y-100304641D01*
X160897939Y-100491978D01*
X160895000Y-100535326D01*
X160895000Y-100750000D01*
X161724428Y-100750000D01*
X161701318Y-100785960D01*
X161660000Y-100926673D01*
X161660000Y-101073327D01*
X161701318Y-101214040D01*
X161724428Y-101250000D01*
X160895001Y-101250000D01*
X160895001Y-101464679D01*
X160897938Y-101508015D01*
X160897938Y-101508017D01*
X160944528Y-101695357D01*
X161030298Y-101868296D01*
X161030302Y-101868302D01*
X161151241Y-102018757D01*
X161151242Y-102018758D01*
X161301697Y-102139697D01*
X161301703Y-102139701D01*
X161474641Y-102225470D01*
X161661978Y-102272060D01*
X161705327Y-102274999D01*
X161919999Y-102274999D01*
X161920000Y-102274998D01*
X161920000Y-101446494D01*
X162024839Y-101494373D01*
X162133527Y-101510000D01*
X162206473Y-101510000D01*
X162315161Y-101494373D01*
X162420000Y-101446494D01*
X162420000Y-102274999D01*
X162634673Y-102274999D01*
X162634679Y-102274998D01*
X162678015Y-102272061D01*
X162678017Y-102272061D01*
X162865357Y-102225471D01*
X163038296Y-102139701D01*
X163038302Y-102139697D01*
X163188757Y-102018758D01*
X163188758Y-102018757D01*
X163309697Y-101868302D01*
X163309703Y-101868293D01*
X163360922Y-101765020D01*
X163408343Y-101713707D01*
X163475978Y-101696178D01*
X163542353Y-101717997D01*
X163573585Y-101748991D01*
X163663815Y-101877854D01*
X163832145Y-102046184D01*
X164027146Y-102182725D01*
X164027148Y-102182726D01*
X164027151Y-102182728D01*
X164242904Y-102283335D01*
X164472849Y-102344949D01*
X164642242Y-102359769D01*
X164709998Y-102365697D01*
X164710000Y-102365697D01*
X164710002Y-102365697D01*
X164776580Y-102359872D01*
X164947151Y-102344949D01*
X165177096Y-102283335D01*
X165392849Y-102182728D01*
X165587853Y-102046185D01*
X165756185Y-101877853D01*
X165878425Y-101703276D01*
X165933002Y-101659651D01*
X166002500Y-101652457D01*
X166064855Y-101683980D01*
X166081575Y-101703276D01*
X166203815Y-101877854D01*
X166372145Y-102046184D01*
X166567146Y-102182725D01*
X166567148Y-102182726D01*
X166567151Y-102182728D01*
X166782904Y-102283335D01*
X167012849Y-102344949D01*
X167182242Y-102359769D01*
X167249998Y-102365697D01*
X167250000Y-102365697D01*
X167250002Y-102365697D01*
X167316580Y-102359872D01*
X167487151Y-102344949D01*
X167717096Y-102283335D01*
X167932849Y-102182728D01*
X168127853Y-102046185D01*
X168226168Y-101947870D01*
X177349500Y-101947870D01*
X177349501Y-101947876D01*
X177355908Y-102007483D01*
X177406202Y-102142328D01*
X177406206Y-102142335D01*
X177492452Y-102257544D01*
X177492455Y-102257547D01*
X177607664Y-102343793D01*
X177607671Y-102343797D01*
X177742517Y-102394091D01*
X177742516Y-102394091D01*
X177749444Y-102394835D01*
X177802127Y-102400500D01*
X179697872Y-102400499D01*
X179757483Y-102394091D01*
X179892331Y-102343796D01*
X180007546Y-102257546D01*
X180093796Y-102142331D01*
X180094777Y-102139701D01*
X180122455Y-102065493D01*
X180164326Y-102009559D01*
X180229790Y-101985141D01*
X180298063Y-101999992D01*
X180329866Y-102024843D01*
X180335168Y-102030602D01*
X180338215Y-102033912D01*
X180338222Y-102033918D01*
X180521365Y-102176464D01*
X180521371Y-102176468D01*
X180521374Y-102176470D01*
X180571776Y-102203746D01*
X180703437Y-102274998D01*
X180725497Y-102286936D01*
X180839487Y-102326068D01*
X180945015Y-102362297D01*
X180945017Y-102362297D01*
X180945019Y-102362298D01*
X181173951Y-102400500D01*
X181173952Y-102400500D01*
X181406048Y-102400500D01*
X181406049Y-102400500D01*
X181634981Y-102362298D01*
X181854503Y-102286936D01*
X182058626Y-102176470D01*
X182241784Y-102033913D01*
X182398979Y-101863153D01*
X182525924Y-101668849D01*
X182619157Y-101456300D01*
X182676134Y-101231305D01*
X182679805Y-101187001D01*
X182695300Y-101000006D01*
X182695300Y-100999993D01*
X182676135Y-100768702D01*
X182676133Y-100768691D01*
X182619157Y-100543699D01*
X182525924Y-100331151D01*
X182398983Y-100136852D01*
X182398980Y-100136849D01*
X182398979Y-100136847D01*
X182241784Y-99966087D01*
X182241779Y-99966083D01*
X182241777Y-99966081D01*
X182058634Y-99823535D01*
X182058628Y-99823531D01*
X181854504Y-99713064D01*
X181854495Y-99713061D01*
X181634984Y-99637702D01*
X181444450Y-99605908D01*
X181406049Y-99599500D01*
X181173951Y-99599500D01*
X181135550Y-99605908D01*
X180945015Y-99637702D01*
X180725504Y-99713061D01*
X180725495Y-99713064D01*
X180521371Y-99823531D01*
X180521365Y-99823535D01*
X180338222Y-99966081D01*
X180338218Y-99966085D01*
X180329866Y-99975158D01*
X180269979Y-100011148D01*
X180200141Y-100009047D01*
X180142525Y-99969522D01*
X180122455Y-99934507D01*
X180093797Y-99857671D01*
X180093793Y-99857664D01*
X180007547Y-99742455D01*
X180007544Y-99742452D01*
X179892335Y-99656206D01*
X179892328Y-99656202D01*
X179757482Y-99605908D01*
X179757483Y-99605908D01*
X179697883Y-99599501D01*
X179697881Y-99599500D01*
X179697873Y-99599500D01*
X179697864Y-99599500D01*
X177802129Y-99599500D01*
X177802123Y-99599501D01*
X177742516Y-99605908D01*
X177607671Y-99656202D01*
X177607664Y-99656206D01*
X177492455Y-99742452D01*
X177492452Y-99742455D01*
X177406206Y-99857664D01*
X177406202Y-99857671D01*
X177355908Y-99992517D01*
X177349501Y-100052116D01*
X177349500Y-100052135D01*
X177349500Y-101947870D01*
X168226168Y-101947870D01*
X168296185Y-101877853D01*
X168432728Y-101682849D01*
X168533335Y-101467096D01*
X168594949Y-101237151D01*
X168615164Y-101006091D01*
X168615697Y-101000001D01*
X168615697Y-100999998D01*
X168596971Y-100785960D01*
X168594949Y-100762849D01*
X168533335Y-100532904D01*
X168432728Y-100317152D01*
X168314150Y-100147804D01*
X168296183Y-100122144D01*
X168127854Y-99953815D01*
X167953276Y-99831575D01*
X167909651Y-99776998D01*
X167902457Y-99707500D01*
X167933980Y-99645145D01*
X167953276Y-99628425D01*
X168045627Y-99563760D01*
X168127853Y-99506185D01*
X168296185Y-99337853D01*
X168432728Y-99142849D01*
X168533335Y-98927096D01*
X168594949Y-98697151D01*
X168615122Y-98466568D01*
X168615697Y-98460001D01*
X168615697Y-98459998D01*
X168609319Y-98387102D01*
X168594949Y-98222849D01*
X168533335Y-97992904D01*
X168432728Y-97777152D01*
X168296185Y-97582147D01*
X168296183Y-97582144D01*
X168127854Y-97413815D01*
X167932853Y-97277274D01*
X167932849Y-97277272D01*
X167932847Y-97277271D01*
X167717096Y-97176665D01*
X167717093Y-97176664D01*
X167717091Y-97176663D01*
X167487153Y-97115051D01*
X167487145Y-97115050D01*
X167250002Y-97094303D01*
X167249998Y-97094303D01*
X167012854Y-97115050D01*
X167012846Y-97115051D01*
X166782908Y-97176663D01*
X166782902Y-97176666D01*
X166567153Y-97277271D01*
X166567151Y-97277272D01*
X166372144Y-97413816D01*
X166203816Y-97582144D01*
X166081575Y-97756725D01*
X166026998Y-97800350D01*
X165957500Y-97807544D01*
X165895145Y-97776021D01*
X165878425Y-97756725D01*
X165756183Y-97582144D01*
X165587854Y-97413815D01*
X165392853Y-97277274D01*
X165392849Y-97277272D01*
X165392847Y-97277271D01*
X165177096Y-97176665D01*
X165177093Y-97176664D01*
X165177091Y-97176663D01*
X164947153Y-97115051D01*
X164947145Y-97115050D01*
X164710002Y-97094303D01*
X164709998Y-97094303D01*
X164472854Y-97115050D01*
X164472846Y-97115051D01*
X164242908Y-97176663D01*
X164242902Y-97176666D01*
X164027153Y-97277271D01*
X164027151Y-97277272D01*
X163832144Y-97413816D01*
X163663816Y-97582144D01*
X163541575Y-97756725D01*
X163486998Y-97800350D01*
X163417500Y-97807544D01*
X163355145Y-97776021D01*
X163338425Y-97756725D01*
X163216183Y-97582144D01*
X163047854Y-97413815D01*
X162852853Y-97277274D01*
X162852849Y-97277272D01*
X162852847Y-97277271D01*
X162637096Y-97176665D01*
X162637093Y-97176664D01*
X162637091Y-97176663D01*
X162407153Y-97115051D01*
X162407145Y-97115050D01*
X162170002Y-97094303D01*
X162169998Y-97094303D01*
X161932854Y-97115050D01*
X161932846Y-97115051D01*
X161702908Y-97176663D01*
X161702902Y-97176666D01*
X161487153Y-97277271D01*
X161487151Y-97277272D01*
X161292144Y-97413816D01*
X161123816Y-97582144D01*
X160987272Y-97777151D01*
X160987271Y-97777153D01*
X160886666Y-97992902D01*
X160886663Y-97992908D01*
X160825051Y-98222846D01*
X160825050Y-98222854D01*
X160804303Y-98459998D01*
X160804303Y-98460001D01*
X146721307Y-98460001D01*
X146877639Y-98387102D01*
X147056877Y-98261598D01*
X147211598Y-98106877D01*
X147337102Y-97927639D01*
X147429575Y-97729330D01*
X147486207Y-97517977D01*
X147505277Y-97300000D01*
X147486207Y-97082023D01*
X147429575Y-96870670D01*
X147337102Y-96672362D01*
X147337100Y-96672359D01*
X147337099Y-96672357D01*
X147211599Y-96493124D01*
X147145043Y-96426568D01*
X147056877Y-96338402D01*
X146918978Y-96241844D01*
X146877638Y-96212897D01*
X146778484Y-96166661D01*
X146679330Y-96120425D01*
X146679326Y-96120424D01*
X146679322Y-96120422D01*
X146467977Y-96063793D01*
X146250002Y-96044723D01*
X146249998Y-96044723D01*
X146104682Y-96057436D01*
X146032023Y-96063793D01*
X146032020Y-96063793D01*
X145820677Y-96120422D01*
X145820668Y-96120426D01*
X145622361Y-96212898D01*
X145622357Y-96212900D01*
X145443121Y-96338402D01*
X145288402Y-96493121D01*
X145162900Y-96672357D01*
X145162898Y-96672361D01*
X145070426Y-96870668D01*
X145070422Y-96870677D01*
X145013793Y-97082020D01*
X145013793Y-97082024D01*
X144994723Y-97299997D01*
X144994723Y-97300002D01*
X135064798Y-97300002D01*
X135004398Y-97187001D01*
X135004394Y-97186994D01*
X134878368Y-97033431D01*
X134724805Y-96907405D01*
X134724798Y-96907401D01*
X134549608Y-96813760D01*
X134454552Y-96784925D01*
X134359501Y-96756092D01*
X134359499Y-96756091D01*
X134359501Y-96756091D01*
X134161800Y-96736620D01*
X133964100Y-96756091D01*
X133773991Y-96813760D01*
X133598801Y-96907401D01*
X133598794Y-96907405D01*
X133445231Y-97033431D01*
X133319205Y-97186994D01*
X133319201Y-97187001D01*
X133225560Y-97362191D01*
X133167891Y-97552300D01*
X133148420Y-97750000D01*
X133167891Y-97947699D01*
X133225560Y-98137808D01*
X133319201Y-98312998D01*
X133319205Y-98313005D01*
X133445231Y-98466567D01*
X133445232Y-98466568D01*
X133530087Y-98536207D01*
X133552095Y-98554268D01*
X133591430Y-98612014D01*
X133593301Y-98681859D01*
X133557114Y-98741627D01*
X133509427Y-98768782D01*
X133328194Y-98823759D01*
X133153001Y-98917401D01*
X133152994Y-98917405D01*
X132999431Y-99043431D01*
X132873405Y-99196994D01*
X132873401Y-99197001D01*
X132779760Y-99372191D01*
X132722091Y-99562300D01*
X132706239Y-99723253D01*
X132680078Y-99788040D01*
X132623043Y-99828399D01*
X132553243Y-99831516D01*
X132546847Y-99829761D01*
X132389701Y-99782092D01*
X132389699Y-99782091D01*
X132389701Y-99782091D01*
X132192000Y-99762620D01*
X131994300Y-99782091D01*
X131944082Y-99797325D01*
X131874215Y-99797948D01*
X131815102Y-99760699D01*
X131785511Y-99697405D01*
X131794838Y-99628161D01*
X131812234Y-99599999D01*
X131821587Y-99588601D01*
X131842595Y-99563004D01*
X131936241Y-99387804D01*
X131993908Y-99197701D01*
X132013380Y-99000000D01*
X131993908Y-98802299D01*
X131936241Y-98612196D01*
X131936239Y-98612193D01*
X131936239Y-98612191D01*
X131842598Y-98437001D01*
X131842594Y-98436994D01*
X131716568Y-98283431D01*
X131563005Y-98157405D01*
X131562998Y-98157401D01*
X131387808Y-98063760D01*
X131292752Y-98034925D01*
X131197701Y-98006092D01*
X131197699Y-98006091D01*
X131197701Y-98006091D01*
X131000000Y-97986620D01*
X130802300Y-98006091D01*
X130612191Y-98063760D01*
X130437001Y-98157401D01*
X130436994Y-98157405D01*
X130283431Y-98283431D01*
X130157405Y-98436994D01*
X130157401Y-98437001D01*
X130063760Y-98612191D01*
X130006091Y-98802300D01*
X129986620Y-99000000D01*
X101000000Y-99000000D01*
X101000000Y-95710000D01*
X122726620Y-95710000D01*
X122746091Y-95907699D01*
X122803760Y-96097808D01*
X122897401Y-96272998D01*
X122897405Y-96273005D01*
X123023431Y-96426568D01*
X123176994Y-96552594D01*
X123177001Y-96552598D01*
X123352191Y-96646239D01*
X123352193Y-96646239D01*
X123352196Y-96646241D01*
X123542299Y-96703908D01*
X123542298Y-96703908D01*
X123560024Y-96705653D01*
X123740000Y-96723380D01*
X123937701Y-96703908D01*
X124127804Y-96646241D01*
X124303004Y-96552595D01*
X124456568Y-96426568D01*
X124532226Y-96334378D01*
X124589970Y-96295045D01*
X124659814Y-96293174D01*
X124719583Y-96329361D01*
X124750299Y-96392117D01*
X124751481Y-96400889D01*
X124756091Y-96447699D01*
X124813760Y-96637808D01*
X124903529Y-96805753D01*
X124917771Y-96874156D01*
X124892771Y-96939399D01*
X124872836Y-96960059D01*
X124783431Y-97033431D01*
X124657405Y-97186994D01*
X124657401Y-97187001D01*
X124563760Y-97362191D01*
X124506091Y-97552300D01*
X124486620Y-97750000D01*
X124506091Y-97947699D01*
X124563760Y-98137808D01*
X124657401Y-98312998D01*
X124657405Y-98313005D01*
X124783431Y-98466568D01*
X124936994Y-98592594D01*
X124937001Y-98592598D01*
X125112191Y-98686239D01*
X125112193Y-98686239D01*
X125112196Y-98686241D01*
X125302299Y-98743908D01*
X125302298Y-98743908D01*
X125320024Y-98745653D01*
X125500000Y-98763380D01*
X125697701Y-98743908D01*
X125887804Y-98686241D01*
X126063004Y-98592595D01*
X126216568Y-98466568D01*
X126342595Y-98313004D01*
X126436241Y-98137804D01*
X126493908Y-97947701D01*
X126513380Y-97750000D01*
X126493908Y-97552299D01*
X126436241Y-97362196D01*
X126436239Y-97362193D01*
X126436239Y-97362191D01*
X126346471Y-97194246D01*
X126332229Y-97125843D01*
X126357229Y-97060599D01*
X126377165Y-97039939D01*
X126385095Y-97033431D01*
X126466568Y-96966568D01*
X126592595Y-96813004D01*
X126650908Y-96703908D01*
X126686239Y-96637808D01*
X126686239Y-96637807D01*
X126686241Y-96637804D01*
X126743908Y-96447701D01*
X126763380Y-96250000D01*
X126743908Y-96052299D01*
X126686241Y-95862196D01*
X126686239Y-95862193D01*
X126686239Y-95862191D01*
X126592598Y-95687001D01*
X126592594Y-95686994D01*
X126466568Y-95533431D01*
X126425832Y-95500000D01*
X152736620Y-95500000D01*
X152756091Y-95697699D01*
X152813760Y-95887808D01*
X152907401Y-96062998D01*
X152907405Y-96063005D01*
X153033431Y-96216568D01*
X153186994Y-96342594D01*
X153187001Y-96342598D01*
X153362191Y-96436239D01*
X153362193Y-96436239D01*
X153362196Y-96436241D01*
X153552299Y-96493908D01*
X153552298Y-96493908D01*
X153570024Y-96495653D01*
X153750000Y-96513380D01*
X153947701Y-96493908D01*
X154137804Y-96436241D01*
X154313004Y-96342595D01*
X154466568Y-96216568D01*
X154592595Y-96063004D01*
X154686241Y-95887804D01*
X154743908Y-95697701D01*
X154763380Y-95500000D01*
X154743908Y-95302299D01*
X154686241Y-95112196D01*
X154686239Y-95112193D01*
X154686239Y-95112191D01*
X154592598Y-94937001D01*
X154592594Y-94936994D01*
X154466568Y-94783431D01*
X154313005Y-94657405D01*
X154312998Y-94657401D01*
X154137808Y-94563760D01*
X154042752Y-94534925D01*
X153947701Y-94506092D01*
X153947699Y-94506091D01*
X153947701Y-94506091D01*
X153750000Y-94486620D01*
X153552300Y-94506091D01*
X153362191Y-94563760D01*
X153187001Y-94657401D01*
X153186994Y-94657405D01*
X153033431Y-94783431D01*
X152907405Y-94936994D01*
X152907401Y-94937001D01*
X152813760Y-95112191D01*
X152756091Y-95302300D01*
X152736620Y-95500000D01*
X126425832Y-95500000D01*
X126313005Y-95407405D01*
X126312998Y-95407401D01*
X126137808Y-95313760D01*
X126028384Y-95280567D01*
X125947701Y-95256092D01*
X125947699Y-95256091D01*
X125947701Y-95256091D01*
X125750000Y-95236620D01*
X125552300Y-95256091D01*
X125362191Y-95313760D01*
X125187001Y-95407401D01*
X125186994Y-95407405D01*
X125033431Y-95533431D01*
X124957774Y-95625620D01*
X124900028Y-95664954D01*
X124830183Y-95666825D01*
X124770415Y-95630637D01*
X124739699Y-95567881D01*
X124738518Y-95559108D01*
X124733908Y-95512300D01*
X124730177Y-95500000D01*
X124676241Y-95322196D01*
X124676239Y-95322193D01*
X124676239Y-95322191D01*
X124582598Y-95147001D01*
X124582594Y-95146994D01*
X124456568Y-94993431D01*
X124303005Y-94867405D01*
X124302998Y-94867401D01*
X124127808Y-94773760D01*
X124029398Y-94743908D01*
X123937701Y-94716092D01*
X123937699Y-94716091D01*
X123937701Y-94716091D01*
X123740000Y-94696620D01*
X123542300Y-94716091D01*
X123352191Y-94773760D01*
X123177001Y-94867401D01*
X123176994Y-94867405D01*
X123023431Y-94993431D01*
X122897405Y-95146994D01*
X122897401Y-95147001D01*
X122803760Y-95322191D01*
X122746091Y-95512300D01*
X122726620Y-95710000D01*
X101000000Y-95710000D01*
X101000000Y-92850001D01*
X102478532Y-92850001D01*
X102498364Y-93076686D01*
X102498366Y-93076697D01*
X102557258Y-93296488D01*
X102557261Y-93296497D01*
X102653431Y-93502732D01*
X102653432Y-93502734D01*
X102783954Y-93689141D01*
X102944858Y-93850045D01*
X102944861Y-93850047D01*
X103131266Y-93980568D01*
X103337504Y-94076739D01*
X103557308Y-94135635D01*
X103719230Y-94149801D01*
X103783998Y-94155468D01*
X103784000Y-94155468D01*
X103784002Y-94155468D01*
X103846488Y-94150001D01*
X107478532Y-94150001D01*
X107498364Y-94376686D01*
X107498366Y-94376697D01*
X107557258Y-94596488D01*
X107557261Y-94596497D01*
X107653431Y-94802732D01*
X107653432Y-94802734D01*
X107783954Y-94989141D01*
X107944858Y-95150045D01*
X107944861Y-95150047D01*
X108131266Y-95280568D01*
X108337504Y-95376739D01*
X108557308Y-95435635D01*
X108719230Y-95449801D01*
X108783998Y-95455468D01*
X108784000Y-95455468D01*
X108784002Y-95455468D01*
X108840673Y-95450509D01*
X109010692Y-95435635D01*
X109230496Y-95376739D01*
X109436734Y-95280568D01*
X109623139Y-95150047D01*
X109784047Y-94989139D01*
X109914568Y-94802734D01*
X110010739Y-94596496D01*
X110069635Y-94376692D01*
X110089468Y-94150000D01*
X110069635Y-93923308D01*
X110010739Y-93703504D01*
X109914568Y-93497266D01*
X109784047Y-93310861D01*
X109784045Y-93310858D01*
X109623141Y-93149954D01*
X109436734Y-93019432D01*
X109436732Y-93019431D01*
X109230497Y-92923261D01*
X109230488Y-92923258D01*
X109010697Y-92864366D01*
X109010693Y-92864365D01*
X109010692Y-92864365D01*
X109010691Y-92864364D01*
X109010686Y-92864364D01*
X108784002Y-92844532D01*
X108783998Y-92844532D01*
X108557313Y-92864364D01*
X108557302Y-92864366D01*
X108337511Y-92923258D01*
X108337502Y-92923261D01*
X108131267Y-93019431D01*
X108131265Y-93019432D01*
X107944858Y-93149954D01*
X107783954Y-93310858D01*
X107653432Y-93497265D01*
X107653431Y-93497267D01*
X107557261Y-93703502D01*
X107557258Y-93703511D01*
X107498366Y-93923302D01*
X107498364Y-93923313D01*
X107478532Y-94149998D01*
X107478532Y-94150001D01*
X103846488Y-94150001D01*
X103846522Y-94149998D01*
X104010692Y-94135635D01*
X104230496Y-94076739D01*
X104436734Y-93980568D01*
X104623139Y-93850047D01*
X104784047Y-93689139D01*
X104914568Y-93502734D01*
X105010739Y-93296496D01*
X105069635Y-93076692D01*
X105089468Y-92850000D01*
X105085642Y-92806274D01*
X105080187Y-92743919D01*
X105069635Y-92623308D01*
X105024916Y-92456415D01*
X105010741Y-92403511D01*
X105010738Y-92403502D01*
X104980725Y-92339139D01*
X104914568Y-92197266D01*
X104784047Y-92010861D01*
X104784045Y-92010858D01*
X104623141Y-91849954D01*
X104436734Y-91719432D01*
X104436732Y-91719431D01*
X104230497Y-91623261D01*
X104230488Y-91623258D01*
X104010697Y-91564366D01*
X104010693Y-91564365D01*
X104010692Y-91564365D01*
X104010691Y-91564364D01*
X104010686Y-91564364D01*
X103784002Y-91544532D01*
X103783998Y-91544532D01*
X103557313Y-91564364D01*
X103557302Y-91564366D01*
X103337511Y-91623258D01*
X103337502Y-91623261D01*
X103131267Y-91719431D01*
X103131265Y-91719432D01*
X102944858Y-91849954D01*
X102783954Y-92010858D01*
X102653432Y-92197265D01*
X102653431Y-92197267D01*
X102557261Y-92403502D01*
X102557258Y-92403511D01*
X102498366Y-92623302D01*
X102498364Y-92623313D01*
X102478532Y-92849998D01*
X102478532Y-92850001D01*
X101000000Y-92850001D01*
X101000000Y-89981000D01*
X124828620Y-89981000D01*
X124848091Y-90178699D01*
X124905760Y-90368808D01*
X124999401Y-90543998D01*
X124999405Y-90544005D01*
X125125431Y-90697567D01*
X125179347Y-90741815D01*
X125218682Y-90799561D01*
X125220553Y-90869406D01*
X125210042Y-90896121D01*
X125159760Y-90990193D01*
X125102091Y-91180300D01*
X125082620Y-91378000D01*
X125102091Y-91575699D01*
X125159760Y-91765808D01*
X125253401Y-91940998D01*
X125253405Y-91941005D01*
X125379431Y-92094568D01*
X125532994Y-92220594D01*
X125533001Y-92220598D01*
X125708191Y-92314239D01*
X125708193Y-92314239D01*
X125708196Y-92314241D01*
X125898299Y-92371908D01*
X125898298Y-92371908D01*
X125916024Y-92373653D01*
X126096000Y-92391380D01*
X126293701Y-92371908D01*
X126483804Y-92314241D01*
X126659004Y-92220595D01*
X126812568Y-92094568D01*
X126921200Y-91962200D01*
X131686620Y-91962200D01*
X131706091Y-92159899D01*
X131763760Y-92350008D01*
X131857401Y-92525198D01*
X131857405Y-92525205D01*
X131983431Y-92678768D01*
X132107713Y-92780763D01*
X132147047Y-92838508D01*
X132148918Y-92908353D01*
X132112731Y-92968121D01*
X132107714Y-92972468D01*
X132033432Y-93033430D01*
X131907405Y-93186994D01*
X131907401Y-93187001D01*
X131813760Y-93362191D01*
X131756091Y-93552300D01*
X131736620Y-93750000D01*
X131756091Y-93947699D01*
X131813760Y-94137808D01*
X131907401Y-94312998D01*
X131907405Y-94313005D01*
X132033431Y-94466568D01*
X132186994Y-94592594D01*
X132187001Y-94592598D01*
X132362191Y-94686239D01*
X132362193Y-94686239D01*
X132362196Y-94686241D01*
X132552299Y-94743908D01*
X132552298Y-94743908D01*
X132570024Y-94745653D01*
X132750000Y-94763380D01*
X132947701Y-94743908D01*
X133137804Y-94686241D01*
X133313004Y-94592595D01*
X133466568Y-94466568D01*
X133592595Y-94313004D01*
X133648782Y-94207884D01*
X133686239Y-94137808D01*
X133686239Y-94137807D01*
X133686241Y-94137804D01*
X133728043Y-94000000D01*
X192069628Y-94000000D01*
X192089079Y-94222329D01*
X192089081Y-94222339D01*
X192146841Y-94437905D01*
X192146843Y-94437909D01*
X192146844Y-94437913D01*
X192241165Y-94640186D01*
X192369178Y-94823007D01*
X192526993Y-94980822D01*
X192709814Y-95108835D01*
X192912087Y-95203156D01*
X193127666Y-95260920D01*
X193305533Y-95276481D01*
X193349999Y-95280372D01*
X193350000Y-95280372D01*
X193350001Y-95280372D01*
X193387055Y-95277130D01*
X193572334Y-95260920D01*
X193787913Y-95203156D01*
X193990186Y-95108835D01*
X194173007Y-94980822D01*
X194330822Y-94823007D01*
X194458835Y-94640186D01*
X194553156Y-94437913D01*
X194610920Y-94222334D01*
X194630372Y-94000000D01*
X194610920Y-93777666D01*
X194553156Y-93562087D01*
X194458835Y-93359814D01*
X194330822Y-93176993D01*
X194173007Y-93019178D01*
X194046145Y-92930348D01*
X194002522Y-92875772D01*
X193995330Y-92806274D01*
X194026852Y-92743919D01*
X194062171Y-92717690D01*
X194218568Y-92640125D01*
X194369113Y-92519113D01*
X194490125Y-92368568D01*
X194575944Y-92195529D01*
X194622559Y-92008087D01*
X194625500Y-91964716D01*
X194625500Y-91035284D01*
X194622559Y-90991913D01*
X194616684Y-90968291D01*
X194598736Y-90896121D01*
X194575944Y-90804471D01*
X194505003Y-90661431D01*
X194490127Y-90631435D01*
X194490125Y-90631433D01*
X194490125Y-90631432D01*
X194369113Y-90480887D01*
X194351299Y-90466568D01*
X194332371Y-90451353D01*
X194218568Y-90359875D01*
X194218566Y-90359874D01*
X194218564Y-90359872D01*
X194045531Y-90274057D01*
X194045529Y-90274056D01*
X193858091Y-90227441D01*
X193829173Y-90225480D01*
X193814716Y-90224500D01*
X192885284Y-90224500D01*
X192872892Y-90225340D01*
X192841908Y-90227441D01*
X192654470Y-90274056D01*
X192654468Y-90274057D01*
X192481435Y-90359872D01*
X192481433Y-90359874D01*
X192330887Y-90480886D01*
X192330886Y-90480887D01*
X192209874Y-90631433D01*
X192209872Y-90631435D01*
X192124057Y-90804468D01*
X192124056Y-90804470D01*
X192077441Y-90991908D01*
X192074500Y-91035286D01*
X192074500Y-91964713D01*
X192077441Y-92008091D01*
X192124056Y-92195529D01*
X192124057Y-92195531D01*
X192209872Y-92368564D01*
X192209874Y-92368566D01*
X192209875Y-92368568D01*
X192330887Y-92519113D01*
X192481432Y-92640125D01*
X192481433Y-92640125D01*
X192481435Y-92640127D01*
X192637822Y-92717687D01*
X192689135Y-92765108D01*
X192706665Y-92832743D01*
X192684845Y-92899118D01*
X192653852Y-92930349D01*
X192526992Y-93019178D01*
X192369182Y-93176988D01*
X192369179Y-93176991D01*
X192369178Y-93176993D01*
X192275442Y-93310861D01*
X192241165Y-93359814D01*
X192146845Y-93562085D01*
X192146841Y-93562094D01*
X192089081Y-93777660D01*
X192089079Y-93777670D01*
X192069628Y-93999999D01*
X192069628Y-94000000D01*
X133728043Y-94000000D01*
X133743908Y-93947701D01*
X133763380Y-93750000D01*
X133743908Y-93552299D01*
X133686241Y-93362196D01*
X133686239Y-93362193D01*
X133686239Y-93362191D01*
X133592598Y-93187001D01*
X133592594Y-93186994D01*
X133466568Y-93033431D01*
X133342286Y-92931436D01*
X133302952Y-92873691D01*
X133301081Y-92803846D01*
X133337268Y-92744078D01*
X133342286Y-92739730D01*
X133416568Y-92678768D01*
X133542594Y-92525205D01*
X133542598Y-92525198D01*
X133556042Y-92500047D01*
X133626318Y-92368568D01*
X133636239Y-92350008D01*
X133636239Y-92350007D01*
X133636241Y-92350004D01*
X133666577Y-92250000D01*
X135736620Y-92250000D01*
X135756091Y-92447699D01*
X135813760Y-92637808D01*
X135907401Y-92812998D01*
X135907405Y-92813005D01*
X136033431Y-92966568D01*
X136186994Y-93092594D01*
X136187001Y-93092598D01*
X136362191Y-93186239D01*
X136362193Y-93186239D01*
X136362196Y-93186241D01*
X136552299Y-93243908D01*
X136552298Y-93243908D01*
X136570024Y-93245653D01*
X136750000Y-93263380D01*
X136947701Y-93243908D01*
X137137804Y-93186241D01*
X137313004Y-93092595D01*
X137466568Y-92966568D01*
X137592595Y-92813004D01*
X137684999Y-92640127D01*
X137686239Y-92637808D01*
X137686239Y-92637807D01*
X137686241Y-92637804D01*
X137743908Y-92447701D01*
X137763380Y-92250000D01*
X137743908Y-92052299D01*
X137686241Y-91862196D01*
X137686239Y-91862193D01*
X137686239Y-91862191D01*
X137592598Y-91687001D01*
X137592594Y-91686994D01*
X137466568Y-91533431D01*
X137425833Y-91500001D01*
X185394532Y-91500001D01*
X185414364Y-91726686D01*
X185414366Y-91726697D01*
X185473258Y-91946488D01*
X185473261Y-91946497D01*
X185569431Y-92152732D01*
X185569432Y-92152734D01*
X185699954Y-92339141D01*
X185860858Y-92500045D01*
X185860861Y-92500047D01*
X186047266Y-92630568D01*
X186253504Y-92726739D01*
X186473308Y-92785635D01*
X186635230Y-92799801D01*
X186699998Y-92805468D01*
X186700000Y-92805468D01*
X186700002Y-92805468D01*
X186756673Y-92800509D01*
X186926692Y-92785635D01*
X187146496Y-92726739D01*
X187352734Y-92630568D01*
X187539139Y-92500047D01*
X187700047Y-92339139D01*
X187830568Y-92152734D01*
X187926739Y-91946496D01*
X187985635Y-91726692D01*
X188005468Y-91500000D01*
X187985635Y-91273308D01*
X187926739Y-91053504D01*
X187830568Y-90847266D01*
X187700047Y-90660861D01*
X187700045Y-90660858D01*
X187539141Y-90499954D01*
X187352734Y-90369432D01*
X187352732Y-90369431D01*
X187146497Y-90273261D01*
X187146488Y-90273258D01*
X186926697Y-90214366D01*
X186926693Y-90214365D01*
X186926692Y-90214365D01*
X186926691Y-90214364D01*
X186926686Y-90214364D01*
X186700002Y-90194532D01*
X186699998Y-90194532D01*
X186473313Y-90214364D01*
X186473302Y-90214366D01*
X186253511Y-90273258D01*
X186253502Y-90273261D01*
X186047267Y-90369431D01*
X186047265Y-90369432D01*
X185860858Y-90499954D01*
X185699954Y-90660858D01*
X185569432Y-90847265D01*
X185569431Y-90847267D01*
X185473261Y-91053502D01*
X185473258Y-91053511D01*
X185414366Y-91273302D01*
X185414364Y-91273313D01*
X185394532Y-91499998D01*
X185394532Y-91500001D01*
X137425833Y-91500001D01*
X137313005Y-91407405D01*
X137312998Y-91407401D01*
X137137808Y-91313760D01*
X137004471Y-91273313D01*
X136947701Y-91256092D01*
X136947699Y-91256091D01*
X136947701Y-91256091D01*
X136750000Y-91236620D01*
X136552300Y-91256091D01*
X136362191Y-91313760D01*
X136187001Y-91407401D01*
X136186994Y-91407405D01*
X136033431Y-91533431D01*
X135907405Y-91686994D01*
X135907401Y-91687001D01*
X135813760Y-91862191D01*
X135756091Y-92052300D01*
X135736620Y-92250000D01*
X133666577Y-92250000D01*
X133693908Y-92159901D01*
X133713380Y-91962200D01*
X133693908Y-91764499D01*
X133636241Y-91574396D01*
X133636239Y-91574393D01*
X133636239Y-91574391D01*
X133542598Y-91399201D01*
X133542594Y-91399194D01*
X133416568Y-91245631D01*
X133263005Y-91119605D01*
X133262998Y-91119601D01*
X133087808Y-91025960D01*
X132969892Y-90990191D01*
X132897701Y-90968292D01*
X132897699Y-90968291D01*
X132897701Y-90968291D01*
X132700000Y-90948820D01*
X132502300Y-90968291D01*
X132312191Y-91025960D01*
X132137001Y-91119601D01*
X132136994Y-91119605D01*
X131983431Y-91245631D01*
X131857405Y-91399194D01*
X131857401Y-91399201D01*
X131763760Y-91574391D01*
X131706091Y-91764500D01*
X131686620Y-91962200D01*
X126921200Y-91962200D01*
X126938595Y-91941004D01*
X127032241Y-91765804D01*
X127089908Y-91575701D01*
X127109380Y-91378000D01*
X127089908Y-91180299D01*
X127032241Y-90990196D01*
X127032239Y-90990193D01*
X127032239Y-90990191D01*
X126938598Y-90815001D01*
X126938594Y-90814994D01*
X126812568Y-90661431D01*
X126758651Y-90617183D01*
X126719317Y-90559438D01*
X126717446Y-90489593D01*
X126727956Y-90462880D01*
X126778241Y-90368804D01*
X126835908Y-90178701D01*
X126855380Y-89981000D01*
X126835908Y-89783299D01*
X126825807Y-89750000D01*
X139986620Y-89750000D01*
X140006091Y-89947699D01*
X140063760Y-90137808D01*
X140157401Y-90312998D01*
X140157405Y-90313005D01*
X140283431Y-90466568D01*
X140436994Y-90592594D01*
X140437001Y-90592598D01*
X140612191Y-90686239D01*
X140612193Y-90686239D01*
X140612196Y-90686241D01*
X140802299Y-90743908D01*
X140802298Y-90743908D01*
X140820024Y-90745653D01*
X141000000Y-90763380D01*
X141197701Y-90743908D01*
X141387804Y-90686241D01*
X141434221Y-90661431D01*
X141562998Y-90592598D01*
X141563004Y-90592595D01*
X141716568Y-90466568D01*
X141842595Y-90313004D01*
X141936241Y-90137804D01*
X141993908Y-89947701D01*
X142013380Y-89750000D01*
X141993908Y-89552299D01*
X141936241Y-89362196D01*
X141936239Y-89362193D01*
X141936239Y-89362191D01*
X141876272Y-89250000D01*
X168486620Y-89250000D01*
X168506091Y-89447699D01*
X168563760Y-89637808D01*
X168657401Y-89812998D01*
X168657405Y-89813005D01*
X168783431Y-89966568D01*
X168936994Y-90092594D01*
X168937001Y-90092598D01*
X169112191Y-90186239D01*
X169112193Y-90186239D01*
X169112196Y-90186241D01*
X169302299Y-90243908D01*
X169302298Y-90243908D01*
X169320024Y-90245653D01*
X169500000Y-90263380D01*
X169697701Y-90243908D01*
X169887804Y-90186241D01*
X169901911Y-90178701D01*
X170062998Y-90092598D01*
X170063004Y-90092595D01*
X170216568Y-89966568D01*
X170231913Y-89947870D01*
X177349500Y-89947870D01*
X177349501Y-89947876D01*
X177355908Y-90007483D01*
X177406202Y-90142328D01*
X177406206Y-90142335D01*
X177492452Y-90257544D01*
X177492455Y-90257547D01*
X177607664Y-90343793D01*
X177607671Y-90343797D01*
X177742517Y-90394091D01*
X177742516Y-90394091D01*
X177749444Y-90394835D01*
X177802127Y-90400500D01*
X179697872Y-90400499D01*
X179757483Y-90394091D01*
X179892331Y-90343796D01*
X180007546Y-90257546D01*
X180093796Y-90142331D01*
X180095483Y-90137808D01*
X180122455Y-90065493D01*
X180164326Y-90009559D01*
X180229790Y-89985141D01*
X180298063Y-89999992D01*
X180329866Y-90024843D01*
X180337302Y-90032920D01*
X180338215Y-90033912D01*
X180338222Y-90033918D01*
X180521365Y-90176464D01*
X180521371Y-90176468D01*
X180521374Y-90176470D01*
X180725497Y-90286936D01*
X180839487Y-90326068D01*
X180945015Y-90362297D01*
X180945017Y-90362297D01*
X180945019Y-90362298D01*
X181173951Y-90400500D01*
X181173952Y-90400500D01*
X181406048Y-90400500D01*
X181406049Y-90400500D01*
X181634981Y-90362298D01*
X181854503Y-90286936D01*
X182058626Y-90176470D01*
X182241784Y-90033913D01*
X182398979Y-89863153D01*
X182525924Y-89668849D01*
X182619157Y-89456300D01*
X182676134Y-89231305D01*
X182679805Y-89187001D01*
X182695300Y-89000006D01*
X182695300Y-88999993D01*
X182676135Y-88768702D01*
X182676133Y-88768691D01*
X182619157Y-88543699D01*
X182525924Y-88331151D01*
X182398983Y-88136852D01*
X182398980Y-88136849D01*
X182398979Y-88136847D01*
X182241784Y-87966087D01*
X182241779Y-87966083D01*
X182241777Y-87966081D01*
X182058634Y-87823535D01*
X182058628Y-87823531D01*
X181854504Y-87713064D01*
X181854495Y-87713061D01*
X181634984Y-87637702D01*
X181444450Y-87605908D01*
X181406049Y-87599500D01*
X181173951Y-87599500D01*
X181135550Y-87605908D01*
X180945015Y-87637702D01*
X180725504Y-87713061D01*
X180725495Y-87713064D01*
X180521371Y-87823531D01*
X180521365Y-87823535D01*
X180338222Y-87966081D01*
X180338218Y-87966085D01*
X180329866Y-87975158D01*
X180269979Y-88011148D01*
X180200141Y-88009047D01*
X180142525Y-87969522D01*
X180122455Y-87934507D01*
X180093797Y-87857671D01*
X180093793Y-87857664D01*
X180007547Y-87742455D01*
X180007544Y-87742452D01*
X179892335Y-87656206D01*
X179892328Y-87656202D01*
X179757482Y-87605908D01*
X179757483Y-87605908D01*
X179697883Y-87599501D01*
X179697881Y-87599500D01*
X179697873Y-87599500D01*
X179697864Y-87599500D01*
X177802129Y-87599500D01*
X177802123Y-87599501D01*
X177742516Y-87605908D01*
X177607671Y-87656202D01*
X177607664Y-87656206D01*
X177492455Y-87742452D01*
X177492452Y-87742455D01*
X177406206Y-87857664D01*
X177406202Y-87857671D01*
X177355908Y-87992517D01*
X177349501Y-88052116D01*
X177349500Y-88052135D01*
X177349500Y-89947870D01*
X170231913Y-89947870D01*
X170342595Y-89813004D01*
X170436241Y-89637804D01*
X170493908Y-89447701D01*
X170513380Y-89250000D01*
X170493908Y-89052299D01*
X170436241Y-88862196D01*
X170436239Y-88862193D01*
X170436239Y-88862191D01*
X170342598Y-88687001D01*
X170342594Y-88686994D01*
X170216568Y-88533431D01*
X170063005Y-88407405D01*
X170062998Y-88407401D01*
X169887808Y-88313760D01*
X169792752Y-88284925D01*
X169697701Y-88256092D01*
X169697699Y-88256091D01*
X169697701Y-88256091D01*
X169500000Y-88236620D01*
X169302300Y-88256091D01*
X169112191Y-88313760D01*
X168937001Y-88407401D01*
X168936994Y-88407405D01*
X168783431Y-88533431D01*
X168657405Y-88686994D01*
X168657401Y-88687001D01*
X168563760Y-88862191D01*
X168506091Y-89052300D01*
X168486620Y-89250000D01*
X141876272Y-89250000D01*
X141842598Y-89187001D01*
X141842594Y-89186994D01*
X141716568Y-89033431D01*
X141563005Y-88907405D01*
X141562998Y-88907401D01*
X141387808Y-88813760D01*
X141292752Y-88784925D01*
X141197701Y-88756092D01*
X141197699Y-88756091D01*
X141197701Y-88756091D01*
X141000000Y-88736620D01*
X140802300Y-88756091D01*
X140612191Y-88813760D01*
X140437001Y-88907401D01*
X140436994Y-88907405D01*
X140283431Y-89033431D01*
X140157405Y-89186994D01*
X140157401Y-89187001D01*
X140063760Y-89362191D01*
X140006091Y-89552300D01*
X139986620Y-89750000D01*
X126825807Y-89750000D01*
X126778241Y-89593196D01*
X126778239Y-89593193D01*
X126778239Y-89593191D01*
X126684598Y-89418001D01*
X126684594Y-89417994D01*
X126558568Y-89264431D01*
X126405005Y-89138405D01*
X126404998Y-89138401D01*
X126229808Y-89044760D01*
X126134752Y-89015925D01*
X126039701Y-88987092D01*
X126039699Y-88987091D01*
X126039701Y-88987091D01*
X125842000Y-88967620D01*
X125644300Y-88987091D01*
X125454191Y-89044760D01*
X125279001Y-89138401D01*
X125278994Y-89138405D01*
X125125431Y-89264431D01*
X124999405Y-89417994D01*
X124999401Y-89418001D01*
X124905760Y-89593191D01*
X124848091Y-89783300D01*
X124828620Y-89981000D01*
X101000000Y-89981000D01*
X101000000Y-85000000D01*
X105369628Y-85000000D01*
X105389079Y-85222329D01*
X105389081Y-85222339D01*
X105446841Y-85437905D01*
X105446843Y-85437909D01*
X105446844Y-85437913D01*
X105541165Y-85640186D01*
X105669178Y-85823007D01*
X105826993Y-85980822D01*
X105953853Y-86069650D01*
X105997477Y-86124226D01*
X106004669Y-86193725D01*
X105973147Y-86256079D01*
X105937823Y-86282312D01*
X105781432Y-86359874D01*
X105630887Y-86480886D01*
X105630886Y-86480887D01*
X105509874Y-86631433D01*
X105509872Y-86631435D01*
X105424057Y-86804468D01*
X105424056Y-86804470D01*
X105377441Y-86991908D01*
X105374500Y-87035286D01*
X105374500Y-87964713D01*
X105377441Y-88008091D01*
X105424056Y-88195529D01*
X105424057Y-88195531D01*
X105509872Y-88368564D01*
X105509874Y-88368566D01*
X105509875Y-88368568D01*
X105630887Y-88519113D01*
X105781432Y-88640125D01*
X105781433Y-88640125D01*
X105781435Y-88640127D01*
X105867951Y-88683034D01*
X105954471Y-88725944D01*
X106096035Y-88761149D01*
X106141908Y-88772558D01*
X106141909Y-88772558D01*
X106141913Y-88772559D01*
X106185284Y-88775500D01*
X106185286Y-88775500D01*
X107114714Y-88775500D01*
X107114716Y-88775500D01*
X107158087Y-88772559D01*
X107248798Y-88750000D01*
X115736620Y-88750000D01*
X115756091Y-88947699D01*
X115813760Y-89137808D01*
X115907401Y-89312998D01*
X115907405Y-89313005D01*
X116033431Y-89466568D01*
X116186994Y-89592594D01*
X116187001Y-89592598D01*
X116362191Y-89686239D01*
X116362193Y-89686239D01*
X116362196Y-89686241D01*
X116552299Y-89743908D01*
X116552298Y-89743908D01*
X116570024Y-89745653D01*
X116750000Y-89763380D01*
X116947701Y-89743908D01*
X117137804Y-89686241D01*
X117313004Y-89592595D01*
X117466568Y-89466568D01*
X117592595Y-89313004D01*
X117659947Y-89186996D01*
X117686239Y-89137808D01*
X117686239Y-89137807D01*
X117686241Y-89137804D01*
X117743908Y-88947701D01*
X117763380Y-88750000D01*
X117743908Y-88552299D01*
X117686241Y-88362196D01*
X117686239Y-88362193D01*
X117686239Y-88362191D01*
X117592598Y-88187001D01*
X117592594Y-88186994D01*
X117466568Y-88033431D01*
X117313005Y-87907405D01*
X117312998Y-87907401D01*
X117137808Y-87813760D01*
X116971723Y-87763379D01*
X116947701Y-87756092D01*
X116947699Y-87756091D01*
X116947701Y-87756091D01*
X116750000Y-87736620D01*
X116552300Y-87756091D01*
X116362191Y-87813760D01*
X116187001Y-87907401D01*
X116186994Y-87907405D01*
X116033431Y-88033431D01*
X115907405Y-88186994D01*
X115907401Y-88187001D01*
X115813760Y-88362191D01*
X115756091Y-88552300D01*
X115736620Y-88750000D01*
X107248798Y-88750000D01*
X107345529Y-88725944D01*
X107518568Y-88640125D01*
X107669113Y-88519113D01*
X107790125Y-88368568D01*
X107875944Y-88195529D01*
X107922559Y-88008087D01*
X107925500Y-87964716D01*
X107925500Y-87035284D01*
X107922559Y-86991913D01*
X107875944Y-86804471D01*
X107811733Y-86675000D01*
X136311620Y-86675000D01*
X136331091Y-86872699D01*
X136388760Y-87062808D01*
X136482401Y-87237998D01*
X136482405Y-87238005D01*
X136608431Y-87391568D01*
X136761994Y-87517594D01*
X136762001Y-87517598D01*
X136937191Y-87611239D01*
X136937193Y-87611239D01*
X136937196Y-87611241D01*
X137127299Y-87668908D01*
X137127298Y-87668908D01*
X137145024Y-87670653D01*
X137325000Y-87688380D01*
X137522701Y-87668908D01*
X137712804Y-87611241D01*
X137722782Y-87605908D01*
X137887998Y-87517598D01*
X137888004Y-87517595D01*
X138041568Y-87391568D01*
X138167595Y-87238004D01*
X138261241Y-87062804D01*
X138318908Y-86872701D01*
X138330993Y-86750000D01*
X158736620Y-86750000D01*
X158756091Y-86947699D01*
X158813760Y-87137808D01*
X158907401Y-87312998D01*
X158907405Y-87313005D01*
X159033431Y-87466568D01*
X159186994Y-87592594D01*
X159187001Y-87592598D01*
X159362191Y-87686239D01*
X159362193Y-87686239D01*
X159362196Y-87686241D01*
X159552299Y-87743908D01*
X159552298Y-87743908D01*
X159570024Y-87745653D01*
X159750000Y-87763380D01*
X159947701Y-87743908D01*
X160137804Y-87686241D01*
X160194000Y-87656204D01*
X160241963Y-87630567D01*
X160313004Y-87592595D01*
X160466568Y-87466568D01*
X160592595Y-87313004D01*
X160686241Y-87137804D01*
X160743908Y-86947701D01*
X160763380Y-86750000D01*
X160743908Y-86552299D01*
X160728044Y-86500001D01*
X186694532Y-86500001D01*
X186714364Y-86726686D01*
X186714366Y-86726697D01*
X186773258Y-86946488D01*
X186773261Y-86946497D01*
X186869431Y-87152732D01*
X186869432Y-87152734D01*
X186999954Y-87339141D01*
X187160858Y-87500045D01*
X187160861Y-87500047D01*
X187347266Y-87630568D01*
X187553504Y-87726739D01*
X187553509Y-87726740D01*
X187553511Y-87726741D01*
X187606415Y-87740916D01*
X187773308Y-87785635D01*
X187935230Y-87799801D01*
X187999998Y-87805468D01*
X188000000Y-87805468D01*
X188000002Y-87805468D01*
X188056673Y-87800509D01*
X188226692Y-87785635D01*
X188446496Y-87726739D01*
X188652734Y-87630568D01*
X188839139Y-87500047D01*
X189000047Y-87339139D01*
X189130568Y-87152734D01*
X189226739Y-86946496D01*
X189285635Y-86726692D01*
X189305468Y-86500000D01*
X189285635Y-86273308D01*
X189226739Y-86053504D01*
X189130568Y-85847266D01*
X189014212Y-85681091D01*
X189000045Y-85660858D01*
X188839141Y-85499954D01*
X188652734Y-85369432D01*
X188652732Y-85369431D01*
X188446497Y-85273261D01*
X188446488Y-85273258D01*
X188226697Y-85214366D01*
X188226693Y-85214365D01*
X188226692Y-85214365D01*
X188226691Y-85214364D01*
X188226686Y-85214364D01*
X188000002Y-85194532D01*
X187999998Y-85194532D01*
X187773313Y-85214364D01*
X187773302Y-85214366D01*
X187553511Y-85273258D01*
X187553502Y-85273261D01*
X187347267Y-85369431D01*
X187347265Y-85369432D01*
X187160858Y-85499954D01*
X186999954Y-85660858D01*
X186869432Y-85847265D01*
X186869431Y-85847267D01*
X186773261Y-86053502D01*
X186773258Y-86053511D01*
X186714366Y-86273302D01*
X186714364Y-86273313D01*
X186694532Y-86499998D01*
X186694532Y-86500001D01*
X160728044Y-86500001D01*
X160686241Y-86362196D01*
X160686239Y-86362193D01*
X160686239Y-86362191D01*
X160592598Y-86187001D01*
X160592594Y-86186994D01*
X160466568Y-86033431D01*
X160313005Y-85907405D01*
X160312998Y-85907401D01*
X160137808Y-85813760D01*
X160042752Y-85784925D01*
X159947701Y-85756092D01*
X159947699Y-85756091D01*
X159947701Y-85756091D01*
X159750000Y-85736620D01*
X159552300Y-85756091D01*
X159362191Y-85813760D01*
X159187001Y-85907401D01*
X159186994Y-85907405D01*
X159033431Y-86033431D01*
X158907405Y-86186994D01*
X158907401Y-86187001D01*
X158813760Y-86362191D01*
X158756091Y-86552300D01*
X158736620Y-86750000D01*
X138330993Y-86750000D01*
X138338380Y-86675000D01*
X138318908Y-86477299D01*
X138261241Y-86287196D01*
X138261239Y-86287193D01*
X138261239Y-86287191D01*
X138167598Y-86112001D01*
X138167594Y-86111994D01*
X138041568Y-85958431D01*
X137888005Y-85832405D01*
X137887998Y-85832401D01*
X137712808Y-85738760D01*
X137617752Y-85709925D01*
X137522701Y-85681092D01*
X137522699Y-85681091D01*
X137522701Y-85681091D01*
X137325000Y-85661620D01*
X137127300Y-85681091D01*
X136937191Y-85738760D01*
X136762001Y-85832401D01*
X136761994Y-85832405D01*
X136608431Y-85958431D01*
X136482405Y-86111994D01*
X136482401Y-86112001D01*
X136388760Y-86287191D01*
X136331091Y-86477300D01*
X136311620Y-86675000D01*
X107811733Y-86675000D01*
X107790127Y-86631435D01*
X107790125Y-86631433D01*
X107790125Y-86631432D01*
X107669113Y-86480887D01*
X107664649Y-86477299D01*
X107521455Y-86362196D01*
X107518568Y-86359875D01*
X107518566Y-86359874D01*
X107518564Y-86359872D01*
X107362177Y-86282312D01*
X107310864Y-86234891D01*
X107293335Y-86167256D01*
X107315154Y-86100881D01*
X107346145Y-86069651D01*
X107473007Y-85980822D01*
X107630822Y-85823007D01*
X107758835Y-85640186D01*
X107853156Y-85437913D01*
X107910920Y-85222334D01*
X107930372Y-85000000D01*
X107910920Y-84777666D01*
X107853156Y-84562087D01*
X107758835Y-84359814D01*
X107630822Y-84176993D01*
X107473007Y-84019178D01*
X107290186Y-83891165D01*
X107228459Y-83862381D01*
X107176020Y-83816210D01*
X107156868Y-83749017D01*
X107177083Y-83682136D01*
X107228460Y-83637618D01*
X107290186Y-83608835D01*
X107473007Y-83480822D01*
X107630822Y-83323007D01*
X107758835Y-83140186D01*
X107853156Y-82937913D01*
X107910920Y-82722334D01*
X107930372Y-82500000D01*
X107910920Y-82277666D01*
X107853156Y-82062087D01*
X107758835Y-81859814D01*
X107630822Y-81676993D01*
X107473007Y-81519178D01*
X107290186Y-81391165D01*
X107087913Y-81296844D01*
X107087909Y-81296843D01*
X107087905Y-81296841D01*
X106872339Y-81239081D01*
X106872329Y-81239079D01*
X106650001Y-81219628D01*
X106649999Y-81219628D01*
X106427670Y-81239079D01*
X106427660Y-81239081D01*
X106212094Y-81296841D01*
X106212087Y-81296843D01*
X106212087Y-81296844D01*
X106009814Y-81391165D01*
X105826993Y-81519178D01*
X105826991Y-81519179D01*
X105826988Y-81519182D01*
X105669182Y-81676988D01*
X105669179Y-81676991D01*
X105669178Y-81676993D01*
X105564323Y-81826741D01*
X105541165Y-81859814D01*
X105446845Y-82062085D01*
X105446841Y-82062094D01*
X105389081Y-82277660D01*
X105389079Y-82277670D01*
X105369628Y-82499999D01*
X105369628Y-82500000D01*
X105389079Y-82722329D01*
X105389081Y-82722339D01*
X105446841Y-82937905D01*
X105446843Y-82937909D01*
X105446844Y-82937913D01*
X105541165Y-83140186D01*
X105669178Y-83323007D01*
X105826993Y-83480822D01*
X106009814Y-83608835D01*
X106071540Y-83637618D01*
X106123979Y-83683790D01*
X106143131Y-83750984D01*
X106122915Y-83817865D01*
X106071540Y-83862382D01*
X106009814Y-83891164D01*
X105887844Y-83976568D01*
X105826993Y-84019178D01*
X105826991Y-84019179D01*
X105826988Y-84019182D01*
X105669182Y-84176988D01*
X105541165Y-84359814D01*
X105446845Y-84562085D01*
X105446841Y-84562094D01*
X105389081Y-84777660D01*
X105389079Y-84777670D01*
X105369628Y-84999999D01*
X105369628Y-85000000D01*
X101000000Y-85000000D01*
X101000000Y-80600001D01*
X109444532Y-80600001D01*
X109464364Y-80826686D01*
X109464366Y-80826697D01*
X109523258Y-81046488D01*
X109523261Y-81046497D01*
X109619431Y-81252732D01*
X109619432Y-81252734D01*
X109749954Y-81439141D01*
X109910858Y-81600045D01*
X109910861Y-81600047D01*
X110097266Y-81730568D01*
X110303504Y-81826739D01*
X110523308Y-81885635D01*
X110685230Y-81899801D01*
X110749998Y-81905468D01*
X110750000Y-81905468D01*
X110750002Y-81905468D01*
X110812488Y-81900001D01*
X114444532Y-81900001D01*
X114464364Y-82126686D01*
X114464366Y-82126697D01*
X114523258Y-82346488D01*
X114523261Y-82346497D01*
X114619431Y-82552732D01*
X114619432Y-82552734D01*
X114749954Y-82739141D01*
X114910858Y-82900045D01*
X114914321Y-82902470D01*
X115097266Y-83030568D01*
X115303504Y-83126739D01*
X115523308Y-83185635D01*
X115685230Y-83199801D01*
X115749998Y-83205468D01*
X115750000Y-83205468D01*
X115750002Y-83205468D01*
X115806673Y-83200509D01*
X115976692Y-83185635D01*
X116196496Y-83126739D01*
X116402734Y-83030568D01*
X116589139Y-82900047D01*
X116750047Y-82739139D01*
X116795748Y-82673870D01*
X120626500Y-82673870D01*
X120626501Y-82673876D01*
X120632908Y-82733483D01*
X120683202Y-82868328D01*
X120683206Y-82868335D01*
X120769452Y-82983544D01*
X120769455Y-82983547D01*
X120884664Y-83069793D01*
X120884671Y-83069797D01*
X121019517Y-83120091D01*
X121019516Y-83120091D01*
X121026444Y-83120835D01*
X121079127Y-83126500D01*
X122974872Y-83126499D01*
X123034483Y-83120091D01*
X123169331Y-83069796D01*
X123284546Y-82983546D01*
X123370796Y-82868331D01*
X123399455Y-82791493D01*
X123441326Y-82735559D01*
X123506790Y-82711141D01*
X123575063Y-82725992D01*
X123606866Y-82750843D01*
X123614302Y-82758920D01*
X123615215Y-82759912D01*
X123615222Y-82759918D01*
X123798365Y-82902464D01*
X123798371Y-82902468D01*
X123798374Y-82902470D01*
X123863852Y-82937905D01*
X123978676Y-83000045D01*
X124002497Y-83012936D01*
X124116487Y-83052068D01*
X124222015Y-83088297D01*
X124222017Y-83088297D01*
X124222019Y-83088298D01*
X124450951Y-83126500D01*
X124450952Y-83126500D01*
X124683048Y-83126500D01*
X124683049Y-83126500D01*
X124911981Y-83088298D01*
X125131503Y-83012936D01*
X125335626Y-82902470D01*
X125518784Y-82759913D01*
X125675979Y-82589153D01*
X125802924Y-82394849D01*
X125896157Y-82182300D01*
X125942322Y-82000001D01*
X185544532Y-82000001D01*
X185564364Y-82226686D01*
X185564366Y-82226697D01*
X185623258Y-82446488D01*
X185623261Y-82446497D01*
X185719431Y-82652732D01*
X185719432Y-82652734D01*
X185849954Y-82839141D01*
X186010858Y-83000045D01*
X186029271Y-83012938D01*
X186197266Y-83130568D01*
X186403504Y-83226739D01*
X186623308Y-83285635D01*
X186785230Y-83299801D01*
X186849998Y-83305468D01*
X186850000Y-83305468D01*
X186850002Y-83305468D01*
X186906673Y-83300509D01*
X187076692Y-83285635D01*
X187296496Y-83226739D01*
X187502734Y-83130568D01*
X187689139Y-83000047D01*
X187850047Y-82839139D01*
X187980568Y-82652734D01*
X188076739Y-82446496D01*
X188135635Y-82226692D01*
X188155468Y-82000000D01*
X192069628Y-82000000D01*
X192089079Y-82222329D01*
X192089081Y-82222339D01*
X192146841Y-82437905D01*
X192146843Y-82437909D01*
X192146844Y-82437913D01*
X192241165Y-82640186D01*
X192369178Y-82823007D01*
X192526993Y-82980822D01*
X192709814Y-83108835D01*
X192912087Y-83203156D01*
X192912093Y-83203157D01*
X192912094Y-83203158D01*
X192963980Y-83217060D01*
X193127666Y-83260920D01*
X193305533Y-83276481D01*
X193349999Y-83280372D01*
X193350000Y-83280372D01*
X193350001Y-83280372D01*
X193387055Y-83277130D01*
X193572334Y-83260920D01*
X193787913Y-83203156D01*
X193990186Y-83108835D01*
X194173007Y-82980822D01*
X194330822Y-82823007D01*
X194458835Y-82640186D01*
X194553156Y-82437913D01*
X194610920Y-82222334D01*
X194630372Y-82000000D01*
X194610920Y-81777666D01*
X194553156Y-81562087D01*
X194458835Y-81359814D01*
X194330822Y-81176993D01*
X194173007Y-81019178D01*
X194046145Y-80930348D01*
X194002522Y-80875772D01*
X193995330Y-80806274D01*
X194026852Y-80743919D01*
X194062171Y-80717690D01*
X194218568Y-80640125D01*
X194369113Y-80519113D01*
X194490125Y-80368568D01*
X194575944Y-80195529D01*
X194622559Y-80008087D01*
X194625500Y-79964716D01*
X194625500Y-79035284D01*
X194622559Y-78991913D01*
X194575944Y-78804471D01*
X194533034Y-78717951D01*
X194490127Y-78631435D01*
X194490125Y-78631433D01*
X194490125Y-78631432D01*
X194369113Y-78480887D01*
X194218568Y-78359875D01*
X194218566Y-78359874D01*
X194218564Y-78359872D01*
X194045531Y-78274057D01*
X194045529Y-78274056D01*
X193858091Y-78227441D01*
X193829173Y-78225480D01*
X193814716Y-78224500D01*
X192885284Y-78224500D01*
X192872892Y-78225340D01*
X192841908Y-78227441D01*
X192654470Y-78274056D01*
X192654468Y-78274057D01*
X192481435Y-78359872D01*
X192481433Y-78359874D01*
X192330887Y-78480886D01*
X192330886Y-78480887D01*
X192209874Y-78631433D01*
X192209872Y-78631435D01*
X192124057Y-78804468D01*
X192124056Y-78804470D01*
X192077441Y-78991908D01*
X192074500Y-79035286D01*
X192074500Y-79964713D01*
X192077441Y-80008091D01*
X192124056Y-80195529D01*
X192124057Y-80195531D01*
X192209872Y-80368564D01*
X192209874Y-80368566D01*
X192209875Y-80368568D01*
X192330887Y-80519113D01*
X192481432Y-80640125D01*
X192481433Y-80640125D01*
X192481435Y-80640127D01*
X192637822Y-80717687D01*
X192689135Y-80765108D01*
X192706665Y-80832743D01*
X192684845Y-80899118D01*
X192653852Y-80930349D01*
X192526992Y-81019178D01*
X192369182Y-81176988D01*
X192369179Y-81176991D01*
X192369178Y-81176993D01*
X192249952Y-81347265D01*
X192241165Y-81359814D01*
X192146845Y-81562085D01*
X192146841Y-81562094D01*
X192089081Y-81777660D01*
X192089079Y-81777670D01*
X192069628Y-81999999D01*
X192069628Y-82000000D01*
X188155468Y-82000000D01*
X188135635Y-81773308D01*
X188076739Y-81553504D01*
X187980568Y-81347266D01*
X187850047Y-81160861D01*
X187850045Y-81160858D01*
X187689141Y-80999954D01*
X187502734Y-80869432D01*
X187502732Y-80869431D01*
X187296497Y-80773261D01*
X187296488Y-80773258D01*
X187076697Y-80714366D01*
X187076693Y-80714365D01*
X187076692Y-80714365D01*
X187076691Y-80714364D01*
X187076686Y-80714364D01*
X186850002Y-80694532D01*
X186849998Y-80694532D01*
X186623313Y-80714364D01*
X186623302Y-80714366D01*
X186403511Y-80773258D01*
X186403502Y-80773261D01*
X186197267Y-80869431D01*
X186197265Y-80869432D01*
X186010858Y-80999954D01*
X185849954Y-81160858D01*
X185719432Y-81347265D01*
X185719431Y-81347267D01*
X185623261Y-81553502D01*
X185623258Y-81553511D01*
X185564366Y-81773302D01*
X185564364Y-81773313D01*
X185544532Y-81999998D01*
X185544532Y-82000001D01*
X125942322Y-82000001D01*
X125953134Y-81957305D01*
X125953135Y-81957297D01*
X125972300Y-81726006D01*
X125972300Y-81725993D01*
X125953135Y-81494702D01*
X125953133Y-81494691D01*
X125896157Y-81269699D01*
X125802924Y-81057151D01*
X125675983Y-80862852D01*
X125675980Y-80862849D01*
X125675979Y-80862847D01*
X125518784Y-80692087D01*
X125518779Y-80692083D01*
X125518777Y-80692081D01*
X125335634Y-80549535D01*
X125335628Y-80549531D01*
X125131504Y-80439064D01*
X125131495Y-80439061D01*
X124911984Y-80363702D01*
X124721450Y-80331908D01*
X124683049Y-80325500D01*
X124450951Y-80325500D01*
X124412550Y-80331908D01*
X124222015Y-80363702D01*
X124002504Y-80439061D01*
X124002495Y-80439064D01*
X123798371Y-80549531D01*
X123798365Y-80549535D01*
X123615222Y-80692081D01*
X123615218Y-80692085D01*
X123606866Y-80701158D01*
X123546979Y-80737148D01*
X123477141Y-80735047D01*
X123419525Y-80695522D01*
X123399455Y-80660507D01*
X123370797Y-80583671D01*
X123370793Y-80583664D01*
X123284547Y-80468455D01*
X123284544Y-80468452D01*
X123169335Y-80382206D01*
X123169328Y-80382202D01*
X123034482Y-80331908D01*
X123034483Y-80331908D01*
X122974883Y-80325501D01*
X122974881Y-80325500D01*
X122974873Y-80325500D01*
X122974864Y-80325500D01*
X121079129Y-80325500D01*
X121079123Y-80325501D01*
X121019516Y-80331908D01*
X120884671Y-80382202D01*
X120884664Y-80382206D01*
X120769455Y-80468452D01*
X120769452Y-80468455D01*
X120683206Y-80583664D01*
X120683202Y-80583671D01*
X120632908Y-80718517D01*
X120626501Y-80778116D01*
X120626500Y-80778135D01*
X120626500Y-82673870D01*
X116795748Y-82673870D01*
X116880568Y-82552734D01*
X116976739Y-82346496D01*
X117035635Y-82126692D01*
X117055468Y-81900000D01*
X117035635Y-81673308D01*
X116976739Y-81453504D01*
X116880568Y-81247266D01*
X116750047Y-81060861D01*
X116750045Y-81060858D01*
X116589141Y-80899954D01*
X116402734Y-80769432D01*
X116402732Y-80769431D01*
X116196497Y-80673261D01*
X116196488Y-80673258D01*
X115976697Y-80614366D01*
X115976693Y-80614365D01*
X115976692Y-80614365D01*
X115976691Y-80614364D01*
X115976686Y-80614364D01*
X115750002Y-80594532D01*
X115749998Y-80594532D01*
X115523313Y-80614364D01*
X115523302Y-80614366D01*
X115303511Y-80673258D01*
X115303502Y-80673261D01*
X115097267Y-80769431D01*
X115097265Y-80769432D01*
X114910858Y-80899954D01*
X114749954Y-81060858D01*
X114619432Y-81247265D01*
X114619431Y-81247267D01*
X114523261Y-81453502D01*
X114523258Y-81453511D01*
X114464366Y-81673302D01*
X114464364Y-81673313D01*
X114444532Y-81899998D01*
X114444532Y-81900001D01*
X110812488Y-81900001D01*
X110812522Y-81899998D01*
X110976692Y-81885635D01*
X111196496Y-81826739D01*
X111402734Y-81730568D01*
X111589139Y-81600047D01*
X111750047Y-81439139D01*
X111880568Y-81252734D01*
X111976739Y-81046496D01*
X112035635Y-80826692D01*
X112055468Y-80600000D01*
X112054820Y-80592598D01*
X112041388Y-80439064D01*
X112035635Y-80373308D01*
X111976739Y-80153504D01*
X111880568Y-79947266D01*
X111750047Y-79760861D01*
X111750045Y-79760858D01*
X111739187Y-79750000D01*
X144236620Y-79750000D01*
X144256091Y-79947699D01*
X144313760Y-80137808D01*
X144407401Y-80312998D01*
X144407405Y-80313005D01*
X144533431Y-80466568D01*
X144686994Y-80592594D01*
X144687001Y-80592598D01*
X144862191Y-80686239D01*
X144862193Y-80686239D01*
X144862196Y-80686241D01*
X145052299Y-80743908D01*
X145052298Y-80743908D01*
X145070024Y-80745653D01*
X145250000Y-80763380D01*
X145447701Y-80743908D01*
X145637804Y-80686241D01*
X145813004Y-80592595D01*
X145966568Y-80466568D01*
X146092595Y-80313004D01*
X146155386Y-80195529D01*
X146186239Y-80137808D01*
X146186239Y-80137807D01*
X146186241Y-80137804D01*
X146243908Y-79947701D01*
X146263380Y-79750000D01*
X146243908Y-79552299D01*
X146186241Y-79362196D01*
X146186239Y-79362193D01*
X146186239Y-79362191D01*
X146092598Y-79187001D01*
X146092594Y-79186994D01*
X145966568Y-79033431D01*
X145813005Y-78907405D01*
X145812998Y-78907401D01*
X145637808Y-78813760D01*
X145542752Y-78784925D01*
X145447701Y-78756092D01*
X145447699Y-78756091D01*
X145447701Y-78756091D01*
X145250000Y-78736620D01*
X145052300Y-78756091D01*
X144862191Y-78813760D01*
X144687001Y-78907401D01*
X144686994Y-78907405D01*
X144533431Y-79033431D01*
X144407405Y-79186994D01*
X144407401Y-79187001D01*
X144313760Y-79362191D01*
X144256091Y-79552300D01*
X144236620Y-79750000D01*
X111739187Y-79750000D01*
X111589141Y-79599954D01*
X111402734Y-79469432D01*
X111402732Y-79469431D01*
X111196497Y-79373261D01*
X111196488Y-79373258D01*
X110976697Y-79314366D01*
X110976693Y-79314365D01*
X110976692Y-79314365D01*
X110976691Y-79314364D01*
X110976686Y-79314364D01*
X110750002Y-79294532D01*
X110749998Y-79294532D01*
X110523313Y-79314364D01*
X110523302Y-79314366D01*
X110303511Y-79373258D01*
X110303502Y-79373261D01*
X110097267Y-79469431D01*
X110097265Y-79469432D01*
X109910858Y-79599954D01*
X109749954Y-79760858D01*
X109619432Y-79947265D01*
X109619431Y-79947267D01*
X109523261Y-80153502D01*
X109523258Y-80153511D01*
X109464366Y-80373302D01*
X109464364Y-80373313D01*
X109444532Y-80599998D01*
X109444532Y-80600001D01*
X101000000Y-80600001D01*
X101000000Y-77947870D01*
X177349500Y-77947870D01*
X177349501Y-77947876D01*
X177355908Y-78007483D01*
X177406202Y-78142328D01*
X177406206Y-78142335D01*
X177492452Y-78257544D01*
X177492455Y-78257547D01*
X177607664Y-78343793D01*
X177607671Y-78343797D01*
X177742517Y-78394091D01*
X177742516Y-78394091D01*
X177749444Y-78394835D01*
X177802127Y-78400500D01*
X179697872Y-78400499D01*
X179757483Y-78394091D01*
X179892331Y-78343796D01*
X180007546Y-78257546D01*
X180093796Y-78142331D01*
X180122455Y-78065493D01*
X180164326Y-78009559D01*
X180229790Y-77985141D01*
X180298063Y-77999992D01*
X180329866Y-78024843D01*
X180337302Y-78032920D01*
X180338215Y-78033912D01*
X180338222Y-78033918D01*
X180521365Y-78176464D01*
X180521371Y-78176468D01*
X180521374Y-78176470D01*
X180725497Y-78286936D01*
X180779479Y-78305468D01*
X180945015Y-78362297D01*
X180945017Y-78362297D01*
X180945019Y-78362298D01*
X181173951Y-78400500D01*
X181173952Y-78400500D01*
X181406048Y-78400500D01*
X181406049Y-78400500D01*
X181634981Y-78362298D01*
X181854503Y-78286936D01*
X182058626Y-78176470D01*
X182241784Y-78033913D01*
X182398979Y-77863153D01*
X182525924Y-77668849D01*
X182619157Y-77456300D01*
X182676134Y-77231305D01*
X182676516Y-77226697D01*
X182695300Y-77000006D01*
X182695300Y-77000001D01*
X186844532Y-77000001D01*
X186864364Y-77226686D01*
X186864366Y-77226697D01*
X186923258Y-77446488D01*
X186923261Y-77446497D01*
X187019431Y-77652732D01*
X187019432Y-77652734D01*
X187149954Y-77839141D01*
X187310858Y-78000045D01*
X187310861Y-78000047D01*
X187497266Y-78130568D01*
X187703504Y-78226739D01*
X187703509Y-78226740D01*
X187703511Y-78226741D01*
X187756415Y-78240916D01*
X187923308Y-78285635D01*
X188085230Y-78299801D01*
X188149998Y-78305468D01*
X188150000Y-78305468D01*
X188150002Y-78305468D01*
X188206673Y-78300509D01*
X188376692Y-78285635D01*
X188596496Y-78226739D01*
X188802734Y-78130568D01*
X188989139Y-78000047D01*
X189150047Y-77839139D01*
X189280568Y-77652734D01*
X189376739Y-77446496D01*
X189435635Y-77226692D01*
X189452634Y-77032384D01*
X189455468Y-77000001D01*
X189455468Y-76999998D01*
X189435635Y-76773313D01*
X189435635Y-76773308D01*
X189376739Y-76553504D01*
X189280568Y-76347266D01*
X189150047Y-76160861D01*
X189150045Y-76160858D01*
X188989141Y-75999954D01*
X188802734Y-75869432D01*
X188802732Y-75869431D01*
X188596497Y-75773261D01*
X188596488Y-75773258D01*
X188376697Y-75714366D01*
X188376693Y-75714365D01*
X188376692Y-75714365D01*
X188376691Y-75714364D01*
X188376686Y-75714364D01*
X188150002Y-75694532D01*
X188149998Y-75694532D01*
X187923313Y-75714364D01*
X187923302Y-75714366D01*
X187703511Y-75773258D01*
X187703502Y-75773261D01*
X187497267Y-75869431D01*
X187497265Y-75869432D01*
X187310858Y-75999954D01*
X187149954Y-76160858D01*
X187019432Y-76347265D01*
X187019431Y-76347267D01*
X186923261Y-76553502D01*
X186923258Y-76553511D01*
X186864366Y-76773302D01*
X186864364Y-76773313D01*
X186844532Y-76999998D01*
X186844532Y-77000001D01*
X182695300Y-77000001D01*
X182695300Y-76999993D01*
X182676135Y-76768702D01*
X182676133Y-76768691D01*
X182619157Y-76543699D01*
X182525924Y-76331151D01*
X182398983Y-76136852D01*
X182398980Y-76136849D01*
X182398979Y-76136847D01*
X182241784Y-75966087D01*
X182241779Y-75966083D01*
X182241777Y-75966081D01*
X182058634Y-75823535D01*
X182058628Y-75823531D01*
X181854504Y-75713064D01*
X181854495Y-75713061D01*
X181634984Y-75637702D01*
X181444450Y-75605908D01*
X181406049Y-75599500D01*
X181173951Y-75599500D01*
X181135550Y-75605908D01*
X180945015Y-75637702D01*
X180725504Y-75713061D01*
X180725495Y-75713064D01*
X180521371Y-75823531D01*
X180521365Y-75823535D01*
X180338222Y-75966081D01*
X180338218Y-75966085D01*
X180329866Y-75975158D01*
X180269979Y-76011148D01*
X180200141Y-76009047D01*
X180142525Y-75969522D01*
X180122455Y-75934507D01*
X180093797Y-75857671D01*
X180093793Y-75857664D01*
X180007547Y-75742455D01*
X180007544Y-75742452D01*
X179892335Y-75656206D01*
X179892328Y-75656202D01*
X179757482Y-75605908D01*
X179757483Y-75605908D01*
X179697883Y-75599501D01*
X179697881Y-75599500D01*
X179697873Y-75599500D01*
X179697864Y-75599500D01*
X177802129Y-75599500D01*
X177802123Y-75599501D01*
X177742516Y-75605908D01*
X177607671Y-75656202D01*
X177607664Y-75656206D01*
X177492455Y-75742452D01*
X177492452Y-75742455D01*
X177406206Y-75857664D01*
X177406202Y-75857671D01*
X177355908Y-75992517D01*
X177349501Y-76052116D01*
X177349500Y-76052135D01*
X177349500Y-77947870D01*
X101000000Y-77947870D01*
X101000000Y-76138000D01*
X124828620Y-76138000D01*
X124848091Y-76335699D01*
X124905760Y-76525808D01*
X124999401Y-76700998D01*
X124999405Y-76701005D01*
X125125431Y-76854568D01*
X125278994Y-76980594D01*
X125279001Y-76980598D01*
X125454191Y-77074239D01*
X125454193Y-77074239D01*
X125454196Y-77074241D01*
X125644299Y-77131908D01*
X125644298Y-77131908D01*
X125662024Y-77133653D01*
X125842000Y-77151380D01*
X126039701Y-77131908D01*
X126229804Y-77074241D01*
X126405004Y-76980595D01*
X126558568Y-76854568D01*
X126684595Y-76701004D01*
X126763436Y-76553502D01*
X126778239Y-76525808D01*
X126778239Y-76525807D01*
X126778241Y-76525804D01*
X126835908Y-76335701D01*
X126855380Y-76138000D01*
X126835908Y-75940299D01*
X126778241Y-75750196D01*
X126778239Y-75750193D01*
X126778239Y-75750191D01*
X126684598Y-75575001D01*
X126684594Y-75574994D01*
X126558568Y-75421431D01*
X126405005Y-75295405D01*
X126404998Y-75295401D01*
X126229808Y-75201760D01*
X126134752Y-75172925D01*
X126039701Y-75144092D01*
X126039699Y-75144091D01*
X126039701Y-75144091D01*
X125842000Y-75124620D01*
X125644300Y-75144091D01*
X125454191Y-75201760D01*
X125279001Y-75295401D01*
X125278994Y-75295405D01*
X125125431Y-75421431D01*
X124999405Y-75574994D01*
X124999401Y-75575001D01*
X124905760Y-75750191D01*
X124848091Y-75940300D01*
X124828620Y-76138000D01*
X101000000Y-76138000D01*
X101000000Y-74681620D01*
X136915750Y-74681620D01*
X136915751Y-74681626D01*
X136922158Y-74741233D01*
X136972452Y-74876078D01*
X136972456Y-74876085D01*
X137058702Y-74991294D01*
X137058705Y-74991297D01*
X137173914Y-75077543D01*
X137173921Y-75077547D01*
X137308767Y-75127841D01*
X137308766Y-75127841D01*
X137315694Y-75128585D01*
X137368377Y-75134250D01*
X138964122Y-75134249D01*
X139023733Y-75127841D01*
X139158581Y-75077546D01*
X139273796Y-74991296D01*
X139360046Y-74876081D01*
X139410341Y-74741233D01*
X139416750Y-74681623D01*
X139416749Y-74618013D01*
X139436433Y-74550977D01*
X139489236Y-74505221D01*
X139558394Y-74495277D01*
X139621950Y-74524301D01*
X139641067Y-74545130D01*
X139760722Y-74709822D01*
X139760724Y-74709824D01*
X139923426Y-74865383D01*
X140111283Y-74989386D01*
X140318254Y-75077850D01*
X140318257Y-75077851D01*
X140318262Y-75077853D01*
X140537713Y-75127941D01*
X140762580Y-75138040D01*
X140985637Y-75107825D01*
X141199714Y-75038267D01*
X141397931Y-74931602D01*
X141573916Y-74791258D01*
X141722015Y-74621746D01*
X141837465Y-74428514D01*
X141859557Y-74369647D01*
X141901542Y-74313801D01*
X141967056Y-74289517D01*
X142035298Y-74304508D01*
X142084603Y-74354014D01*
X142087370Y-74359418D01*
X142168417Y-74527716D01*
X142168421Y-74527724D01*
X142300723Y-74709822D01*
X142300724Y-74709824D01*
X142463426Y-74865383D01*
X142651283Y-74989386D01*
X142858254Y-75077850D01*
X142858257Y-75077851D01*
X142858262Y-75077853D01*
X143077713Y-75127941D01*
X143302580Y-75138040D01*
X143525637Y-75107825D01*
X143739714Y-75038267D01*
X143937931Y-74931602D01*
X144113916Y-74791258D01*
X144262015Y-74621746D01*
X144377465Y-74428514D01*
X144456557Y-74217774D01*
X144484996Y-74061068D01*
X144496750Y-73996299D01*
X144496750Y-72827602D01*
X144496750Y-72827595D01*
X144489766Y-72750000D01*
X154486620Y-72750000D01*
X154506091Y-72947699D01*
X154563760Y-73137808D01*
X154657401Y-73312998D01*
X154657405Y-73313005D01*
X154783431Y-73466568D01*
X154936994Y-73592594D01*
X154937001Y-73592598D01*
X155112191Y-73686239D01*
X155112193Y-73686239D01*
X155112196Y-73686241D01*
X155302299Y-73743908D01*
X155302298Y-73743908D01*
X155320024Y-73745653D01*
X155500000Y-73763380D01*
X155697701Y-73743908D01*
X155887804Y-73686241D01*
X156063004Y-73592595D01*
X156216568Y-73466568D01*
X156342595Y-73313004D01*
X156436241Y-73137804D01*
X156493908Y-72947701D01*
X156513380Y-72750000D01*
X156493908Y-72552299D01*
X156436241Y-72362196D01*
X156436239Y-72362193D01*
X156436239Y-72362191D01*
X156342598Y-72187001D01*
X156342594Y-72186994D01*
X156216568Y-72033431D01*
X156063005Y-71907405D01*
X156062998Y-71907401D01*
X155887808Y-71813760D01*
X155770301Y-71778115D01*
X155697701Y-71756092D01*
X155697699Y-71756091D01*
X155697701Y-71756091D01*
X155500000Y-71736620D01*
X155302300Y-71756091D01*
X155112191Y-71813760D01*
X154937001Y-71907401D01*
X154936994Y-71907405D01*
X154783431Y-72033431D01*
X154657405Y-72186994D01*
X154657401Y-72187001D01*
X154563760Y-72362191D01*
X154506091Y-72552300D01*
X154486620Y-72750000D01*
X144489766Y-72750000D01*
X144481627Y-72659562D01*
X144473625Y-72630567D01*
X144421746Y-72442589D01*
X144421741Y-72442576D01*
X144324082Y-72239783D01*
X144324078Y-72239775D01*
X144191776Y-72057677D01*
X144191775Y-72057675D01*
X144029073Y-71902116D01*
X143841216Y-71778113D01*
X143634245Y-71689649D01*
X143634232Y-71689645D01*
X143414792Y-71639560D01*
X143414788Y-71639559D01*
X143414787Y-71639559D01*
X143414786Y-71639558D01*
X143414781Y-71639558D01*
X143189924Y-71629460D01*
X143189923Y-71629460D01*
X143189920Y-71629460D01*
X142966863Y-71659675D01*
X142966860Y-71659675D01*
X142966859Y-71659676D01*
X142752784Y-71729233D01*
X142554571Y-71835896D01*
X142554568Y-71835898D01*
X142378586Y-71976239D01*
X142282791Y-72085885D01*
X142230485Y-72145754D01*
X142205844Y-72186996D01*
X142115037Y-72338982D01*
X142115032Y-72338991D01*
X142092941Y-72397852D01*
X142050955Y-72453700D01*
X141985441Y-72477982D01*
X141917199Y-72462990D01*
X141867895Y-72413483D01*
X141865149Y-72408123D01*
X141784079Y-72239777D01*
X141651776Y-72057677D01*
X141651775Y-72057675D01*
X141489073Y-71902116D01*
X141301216Y-71778113D01*
X141094245Y-71689649D01*
X141094232Y-71689645D01*
X140874792Y-71639560D01*
X140874788Y-71639559D01*
X140874787Y-71639559D01*
X140874786Y-71639558D01*
X140874781Y-71639558D01*
X140649924Y-71629460D01*
X140649923Y-71629460D01*
X140649920Y-71629460D01*
X140426863Y-71659675D01*
X140426860Y-71659675D01*
X140426859Y-71659676D01*
X140212784Y-71729233D01*
X140014571Y-71835896D01*
X140014568Y-71835898D01*
X139838586Y-71976239D01*
X139690485Y-72145753D01*
X139690484Y-72145755D01*
X139647196Y-72218207D01*
X139595914Y-72265660D01*
X139527116Y-72277855D01*
X139462647Y-72250920D01*
X139422975Y-72193405D01*
X139416749Y-72154607D01*
X139416749Y-72085879D01*
X139416748Y-72085873D01*
X139416747Y-72085866D01*
X139410341Y-72026267D01*
X139380588Y-71946496D01*
X139360047Y-71891421D01*
X139360043Y-71891414D01*
X139273797Y-71776205D01*
X139273794Y-71776202D01*
X139158585Y-71689956D01*
X139158578Y-71689952D01*
X139023732Y-71639658D01*
X139023733Y-71639658D01*
X138964133Y-71633251D01*
X138964131Y-71633250D01*
X138964123Y-71633250D01*
X138964114Y-71633250D01*
X137368379Y-71633250D01*
X137368373Y-71633251D01*
X137308766Y-71639658D01*
X137173921Y-71689952D01*
X137173914Y-71689956D01*
X137058705Y-71776202D01*
X137058702Y-71776205D01*
X136972456Y-71891414D01*
X136972452Y-71891421D01*
X136922158Y-72026267D01*
X136915751Y-72085866D01*
X136915751Y-72085873D01*
X136915750Y-72085885D01*
X136915750Y-74681620D01*
X101000000Y-74681620D01*
X101000000Y-73234281D01*
X102524500Y-73234281D01*
X102530717Y-73323862D01*
X102530718Y-73323871D01*
X102580062Y-73533666D01*
X102580067Y-73533681D01*
X102667120Y-73730836D01*
X102667124Y-73730844D01*
X102667125Y-73730845D01*
X102788932Y-73908662D01*
X102941338Y-74061068D01*
X103119155Y-74182875D01*
X103119163Y-74182879D01*
X103316318Y-74269932D01*
X103316325Y-74269935D01*
X103316331Y-74269936D01*
X103316333Y-74269937D01*
X103526128Y-74319281D01*
X103526135Y-74319281D01*
X103526136Y-74319282D01*
X103544053Y-74320525D01*
X103615718Y-74325500D01*
X103615722Y-74325500D01*
X105084282Y-74325500D01*
X105144002Y-74321354D01*
X105173864Y-74319282D01*
X105173865Y-74319281D01*
X105173871Y-74319281D01*
X105383666Y-74269937D01*
X105383664Y-74269937D01*
X105383675Y-74269935D01*
X105580845Y-74182875D01*
X105758662Y-74061068D01*
X105911068Y-73908662D01*
X106032875Y-73730845D01*
X106119935Y-73533675D01*
X106127487Y-73501563D01*
X106169281Y-73323871D01*
X106169282Y-73323862D01*
X106175500Y-73234281D01*
X106175500Y-71765718D01*
X106169282Y-71676137D01*
X106169281Y-71676128D01*
X106127856Y-71500001D01*
X185544532Y-71500001D01*
X185564364Y-71726686D01*
X185564366Y-71726697D01*
X185623258Y-71946488D01*
X185623261Y-71946497D01*
X185719431Y-72152732D01*
X185719432Y-72152734D01*
X185849954Y-72339141D01*
X186010858Y-72500045D01*
X186010861Y-72500047D01*
X186197266Y-72630568D01*
X186403504Y-72726739D01*
X186623308Y-72785635D01*
X186785230Y-72799801D01*
X186849998Y-72805468D01*
X186850000Y-72805468D01*
X186850002Y-72805468D01*
X186906673Y-72800509D01*
X187076692Y-72785635D01*
X187296496Y-72726739D01*
X187502734Y-72630568D01*
X187689139Y-72500047D01*
X187850047Y-72339139D01*
X187980568Y-72152734D01*
X188076739Y-71946496D01*
X188135635Y-71726692D01*
X188155468Y-71500000D01*
X188135635Y-71273308D01*
X188076739Y-71053504D01*
X187980568Y-70847266D01*
X187850047Y-70660861D01*
X187850045Y-70660858D01*
X187689141Y-70499954D01*
X187502734Y-70369432D01*
X187502732Y-70369431D01*
X187296497Y-70273261D01*
X187296488Y-70273258D01*
X187076697Y-70214366D01*
X187076693Y-70214365D01*
X187076692Y-70214365D01*
X187076691Y-70214364D01*
X187076686Y-70214364D01*
X186850002Y-70194532D01*
X186849998Y-70194532D01*
X186623313Y-70214364D01*
X186623302Y-70214366D01*
X186403511Y-70273258D01*
X186403502Y-70273261D01*
X186197267Y-70369431D01*
X186197265Y-70369432D01*
X186010858Y-70499954D01*
X185849954Y-70660858D01*
X185719432Y-70847265D01*
X185719431Y-70847267D01*
X185623261Y-71053502D01*
X185623258Y-71053511D01*
X185564366Y-71273302D01*
X185564364Y-71273313D01*
X185544532Y-71499998D01*
X185544532Y-71500001D01*
X106127856Y-71500001D01*
X106119937Y-71466333D01*
X106119936Y-71466331D01*
X106119935Y-71466325D01*
X106034709Y-71273308D01*
X106032879Y-71269163D01*
X106032875Y-71269155D01*
X105987663Y-71203154D01*
X105911068Y-71091338D01*
X105758662Y-70938932D01*
X105580845Y-70817125D01*
X105580846Y-70817125D01*
X105580844Y-70817124D01*
X105580836Y-70817120D01*
X105383681Y-70730067D01*
X105383666Y-70730062D01*
X105173871Y-70680718D01*
X105173862Y-70680717D01*
X105084282Y-70674500D01*
X105084278Y-70674500D01*
X103615722Y-70674500D01*
X103615718Y-70674500D01*
X103526137Y-70680717D01*
X103526128Y-70680718D01*
X103316333Y-70730062D01*
X103316318Y-70730067D01*
X103119163Y-70817120D01*
X103119155Y-70817124D01*
X102941339Y-70938931D01*
X102941333Y-70938936D01*
X102788936Y-71091333D01*
X102788931Y-71091339D01*
X102667124Y-71269155D01*
X102667120Y-71269163D01*
X102580067Y-71466318D01*
X102580062Y-71466333D01*
X102530718Y-71676128D01*
X102530717Y-71676137D01*
X102524500Y-71765718D01*
X102524500Y-73234281D01*
X101000000Y-73234281D01*
X101000000Y-69500000D01*
X154736620Y-69500000D01*
X154756091Y-69697699D01*
X154813760Y-69887808D01*
X154907401Y-70062998D01*
X154907405Y-70063005D01*
X155033431Y-70216568D01*
X155186994Y-70342594D01*
X155187001Y-70342598D01*
X155362191Y-70436239D01*
X155362193Y-70436239D01*
X155362196Y-70436241D01*
X155552299Y-70493908D01*
X155552298Y-70493908D01*
X155570024Y-70495653D01*
X155750000Y-70513380D01*
X155947701Y-70493908D01*
X156137804Y-70436241D01*
X156313004Y-70342595D01*
X156466568Y-70216568D01*
X156592595Y-70063004D01*
X156686241Y-69887804D01*
X156743908Y-69697701D01*
X156763380Y-69500000D01*
X162986620Y-69500000D01*
X163006091Y-69697699D01*
X163063760Y-69887808D01*
X163157401Y-70062998D01*
X163157405Y-70063005D01*
X163283431Y-70216568D01*
X163436994Y-70342594D01*
X163437001Y-70342598D01*
X163612191Y-70436239D01*
X163612193Y-70436239D01*
X163612196Y-70436241D01*
X163802299Y-70493908D01*
X163802298Y-70493908D01*
X163820024Y-70495653D01*
X164000000Y-70513380D01*
X164197701Y-70493908D01*
X164387804Y-70436241D01*
X164563004Y-70342595D01*
X164716568Y-70216568D01*
X164842595Y-70063004D01*
X164890642Y-69973113D01*
X164939604Y-69923271D01*
X165007741Y-69907810D01*
X165073421Y-69931641D01*
X165109357Y-69973113D01*
X165123729Y-70000000D01*
X165157406Y-70063005D01*
X165283431Y-70216568D01*
X165436994Y-70342594D01*
X165437001Y-70342598D01*
X165612191Y-70436239D01*
X165612193Y-70436239D01*
X165612196Y-70436241D01*
X165802299Y-70493908D01*
X165802298Y-70493908D01*
X165820024Y-70495653D01*
X166000000Y-70513380D01*
X166197701Y-70493908D01*
X166387804Y-70436241D01*
X166563004Y-70342595D01*
X166716568Y-70216568D01*
X166842595Y-70063004D01*
X166876271Y-70000000D01*
X192069628Y-70000000D01*
X192089079Y-70222329D01*
X192089081Y-70222339D01*
X192146841Y-70437905D01*
X192146843Y-70437909D01*
X192146844Y-70437913D01*
X192241165Y-70640186D01*
X192369178Y-70823007D01*
X192526993Y-70980822D01*
X192709814Y-71108835D01*
X192912087Y-71203156D01*
X193127666Y-71260920D01*
X193305533Y-71276481D01*
X193349999Y-71280372D01*
X193350000Y-71280372D01*
X193350001Y-71280372D01*
X193387055Y-71277130D01*
X193572334Y-71260920D01*
X193787913Y-71203156D01*
X193990186Y-71108835D01*
X194173007Y-70980822D01*
X194330822Y-70823007D01*
X194458835Y-70640186D01*
X194553156Y-70437913D01*
X194610920Y-70222334D01*
X194630372Y-70000000D01*
X194610920Y-69777666D01*
X194553156Y-69562087D01*
X194458835Y-69359814D01*
X194330822Y-69176993D01*
X194173007Y-69019178D01*
X194046145Y-68930348D01*
X194002522Y-68875772D01*
X193995330Y-68806274D01*
X194026852Y-68743919D01*
X194062171Y-68717690D01*
X194218568Y-68640125D01*
X194369113Y-68519113D01*
X194490125Y-68368568D01*
X194575944Y-68195529D01*
X194622559Y-68008087D01*
X194625500Y-67964716D01*
X194625500Y-67035284D01*
X194622559Y-66991913D01*
X194575944Y-66804471D01*
X194518063Y-66687764D01*
X194490127Y-66631435D01*
X194490125Y-66631433D01*
X194490125Y-66631432D01*
X194369113Y-66480887D01*
X194218568Y-66359875D01*
X194218566Y-66359874D01*
X194218564Y-66359872D01*
X194045531Y-66274057D01*
X194045529Y-66274056D01*
X193858091Y-66227441D01*
X193829173Y-66225480D01*
X193814716Y-66224500D01*
X192885284Y-66224500D01*
X192872892Y-66225340D01*
X192841908Y-66227441D01*
X192654470Y-66274056D01*
X192654468Y-66274057D01*
X192481435Y-66359872D01*
X192481433Y-66359874D01*
X192330887Y-66480886D01*
X192330886Y-66480887D01*
X192209874Y-66631433D01*
X192209872Y-66631435D01*
X192124057Y-66804468D01*
X192124056Y-66804470D01*
X192077441Y-66991908D01*
X192074500Y-67035286D01*
X192074500Y-67964713D01*
X192077441Y-68008091D01*
X192124056Y-68195529D01*
X192124057Y-68195531D01*
X192209872Y-68368564D01*
X192209874Y-68368566D01*
X192209875Y-68368568D01*
X192285077Y-68462123D01*
X192320419Y-68506091D01*
X192330887Y-68519113D01*
X192481432Y-68640125D01*
X192481433Y-68640125D01*
X192481435Y-68640127D01*
X192637822Y-68717687D01*
X192689135Y-68765108D01*
X192706665Y-68832743D01*
X192684845Y-68899118D01*
X192653852Y-68930349D01*
X192526992Y-69019178D01*
X192369182Y-69176988D01*
X192369179Y-69176991D01*
X192369178Y-69176993D01*
X192281438Y-69302299D01*
X192241165Y-69359814D01*
X192146845Y-69562085D01*
X192146841Y-69562094D01*
X192089081Y-69777660D01*
X192089079Y-69777670D01*
X192069628Y-69999999D01*
X192069628Y-70000000D01*
X166876271Y-70000000D01*
X166936241Y-69887804D01*
X166993908Y-69697701D01*
X167013380Y-69500000D01*
X166993908Y-69302299D01*
X166936241Y-69112196D01*
X166936239Y-69112193D01*
X166936239Y-69112191D01*
X166842598Y-68937001D01*
X166842594Y-68936994D01*
X166716568Y-68783431D01*
X166563005Y-68657405D01*
X166562998Y-68657401D01*
X166387808Y-68563760D01*
X166280547Y-68531223D01*
X166197701Y-68506092D01*
X166197699Y-68506091D01*
X166197701Y-68506091D01*
X166000000Y-68486620D01*
X165802300Y-68506091D01*
X165612191Y-68563760D01*
X165437001Y-68657401D01*
X165436994Y-68657405D01*
X165283431Y-68783431D01*
X165157405Y-68936994D01*
X165157401Y-68937001D01*
X165109358Y-69026884D01*
X165060396Y-69076728D01*
X164992258Y-69092189D01*
X164926579Y-69068357D01*
X164890642Y-69026884D01*
X164842598Y-68937001D01*
X164842594Y-68936994D01*
X164716568Y-68783431D01*
X164563005Y-68657405D01*
X164562998Y-68657401D01*
X164387808Y-68563760D01*
X164280547Y-68531223D01*
X164197701Y-68506092D01*
X164197699Y-68506091D01*
X164197701Y-68506091D01*
X164000000Y-68486620D01*
X163802300Y-68506091D01*
X163612191Y-68563760D01*
X163437001Y-68657401D01*
X163436994Y-68657405D01*
X163283431Y-68783431D01*
X163157405Y-68936994D01*
X163157401Y-68937001D01*
X163063760Y-69112191D01*
X163006091Y-69302300D01*
X162986620Y-69500000D01*
X156763380Y-69500000D01*
X156743908Y-69302299D01*
X156686241Y-69112196D01*
X156686239Y-69112193D01*
X156686239Y-69112191D01*
X156592598Y-68937001D01*
X156592594Y-68936994D01*
X156466568Y-68783431D01*
X156313005Y-68657405D01*
X156312998Y-68657401D01*
X156137808Y-68563760D01*
X156030547Y-68531223D01*
X155947701Y-68506092D01*
X155947699Y-68506091D01*
X155947701Y-68506091D01*
X155869634Y-68498403D01*
X155804847Y-68472242D01*
X155764488Y-68415208D01*
X155761371Y-68345408D01*
X155796485Y-68285003D01*
X155858683Y-68253172D01*
X155869634Y-68251597D01*
X155874103Y-68251156D01*
X155947701Y-68243908D01*
X156137804Y-68186241D01*
X156313004Y-68092595D01*
X156421335Y-68003690D01*
X156485645Y-67976377D01*
X156554512Y-67988168D01*
X156578665Y-68003690D01*
X156686994Y-68092594D01*
X156687001Y-68092598D01*
X156862191Y-68186239D01*
X156862193Y-68186239D01*
X156862196Y-68186241D01*
X157052299Y-68243908D01*
X157052298Y-68243908D01*
X157070024Y-68245653D01*
X157250000Y-68263380D01*
X157447701Y-68243908D01*
X157637804Y-68186241D01*
X157813004Y-68092595D01*
X157966568Y-67966568D01*
X158092595Y-67813004D01*
X158186241Y-67637804D01*
X158243908Y-67447701D01*
X158263380Y-67250000D01*
X158243908Y-67052299D01*
X158228043Y-67000000D01*
X162736620Y-67000000D01*
X162756091Y-67197699D01*
X162813760Y-67387808D01*
X162907401Y-67562998D01*
X162907405Y-67563005D01*
X163033431Y-67716568D01*
X163186994Y-67842594D01*
X163187001Y-67842598D01*
X163362191Y-67936239D01*
X163362193Y-67936239D01*
X163362196Y-67936241D01*
X163552299Y-67993908D01*
X163552298Y-67993908D01*
X163570024Y-67995653D01*
X163750000Y-68013380D01*
X163947701Y-67993908D01*
X164137804Y-67936241D01*
X164139148Y-67935523D01*
X164312998Y-67842598D01*
X164313004Y-67842595D01*
X164466568Y-67716568D01*
X164592595Y-67563004D01*
X164640642Y-67473113D01*
X164689604Y-67423271D01*
X164757741Y-67407810D01*
X164823421Y-67431641D01*
X164859357Y-67473113D01*
X164873753Y-67500045D01*
X164907406Y-67563005D01*
X165033431Y-67716568D01*
X165186994Y-67842594D01*
X165187001Y-67842598D01*
X165362191Y-67936239D01*
X165362193Y-67936239D01*
X165362196Y-67936241D01*
X165552299Y-67993908D01*
X165552298Y-67993908D01*
X165570024Y-67995653D01*
X165750000Y-68013380D01*
X165947701Y-67993908D01*
X166137804Y-67936241D01*
X166139148Y-67935523D01*
X166312998Y-67842598D01*
X166313004Y-67842595D01*
X166466568Y-67716568D01*
X166592595Y-67563004D01*
X166686241Y-67387804D01*
X166743908Y-67197701D01*
X166763380Y-67000000D01*
X166743908Y-66802299D01*
X166686241Y-66612196D01*
X166686239Y-66612193D01*
X166686239Y-66612191D01*
X166626272Y-66500001D01*
X186844532Y-66500001D01*
X186864364Y-66726686D01*
X186864366Y-66726697D01*
X186923258Y-66946488D01*
X186923261Y-66946497D01*
X187019431Y-67152732D01*
X187019432Y-67152734D01*
X187149954Y-67339141D01*
X187310858Y-67500045D01*
X187310861Y-67500047D01*
X187497266Y-67630568D01*
X187703504Y-67726739D01*
X187923308Y-67785635D01*
X188085230Y-67799801D01*
X188149998Y-67805468D01*
X188150000Y-67805468D01*
X188150002Y-67805468D01*
X188206673Y-67800509D01*
X188376692Y-67785635D01*
X188596496Y-67726739D01*
X188802734Y-67630568D01*
X188989139Y-67500047D01*
X189150047Y-67339139D01*
X189280568Y-67152734D01*
X189376739Y-66946496D01*
X189435635Y-66726692D01*
X189455468Y-66500000D01*
X189435635Y-66273308D01*
X189376739Y-66053504D01*
X189280568Y-65847266D01*
X189150047Y-65660861D01*
X189150045Y-65660858D01*
X188989141Y-65499954D01*
X188802734Y-65369432D01*
X188802732Y-65369431D01*
X188596497Y-65273261D01*
X188596488Y-65273258D01*
X188376697Y-65214366D01*
X188376693Y-65214365D01*
X188376692Y-65214365D01*
X188376691Y-65214364D01*
X188376686Y-65214364D01*
X188150002Y-65194532D01*
X188149998Y-65194532D01*
X187923313Y-65214364D01*
X187923302Y-65214366D01*
X187703511Y-65273258D01*
X187703502Y-65273261D01*
X187497267Y-65369431D01*
X187497265Y-65369432D01*
X187310858Y-65499954D01*
X187149954Y-65660858D01*
X187019432Y-65847265D01*
X187019431Y-65847267D01*
X186923261Y-66053502D01*
X186923258Y-66053511D01*
X186864366Y-66273302D01*
X186864364Y-66273313D01*
X186844532Y-66499998D01*
X186844532Y-66500001D01*
X166626272Y-66500001D01*
X166592598Y-66437001D01*
X166592594Y-66436994D01*
X166466568Y-66283431D01*
X166313005Y-66157405D01*
X166312998Y-66157401D01*
X166137808Y-66063760D01*
X166042752Y-66034925D01*
X165947701Y-66006092D01*
X165947699Y-66006091D01*
X165947701Y-66006091D01*
X165750000Y-65986620D01*
X165552300Y-66006091D01*
X165362191Y-66063760D01*
X165187001Y-66157401D01*
X165186994Y-66157405D01*
X165033431Y-66283431D01*
X164907405Y-66436994D01*
X164907401Y-66437001D01*
X164859358Y-66526884D01*
X164810396Y-66576728D01*
X164742258Y-66592189D01*
X164676579Y-66568357D01*
X164640642Y-66526884D01*
X164592598Y-66437001D01*
X164592594Y-66436994D01*
X164466568Y-66283431D01*
X164313005Y-66157405D01*
X164312998Y-66157401D01*
X164137808Y-66063760D01*
X164042752Y-66034925D01*
X163947701Y-66006092D01*
X163947699Y-66006091D01*
X163947701Y-66006091D01*
X163750000Y-65986620D01*
X163552300Y-66006091D01*
X163362191Y-66063760D01*
X163187001Y-66157401D01*
X163186994Y-66157405D01*
X163033431Y-66283431D01*
X162907405Y-66436994D01*
X162907401Y-66437001D01*
X162813760Y-66612191D01*
X162756091Y-66802300D01*
X162736620Y-67000000D01*
X158228043Y-67000000D01*
X158186241Y-66862196D01*
X158186239Y-66862193D01*
X158186239Y-66862191D01*
X158092598Y-66687001D01*
X158092594Y-66686994D01*
X157966568Y-66533431D01*
X157813005Y-66407405D01*
X157812998Y-66407401D01*
X157637808Y-66313760D01*
X157504471Y-66273313D01*
X157447701Y-66256092D01*
X157447699Y-66256091D01*
X157447701Y-66256091D01*
X157250000Y-66236620D01*
X157052300Y-66256091D01*
X156862191Y-66313760D01*
X156687001Y-66407401D01*
X156686995Y-66407405D01*
X156578664Y-66496310D01*
X156514354Y-66523622D01*
X156445487Y-66511831D01*
X156421336Y-66496310D01*
X156313004Y-66407405D01*
X156312998Y-66407401D01*
X156137808Y-66313760D01*
X156004471Y-66273313D01*
X155947701Y-66256092D01*
X155947699Y-66256091D01*
X155947701Y-66256091D01*
X155750000Y-66236620D01*
X155552300Y-66256091D01*
X155362191Y-66313760D01*
X155187001Y-66407401D01*
X155186994Y-66407405D01*
X155033431Y-66533431D01*
X154907405Y-66686994D01*
X154907401Y-66687001D01*
X154813760Y-66862191D01*
X154756091Y-67052300D01*
X154736620Y-67250000D01*
X154756091Y-67447699D01*
X154813760Y-67637808D01*
X154907401Y-67812998D01*
X154907405Y-67813005D01*
X155033431Y-67966568D01*
X155186994Y-68092594D01*
X155187001Y-68092598D01*
X155362191Y-68186239D01*
X155362193Y-68186239D01*
X155362196Y-68186241D01*
X155552299Y-68243908D01*
X155552298Y-68243908D01*
X155630365Y-68251597D01*
X155695152Y-68277758D01*
X155735511Y-68334792D01*
X155738628Y-68404593D01*
X155703513Y-68464997D01*
X155641316Y-68496828D01*
X155630365Y-68498403D01*
X155552300Y-68506091D01*
X155362191Y-68563760D01*
X155187001Y-68657401D01*
X155186994Y-68657405D01*
X155033431Y-68783431D01*
X154907405Y-68936994D01*
X154907401Y-68937001D01*
X154813760Y-69112191D01*
X154756091Y-69302300D01*
X154736620Y-69500000D01*
X101000000Y-69500000D01*
X101000000Y-67500003D01*
X102519381Y-67500003D01*
X102539827Y-67772839D01*
X102539827Y-67772840D01*
X102600706Y-68039570D01*
X102600708Y-68039579D01*
X102600710Y-68039584D01*
X102700669Y-68294276D01*
X102837472Y-68531224D01*
X102939862Y-68659618D01*
X103008064Y-68745141D01*
X103148852Y-68875772D01*
X103208628Y-68931236D01*
X103434691Y-69085363D01*
X103434696Y-69085365D01*
X103434697Y-69085366D01*
X103434698Y-69085367D01*
X103565618Y-69148414D01*
X103681196Y-69204073D01*
X103681197Y-69204073D01*
X103681200Y-69204075D01*
X103942649Y-69284722D01*
X103942650Y-69284722D01*
X103942653Y-69284723D01*
X104213190Y-69325499D01*
X104213195Y-69325499D01*
X104213198Y-69325500D01*
X104213199Y-69325500D01*
X104486801Y-69325500D01*
X104486802Y-69325500D01*
X104486809Y-69325499D01*
X104757346Y-69284723D01*
X104757347Y-69284722D01*
X104757351Y-69284722D01*
X105018800Y-69204075D01*
X105265310Y-69085363D01*
X105491372Y-68931236D01*
X105650668Y-68783431D01*
X105691935Y-68745141D01*
X105691935Y-68745139D01*
X105691939Y-68745137D01*
X105862528Y-68531224D01*
X105999331Y-68294276D01*
X106099290Y-68039584D01*
X106160172Y-67772840D01*
X106165283Y-67704630D01*
X106180619Y-67500003D01*
X106180619Y-67500000D01*
X114504357Y-67500000D01*
X114524884Y-67721535D01*
X114524885Y-67721537D01*
X114585769Y-67935523D01*
X114585775Y-67935538D01*
X114684938Y-68134683D01*
X114684943Y-68134691D01*
X114819020Y-68312238D01*
X114983437Y-68462123D01*
X114983439Y-68462125D01*
X115172595Y-68579245D01*
X115172596Y-68579245D01*
X115172599Y-68579247D01*
X115380060Y-68659618D01*
X115598757Y-68700500D01*
X115598759Y-68700500D01*
X115821241Y-68700500D01*
X115821243Y-68700500D01*
X116039940Y-68659618D01*
X116247401Y-68579247D01*
X116436562Y-68462124D01*
X116600981Y-68312236D01*
X116735058Y-68134689D01*
X116834229Y-67935528D01*
X116895115Y-67721536D01*
X116915643Y-67500000D01*
X119584357Y-67500000D01*
X119604884Y-67721535D01*
X119604885Y-67721537D01*
X119665769Y-67935523D01*
X119665775Y-67935538D01*
X119764938Y-68134683D01*
X119764943Y-68134691D01*
X119899020Y-68312238D01*
X120063437Y-68462123D01*
X120063439Y-68462125D01*
X120252595Y-68579245D01*
X120252596Y-68579245D01*
X120252599Y-68579247D01*
X120460060Y-68659618D01*
X120678757Y-68700500D01*
X120678759Y-68700500D01*
X120901241Y-68700500D01*
X120901243Y-68700500D01*
X121119940Y-68659618D01*
X121327401Y-68579247D01*
X121516562Y-68462124D01*
X121680981Y-68312236D01*
X121815058Y-68134689D01*
X121914229Y-67935528D01*
X121975115Y-67721536D01*
X121995643Y-67500000D01*
X121987100Y-67407810D01*
X121975115Y-67278464D01*
X121975114Y-67278462D01*
X121960517Y-67227160D01*
X121914229Y-67064472D01*
X121914224Y-67064461D01*
X121815061Y-66865316D01*
X121815056Y-66865308D01*
X121680979Y-66687761D01*
X121516562Y-66537876D01*
X121516560Y-66537874D01*
X121327404Y-66420754D01*
X121327398Y-66420752D01*
X121119940Y-66340382D01*
X120901243Y-66299500D01*
X120678757Y-66299500D01*
X120460060Y-66340382D01*
X120409743Y-66359875D01*
X120252601Y-66420752D01*
X120252595Y-66420754D01*
X120063439Y-66537874D01*
X120063437Y-66537876D01*
X119899020Y-66687761D01*
X119764943Y-66865308D01*
X119764938Y-66865316D01*
X119665775Y-67064461D01*
X119665769Y-67064476D01*
X119604885Y-67278462D01*
X119604884Y-67278464D01*
X119584357Y-67499999D01*
X119584357Y-67500000D01*
X116915643Y-67500000D01*
X116907100Y-67407810D01*
X116895115Y-67278464D01*
X116895114Y-67278462D01*
X116880517Y-67227160D01*
X116834229Y-67064472D01*
X116834224Y-67064461D01*
X116735061Y-66865316D01*
X116735056Y-66865308D01*
X116600979Y-66687761D01*
X116436562Y-66537876D01*
X116436560Y-66537874D01*
X116247404Y-66420754D01*
X116247398Y-66420752D01*
X116039940Y-66340382D01*
X115821243Y-66299500D01*
X115598757Y-66299500D01*
X115380060Y-66340382D01*
X115329743Y-66359875D01*
X115172601Y-66420752D01*
X115172595Y-66420754D01*
X114983439Y-66537874D01*
X114983437Y-66537876D01*
X114819020Y-66687761D01*
X114684943Y-66865308D01*
X114684938Y-66865316D01*
X114585775Y-67064461D01*
X114585769Y-67064476D01*
X114524885Y-67278462D01*
X114524884Y-67278464D01*
X114504357Y-67499999D01*
X114504357Y-67500000D01*
X106180619Y-67500000D01*
X106180619Y-67499996D01*
X106160172Y-67227160D01*
X106160172Y-67227159D01*
X106099293Y-66960429D01*
X106099292Y-66960428D01*
X106099290Y-66960416D01*
X105999331Y-66705724D01*
X105862528Y-66468776D01*
X105691939Y-66254863D01*
X105691938Y-66254862D01*
X105691935Y-66254858D01*
X105491372Y-66068764D01*
X105265310Y-65914637D01*
X105265306Y-65914635D01*
X105265303Y-65914633D01*
X105265302Y-65914632D01*
X105018802Y-65795926D01*
X105018804Y-65795926D01*
X104757352Y-65715278D01*
X104757346Y-65715276D01*
X104486809Y-65674500D01*
X104486802Y-65674500D01*
X104213198Y-65674500D01*
X104213190Y-65674500D01*
X103942653Y-65715276D01*
X103942647Y-65715278D01*
X103681196Y-65795926D01*
X103434698Y-65914632D01*
X103434697Y-65914633D01*
X103208627Y-66068764D01*
X103008064Y-66254858D01*
X102837472Y-66468776D01*
X102700669Y-66705723D01*
X102600712Y-66960410D01*
X102600706Y-66960429D01*
X102539827Y-67227159D01*
X102539827Y-67227160D01*
X102519381Y-67499996D01*
X102519381Y-67500003D01*
X101000000Y-67500003D01*
X101000000Y-62500000D01*
X119736620Y-62500000D01*
X119756091Y-62697699D01*
X119813760Y-62887808D01*
X119907401Y-63062998D01*
X119907405Y-63063005D01*
X120033431Y-63216568D01*
X120186994Y-63342594D01*
X120187001Y-63342598D01*
X120362191Y-63436239D01*
X120362193Y-63436239D01*
X120362196Y-63436241D01*
X120552299Y-63493908D01*
X120552298Y-63493908D01*
X120570024Y-63495653D01*
X120750000Y-63513380D01*
X120947701Y-63493908D01*
X121137804Y-63436241D01*
X121313004Y-63342595D01*
X121466568Y-63216568D01*
X121592595Y-63063004D01*
X121686241Y-62887804D01*
X121743908Y-62697701D01*
X121763380Y-62500000D01*
X121743908Y-62302299D01*
X121686241Y-62112196D01*
X121686239Y-62112193D01*
X121686239Y-62112191D01*
X121592598Y-61937001D01*
X121592594Y-61936994D01*
X121466568Y-61783431D01*
X121313005Y-61657405D01*
X121312998Y-61657401D01*
X121137808Y-61563760D01*
X121042752Y-61534925D01*
X120947701Y-61506092D01*
X120947699Y-61506091D01*
X120947701Y-61506091D01*
X120750000Y-61486620D01*
X120552300Y-61506091D01*
X120362191Y-61563760D01*
X120187001Y-61657401D01*
X120186994Y-61657405D01*
X120033431Y-61783431D01*
X119907405Y-61936994D01*
X119907401Y-61937001D01*
X119813760Y-62112191D01*
X119756091Y-62302300D01*
X119736620Y-62500000D01*
X101000000Y-62500000D01*
X101000000Y-60947870D01*
X127409500Y-60947870D01*
X127409501Y-60947876D01*
X127415908Y-61007483D01*
X127466202Y-61142328D01*
X127466206Y-61142335D01*
X127552452Y-61257544D01*
X127552455Y-61257547D01*
X127667664Y-61343793D01*
X127667671Y-61343797D01*
X127802517Y-61394091D01*
X127802516Y-61394091D01*
X127809444Y-61394835D01*
X127862127Y-61400500D01*
X129757872Y-61400499D01*
X129817483Y-61394091D01*
X129952331Y-61343796D01*
X130067546Y-61257546D01*
X130153796Y-61142331D01*
X130204091Y-61007483D01*
X130210500Y-60947873D01*
X130210499Y-60837305D01*
X130230183Y-60770269D01*
X130246818Y-60749627D01*
X130905550Y-60090896D01*
X130906327Y-60101265D01*
X130955887Y-60227541D01*
X131040465Y-60333599D01*
X131152547Y-60410016D01*
X131260299Y-60443253D01*
X130551199Y-61152351D01*
X130581650Y-61176050D01*
X130785697Y-61286476D01*
X130785706Y-61286479D01*
X131005139Y-61361811D01*
X131233993Y-61400000D01*
X131466007Y-61400000D01*
X131694860Y-61361811D01*
X131914293Y-61286479D01*
X131914302Y-61286476D01*
X132118350Y-61176050D01*
X132148798Y-61152351D01*
X131944317Y-60947870D01*
X142349500Y-60947870D01*
X142349501Y-60947876D01*
X142355908Y-61007483D01*
X142406202Y-61142328D01*
X142406206Y-61142335D01*
X142492452Y-61257544D01*
X142492455Y-61257547D01*
X142607664Y-61343793D01*
X142607671Y-61343797D01*
X142742517Y-61394091D01*
X142742516Y-61394091D01*
X142749444Y-61394835D01*
X142802127Y-61400500D01*
X144697872Y-61400499D01*
X144757483Y-61394091D01*
X144892331Y-61343796D01*
X145007546Y-61257546D01*
X145093796Y-61142331D01*
X145122455Y-61065493D01*
X145164326Y-61009559D01*
X145229790Y-60985141D01*
X145298063Y-60999992D01*
X145329866Y-61024843D01*
X145337302Y-61032920D01*
X145338215Y-61033912D01*
X145338222Y-61033918D01*
X145521365Y-61176464D01*
X145521371Y-61176468D01*
X145521374Y-61176470D01*
X145671185Y-61257544D01*
X145724652Y-61286479D01*
X145725497Y-61286936D01*
X145839487Y-61326068D01*
X145945015Y-61362297D01*
X145945017Y-61362297D01*
X145945019Y-61362298D01*
X146173951Y-61400500D01*
X146173952Y-61400500D01*
X146406048Y-61400500D01*
X146406049Y-61400500D01*
X146634981Y-61362298D01*
X146854503Y-61286936D01*
X147058626Y-61176470D01*
X147241784Y-61033913D01*
X147398979Y-60863153D01*
X147525924Y-60668849D01*
X147619157Y-60456300D01*
X147676134Y-60231305D01*
X147676135Y-60231297D01*
X147695300Y-60000006D01*
X147695300Y-59999993D01*
X147676135Y-59768702D01*
X147676133Y-59768691D01*
X147619157Y-59543699D01*
X147525924Y-59331151D01*
X147398983Y-59136852D01*
X147398980Y-59136849D01*
X147398979Y-59136847D01*
X147241784Y-58966087D01*
X147241779Y-58966083D01*
X147241777Y-58966081D01*
X147058634Y-58823535D01*
X147058628Y-58823531D01*
X146854504Y-58713064D01*
X146854495Y-58713061D01*
X146634984Y-58637702D01*
X146444450Y-58605908D01*
X146406049Y-58599500D01*
X146173951Y-58599500D01*
X146135550Y-58605908D01*
X145945015Y-58637702D01*
X145725504Y-58713061D01*
X145725495Y-58713064D01*
X145521371Y-58823531D01*
X145521365Y-58823535D01*
X145338222Y-58966081D01*
X145338218Y-58966085D01*
X145329866Y-58975158D01*
X145269979Y-59011148D01*
X145200141Y-59009047D01*
X145142525Y-58969522D01*
X145122455Y-58934507D01*
X145093797Y-58857671D01*
X145093793Y-58857664D01*
X145007547Y-58742455D01*
X145007544Y-58742452D01*
X144892335Y-58656206D01*
X144892328Y-58656202D01*
X144757482Y-58605908D01*
X144757483Y-58605908D01*
X144697883Y-58599501D01*
X144697881Y-58599500D01*
X144697873Y-58599500D01*
X144697864Y-58599500D01*
X142802129Y-58599500D01*
X142802123Y-58599501D01*
X142742516Y-58605908D01*
X142607671Y-58656202D01*
X142607664Y-58656206D01*
X142492455Y-58742452D01*
X142492452Y-58742455D01*
X142406206Y-58857664D01*
X142406202Y-58857671D01*
X142355908Y-58992517D01*
X142349501Y-59052116D01*
X142349501Y-59052123D01*
X142349500Y-59052135D01*
X142349500Y-60947870D01*
X131944317Y-60947870D01*
X131438231Y-60441784D01*
X131484138Y-60434865D01*
X131606357Y-60376007D01*
X131705798Y-60283740D01*
X131773625Y-60166260D01*
X131791499Y-60087947D01*
X132501186Y-60797634D01*
X132585484Y-60668606D01*
X132678682Y-60456135D01*
X132735638Y-60231218D01*
X132754798Y-60000005D01*
X132754798Y-59999994D01*
X132735638Y-59768781D01*
X132678682Y-59543864D01*
X132585483Y-59331390D01*
X132501186Y-59202364D01*
X131794449Y-59909101D01*
X131793673Y-59898735D01*
X131744113Y-59772459D01*
X131659535Y-59666401D01*
X131547453Y-59589984D01*
X131439700Y-59556747D01*
X132148799Y-58847648D01*
X132148799Y-58847647D01*
X132118349Y-58823949D01*
X131914302Y-58713523D01*
X131914293Y-58713520D01*
X131694860Y-58638188D01*
X131466007Y-58600000D01*
X131233993Y-58600000D01*
X131005139Y-58638188D01*
X130785706Y-58713520D01*
X130785698Y-58713523D01*
X130581644Y-58823952D01*
X130551200Y-58847646D01*
X130551200Y-58847647D01*
X131261768Y-59558215D01*
X131215862Y-59565135D01*
X131093643Y-59623993D01*
X130994202Y-59716260D01*
X130926375Y-59833740D01*
X130908500Y-59912053D01*
X130246818Y-59250371D01*
X130213333Y-59189048D01*
X130210499Y-59162690D01*
X130210499Y-59052129D01*
X130210498Y-59052123D01*
X130210497Y-59052116D01*
X130204091Y-58992517D01*
X130195514Y-58969522D01*
X130153797Y-58857671D01*
X130153793Y-58857664D01*
X130067547Y-58742455D01*
X130067544Y-58742452D01*
X129952335Y-58656206D01*
X129952328Y-58656202D01*
X129817482Y-58605908D01*
X129817483Y-58605908D01*
X129757883Y-58599501D01*
X129757881Y-58599500D01*
X129757873Y-58599500D01*
X129757864Y-58599500D01*
X127862129Y-58599500D01*
X127862123Y-58599501D01*
X127802516Y-58605908D01*
X127667671Y-58656202D01*
X127667664Y-58656206D01*
X127552455Y-58742452D01*
X127552452Y-58742455D01*
X127466206Y-58857664D01*
X127466202Y-58857671D01*
X127415908Y-58992517D01*
X127409501Y-59052116D01*
X127409501Y-59052123D01*
X127409500Y-59052135D01*
X127409500Y-60947870D01*
X101000000Y-60947870D01*
X101000000Y-55000001D01*
X102987974Y-55000001D01*
X103008453Y-55286337D01*
X103008455Y-55286351D01*
X103069473Y-55566845D01*
X103069475Y-55566853D01*
X103150264Y-55783456D01*
X103169799Y-55835832D01*
X103307372Y-56087777D01*
X103307377Y-56087785D01*
X103479405Y-56317589D01*
X103479421Y-56317607D01*
X103682392Y-56520578D01*
X103682410Y-56520594D01*
X103912214Y-56692622D01*
X103912222Y-56692627D01*
X104164168Y-56830200D01*
X104164167Y-56830200D01*
X104164171Y-56830201D01*
X104164174Y-56830203D01*
X104433147Y-56930525D01*
X104593292Y-56965362D01*
X104713648Y-56991544D01*
X104713653Y-56991544D01*
X104713659Y-56991546D01*
X104928331Y-57006900D01*
X105071669Y-57006900D01*
X105286341Y-56991546D01*
X105286348Y-56991544D01*
X105286351Y-56991544D01*
X105340066Y-56979858D01*
X105566853Y-56930525D01*
X105835826Y-56830203D01*
X105835830Y-56830200D01*
X105835832Y-56830200D01*
X105961804Y-56761413D01*
X106087783Y-56692624D01*
X106317597Y-56520588D01*
X106520588Y-56317597D01*
X106692624Y-56087783D01*
X106830203Y-55835826D01*
X106930525Y-55566853D01*
X106991546Y-55286341D01*
X107012026Y-55000001D01*
X192987974Y-55000001D01*
X193008453Y-55286337D01*
X193008455Y-55286351D01*
X193069473Y-55566845D01*
X193069475Y-55566853D01*
X193150264Y-55783456D01*
X193169799Y-55835832D01*
X193307372Y-56087777D01*
X193307377Y-56087785D01*
X193479405Y-56317589D01*
X193479421Y-56317607D01*
X193682392Y-56520578D01*
X193682410Y-56520594D01*
X193912214Y-56692622D01*
X193912222Y-56692627D01*
X194164168Y-56830200D01*
X194164167Y-56830200D01*
X194164171Y-56830201D01*
X194164174Y-56830203D01*
X194433147Y-56930525D01*
X194593292Y-56965362D01*
X194713648Y-56991544D01*
X194713653Y-56991544D01*
X194713659Y-56991546D01*
X194928331Y-57006900D01*
X195071669Y-57006900D01*
X195286341Y-56991546D01*
X195286348Y-56991544D01*
X195286351Y-56991544D01*
X195340066Y-56979858D01*
X195566853Y-56930525D01*
X195835826Y-56830203D01*
X195835830Y-56830200D01*
X195835832Y-56830200D01*
X195961804Y-56761413D01*
X196087783Y-56692624D01*
X196317597Y-56520588D01*
X196520588Y-56317597D01*
X196692624Y-56087783D01*
X196830203Y-55835826D01*
X196930525Y-55566853D01*
X196991546Y-55286341D01*
X197012026Y-55000000D01*
X196991546Y-54713659D01*
X196930525Y-54433147D01*
X196830203Y-54164174D01*
X196830201Y-54164171D01*
X196830200Y-54164167D01*
X196692627Y-53912222D01*
X196692622Y-53912214D01*
X196520594Y-53682410D01*
X196520578Y-53682392D01*
X196317607Y-53479421D01*
X196317589Y-53479405D01*
X196087785Y-53307377D01*
X196087777Y-53307372D01*
X195835831Y-53169799D01*
X195835832Y-53169799D01*
X195783456Y-53150264D01*
X195566853Y-53069475D01*
X195566846Y-53069473D01*
X195566845Y-53069473D01*
X195286351Y-53008455D01*
X195286337Y-53008453D01*
X195071671Y-52993100D01*
X195071669Y-52993100D01*
X194928331Y-52993100D01*
X194928328Y-52993100D01*
X194713662Y-53008453D01*
X194713648Y-53008455D01*
X194433154Y-53069473D01*
X194433150Y-53069474D01*
X194433147Y-53069475D01*
X194298660Y-53119636D01*
X194164167Y-53169799D01*
X193912222Y-53307372D01*
X193912214Y-53307377D01*
X193682410Y-53479405D01*
X193682392Y-53479421D01*
X193479421Y-53682392D01*
X193479405Y-53682410D01*
X193307377Y-53912214D01*
X193307372Y-53912222D01*
X193169799Y-54164167D01*
X193119636Y-54298660D01*
X193069475Y-54433147D01*
X193069474Y-54433150D01*
X193069473Y-54433154D01*
X193008455Y-54713648D01*
X193008453Y-54713662D01*
X192987974Y-54999998D01*
X192987974Y-55000001D01*
X107012026Y-55000001D01*
X107012026Y-55000000D01*
X106991546Y-54713659D01*
X106930525Y-54433147D01*
X106830203Y-54164174D01*
X106830201Y-54164171D01*
X106830200Y-54164167D01*
X106692627Y-53912222D01*
X106692622Y-53912214D01*
X106520594Y-53682410D01*
X106520578Y-53682392D01*
X106317607Y-53479421D01*
X106317589Y-53479405D01*
X106087785Y-53307377D01*
X106087777Y-53307372D01*
X105835831Y-53169799D01*
X105835832Y-53169799D01*
X105783456Y-53150264D01*
X105566853Y-53069475D01*
X105566846Y-53069473D01*
X105566845Y-53069473D01*
X105286351Y-53008455D01*
X105286337Y-53008453D01*
X105071671Y-52993100D01*
X105071669Y-52993100D01*
X104928331Y-52993100D01*
X104928328Y-52993100D01*
X104713662Y-53008453D01*
X104713648Y-53008455D01*
X104433154Y-53069473D01*
X104433150Y-53069474D01*
X104433147Y-53069475D01*
X104298660Y-53119636D01*
X104164167Y-53169799D01*
X103912222Y-53307372D01*
X103912214Y-53307377D01*
X103682410Y-53479405D01*
X103682392Y-53479421D01*
X103479421Y-53682392D01*
X103479405Y-53682410D01*
X103307377Y-53912214D01*
X103307372Y-53912222D01*
X103169799Y-54164167D01*
X103119636Y-54298660D01*
X103069475Y-54433147D01*
X103069474Y-54433150D01*
X103069473Y-54433154D01*
X103008455Y-54713648D01*
X103008453Y-54713662D01*
X102987974Y-54999998D01*
X102987974Y-55000001D01*
X101000000Y-55000001D01*
X101000000Y-51124000D01*
X101019685Y-51056961D01*
X101072489Y-51011206D01*
X101124000Y-51000000D01*
X198876000Y-51000000D01*
X198943039Y-51019685D01*
G37*
%TD.AperFunction*%
%TD*%
M02*
