M48
; DRILL file {KiCad 7.0.11} date Tue Nov 26 16:26:30 2024
; FORMAT={-:-/ absolute / inch / decimal}
; #@! TF.CreationDate,2024-11-26T16:26:30+01:00
; #@! TF.GenerationSoftware,Kicad,Pcbnew,7.0.11
; #@! TF.FileFunction,Plated,1,4,PTH
FMAT,2
INCH
; #@! TA.AperFunction,Plated,PTH,ViaDrill
T1C0.0150
; #@! TA.AperFunction,Plated,PTH,ComponentDrill
T2C0.0236
; #@! TA.AperFunction,Plated,PTH,ComponentDrill
T3C0.0276
; #@! TA.AperFunction,Plated,PTH,ComponentDrill
T4C0.0295
; #@! TA.AperFunction,Plated,PTH,ComponentDrill
T5C0.0315
; #@! TA.AperFunction,Plated,PTH,ComponentDrill
T6C0.0335
; #@! TA.AperFunction,Plated,PTH,ComponentDrill
T7C0.0354
; #@! TA.AperFunction,Plated,PTH,ComponentDrill
T8C0.0394
; #@! TA.AperFunction,Plated,PTH,ComponentDrill
T9C0.0402
; #@! TA.AperFunction,Plated,PTH,ComponentDrill
T10C0.0472
; #@! TA.AperFunction,Plated,PTH,ComponentDrill
T11C0.0492
%
G90
G05
T1
X4.0748Y-4.3898
X4.4094Y-4.1831
X4.4094Y-4.252
X4.5965Y-3.4941
X4.6358Y-4.3504
X4.7343Y-3.8484
X4.7362Y-2.7913
X4.7539Y-2.4606
X4.8622Y-4.0945
X4.8717Y-3.7681
X4.9409Y-3.8484
X4.9508Y-3.7894
X4.9544Y-2.9976
X4.9544Y-3.5426
X4.9644Y-3.5976
X5.0Y-4.2126
X5.0Y-4.8819
X5.0492Y-4.8425
X5.0644Y-3.7076
X5.0886Y-4.813
X5.1083Y-4.1634
X5.128Y-4.0157
X5.1544Y-4.2126
X5.1575Y-3.8976
X5.2044Y-3.9676
X5.2195Y-4.311
X5.2244Y-3.6206
X5.2264Y-3.6909
X5.2644Y-3.9276
X5.2756Y-4.3539
X5.282Y-3.8484
X5.315Y-4.0059
X5.3839Y-3.6319
X5.3839Y-4.2028
X5.4065Y-3.4124
X5.4724Y-4.4449
X5.5315Y-4.065
X5.5315Y-4.1929
X5.5413Y-3.878
X5.5512Y-3.5335
X5.7185Y-3.1398
X5.8858Y-4.4094
X5.8957Y-4.5768
X6.0315Y-4.313
X6.0531Y-3.7598
X6.0531Y-3.9567
X6.122Y-2.8642
X6.1319Y-2.6476
X6.1319Y-2.7362
X6.1614Y-4.9803
X6.1909Y-2.6476
X6.2239Y-4.4476
X6.2303Y-4.9936
X6.2894Y-3.4154
X6.3287Y-4.2815
X6.3583Y-4.498
X6.437Y-3.1102
X6.4469Y-2.6378
X6.4469Y-4.5276
X6.4508Y-4.8681
X6.4567Y-2.7362
X6.4862Y-4.7736
X6.5059Y-3.1102
X6.5256Y-2.6378
X6.5354Y-2.7362
X6.5551Y-4.9016
X6.565Y-4.7736
X6.5748Y-3.1102
X6.6437Y-2.8346
X6.6732Y-3.5138
X6.7815Y-4.3602
X6.811Y-4.8622
X6.8406Y-2.6969
X6.8602Y-4.6161
X6.8996Y-3.4154
X6.9291Y-4.2323
X6.9488Y-4.5079
X7.0276Y-4.7574
X7.0374Y-4.6161
X7.0676Y-4.7839
X7.0866Y-4.8327
X7.313Y-4.439
T2
X4.086Y-3.6555
X4.2828Y-3.7067
X4.3602Y-3.1732
X4.5571Y-3.2244
X7.3504Y-3.6024
X7.3563Y-2.815
X7.3563Y-3.2283
X7.3563Y-4.2717
X7.4016Y-3.4055
X7.4075Y-2.6181
X7.4075Y-3.0315
X7.4075Y-4.0748
T3
X4.5555Y-2.6575
X4.7555Y-2.6575
T4
X5.9055Y-4.6619
X5.9555Y-4.6619
X6.0055Y-4.6619
T5
X5.7579Y-3.8307
X5.7579Y-4.0236
T6
X4.1988Y-3.248
X4.1988Y-3.3465
X4.1988Y-3.4449
X7.6122Y-2.6575
X7.6122Y-2.7559
X7.6122Y-3.1299
X7.6122Y-3.2283
X7.6122Y-3.6024
X7.6122Y-3.7008
X7.6122Y-4.0748
X7.6122Y-4.1732
T7
X4.8042Y-3.2176
X4.9042Y-3.2176
X5.0713Y-2.3622
X5.1713Y-2.3622
X5.6594Y-2.3622
X5.7594Y-2.3622
X7.0374Y-3.0315
X7.0374Y-3.5039
X7.0374Y-3.9764
X7.1374Y-3.0315
X7.1374Y-3.5039
X7.1374Y-3.9764
T8
X5.4396Y-2.8891
X5.5396Y-2.8891
X5.6396Y-2.8891
T9
X6.3846Y-3.8764
X6.3846Y-3.9764
X6.4846Y-3.8764
X6.4846Y-3.9764
X6.5846Y-3.8764
X6.5846Y-3.9764
T10
X4.8656Y-4.4291
X4.8656Y-4.626
X5.3578Y-4.4291
X5.3578Y-4.626
T11
X4.1083Y-2.6575
X4.1083Y-2.8543
M30
